<svg width="26" height="30" viewBox="0 0 26 30" fill="none" xmlns="http://www.w3.org/2000/svg">
<g clip-path="url(#clip0_48_6504)">
<path d="M25.0438 21.6224C24.8866 22.6535 22.5631 23.2154 22.5631 23.2154C22.5631 23.2154 23.0854 23.4569 22.8109 23.8037C22.3866 24.3392 20.7135 24.2143 20.7135 24.2143C20.7135 24.2143 21.2068 24.9537 20.7345 25.0461C19.799 25.2297 17.3905 24.8275 16.1656 24.751L16.0479 22.6294C16.1026 22.6201 16.1576 22.611 16.2112 22.6013C16.2358 22.5972 16.261 22.5929 16.2848 22.5875C16.341 22.5776 16.3961 22.5668 16.4508 22.5557C16.7319 22.499 16.998 22.4337 17.2491 22.3597C17.3449 22.3317 17.4386 22.3024 17.5302 22.2716C20.3019 21.3516 21.1018 19.4156 20.475 18.1393C20.3451 17.8744 19.922 17.5091 19.3873 17.4454C19.2837 17.433 19.179 17.4326 19.0753 17.4443C18.7663 17.4788 18.4339 17.6241 18.1072 17.9445C17.6897 18.3542 17.2936 18.109 17.1879 17.5819C17.188 17.5804 17.1876 17.5789 17.1868 17.5777C17.1757 17.5219 17.1683 17.4654 17.1647 17.4087C17.164 17.4014 17.1633 17.3945 17.1629 17.3874C17.0987 16.3148 17.4078 15.7055 17.4078 15.7055C17.4078 15.7055 16.8234 15.3314 16.9084 14.98C17.1735 13.8895 19.9124 14.0313 19.9124 14.0313C19.9124 14.0313 19.5892 13.0044 20.2292 13.0442C21.7025 13.1359 23.3354 14.9278 23.3354 14.9278C23.3354 14.9278 23.7449 14.571 24.0217 14.6623C24.7681 14.91 24.6549 17.447 24.6549 17.447C24.6549 17.447 25.3179 17.2929 25.4887 17.8415C25.928 19.2524 24.247 21.154 24.247 21.154C24.247 21.154 25.1255 21.0857 25.0438 21.6224Z" fill="#494849"/>
<path d="M25.0438 21.6224C24.8866 22.6535 22.5631 23.2154 22.5631 23.2154C22.5631 23.2154 23.0854 23.4569 22.8109 23.8037C22.3866 24.3392 20.7135 24.2143 20.7135 24.2143C20.7135 24.2143 21.2068 24.9537 20.7345 25.0461C19.799 25.2297 17.3905 24.8275 16.1656 24.751L16.0479 22.6294C16.1026 22.6201 16.1576 22.611 16.2112 22.6013C16.2358 22.5972 16.261 22.5929 16.2848 22.5875C16.341 22.5776 16.3961 22.5668 16.4508 22.5557C16.7319 22.499 16.998 22.4337 17.2491 22.3597C17.3449 22.3317 17.4386 22.3024 17.5302 22.2716C20.3019 21.3516 21.1018 19.4156 20.475 18.1393C20.3451 17.8744 19.922 17.5091 19.3873 17.4454C19.2837 17.433 19.179 17.4326 19.0753 17.4443C18.7663 17.4788 18.4339 17.6241 18.1072 17.9445C17.6897 18.3542 17.2936 18.109 17.1879 17.5819C17.188 17.5804 17.1876 17.5789 17.1868 17.5777C17.1757 17.5219 17.1683 17.4654 17.1647 17.4087C17.164 17.4014 17.1633 17.3945 17.1629 17.3874C17.0987 16.3148 17.4078 15.7055 17.4078 15.7055C17.4078 15.7055 16.8234 15.3314 16.9084 14.98C17.1735 13.8895 19.9124 14.0313 19.9124 14.0313C19.9124 14.0313 19.5892 13.0044 20.2292 13.0442C21.7025 13.1359 23.3354 14.9278 23.3354 14.9278C23.3354 14.9278 23.7449 14.571 24.0217 14.6623C24.7681 14.91 24.6549 17.447 24.6549 17.447C24.6549 17.447 25.3179 17.2929 25.4887 17.8415C25.928 19.2524 24.247 21.154 24.247 21.154C24.247 21.154 25.1255 21.0857 25.0438 21.6224Z" fill="#3C424C"/>
<g opacity="0.35">
<path d="M20.434 20.9319C19.7746 21.8127 18.245 22.6722 17.5308 22.2713C20.3024 21.3514 21.1023 19.4153 20.4755 18.139C20.3457 17.8741 19.9225 17.5088 19.3878 17.4452C19.2842 17.4327 19.1795 17.4323 19.0759 17.444C19.2301 17.3735 19.3855 17.3406 19.5396 17.3578C20.7156 17.4895 21.7607 19.1595 20.434 20.9319Z" fill="white"/>
</g>
<path d="M25.0437 21.6223C24.8863 22.6535 22.5629 23.2153 22.5629 23.2153C22.5629 23.2153 23.0852 23.4566 22.8105 23.8038C22.3864 24.3391 20.7132 24.2142 20.7132 24.2142C20.7132 24.2142 21.2068 24.9535 20.7343 25.046C19.7985 25.2294 17.3902 24.8273 16.1653 24.7507L16.0476 22.6311C16.0476 22.631 16.0476 22.6309 16.0476 22.6308C16.0477 22.6307 16.0477 22.6306 16.0478 22.6305C16.0479 22.6304 16.0479 22.6303 16.048 22.6303C16.0481 22.6302 16.0482 22.6302 16.0484 22.6302L16.2107 22.6014C16.2356 22.597 16.2604 22.5923 16.2844 22.5876C16.3405 22.5776 16.3958 22.5663 16.4507 22.5557L17.095 22.3365C17.1469 22.34 17.1983 22.3478 17.2488 22.3599C18.2338 22.5968 18.9626 24.4236 19.9391 23.9428C20.3102 23.76 20.1162 23.0484 20.1114 23.0309C20.134 23.0424 21.528 23.7551 21.8939 23.2936C22.1326 22.9918 21.3046 22.287 21.3046 22.287C21.3046 22.287 23.4313 22.8818 23.9553 22.112C24.2198 21.7232 22.8714 21.5436 22.8714 21.5436C22.8714 21.5436 25.3176 19.7458 24.8037 18.2322C24.6979 17.9203 23.9226 18.6288 23.9226 18.6288C23.9226 18.6288 24.4241 15.6916 23.7752 15.4759C23.5349 15.3962 23.1172 16.1601 23.1172 16.1601C23.1172 16.1601 22.0365 14.822 20.6416 14.8943C20.028 14.9262 19.4629 15.2515 19.2071 15.8395C19.0168 16.2779 18.9573 16.8075 19.3866 17.4457C18.9963 17.3995 18.5464 17.5136 18.1068 17.9449C17.6891 18.3548 17.2932 18.1097 17.1873 17.5826C17.1873 17.5811 17.187 17.5796 17.1865 17.5783C17.176 17.5117 17.1681 17.4546 17.1642 17.4092C17.1633 17.4019 17.1629 17.3949 17.1625 17.3879C17.0982 16.3153 17.4076 15.706 17.4076 15.706C17.4076 15.706 16.8228 15.332 16.908 14.9804C17.1732 13.89 19.9119 14.0319 19.9119 14.0319C19.9119 14.0319 19.5889 13.0049 20.2289 13.0447C21.7023 13.1364 23.3347 14.9285 23.3347 14.9285C23.3347 14.9285 23.7444 14.5715 24.0212 14.663C24.7613 14.9087 24.6562 17.4061 24.6544 17.4474C24.6544 17.4474 24.6544 17.4474 24.6549 17.4474C24.6769 17.4425 25.3206 17.3027 25.4882 17.842C25.928 19.2524 24.2468 21.154 24.2468 21.154C24.2468 21.154 25.1255 21.0857 25.0437 21.6223Z" fill="white"/>
<path d="M20.0913 25.2463C19.3839 25.2463 18.4367 25.1401 17.5734 25.0434C17.0409 24.9837 16.5379 24.9272 16.1563 24.9034C16.1361 24.9025 16.1163 24.8975 16.0981 24.8888C16.0798 24.8801 16.0635 24.8678 16.05 24.8527C16.0365 24.8376 16.0261 24.8198 16.0195 24.8006C16.0129 24.7814 16.0101 24.761 16.0113 24.7407C16.0126 24.7204 16.0178 24.7005 16.0268 24.6822C16.0357 24.664 16.0482 24.6477 16.0634 24.6343C16.0787 24.621 16.0964 24.6109 16.1156 24.6045C16.1348 24.5981 16.155 24.5957 16.1751 24.5973C16.5645 24.6216 17.0706 24.6785 17.607 24.7386C18.7694 24.8689 20.0869 25.0165 20.7057 24.8954C20.7663 24.8835 20.7753 24.8618 20.7794 24.8529C20.8235 24.7457 20.6962 24.4629 20.5874 24.3L20.4127 24.0383L20.7247 24.0614C21.1681 24.0943 22.3855 24.095 22.692 23.7081C22.7433 23.6432 22.7415 23.6028 22.7358 23.5782C22.7131 23.4826 22.5644 23.3847 22.4999 23.3552L22.1 23.1704L22.5276 23.0667C23.1464 22.9169 24.7776 22.3611 24.8937 21.5997C24.9072 21.511 24.8806 21.4687 24.856 21.4417C24.7442 21.3198 24.4301 21.2948 24.2581 21.3077L23.8835 21.3359L24.1332 21.0528C24.1495 21.0345 25.752 19.1994 25.3443 17.888C25.218 17.4829 24.7106 17.5924 24.6892 17.5971L24.4954 17.6408L24.5037 17.4407C24.5484 16.4355 24.4137 14.9543 23.9746 14.8086C23.8412 14.7642 23.5787 14.9199 23.4351 15.0445L23.3236 15.1411L23.2241 15.0321C23.2081 15.0146 21.6154 13.2843 20.2206 13.1975C20.1087 13.1905 20.0666 13.2275 20.0446 13.2559C19.9288 13.4046 20.0037 13.8116 20.058 13.9851L20.1237 14.1956L19.9054 14.185C19.1786 14.1477 17.2497 14.2243 17.0568 15.0172C17.0122 15.2008 17.3296 15.4738 17.4904 15.5766L17.6071 15.6517L17.5439 15.7761C17.5413 15.7814 17.2544 16.3677 17.315 17.3788C17.3333 17.6825 17.4482 17.919 17.6078 17.9815C17.7524 18.0379 17.9019 17.9329 18.0019 17.835C18.5651 17.2828 19.1204 17.2425 19.4871 17.3059C20.0238 17.3989 20.4592 17.7614 20.6115 18.0716C20.925 18.7102 20.8957 19.4861 20.5306 20.2007C19.8729 21.4885 18.2477 22.429 16.0719 22.7814C16.0325 22.7869 15.9925 22.7767 15.9605 22.7528C15.9286 22.7289 15.9071 22.6934 15.9008 22.6538C15.8945 22.6141 15.9039 22.5736 15.9269 22.5409C15.9499 22.5081 15.9846 22.4858 16.0238 22.4786C18.1032 22.1411 19.6479 21.2596 20.2604 20.0595C20.5807 19.4329 20.6094 18.7575 20.3393 18.2073C20.2405 18.006 19.8949 17.6869 19.4357 17.6075C19.0098 17.5338 18.587 17.6883 18.2136 18.0543C17.9013 18.3605 17.6312 18.3187 17.4979 18.2667C17.2238 18.1595 17.0375 17.8261 17.0117 17.3967C16.9617 16.5621 17.1301 15.9964 17.2205 15.7596C17.0305 15.6154 16.6766 15.293 16.7616 14.9435C17.0131 13.9094 19.0262 13.8585 19.7166 13.8708C19.6713 13.6424 19.6375 13.2833 19.8048 13.067C19.8731 12.9785 20.0036 12.8765 20.2391 12.8909C21.5651 12.9734 22.9724 14.3315 23.3512 14.7221C23.5142 14.6053 23.8154 14.4324 24.0694 14.5167C24.4467 14.642 24.6758 15.1705 24.7699 16.1326C24.8149 16.5938 24.8162 17.0353 24.812 17.273C25.1047 17.261 25.4986 17.3604 25.6339 17.7956C26.0022 18.9798 25.0069 20.4375 24.5605 21.0107C24.7394 21.0332 24.9482 21.0912 25.0779 21.2323C25.1779 21.3414 25.2179 21.4842 25.1937 21.6455C25.0581 22.5348 23.5643 23.0802 22.9048 23.2792C22.9613 23.3416 23.01 23.4173 23.031 23.5068C23.0528 23.5994 23.0528 23.7427 22.929 23.8991C22.5654 24.358 21.5003 24.3925 20.9796 24.3797C21.0619 24.5574 21.1334 24.7906 21.0597 24.97C21.0254 25.0536 20.9462 25.1611 20.7636 25.1964C20.5836 25.2316 20.354 25.2463 20.0913 25.2463Z" fill="#1D1C22"/>
<path d="M20.0913 25.2463C19.3839 25.2463 18.4367 25.1401 17.5734 25.0434C17.0409 24.9837 16.5379 24.9272 16.1563 24.9034C16.1361 24.9025 16.1163 24.8975 16.0981 24.8888C16.0798 24.8801 16.0635 24.8678 16.05 24.8527C16.0365 24.8376 16.0261 24.8198 16.0195 24.8006C16.0129 24.7814 16.0101 24.761 16.0113 24.7407C16.0126 24.7204 16.0178 24.7005 16.0268 24.6822C16.0357 24.664 16.0482 24.6477 16.0634 24.6343C16.0787 24.621 16.0964 24.6109 16.1156 24.6045C16.1348 24.5981 16.155 24.5957 16.1751 24.5973C16.5645 24.6216 17.0706 24.6785 17.607 24.7386C18.7694 24.8689 20.0869 25.0165 20.7057 24.8954C20.7663 24.8835 20.7753 24.8618 20.7794 24.8529C20.8235 24.7457 20.6962 24.4629 20.5874 24.3L20.4127 24.0383L20.7247 24.0614C21.1681 24.0943 22.3855 24.095 22.692 23.7081C22.7433 23.6432 22.7415 23.6028 22.7358 23.5782C22.7131 23.4826 22.5644 23.3847 22.4999 23.3552L22.1 23.1704L22.5276 23.0667C23.1464 22.9169 24.7776 22.3611 24.8937 21.5997C24.9072 21.511 24.8806 21.4687 24.856 21.4417C24.7442 21.3198 24.4301 21.2948 24.2581 21.3077L23.8835 21.3359L24.1332 21.0528C24.1495 21.0345 25.752 19.1994 25.3443 17.888C25.218 17.4829 24.7106 17.5924 24.6892 17.5971L24.4954 17.6408L24.5037 17.4407C24.5484 16.4355 24.4137 14.9543 23.9746 14.8086C23.8412 14.7642 23.5787 14.9199 23.4351 15.0445L23.3236 15.1411L23.2241 15.0321C23.2081 15.0146 21.6154 13.2843 20.2206 13.1975C20.1087 13.1905 20.0666 13.2275 20.0446 13.2559C19.9288 13.4046 20.0037 13.8116 20.058 13.9851L20.1237 14.1956L19.9054 14.185C19.1786 14.1477 17.2497 14.2243 17.0568 15.0172C17.0122 15.2008 17.3296 15.4738 17.4904 15.5766L17.6071 15.6517L17.5439 15.7761C17.5413 15.7814 17.2544 16.3677 17.315 17.3788C17.3333 17.6825 17.4482 17.919 17.6078 17.9815C17.7524 18.0379 17.9019 17.9329 18.0019 17.835C18.5651 17.2828 19.1204 17.2425 19.4871 17.3059C20.0238 17.3989 20.4592 17.7614 20.6115 18.0716C20.925 18.7102 20.8957 19.4861 20.5306 20.2007C19.8729 21.4885 18.2477 22.429 16.0719 22.7814C16.0325 22.7869 15.9925 22.7767 15.9605 22.7528C15.9286 22.7289 15.9071 22.6934 15.9008 22.6538C15.8945 22.6141 15.9039 22.5736 15.9269 22.5409C15.9499 22.5081 15.9846 22.4858 16.0238 22.4786C18.1032 22.1411 19.6479 21.2596 20.2604 20.0595C20.5807 19.4329 20.6094 18.7575 20.3393 18.2073C20.2405 18.006 19.8949 17.6869 19.4357 17.6075C19.0098 17.5338 18.587 17.6883 18.2136 18.0543C17.9013 18.3605 17.6312 18.3187 17.4979 18.2667C17.2238 18.1595 17.0375 17.8261 17.0117 17.3967C16.9617 16.5621 17.1301 15.9964 17.2205 15.7596C17.0305 15.6154 16.6766 15.293 16.7616 14.9435C17.0131 13.9094 19.0262 13.8585 19.7166 13.8708C19.6713 13.6424 19.6375 13.2833 19.8048 13.067C19.8731 12.9785 20.0036 12.8765 20.2391 12.8909C21.5651 12.9734 22.9724 14.3315 23.3512 14.7221C23.5142 14.6053 23.8154 14.4324 24.0694 14.5167C24.4467 14.642 24.6758 15.1705 24.7699 16.1326C24.8149 16.5938 24.8162 17.0353 24.812 17.273C25.1047 17.261 25.4986 17.3604 25.6339 17.7956C26.0022 18.9798 25.0069 20.4375 24.5605 21.0107C24.7394 21.0332 24.9482 21.0912 25.0779 21.2323C25.1779 21.3414 25.2179 21.4842 25.1937 21.6455C25.0581 22.5348 23.5643 23.0802 22.9048 23.2792C22.9613 23.3416 23.01 23.4173 23.031 23.5068C23.0528 23.5994 23.0528 23.7427 22.929 23.8991C22.5654 24.358 21.5003 24.3925 20.9796 24.3797C21.0619 24.5574 21.1334 24.7906 21.0597 24.97C21.0254 25.0536 20.9462 25.1611 20.7636 25.1964C20.5836 25.2316 20.354 25.2463 20.0913 25.2463Z" fill="#1D1C22"/>
<g opacity="0.35">
<path d="M25.0436 21.6224C24.8864 22.6535 22.563 23.2154 22.563 23.2154C22.563 23.2154 23.0853 23.4569 22.8107 23.8038C22.3864 24.3392 20.7133 24.2143 20.7133 24.2143C20.7133 24.2143 21.2066 24.9537 20.7343 25.0461C19.7988 25.2297 17.3903 24.8276 16.1654 24.751L16.1404 24.2975C17.4348 24.4244 19.1203 24.8846 19.8008 24.407C20.2014 24.1257 19.8534 23.5104 19.8534 23.5104C19.8534 23.5104 21.373 23.9129 21.7973 23.3775C22.0719 23.0305 21.1192 22.3913 21.1192 22.3913C21.1192 22.3913 23.703 22.5378 23.7988 21.779C23.8545 21.3371 22.7359 21.3659 22.7359 21.3659C22.7359 21.3659 25.4615 19.1394 24.8958 18.2018C24.692 17.8644 24.0946 18.114 24.0946 18.114C24.0946 18.114 24.7302 15.7882 23.8135 14.6625C23.8857 14.6448 23.9575 14.6412 24.0221 14.6632C24.7684 14.9109 24.6552 17.4479 24.6552 17.4479C24.6552 17.4479 25.3182 17.2938 25.489 17.8423C25.9278 19.2524 24.2468 21.154 24.2468 21.154C24.2468 21.154 25.1253 21.0857 25.0436 21.6224Z" fill="#1D1C22"/>
</g>
<path d="M10.0833 2.8218C10.0833 3.70328 10.6845 4.42322 11.4408 4.46581C11.4643 4.46729 11.4883 4.46804 11.5122 4.46804C12.3015 4.46804 12.9404 3.731 12.9404 2.82191C12.9404 1.91282 12.3011 1.17578 11.5122 1.17578C11.0921 1.17578 10.7142 1.385 10.4525 1.71741C10.223 2.00915 10.0833 2.39668 10.0833 2.8218Z" fill="#F99191"/>
<g opacity="0.35">
<path d="M11.622 1.84783C11.6718 2.28973 11.486 4.04875 11.4404 4.46581C11.4639 4.46729 11.4879 4.46804 11.5118 4.46804C12.3011 4.46804 12.94 3.731 12.94 2.82191C12.94 1.91282 12.3008 1.17578 11.5118 1.17578C11.0917 1.17578 10.7138 1.385 10.4521 1.71741C10.7689 1.59252 11.5639 1.33264 11.622 1.84783Z" fill="#1D1C22"/>
</g>
<path d="M5.89519 2.8218C5.89519 3.70328 5.29397 4.42322 4.53762 4.46581C4.51405 4.46729 4.49006 4.46804 4.46617 4.46804C3.67688 4.46804 3.03809 3.731 3.03809 2.82191C3.03809 1.91282 3.6773 1.17578 4.46617 1.17578C4.88628 1.17578 5.26419 1.385 5.52591 1.71741C5.75544 2.00915 5.89519 2.39668 5.89519 2.8218Z" fill="#F99191"/>
<g opacity="0.35">
<path d="M4.35696 1.84783C4.30729 2.28973 4.49303 4.04875 4.5386 4.46581C4.51503 4.46729 4.49103 4.46804 4.46714 4.46804C3.67786 4.46804 3.03906 3.731 3.03906 2.82191C3.03906 1.91282 3.67828 1.17578 4.46714 1.17578C4.88725 1.17578 5.26516 1.385 5.52689 1.71741C5.20939 1.59252 4.41484 1.33264 4.35696 1.84783Z" fill="#1D1C22"/>
</g>
<path d="M9.41681 19.4509C9.41681 19.4509 7.50958 19.2665 7.07684 21.7408C6.88299 22.8489 7.22417 24.8901 8.7154 26.7217C8.7154 26.7217 7.51568 27.0163 7.38813 27.9251C7.22828 29.0658 8.99228 29.0476 8.99228 29.0476H9.58582C9.98903 29.0477 10.3853 28.9414 10.7352 28.7394C11.0852 28.5373 11.3769 28.2465 11.5812 27.8958C12.6572 26.0491 14.0449 22.1548 10.6102 17.4802" fill="white"/>
<g opacity="0.35">
<path d="M12.4131 25.9993C12.2093 26.6618 11.9303 27.2983 11.5817 27.8962C11.3773 28.247 11.0856 28.5378 10.7356 28.7398C10.3856 28.9418 9.98933 29.0481 9.5861 29.0481H8.99287C8.99287 29.0481 7.22856 29.0662 7.38842 27.9254C7.40712 27.7912 7.45098 27.6617 7.51765 27.544C7.9024 28.1887 9.14473 28.1761 9.14473 28.1761H9.78405C10.2185 28.1761 10.6453 28.0615 11.0224 27.8438C11.3995 27.6261 11.7137 27.3128 11.9339 26.9349C12.1103 26.632 12.2702 26.3197 12.4131 25.9993Z" fill="#1D1C22"/>
</g>
<path d="M8.98354 29.2014C8.87388 29.2014 7.89464 29.1865 7.4477 28.6726C7.26605 28.4638 7.19512 28.2053 7.23722 27.904C7.34246 27.1491 8.08007 26.7831 8.45798 26.6433C7.11209 24.895 6.71492 22.9242 6.92656 21.7142C7.37845 19.1305 9.41018 19.2961 9.43122 19.2983C9.47133 19.3021 9.50829 19.3219 9.53396 19.3532C9.55964 19.3845 9.57193 19.4249 9.56814 19.4653C9.56434 19.5058 9.54477 19.5431 9.51372 19.569C9.48268 19.5949 9.44271 19.6073 9.4026 19.6035C9.33061 19.597 7.62828 19.4693 7.22628 21.7675C7.01959 22.9492 7.43612 24.9094 8.83273 26.6248L8.98638 26.814L8.75128 26.8716C8.74076 26.8743 7.64975 27.1538 7.53852 27.9475C7.50894 28.1589 7.55377 28.3298 7.67532 28.4705C8.04692 28.8985 8.98028 28.8961 8.9908 28.8953H9.58571C9.96232 28.8944 10.3322 28.7947 10.6591 28.6058C10.9859 28.417 11.2585 28.1457 11.45 27.8184C12.5347 25.9569 13.852 22.1504 10.488 17.572C10.4756 17.5558 10.4665 17.5374 10.4612 17.5176C10.456 17.4979 10.4547 17.4773 10.4574 17.4571C10.4601 17.4368 10.4669 17.4173 10.4772 17.3997C10.4875 17.3821 10.5012 17.3668 10.5174 17.3546C10.5337 17.3425 10.5522 17.3337 10.5719 17.3288C10.5916 17.324 10.612 17.3232 10.632 17.3264C10.652 17.3296 10.6711 17.3368 10.6883 17.3477C10.7055 17.3585 10.7204 17.3726 10.7321 17.3893C14.2003 22.1098 12.8346 26.047 11.712 27.9739C11.4935 28.347 11.1825 28.6564 10.8097 28.8716C10.4369 29.0868 10.015 29.2004 9.5855 29.2014H8.98333H8.98354Z" fill="#1D1C22"/>
<path d="M10.3611 26.8801C10.3525 26.88 10.3439 26.8793 10.3354 26.8778C10.3263 26.8762 9.41732 26.7236 8.69654 26.8723C8.65741 26.8796 8.61702 26.871 8.58404 26.8486C8.55106 26.8261 8.52813 26.7915 8.52017 26.7522C8.5122 26.7128 8.51984 26.6719 8.54145 26.6382C8.56305 26.6045 8.5969 26.5807 8.63571 26.5719C9.41332 26.4117 10.3471 26.5688 10.3864 26.5755C10.4239 26.5818 10.4578 26.6022 10.4812 26.6326C10.5045 26.663 10.5158 26.7012 10.5126 26.7395C10.5094 26.7778 10.4921 26.8135 10.464 26.8396C10.4359 26.8656 10.3992 26.8801 10.3611 26.8801Z" fill="#1D1C22"/>
<path d="M9.90918 29.1783C9.90242 29.1783 9.89567 29.1778 9.88897 29.1769C9.60483 29.1388 9.06043 28.8828 9.03223 28.1868C9.00866 27.6053 9.55768 27.3372 9.8513 27.2774C9.89076 27.2693 9.93182 27.2773 9.96544 27.2997C9.99906 27.322 10.0225 27.357 10.0306 27.3968C10.0387 27.4367 10.0307 27.4781 10.0085 27.512C9.98634 27.546 9.9517 27.5696 9.91223 27.5777C9.88781 27.583 9.3169 27.709 9.33584 28.1743C9.36078 28.7896 9.90581 28.8698 9.92907 28.873C9.96722 28.8782 10.002 28.8978 10.0264 28.9279C10.0507 28.958 10.0629 28.9963 10.0604 29.035C10.0578 29.0738 10.0408 29.1101 10.0128 29.1367C9.9847 29.1633 9.94768 29.1782 9.90918 29.1783Z" fill="#1D1C22"/>
<path d="M8.8844 27.2585C8.70844 27.3585 8.54469 27.4683 8.41472 27.5995C8.35325 27.662 8.30104 27.7332 8.25971 27.8108C8.22444 27.8832 8.20523 27.9624 8.2034 28.0431C8.20572 28.1316 8.20803 28.2194 8.23171 28.3012C8.23982 28.3432 8.25655 28.3819 8.26939 28.4218C8.2876 28.4595 8.30254 28.4987 8.32601 28.5335C8.36854 28.6064 8.42077 28.6731 8.48123 28.7317C8.51228 28.7606 8.54438 28.7889 8.57795 28.8147C8.59478 28.8278 8.61215 28.8399 8.6293 28.8518C8.64646 28.8637 8.66635 28.8757 8.67613 28.8817L8.69129 28.891C8.72424 28.9113 8.74825 28.9435 8.75842 28.9811C8.76859 29.0187 8.76415 29.0588 8.74601 29.0932C8.72786 29.1276 8.69739 29.1537 8.66081 29.1662C8.62423 29.1786 8.58431 29.1765 8.54922 29.1603C8.52095 29.1473 8.49338 29.1329 8.46661 29.117C8.44145 29.1027 8.41799 29.0865 8.39462 29.0702C8.37126 29.054 8.34916 29.0362 8.32664 29.0187L8.2635 28.9618C8.18031 28.8821 8.11009 28.7897 8.05544 28.6879C7.9421 28.4839 7.91053 28.2419 7.93652 28.0223C7.95357 27.9039 7.99367 27.785 8.06018 27.6887C8.12555 27.597 8.20688 27.5181 8.30022 27.4559L8.36852 27.4134C8.39189 27.4006 8.41588 27.3893 8.43945 27.3774C8.48637 27.3545 8.53483 27.335 8.58447 27.3191C8.68137 27.2857 8.78222 27.2653 8.8844 27.2585Z" fill="#1D1C22"/>
<path d="M7.63096 20.3705C7.62412 20.4107 7.61717 20.451 7.61118 20.4907C6.86525 25.0721 8.12926 29.0399 5.78003 29.0399C4.20462 29.0399 3.20928 29.161 3.00964 28.4061C2.71319 27.2862 4.39742 27.0973 4.39742 27.0973C4.39742 27.0973 4.68019 25.6329 4.00372 23.3974C3.98015 23.32 3.95559 23.2415 3.93005 23.1618C3.82987 22.8548 3.2861 23.2954 3.03721 22.9706C2.82127 22.6882 3.47679 21.7174 3.40692 21.4732C3.39071 21.4161 2.5166 21.4732 2.6049 21.0175C2.6713 20.6763 2.85642 19.9785 2.81137 18.9853C2.77843 18.2641 2.63142 17.4806 2.76338 16.1611C2.89493 14.8491 3.1816 13.1491 3.6859 11.0732L7.63096 20.3705Z" fill="#3C424C"/>
<g opacity="0.35">
<path d="M2.60488 21.0171C2.67129 20.676 2.8563 19.9783 2.81147 18.9852C2.77842 18.2638 2.6314 17.4804 2.76327 16.161C2.89502 14.849 3.01068 14.9663 2.97521 16.1185C2.93975 17.2655 3.18569 18.2532 3.21853 18.9754C3.26325 19.9685 3.22431 20.4465 3.15791 20.7877C3.0694 21.2438 3.90762 20.9835 3.92404 21.0407C3.99392 21.2849 3.3265 22.6885 3.54224 22.971C3.56885 23.0062 3.60266 23.0352 3.64137 23.056C3.43974 23.0859 3.18601 23.1648 3.03709 22.971C2.82136 22.6885 3.47699 21.7178 3.40701 21.4736C3.39069 21.4161 2.51669 21.4737 2.60488 21.0171Z" fill="white"/>
</g>
<g opacity="0.35">
<path d="M3.8913 23.0946C3.80279 23.1015 3.71587 23.0961 3.64136 23.0559C3.74649 23.0406 3.83657 23.0382 3.8913 23.0946Z" fill="white"/>
</g>
<path d="M7.61144 20.4908C7.29236 22.4506 7.34098 24.2985 7.31741 25.7712C7.28584 27.741 7.12451 29.04 5.78093 29.04C4.20541 29.04 3.21028 29.1612 3.01054 28.4061C2.7143 27.2864 4.39842 27.0974 4.39842 27.0974C4.39842 27.0974 4.68098 25.6328 4.00451 23.3974C4.13669 22.7902 4.39726 22.3065 4.72845 21.9212C5.54899 20.9665 6.80385 20.6176 7.61144 20.4908Z" fill="white"/>
<g opacity="0.35">
<path d="M7.23061 27.3048C7.09159 28.3869 6.73346 29.04 5.78043 29.04C4.20491 29.04 3.20978 29.1612 3.01003 28.4061C2.94205 28.1496 2.97846 27.9419 3.07454 27.774C3.38342 28.3773 4.38571 28.2697 5.90387 28.2697C6.61686 28.2697 7.01108 27.9193 7.23061 27.3048Z" fill="#1D1C22"/>
</g>
<path d="M4.7463 29.2004C3.71718 29.2004 3.04302 29.1227 2.8639 28.4458C2.7835 28.1425 2.82297 27.8701 2.98125 27.6364C3.29359 27.175 3.98722 27.0111 4.26515 26.9624C4.31345 26.5769 4.42301 25.1651 3.78653 23.2098C3.78579 23.2075 3.78491 23.2053 3.7839 23.2032C3.75232 23.1916 3.64709 23.21 3.58321 23.2211C3.39167 23.2546 3.10216 23.305 2.91789 23.0643C2.73751 22.8284 2.91789 22.4058 3.09206 21.9965C3.14468 21.8728 3.21761 21.7017 3.24771 21.5946L3.23992 21.5937C3.02944 21.5689 2.67711 21.5274 2.5223 21.3135C2.456 21.2218 2.43327 21.1092 2.45674 20.988C2.46558 20.9428 2.47642 20.8913 2.48831 20.8339C2.56692 20.4606 2.69879 19.8356 2.66016 18.9921C2.65206 18.8131 2.6367 18.6283 2.62028 18.4327C2.56987 17.8298 2.51273 17.1464 2.61291 16.1454C2.76025 14.6791 3.07143 12.9602 3.53901 11.0365C3.55043 10.9991 3.57558 10.9676 3.60931 10.9483C3.64303 10.929 3.68279 10.9234 3.72043 10.9328C3.75808 10.9421 3.79077 10.9656 3.81182 10.9984C3.83287 11.0313 3.84069 11.071 3.83367 11.1095C3.3761 12.9925 3.05849 14.7446 2.91495 16.1762C2.81749 17.1489 2.87285 17.8173 2.92273 18.4065C2.93936 18.6051 2.95504 18.7927 2.96346 18.9776C3.00356 19.8608 2.86685 20.5096 2.78519 20.8972C2.77351 20.9529 2.76298 21.0027 2.75446 21.0459C2.7453 21.0934 2.75582 21.1159 2.76719 21.1317C2.8437 21.2374 3.13479 21.2717 3.27465 21.2882C3.42293 21.3056 3.52101 21.3171 3.55321 21.4296C3.59531 21.5772 3.51554 21.7768 3.37063 22.1168C3.27854 22.333 3.08648 22.783 3.15784 22.8759C3.2254 22.964 3.34379 22.9502 3.5309 22.9184C3.71181 22.8865 3.98532 22.8389 4.07467 23.1135C4.8488 25.4924 4.56013 27.0604 4.5475 27.126L4.52646 27.2366L4.4148 27.2494C4.40627 27.2502 3.53911 27.354 3.23129 27.8094C3.12405 27.9687 3.09974 28.1503 3.15689 28.3663C3.29464 28.8867 3.9186 28.9033 5.20461 28.8902C5.38688 28.8883 5.57905 28.8863 5.78079 28.8863C7.08395 28.8863 7.15446 27.5493 7.17319 24.9871C7.18372 23.5996 7.19487 22.027 7.48112 20.3441C7.48844 20.3045 7.51092 20.2694 7.54369 20.2464C7.57646 20.2234 7.61689 20.2143 7.65624 20.2211C7.69559 20.2279 7.7307 20.2501 7.75397 20.2829C7.77725 20.3156 7.78682 20.3563 7.78063 20.3961C7.49859 22.0543 7.48712 23.614 7.47701 24.9893C7.46828 26.1878 7.4607 27.2228 7.26086 27.955C7.03028 28.7996 6.55997 29.193 5.78079 29.193C5.5801 29.193 5.38899 29.1949 5.20766 29.1968C5.04686 29.1988 4.89268 29.2004 4.7463 29.2004Z" fill="#1D1C22"/>
<g opacity="0.35">
<path d="M7.61139 20.4908C7.2923 22.4506 7.34093 24.2985 7.31735 25.7712C7.07236 25.5048 6.95123 25.3265 6.95123 25.3265C6.95123 25.3265 6.61583 26.1418 6.01987 25.1303C5.81403 24.7808 5.42854 23.0275 5.42854 23.0275C5.42854 23.0275 5.03916 23.5173 4.87078 23.2364C4.73134 23.0037 4.67251 22.5354 4.72797 21.9258C4.72797 21.9244 4.72797 21.9228 4.72797 21.9213C5.54893 20.9665 6.80379 20.6176 7.61139 20.4908Z" fill="#1D1C22"/>
</g>
<path d="M16.4297 17.5571L15.2766 23.2265L14.4789 27.1478C9.4428 28.073 7.02717 24.5217 7.02717 24.5217C7.02717 24.5217 6.69177 25.337 6.09581 24.3254C5.88997 23.9758 5.50437 22.2226 5.50437 22.2226C5.50437 22.2226 5.11499 22.7125 4.94661 22.4315C4.80728 22.1989 4.74834 21.7306 4.8038 21.121C4.81033 21.0467 4.81906 20.9696 4.82927 20.8907C4.82927 20.8907 3.6927 18.0126 5.01996 15.1576C5.521 14.0809 13.773 8.82656 13.8372 12.2088C13.8833 14.6425 16.4297 17.5571 16.4297 17.5571Z" fill="white"/>
<g opacity="0.35">
<path d="M15.2766 23.2264L14.4789 27.1477C9.44288 28.0729 7.02725 24.5217 7.02725 24.5217C7.02725 24.5217 6.69185 25.337 6.09589 24.3254C5.89004 23.9758 5.50445 22.2226 5.50445 22.2226C5.50445 22.2226 5.11507 22.7124 4.94669 22.4315C4.80736 22.1988 4.74842 21.7306 4.80388 21.121C4.84345 21.4464 4.94448 22.0302 5.15643 21.9408C5.44846 21.8178 5.78354 21.3344 5.87499 21.4135C5.96645 21.4925 6.44097 23.287 7.02746 23.1582C7.61395 23.0295 7.5125 22.5867 7.77381 22.7362C8.01438 22.8738 12.7618 24.834 15.2766 23.2264Z" fill="#1D1C22"/>
</g>
<path d="M4.87923 20.8978C4.90628 21.0904 4.9148 21.2763 4.92648 21.4596C4.93164 21.5514 4.93701 21.642 4.94395 21.7317C4.95311 21.8212 4.96237 21.9098 4.97752 21.9958C4.99086 22.0788 5.01081 22.1604 5.03719 22.2401C5.04936 22.2755 5.06417 22.31 5.0815 22.3431C5.08448 22.3491 5.088 22.3548 5.09202 22.3601C5.09276 22.3621 5.08865 22.3585 5.08623 22.3591C5.07897 22.3598 5.09613 22.3623 5.12233 22.3508C5.15359 22.3367 5.18305 22.3189 5.2101 22.2977C5.27465 22.2476 5.33365 22.1906 5.38606 22.1277L5.58538 21.8881L5.65284 22.1905C5.71598 22.4721 5.78228 22.7548 5.85279 23.035C5.9233 23.3153 5.99644 23.5955 6.08168 23.8668C6.10273 23.9351 6.12556 24.001 6.14872 24.0667C6.1604 24.0995 6.17355 24.1293 6.18576 24.1608C6.1912 24.1754 6.19764 24.1896 6.20502 24.2033L6.22428 24.2424C6.29173 24.3593 6.37087 24.4727 6.45664 24.561C6.49969 24.6035 6.54536 24.6398 6.58735 24.6599C6.62934 24.68 6.66228 24.6831 6.69343 24.6752C6.72458 24.6674 6.76278 24.6415 6.79867 24.6025C6.81706 24.5816 6.83378 24.5593 6.84866 24.5358C6.85644 24.5237 6.8637 24.511 6.87065 24.4984C6.8776 24.4857 6.88486 24.4705 6.8877 24.464L6.99588 24.214L7.15374 24.436C7.19794 24.4984 7.25172 24.5677 7.30476 24.6319C7.3578 24.696 7.41389 24.7609 7.47072 24.8239C7.5848 24.9494 7.70364 25.0708 7.82726 25.188C8.07508 25.4215 8.33909 25.637 8.61729 25.8327C9.17378 26.2232 9.7829 26.5396 10.4264 26.7555C10.5065 26.7835 10.5867 26.8113 10.6685 26.8336C10.7503 26.8559 10.8309 26.8825 10.9129 26.9039C11.0779 26.9437 11.2422 26.9862 11.4096 27.0146C11.5756 27.0503 11.7445 27.0691 11.9124 27.0939C11.9966 27.1045 12.0814 27.1099 12.1659 27.1182C12.2504 27.1265 12.3349 27.1346 12.4199 27.1362L12.6745 27.1468C12.7594 27.1502 12.8445 27.1468 12.9294 27.1468C13.0144 27.1446 13.0995 27.1484 13.1844 27.1412C13.2692 27.1358 13.3541 27.1286 13.4388 27.1206C13.4809 27.1165 13.523 27.1136 13.5657 27.1085C13.6084 27.1034 13.6499 27.097 13.692 27.0931C13.7762 27.0832 13.8614 27.078 13.9468 27.0745C14.1172 27.0645 14.2884 27.0587 14.4705 27.0991L14.4738 27.0998C14.4844 27.1022 14.494 27.1077 14.5014 27.1157C14.5088 27.1237 14.5136 27.1338 14.5152 27.1446C14.5168 27.1554 14.5151 27.1664 14.5104 27.1763C14.5056 27.1861 14.4981 27.1942 14.4886 27.1996C14.1671 27.3834 13.8118 27.4241 13.4604 27.4379C13.3724 27.4404 13.2844 27.4434 13.1964 27.4486C13.1084 27.4538 13.0203 27.4518 12.9323 27.4538C12.8442 27.4538 12.756 27.4576 12.6679 27.4538L12.4036 27.4432C12.3155 27.4413 12.2276 27.4325 12.1397 27.4245C12.0518 27.4164 11.9639 27.4099 11.8766 27.3991C11.7019 27.3735 11.5263 27.3537 11.3534 27.3168C11.1792 27.2869 11.0079 27.243 10.8361 27.2013C10.7507 27.179 10.6663 27.1524 10.5812 27.1281C10.4962 27.1037 10.4129 27.0759 10.3287 27.0467C9.65777 26.8214 9.02256 26.4918 8.4428 26.0848C8.15278 25.8807 7.87752 25.656 7.6191 25.4125C7.49008 25.2903 7.36562 25.1632 7.24572 25.0312C7.18594 24.9649 7.12733 24.8976 7.07039 24.8282C7.01346 24.7589 6.95926 24.6902 6.90285 24.6103L7.16837 24.5823C7.1569 24.6093 7.14837 24.6254 7.13764 24.646C7.1269 24.6666 7.11659 24.6839 7.10449 24.7024C7.08048 24.7401 7.05356 24.7759 7.02398 24.8093C6.96263 24.8765 6.88149 24.9433 6.77225 24.9725C6.66302 25.0017 6.54399 24.9819 6.45843 24.9383C6.37014 24.8958 6.30247 24.8381 6.2429 24.779C6.12662 24.6592 6.0399 24.5313 5.96224 24.3976L5.93277 24.3394C5.92314 24.3211 5.9146 24.3022 5.90719 24.2828C5.89288 24.2466 5.87699 24.2098 5.86436 24.174C5.83911 24.1028 5.81427 24.0314 5.7927 23.9608C5.70377 23.6774 5.63021 23.3947 5.55875 23.1112C5.48729 22.8276 5.42079 22.544 5.35701 22.2578L5.62379 22.3206C5.55705 22.4039 5.48158 22.4796 5.39868 22.5464C5.35222 22.5839 5.3014 22.6155 5.24735 22.6406C5.21443 22.656 5.17971 22.667 5.14401 22.6735C5.09969 22.6822 5.05403 22.6811 5.01015 22.6704C4.91059 22.6485 4.8365 22.5671 4.80546 22.5096C4.77641 22.4606 4.75195 22.4089 4.73242 22.3552C4.69668 22.2564 4.67098 22.1541 4.6557 22.05C4.6285 21.8529 4.6243 21.6533 4.64318 21.4553C4.6636 21.2604 4.70401 21.0689 4.77999 20.8866C4.78449 20.876 4.79231 20.8671 4.80224 20.8614C4.81217 20.8556 4.82369 20.8533 4.83504 20.8548C4.84639 20.8563 4.85695 20.8614 4.86514 20.8695C4.87332 20.8776 4.87868 20.8881 4.88039 20.8995L4.87923 20.8978Z" fill="#1D1C22"/>
<path d="M18.2313 25.8142C18.0237 26.5429 17.7257 27.2423 17.3443 27.8957C17.1401 28.2466 16.8486 28.5375 16.4986 28.7396C16.1486 28.9417 15.7524 29.048 15.3491 29.0479H14.7558C14.7558 29.0479 12.9919 29.0659 13.1514 27.9252C13.2787 27.0164 14.4789 26.722 14.4789 26.722L14.4779 26.7208C13.8864 25.9941 13.4781 25.234 13.2111 24.5134C12.8545 23.5482 12.753 22.6514 12.8092 21.994C12.8165 21.9046 12.8267 21.8199 12.84 21.7406C12.8419 21.7291 12.8441 21.7184 12.8457 21.7076L9.24658 19.3614L8.9314 14.3053L13.5742 11.7864C14.2161 14.2715 14.7942 15.3311 16.3735 17.4803C18.8166 20.8056 18.82 23.7351 18.2313 25.8142Z" fill="white"/>
<g opacity="0.35">
<path d="M16.2476 26.7736C15.4424 26.626 14.8146 26.6717 14.4777 26.7211C13.8862 25.9943 13.4779 25.2343 13.2109 24.5137C13.9208 25.4029 14.0967 25.4628 14.9498 25.8392C16.0254 26.3138 16.2476 26.7736 16.2476 26.7736Z" fill="#1D1C22"/>
</g>
<g opacity="0.35">
<path d="M18.4236 24.9767C18.3734 25.2588 18.3092 25.5382 18.2312 25.8138C18.0236 26.5426 17.7256 27.242 17.3442 27.8953C17.14 28.2462 16.8484 28.5371 16.4985 28.7392C16.1485 28.9413 15.7522 29.0476 15.349 29.0475H14.7557C14.7557 29.0475 12.9918 29.0656 13.1513 27.9248C13.1653 27.824 13.1937 27.7258 13.2355 27.6331C13.5716 28.2767 14.8201 28.2644 14.8201 28.2644H15.4328C16.2798 28.2644 17.0633 27.8259 17.4926 27.1118C17.8854 26.4606 18.1931 25.761 18.4082 25.0302C18.4134 25.0131 18.4184 24.9951 18.4236 24.9767Z" fill="#1D1C22"/>
</g>
<path d="M18.2313 25.814C17.6104 25.4647 17.0128 24.4984 16.6863 23.8974C16.5831 23.708 16.3028 23.7499 16.2569 23.9611C16.2464 24.0121 16.2359 24.0619 16.2274 24.1086C16.2199 24.1483 16.2024 24.1853 16.1765 24.2162C16.1506 24.247 16.1172 24.2705 16.0796 24.2844C16.042 24.2983 16.0015 24.3021 15.962 24.2955C15.9225 24.2889 15.8853 24.272 15.8542 24.2466C15.4078 23.8809 15.1147 23.2876 14.9481 22.8565C14.8693 22.6524 14.5822 22.6607 14.5123 22.8682C14.4695 22.9966 14.436 23.1279 14.412 23.2612C14.3863 23.4038 14.2386 23.4916 14.1044 23.4388C13.4437 23.1773 12.9994 22.3942 12.8092 21.9945C12.8165 21.9054 12.8268 21.8206 12.8401 21.7411C12.8418 21.7298 12.844 21.719 12.8457 21.7083L9.24651 19.3622L8.93164 14.306L13.574 11.7864C14.216 14.2715 14.7942 15.331 16.3733 17.4803C18.8165 20.8055 18.82 23.7353 18.2313 25.814Z" fill="#3C424C"/>
<g opacity="0.35">
<path d="M18.5358 24.0544C18.3927 22.3046 17.9373 20.1424 16.2187 17.9787C14.4254 15.7214 13.7998 14.6601 13.1082 12.039L13.5741 11.7865C14.2161 14.2716 14.7942 15.3312 16.3735 17.4804C18.1898 19.9527 18.6578 22.2065 18.5358 24.0544Z" fill="white"/>
</g>
<path d="M15.1737 19.5016C14.9948 19.5029 14.8225 19.5441 14.6557 19.6028C14.5724 19.6324 14.4908 19.6684 14.4102 19.7058C14.3306 19.7462 14.2512 19.7865 14.1743 19.8321C14.0973 19.8776 14.0221 19.9263 13.9496 19.9756L13.9233 19.9942C13.917 19.9982 13.9112 20.0029 13.9059 20.0082C13.8911 20.021 13.8756 20.0359 13.8602 20.0506C13.8295 20.0805 13.7992 20.1117 13.7699 20.1443C13.6506 20.2745 13.544 20.4159 13.4514 20.5666C13.2645 20.8697 13.127 21.2011 13.0441 21.5482L13.0178 21.6797C13.0094 21.7235 12.9982 21.7672 12.9937 21.8114C12.9817 21.8995 12.968 21.9873 12.964 22.0775L12.9549 22.2121L12.9532 22.3478C12.9498 22.4381 12.955 22.529 12.9593 22.6198C12.9801 22.9848 13.0347 23.3471 13.1225 23.7019C13.1462 23.7903 13.1652 23.88 13.1927 23.9674L13.2733 24.2302C13.3354 24.4027 13.3937 24.5769 13.468 24.7447C13.535 24.9155 13.6188 25.0789 13.6971 25.2448L13.8283 25.4865L13.8943 25.6071L13.9662 25.724C14.0144 25.8019 14.0609 25.8808 14.1106 25.9576L14.2664 26.1841C14.2927 26.2217 14.3177 26.2602 14.3451 26.297L14.4292 26.4059L14.5969 26.6238L14.7412 26.811L14.5154 26.8701C14.4646 26.8834 14.4037 26.9031 14.3482 26.9232C14.2927 26.9433 14.2356 26.9663 14.1806 26.9909C14.0709 27.0392 13.9654 27.0962 13.8648 27.1616C13.6664 27.2909 13.4946 27.4566 13.3948 27.6551C13.3441 27.7533 13.3121 27.8602 13.3006 27.9703C13.2875 28.0802 13.2961 28.1867 13.3305 28.2816C13.366 28.3791 13.4258 28.4656 13.5041 28.533C13.5894 28.606 13.6852 28.6654 13.7882 28.7093C14.0017 28.8019 14.2426 28.8526 14.4845 28.878C14.5451 28.8842 14.606 28.8887 14.6664 28.8915C14.6964 28.8929 14.7275 28.8938 14.755 28.8938H15.2341C15.2982 28.8938 15.3628 28.8938 15.4207 28.8913C15.4804 28.8913 15.5396 28.8845 15.599 28.8783C15.6583 28.872 15.7167 28.8599 15.7757 28.851C15.8334 28.8359 15.8925 28.8263 15.9492 28.8073C16.1789 28.7408 16.3959 28.6359 16.5911 28.497C16.6903 28.4298 16.7793 28.3492 16.8664 28.2672C16.9492 28.1806 17.0304 28.0919 17.0986 27.9931C17.1352 27.9455 17.1659 27.8938 17.1979 27.8431C17.23 27.7924 17.2605 27.7344 17.2918 27.6804C17.353 27.5698 17.4133 27.4588 17.4695 27.3455C17.6979 26.8944 17.8871 26.4241 18.0348 25.9399C18.3305 24.9729 18.4536 23.9522 18.3821 22.9431C18.3141 21.9332 18.0564 20.94 17.6605 20.0074C17.4647 19.5401 17.2277 19.0896 16.9688 18.6534C16.8426 18.4331 16.6996 18.2228 16.5619 18.0096C16.4146 17.8016 16.2718 17.5954 16.118 17.3865C15.5133 16.5548 14.9167 15.7021 14.4558 14.7633C13.9904 13.8298 13.6349 12.8352 13.5257 11.7984C13.5244 11.7863 13.5275 11.774 13.5343 11.7639C13.5411 11.7538 13.5513 11.7465 13.563 11.7432C13.5747 11.7399 13.5871 11.741 13.5981 11.7461C13.6092 11.7512 13.618 11.7602 13.6231 11.7713L13.6236 11.7726C13.6778 11.8913 13.7264 12.0111 13.7716 12.1316C13.8169 12.2521 13.8642 12.3716 13.906 12.4927L14.0344 12.8538C14.0554 12.914 14.0744 12.975 14.0965 13.0343C14.1186 13.0937 14.1402 13.1539 14.1609 13.214C14.3322 13.693 14.5052 14.1698 14.7292 14.6254C15.1733 15.5374 15.7612 16.3757 16.3627 17.2039C16.5137 17.4086 16.6632 17.6243 16.8126 17.8356C16.9538 18.0537 17.0996 18.2688 17.2292 18.4941C17.4945 18.9412 17.7379 19.4033 17.9396 19.8853C18.3474 20.8455 18.6147 21.8733 18.6852 22.9209C18.7597 23.9676 18.6317 25.0275 18.3254 26.0289C18.1725 26.53 17.9768 27.0168 17.7405 27.4838C17.6823 27.6006 17.62 27.7158 17.5567 27.8301C17.5236 27.8872 17.4942 27.9431 17.4579 28.0012C17.4216 28.0593 17.3862 28.1181 17.3447 28.1723C17.2667 28.2849 17.1744 28.3864 17.0797 28.4848C16.9806 28.5787 16.8787 28.6702 16.7658 28.747C16.543 28.9054 16.2954 29.0251 16.0334 29.101C15.9687 29.1222 15.9014 29.134 15.8355 29.1507C15.7684 29.1613 15.7017 29.1758 15.6339 29.1819C15.5661 29.1879 15.4987 29.1962 15.4306 29.1969C15.3609 29.1999 15.2979 29.1995 15.2344 29.1994H14.7563C14.72 29.1994 14.6872 29.1984 14.6534 29.197C14.5864 29.194 14.52 29.1889 14.4534 29.1821C14.1888 29.1537 13.9233 29.1003 13.6668 28.9894C13.5344 28.9328 13.4115 28.8559 13.3022 28.7615C13.186 28.6602 13.0973 28.5305 13.0445 28.3849C12.9912 28.2375 12.9814 28.0801 12.9984 27.9349C13.0141 27.7881 13.0567 27.6456 13.124 27.5146C13.1898 27.3861 13.275 27.2687 13.3765 27.1665C13.4743 27.067 13.5827 26.9788 13.6997 26.9034C13.8136 26.8291 13.9333 26.7642 14.0575 26.7094C14.1194 26.6819 14.1819 26.6566 14.2453 26.6336C14.31 26.6105 14.3705 26.5901 14.4433 26.5711L14.3618 26.8175L14.1875 26.5912L14.1004 26.478C14.072 26.4398 14.046 26.3998 14.0187 26.3612L13.8567 26.1256C13.8053 26.0455 13.7566 25.9634 13.7065 25.8823L13.6317 25.7604L13.563 25.6348C13.5178 25.5508 13.4713 25.4675 13.4271 25.3829C13.3454 25.2103 13.2587 25.0401 13.1884 24.8625C13.1111 24.6877 13.0501 24.5062 12.9856 24.3262L12.9014 24.0517C12.8729 23.9604 12.8528 23.8665 12.8277 23.774C12.7379 23.4015 12.6726 23.0219 12.6495 22.6361C12.6443 22.5397 12.6377 22.4433 12.6395 22.3461V22.2005C12.6411 22.1519 12.6445 22.103 12.647 22.0544C12.6551 21.8592 12.6878 21.6628 12.7283 21.4718C12.819 21.0904 12.9669 20.7195 13.1832 20.3902C13.2913 20.2249 13.4155 20.071 13.5541 19.9307C13.5891 19.8957 13.6256 19.8618 13.6637 19.8286C13.6831 19.812 13.7023 19.7956 13.7235 19.779C13.7359 19.769 13.7488 19.7598 13.7622 19.7514L13.7938 19.7314C13.8771 19.6807 13.9631 19.6346 14.0513 19.5933C14.2266 19.5077 14.4115 19.444 14.6021 19.4039C14.7929 19.3647 14.9951 19.3533 15.187 19.3994C15.199 19.4024 15.2095 19.4097 15.2166 19.42C15.2237 19.4302 15.2268 19.4427 15.2254 19.4552C15.224 19.4676 15.2182 19.4791 15.209 19.4875C15.1998 19.4959 15.1879 19.5006 15.1755 19.5007L15.1737 19.5016Z" fill="#1D1C22"/>
<path d="M16.1735 26.7266C16.0262 26.7488 15.8845 26.7585 15.7432 26.7683C15.6019 26.778 15.4625 26.7813 15.3238 26.79C15.1851 26.7987 15.0478 26.8094 14.9117 26.8225C14.7756 26.8357 14.6423 26.8549 14.5092 26.8723L14.5043 26.8729C14.4659 26.8777 14.4271 26.8676 14.3959 26.8445C14.3646 26.8215 14.3432 26.7873 14.3361 26.7489C14.329 26.7105 14.3366 26.6708 14.3575 26.6379C14.3783 26.605 14.4108 26.5814 14.4483 26.5718C14.593 26.5369 14.7406 26.516 14.8892 26.5092C15.0355 26.5035 15.182 26.5071 15.3279 26.5199C15.4728 26.5337 15.6169 26.5504 15.7585 26.5849C15.9 26.6193 16.0401 26.6597 16.1735 26.7266Z" fill="#1D1C22"/>
<path d="M13.5887 21.627C13.3806 21.7438 12.8967 21.509 12.8724 21.6217C12.6916 22.4683 13.1196 23.7831 12.9631 23.8528C12.8241 23.9153 12.6938 23.8877 12.5807 23.8429L12.5784 23.8417C12.5526 23.8287 12.5271 23.8157 12.5028 23.8026C11.0541 23.0184 11.9293 21.5431 10.2683 20.4173C10.2652 20.4154 10.2622 20.4131 10.2591 20.4112C9.85271 20.1382 9.71033 19.604 9.93785 19.1681C11.1096 16.9204 13.8853 11.6727 13.6464 13.1219C13.2378 15.6042 13.2579 17.6939 13.2655 18.0764C13.2662 18.1175 13.267 18.139 13.267 18.139C13.1815 18.9251 14.1733 21.3001 13.5887 21.627Z" fill="#3C424C"/>
<g opacity="0.35">
<path d="M13.5885 21.627C13.3804 21.7438 12.8966 21.509 12.8723 21.6216C12.6915 22.4683 13.1195 23.7831 12.963 23.8528C12.8239 23.9153 12.6937 23.8877 12.5805 23.8429L12.5782 23.8417C12.5524 23.8287 12.527 23.8157 12.5027 23.8026C13.0033 23.7428 12.5163 22.9018 12.446 22.1214C12.3705 21.2835 12.7692 21.1168 13.1905 21.3744C13.8525 21.7788 13.2957 20.6177 13.2167 19.8703C13.1202 18.9569 13.2087 18.3451 13.2653 18.0764C13.2661 18.1175 13.2668 18.139 13.2668 18.139C13.1813 18.9251 14.1731 21.3001 13.5885 21.627Z" fill="white"/>
</g>
<path d="M12.4009 28.3833C12.1383 29.1429 10.6566 29.04 10.6566 29.04C10.6566 29.04 9.26749 29.1675 9.00966 28.4062C8.72436 27.5627 9.46218 24.363 8.39233 21.883C8.39233 21.8743 8.39612 21.253 9.42998 20.1427C9.69045 20.1366 9.97112 20.2157 10.2681 20.4172C11.957 21.5621 11.0234 23.0685 12.5783 23.8416C12.3901 23.7664 12.2509 23.6414 12.2008 23.7949C11.6528 25.4885 11.6957 27.1095 11.6957 27.1095C11.6957 27.1095 12.7205 27.4588 12.4009 28.3833Z" fill="white"/>
<g opacity="0.35">
<path d="M12.4361 27.8308C12.4767 27.986 12.4748 28.1692 12.4008 28.3836C12.1384 29.1428 10.6567 29.0401 10.6567 29.0401C10.6567 29.0401 9.26751 29.1675 9.00978 28.4062C8.9338 28.1811 8.93033 27.789 8.94664 27.2872C8.95842 27.4161 8.97737 27.5249 9.00631 27.6107C9.27751 28.4134 10.7421 28.2788 10.7421 28.2788C10.7421 28.2788 11.9614 28.3636 12.4361 27.8308Z" fill="#1D1C22"/>
</g>
<path d="M8.43887 21.8626C8.63461 22.1672 8.76952 22.5072 8.8695 22.8543C8.96615 23.2022 9.03505 23.5573 9.07556 23.9163C9.15438 24.6327 9.15701 25.3509 9.14154 26.063C9.13291 26.4193 9.11691 26.7746 9.10386 27.1275C9.09745 27.3039 9.09155 27.48 9.09092 27.6541C9.09029 27.8281 9.09345 28.0016 9.11386 28.1638C9.13239 28.331 9.17764 28.4534 9.27604 28.5579C9.37233 28.6615 9.51187 28.7354 9.66289 28.7859C9.81391 28.8363 9.9786 28.8664 10.1444 28.8814C10.2274 28.8891 10.3113 28.8934 10.3952 28.8943C10.4792 28.8951 10.5657 28.8933 10.6429 28.8872L10.6547 28.8862L10.6671 28.887C10.81 28.894 10.9531 28.8922 11.0958 28.8818C11.2383 28.8724 11.3799 28.8526 11.5196 28.8226C11.6572 28.7924 11.7908 28.7503 11.909 28.6901C11.9669 28.6617 12.0216 28.6268 12.0719 28.5862C12.1197 28.5492 12.1614 28.5046 12.1952 28.4543C12.2041 28.4427 12.2119 28.4302 12.2184 28.4171C12.2248 28.4042 12.2333 28.3921 12.2385 28.3785L12.2551 28.3381C12.2606 28.3242 12.2649 28.307 12.27 28.2916C12.2894 28.2298 12.302 28.166 12.3074 28.1014C12.3189 27.9778 12.2958 27.8535 12.2407 27.7425C12.1858 27.6318 12.0979 27.5335 11.9935 27.4508C11.9403 27.4092 11.884 27.3718 11.8251 27.3389C11.7956 27.3221 11.7654 27.3064 11.7348 27.292C11.7042 27.2777 11.6706 27.2632 11.6467 27.2546L11.5449 27.2183L11.5434 27.1135C11.5402 26.8781 11.5499 26.6533 11.5639 26.4243C11.5779 26.1954 11.5997 25.9694 11.6271 25.743C11.6818 25.2895 11.7634 24.8397 11.8716 24.3961L11.9597 24.0645L12.0095 23.9004L12.0344 23.8182L12.0468 23.7772L12.0532 23.7567L12.0564 23.746L12.0632 23.7281L12.0704 23.7103C12.0734 23.7038 12.0774 23.6966 12.0809 23.6899C12.0845 23.6832 12.0883 23.6766 12.0929 23.6696C12.0976 23.6626 12.1042 23.6546 12.1103 23.6474C12.1239 23.6315 12.1395 23.6174 12.1567 23.6056C12.1755 23.5934 12.1959 23.5841 12.2174 23.5779C12.2518 23.5682 12.2879 23.5661 12.3232 23.5717C12.3462 23.5754 12.3688 23.5812 12.3908 23.589C12.4644 23.6159 12.5103 23.6433 12.5591 23.6661C12.6527 23.7118 12.7356 23.7404 12.8066 23.7354C12.8241 23.7346 12.8416 23.732 12.8587 23.7277C12.8671 23.7246 12.8757 23.7233 12.8841 23.7195L12.8967 23.7144C12.8967 23.7144 12.9079 23.7093 12.8906 23.7179C12.881 23.7235 12.8722 23.7304 12.8643 23.7384C12.8398 23.7674 12.8443 23.7731 12.8433 23.772C12.8444 23.7664 12.845 23.7607 12.8453 23.7551C12.8463 23.7331 12.8461 23.7111 12.8447 23.6892C12.8387 23.5896 12.8219 23.4781 12.8058 23.3684C12.7725 23.1473 12.7365 22.9223 12.7111 22.6939C12.6857 22.4655 12.669 22.2337 12.6768 21.997C12.6804 21.8767 12.6928 21.7569 12.714 21.6385L12.7229 21.5932C12.7259 21.5794 12.7302 21.5659 12.7358 21.5529C12.7439 21.5342 12.7551 21.517 12.769 21.5021C12.7905 21.4789 12.8173 21.4614 12.8471 21.4511C12.8768 21.4411 12.908 21.4363 12.9393 21.4369C12.9589 21.437 12.9784 21.4383 12.9979 21.4406C13.0662 21.4491 13.1208 21.4619 13.1754 21.4725C13.2815 21.4937 13.3871 21.513 13.463 21.5058C13.4776 21.5048 13.492 21.5018 13.5058 21.497C13.5101 21.4957 13.5143 21.4936 13.518 21.491C13.5232 21.488 13.528 21.4844 13.5324 21.4803C13.551 21.466 13.568 21.4386 13.5825 21.403C13.6114 21.3304 13.6216 21.2285 13.6218 21.1269C13.6212 21.0208 13.6139 20.9148 13.6 20.8097C13.5461 20.3779 13.4296 19.9431 13.3187 19.507C13.2632 19.2863 13.2197 19.0627 13.1884 18.8373C13.1734 18.7219 13.1659 18.6057 13.1658 18.4894C13.1678 18.3719 13.1764 18.2507 13.2161 18.1334C13.2199 18.1224 13.2272 18.113 13.2369 18.1066C13.2465 18.1003 13.258 18.0974 13.2695 18.0983C13.281 18.0993 13.2918 18.1041 13.3003 18.1119C13.3088 18.1198 13.3144 18.1303 13.3163 18.1418L13.3169 18.1445C13.3344 18.2517 13.3601 18.3569 13.388 18.4626L13.4728 18.7812C13.5282 18.9951 13.5855 19.211 13.6357 19.43C13.6859 19.649 13.7323 19.8703 13.7803 20.0926C13.8258 20.3156 13.8731 20.5396 13.9015 20.7715C13.917 20.8897 13.9251 21.0088 13.9257 21.128C13.924 21.2503 13.9175 21.3777 13.8649 21.516C13.8376 21.5839 13.7969 21.6575 13.7281 21.7146C13.7115 21.7291 13.6936 21.7421 13.6747 21.7534C13.6548 21.7659 13.6336 21.7762 13.6115 21.7841C13.5728 21.7984 13.5323 21.8074 13.4912 21.8108C13.4242 21.816 13.3568 21.8136 13.2902 21.8037C13.2288 21.7955 13.1707 21.7842 13.1153 21.7729C13.06 21.7617 13.006 21.7503 12.9634 21.7452C12.9552 21.7442 12.9469 21.7436 12.9386 21.7435C12.9324 21.7427 12.9319 21.7456 12.9482 21.7401C12.9646 21.7338 12.9792 21.7238 12.991 21.7108C13 21.7009 13.0074 21.6897 13.0129 21.6776C13.0159 21.671 13.0182 21.6642 13.0197 21.6572L13.0122 21.6949C12.9938 21.7982 12.9831 21.9028 12.98 22.0077C12.9729 22.2214 12.9882 22.4402 13.0126 22.6593C13.037 22.8784 13.0721 23.0984 13.106 23.3226C13.1223 23.4356 13.14 23.547 13.1481 23.6722C13.1501 23.7065 13.1501 23.7409 13.1481 23.7752C13.1468 23.7977 13.1437 23.82 13.1387 23.8419C13.131 23.8679 13.1267 23.9015 13.0827 23.9512C13.0704 23.9644 13.0562 23.9757 13.0406 23.9847C13.0326 23.9894 13.0242 23.9935 13.0155 23.9968L12.9891 24.0074C12.9718 24.0145 12.9531 24.0191 12.9348 24.0247C12.8978 24.0343 12.86 24.04 12.8218 24.0418C12.6673 24.0498 12.5342 23.9936 12.4282 23.9427C12.3756 23.9176 12.324 23.8896 12.2924 23.879C12.2848 23.8762 12.2802 23.8755 12.279 23.875C12.2809 23.8756 12.2851 23.8762 12.3018 23.8726C12.3165 23.868 12.3297 23.8597 12.3403 23.8484C12.3419 23.8467 12.3433 23.8447 12.3444 23.8426C12.3452 23.8414 12.3456 23.8414 12.346 23.8407C12.3463 23.8401 12.3465 23.8395 12.3467 23.8389V23.8407L12.2526 24.1494L12.1673 24.4706C12.0621 24.902 11.9827 25.3395 11.9295 25.7806C11.9025 26.0011 11.8814 26.2226 11.8677 26.4443C11.8541 26.6661 11.8448 26.8904 11.8477 27.1055L11.7444 26.9644C11.7912 26.9812 11.8253 26.9962 11.8639 27.0144C11.9026 27.0326 11.9376 27.0509 11.9739 27.0713C12.0463 27.1119 12.1156 27.1581 12.181 27.2094C12.312 27.3133 12.4321 27.4437 12.5123 27.6044C12.5925 27.7659 12.6265 27.9467 12.6106 28.1267C12.6034 28.2132 12.5868 28.2987 12.5608 28.3815C12.5542 28.402 12.5493 28.4216 12.5412 28.4429L12.5147 28.5076C12.5059 28.5288 12.4937 28.5488 12.4832 28.5694C12.4725 28.59 12.4603 28.6097 12.4466 28.6284C12.396 28.7034 12.334 28.7701 12.2629 28.8259C12.1959 28.88 12.1233 28.9265 12.0462 28.9646C11.8963 29.0406 11.7405 29.0883 11.5852 29.1227C11.4312 29.1559 11.275 29.1778 11.1179 29.1883C10.9612 29.1997 10.8039 29.2014 10.647 29.1933H10.6712C10.5732 29.2011 10.4851 29.2026 10.3924 29.2017C10.2997 29.2009 10.2091 29.1961 10.1173 29.1876C9.93388 29.1706 9.74897 29.1383 9.56744 29.0775C9.3859 29.0166 9.20289 28.9252 9.05651 28.7695C8.98259 28.6913 8.924 28.5997 8.88381 28.4995C8.86171 28.4493 8.85119 28.3989 8.83751 28.3489C8.82909 28.3007 8.81751 28.2511 8.8133 28.2044C8.78983 28.0149 8.78763 27.8334 8.78784 27.6529C8.78805 27.4723 8.79457 27.2944 8.80089 27.1166C8.81415 26.7611 8.83004 26.4083 8.83856 26.0558C8.85961 25.3514 8.83856 24.648 8.75069 23.9561C8.70859 23.6101 8.65481 23.2665 8.58378 22.9266C8.51443 22.5858 8.43087 22.2496 8.34668 21.9038C8.3438 21.8919 8.34519 21.8793 8.35059 21.8684C8.35599 21.8574 8.36505 21.8488 8.37618 21.8439C8.38731 21.8391 8.39978 21.8383 8.41138 21.8419C8.42299 21.8454 8.43299 21.8529 8.4396 21.8632L8.43887 21.8626Z" fill="#1D1C22"/>
<path d="M10.1157 19.8031C11.3111 19.0261 11.534 17.7443 11.534 17.7443C11.534 17.7443 12.0322 17.9779 12.2532 17.893C12.7041 17.7192 12.6027 16.0733 12.6027 16.0733C12.6027 16.0733 13.0383 16.3339 13.2089 15.9318C13.35 15.5989 13.1984 13.9285 13.1984 13.9285C13.1984 13.9285 13.5035 14.1283 13.7114 14.0135C14.4577 13.6012 13.1843 9.59137 13.1843 9.59137C13.6157 9.46966 13.945 9.34711 14.0037 9.1313C14.0965 8.78891 13.7245 8.28328 13.5881 8.11304C13.5851 8.1094 13.5834 8.1049 13.5831 8.1002C13.5829 8.09549 13.5841 8.09083 13.5867 8.08689C13.5892 8.08295 13.593 8.07995 13.5974 8.07831C13.6017 8.07667 13.6065 8.07648 13.611 8.07778C13.9478 7.924 14.4046 7.71319 14.3792 7.31992C14.3477 6.84552 13.4406 6.10922 12.5648 4.87728C11.9996 4.083 11.494 3.2183 10.8389 2.73201C9.55502 1.78023 7.97939 2.41807 7.97939 2.41807C7.97939 2.41807 6.40367 1.78023 5.11997 2.73201C4.46476 3.21777 3.9592 4.08247 3.39407 4.87728C2.51828 6.10827 1.61091 6.8451 1.57966 7.31992C1.55387 7.71287 2.01113 7.924 2.3479 8.07778C2.35238 8.07648 2.35716 8.07667 2.36154 8.07831C2.36592 8.07995 2.36966 8.08295 2.37222 8.08689C2.37478 8.09083 2.37603 8.09549 2.37578 8.1002C2.37553 8.1049 2.3738 8.1094 2.37084 8.11304C2.23403 8.28296 1.86243 8.78891 1.95515 9.1313C2.01387 9.34753 2.34263 9.46966 2.77464 9.59137C2.77464 9.59137 1.50125 13.6012 2.2475 14.0135C2.45545 14.1285 2.76053 13.9285 2.76053 13.9285C2.76053 13.9285 2.60941 15.5989 2.75001 15.9318C2.9206 16.3339 3.35618 16.0733 3.35618 16.0733C3.35618 16.0733 3.25484 17.7194 3.70568 17.893C3.92668 17.9779 4.42487 17.7443 4.42487 17.7443C4.42487 17.7443 4.64777 19.0263 5.84317 19.8033L7.87079 21.1993L10.1157 19.8031Z" fill="white"/>
<g opacity="0.35">
<path d="M13.7124 14.0127C13.5044 14.1276 13.1993 13.9278 13.1993 13.9278C13.1993 13.9278 13.3505 15.5982 13.2092 15.931C13.0387 16.333 12.6034 16.0724 12.6034 16.0724C12.6034 16.0724 12.7044 17.7185 12.2536 17.8923C12.0326 17.9773 11.5345 17.7436 11.5345 17.7436C11.5345 17.7436 11.3116 19.0258 10.1163 19.8028L7.87064 21.1992L5.84313 19.8033C4.64783 19.0263 4.42483 17.7444 4.42483 17.7444C4.42483 17.7444 3.92653 17.978 3.70543 17.893C3.25501 17.719 3.35604 16.0732 3.35604 16.0732C3.35604 16.0732 2.92035 16.3338 2.75018 15.9317C2.60885 15.599 2.76007 13.9285 2.76007 13.9285C2.76007 13.9285 2.45488 14.1282 2.24693 14.0135C1.74863 13.7374 2.15085 11.8576 2.47372 10.6392C2.42394 11.7178 2.43878 13.1594 2.849 13.3864C3.03506 13.4891 3.30815 13.3104 3.30815 13.3104C3.30815 13.3104 3.17292 14.8053 3.29942 15.1032C3.45212 15.4631 3.84181 15.2297 3.84181 15.2297C3.84181 15.2297 3.75099 16.7027 4.15437 16.8583C4.35232 16.9346 4.79822 16.7257 4.79822 16.7257C4.79822 16.7257 4.99817 17.8726 6.0676 18.5683L7.88222 19.8171L9.89153 18.5675C10.9613 17.8718 11.1607 16.7248 11.1607 16.7248C11.1607 16.7248 11.6066 16.9337 11.804 16.8575C12.2078 16.7019 12.117 15.2289 12.117 15.2289C12.117 15.2289 12.5064 15.4625 12.6594 15.1024C12.7857 14.805 12.6507 13.3096 12.6507 13.3096C12.6507 13.3096 12.9234 13.4882 13.1099 13.3855C13.5203 13.1586 13.535 11.7151 13.4852 10.6365C13.8071 11.8551 14.2106 13.7371 13.7124 14.0127Z" fill="#1D1C22"/>
</g>
<path d="M11.8183 11.4541C10.4425 12.3856 9.34214 10.3043 7.98763 9.89602C6.63353 10.3043 5.53274 12.3856 4.15696 11.4541C3.29664 10.8712 3.35052 8.59505 3.35052 8.59505C3.35052 8.59505 3.19856 6.48694 7.96153 6.48694H8.01551C12.7785 6.48694 12.6249 8.59505 12.6249 8.59505C12.6249 8.59505 12.6793 10.8712 11.8183 11.4541Z" fill="#DD7F40"/>
<path d="M13.6422 8.1118C13.779 8.28172 14.1508 8.78766 14.0579 9.13006C13.9992 9.34629 13.6705 9.46863 13.2386 9.59013C13.2386 9.59013 13.3397 9.90873 13.4682 10.376C13.4682 10.376 13.2408 10.5771 12.8578 10.2848C12.4559 9.97787 12.602 8.30668 12.1107 7.90024C11.6856 7.54871 11.3141 8.03427 10.9872 8.34215C8.51593 10.6731 8.00605 8.01919 8.00605 8.01919C8.00605 8.01919 7.49617 10.6731 5.02487 8.34215C4.698 8.03416 4.32651 7.54871 3.90156 7.90024C3.41052 8.30668 3.55659 9.97787 3.15437 10.2848C2.77141 10.5771 2.54399 10.376 2.54399 10.376C2.67248 9.90873 2.77362 9.59013 2.77362 9.59013C2.34214 9.46863 2.01317 9.34586 1.95444 9.13006C1.86141 8.78766 2.23332 8.28214 2.37003 8.1118C2.37297 8.10812 2.37467 8.10359 2.37489 8.09887C2.37512 8.09415 2.37385 8.08948 2.37127 8.08554C2.3687 8.08159 2.36495 8.07857 2.36056 8.07692C2.35618 8.07526 2.35139 8.07506 2.34688 8.07633C2.01096 7.92286 1.55338 7.71184 1.57864 7.31889C1.61021 6.84406 2.51747 6.10734 3.39315 4.87625C3.95828 4.08197 4.46385 3.21727 5.11906 2.73172C6.40296 1.78004 7.97859 2.41778 7.97859 2.41778C7.97859 2.41778 7.98795 2.41386 8.00553 2.40716C8.0231 2.41364 8.03257 2.41778 8.03257 2.41778C8.03257 2.41778 9.60799 1.78057 10.892 2.73172C11.5471 3.21727 12.0527 4.08197 12.6179 4.87625C13.4937 6.10724 14.4012 6.84396 14.4324 7.31889C14.4581 7.71184 14.0009 7.92286 13.6642 8.07633C13.6598 8.0754 13.6552 8.07586 13.651 8.07764C13.6468 8.07943 13.6433 8.08246 13.6409 8.08633C13.6385 8.09019 13.6374 8.09471 13.6376 8.09926C13.6378 8.10381 13.6394 8.10819 13.6422 8.1118Z" fill="#3C424C"/>
<g opacity="0.35">
<path d="M14.3923 7.54059C14.2035 7.06417 13.3986 6.36005 12.6185 5.26341C12.0533 4.46923 11.5477 3.60454 10.8926 3.11887C9.6087 2.16752 8.03329 2.80494 8.03329 2.80494C8.03329 2.80494 8.02382 2.80112 8.00635 2.79432C7.98888 2.8008 7.97941 2.80494 7.97941 2.80494C7.97941 2.80494 6.40389 2.16773 5.12009 3.11887C4.46488 3.60454 3.95932 4.46923 3.39419 5.26341C2.61395 6.36005 1.8092 7.06417 1.6204 7.54059C1.58828 7.47162 1.57429 7.39548 1.57978 7.31948C1.61135 6.84454 2.51829 6.10782 3.39419 4.87683C3.95932 4.08255 4.46488 3.21785 5.12009 2.73219C6.404 1.78084 7.97941 2.41826 7.97941 2.41826C7.97941 2.41826 7.98888 2.41444 8.00635 2.40764C8.02382 2.41412 8.03329 2.41826 8.03329 2.41826C8.03329 2.41826 9.60881 1.78105 10.8926 2.73219C11.5478 3.21785 12.0534 4.08255 12.6185 4.87683C13.4943 6.10793 14.4018 6.84465 14.4329 7.31948C14.4383 7.39547 14.4243 7.47159 14.3923 7.54059Z" fill="white"/>
</g>
<path d="M3.39415 4.87681C3.48718 4.74629 3.578 4.61396 3.6684 4.48206C3.66155 4.51105 3.65461 4.53951 3.64735 4.56765C3.54453 4.95593 3.38257 5.27921 3.11063 5.45571C3.05707 5.49076 2.99834 5.49724 2.93457 5.48216C3.08485 5.29492 3.23987 5.09346 3.39415 4.87681Z" fill="#E4B684"/>
<path d="M13.0244 5.48034C12.9584 5.49765 12.8972 5.49202 12.8422 5.4557C12.5702 5.27887 12.4082 4.95592 12.3055 4.56764C12.2966 4.5344 12.2884 4.50063 12.2803 4.46643C12.3741 4.60354 12.4688 4.74149 12.5652 4.87679C12.7189 5.0926 12.8736 5.29364 13.0244 5.48034Z" fill="#E4B684"/>
<path d="M10.0885 19.7601C10.2508 19.6259 10.411 19.4925 10.5475 19.3353C10.6201 19.261 10.6824 19.178 10.7474 19.0978C10.779 19.0568 10.8072 19.0135 10.8376 18.9719L10.8822 18.9088L10.923 18.8429C11.0334 18.6692 11.1281 18.4859 11.2061 18.2952C11.2258 18.2478 11.2429 18.1996 11.2619 18.1518C11.281 18.104 11.2957 18.055 11.3116 18.0065C11.3275 17.958 11.3415 17.9089 11.3537 17.8598C11.3659 17.8108 11.3778 17.7595 11.3853 17.7176L11.4194 17.5273L11.5983 17.6054C11.6925 17.6468 11.7893 17.6819 11.888 17.7105C11.9353 17.7244 11.9834 17.7353 12.032 17.7434C12.0736 17.7512 12.116 17.7537 12.1583 17.7511C12.1967 17.7473 12.2012 17.7435 12.2225 17.7267C12.2476 17.7024 12.2685 17.674 12.2841 17.6426C12.3234 17.5664 12.3521 17.4687 12.3735 17.369C12.4156 17.1672 12.4356 16.9506 12.4445 16.7343C12.4535 16.518 12.4522 16.2965 12.4413 16.0828L12.4256 15.7795L12.6857 15.9316C12.6889 15.9335 12.7011 15.9399 12.71 15.9442C12.719 15.9484 12.7299 15.9534 12.74 15.9575C12.76 15.9658 12.7805 15.9729 12.8013 15.9788C12.8373 15.99 12.8751 15.9944 12.9128 15.992C12.9407 15.9903 12.9676 15.9813 12.9909 15.9658C13.0161 15.9461 13.0364 15.9206 13.05 15.8915C13.0543 15.883 13.0596 15.8747 13.0633 15.8662C13.0654 15.8575 13.0677 15.8489 13.0704 15.8404C13.0736 15.8315 13.0763 15.8223 13.0784 15.813L13.0842 15.7768C13.0939 15.7308 13.0969 15.6753 13.1024 15.6231C13.1097 15.5153 13.1129 15.4046 13.1129 15.2929C13.1129 15.0699 13.1048 14.8439 13.0931 14.6182C13.0814 14.3926 13.0659 14.1659 13.0471 13.9418L13.0213 13.6352L13.2813 13.7992C13.2941 13.8073 13.3167 13.8204 13.3358 13.8296C13.3548 13.8387 13.3761 13.8487 13.3965 13.8572C13.4347 13.8731 13.4746 13.8844 13.5154 13.891C13.547 13.8966 13.5795 13.8957 13.6108 13.8884C13.6347 13.8822 13.6563 13.8688 13.6726 13.8501C13.7125 13.8085 13.7449 13.7235 13.763 13.6336C13.7811 13.5438 13.7899 13.4425 13.7929 13.3425C13.7981 13.1408 13.7824 12.9325 13.7585 12.7251C13.7346 12.5177 13.7014 12.3092 13.6638 12.1017C13.5876 11.6863 13.4918 11.2733 13.3866 10.8618C13.2814 10.4502 13.1656 10.0403 13.0403 9.63737L12.9931 9.48603L13.144 9.44291C13.3134 9.39448 13.4826 9.34425 13.6297 9.27649C13.7019 9.24272 13.7698 9.20289 13.8118 9.16084C13.8294 9.14426 13.8435 9.1242 13.8532 9.1019C13.8544 9.09701 13.8568 9.09382 13.8582 9.08767L13.8616 9.06642C13.8627 9.0592 13.865 9.05283 13.8654 9.04518L13.866 9.02161C13.8676 8.95789 13.8523 8.8844 13.8271 8.81048C13.8002 8.73328 13.7665 8.65864 13.7264 8.58745C13.6855 8.51309 13.6407 8.44095 13.5922 8.37133C13.5678 8.33618 13.5428 8.30135 13.5168 8.26726L13.478 8.21734L13.4733 8.21129L13.4672 8.20343C13.4608 8.19498 13.4552 8.18595 13.4505 8.17645C13.4354 8.14611 13.4293 8.11199 13.433 8.07824C13.4367 8.04448 13.4501 8.01254 13.4714 7.98628C13.4927 7.96002 13.5212 7.94057 13.5533 7.93029C13.5853 7.92001 13.6197 7.91934 13.6521 7.92837L13.549 7.93654C13.7355 7.85158 13.9173 7.76662 14.0541 7.65213C14.1221 7.59564 14.1755 7.53245 14.2037 7.46777C14.2311 7.40309 14.2353 7.33082 14.2157 7.26333C14.1946 7.18835 14.1506 7.1053 14.0984 7.02469C14.0462 6.94409 13.9868 6.86337 13.9244 6.78393C13.7991 6.62463 13.6634 6.46883 13.5276 6.31176C13.2552 5.99794 12.9811 5.67944 12.724 5.34596C12.4644 5.01302 12.2306 4.66255 11.9959 4.3208C11.7612 3.97904 11.5249 3.6411 11.2587 3.33705C11.1282 3.18619 10.9853 3.04671 10.8316 2.9201C10.6796 2.79693 10.5136 2.6925 10.337 2.60903C9.98446 2.44113 9.59119 2.36371 9.19654 2.36201C8.99828 2.36107 8.80031 2.37759 8.6049 2.41139C8.50703 2.42807 8.40968 2.44867 8.3137 2.47342C8.26571 2.48552 8.21815 2.49933 8.17111 2.51367C8.12406 2.528 8.07544 2.54446 8.03629 2.55976L7.97968 2.58163L7.92316 2.55976C7.88402 2.54446 7.83434 2.5279 7.78835 2.51367C7.74237 2.49943 7.69364 2.48552 7.64576 2.47342C7.54978 2.44867 7.45243 2.42807 7.35456 2.41139C7.15915 2.37759 6.96118 2.36107 6.76291 2.36201C6.36827 2.36371 5.975 2.44113 5.62245 2.60903C5.4459 2.6925 5.27986 2.79693 5.12783 2.9201C4.97411 3.04671 4.83125 3.18619 4.70078 3.33705C4.43452 3.64068 4.19826 3.97851 3.96411 4.3208C3.72995 4.66308 3.49559 5.01302 3.23597 5.34596C2.97834 5.67975 2.70378 5.99836 2.43111 6.3125C2.29535 6.46958 2.15959 6.6258 2.03436 6.78468C1.97195 6.86412 1.91218 6.94398 1.86029 7.02544C1.80841 7.10689 1.76453 7.1891 1.74306 7.26407C1.72342 7.33156 1.72767 7.40384 1.75506 7.46851C1.78326 7.53319 1.83662 7.59595 1.9046 7.65288C2.04225 7.76683 2.22358 7.85201 2.40974 7.93729L2.30661 7.92911C2.34987 7.91719 2.39601 7.92247 2.43553 7.94387C2.47546 7.96554 2.50542 8.0021 2.519 8.04576C2.53259 8.08941 2.52873 8.13669 2.50824 8.17752C2.5035 8.18701 2.4979 8.19604 2.49151 8.20449L2.48541 8.21235L2.48067 8.2184L2.44195 8.26832C2.41595 8.30241 2.3909 8.33724 2.36649 8.3724C2.31805 8.44202 2.27326 8.51416 2.23231 8.58852C2.19227 8.65971 2.15857 8.73434 2.1316 8.81154C2.10645 8.88588 2.09108 8.95948 2.09277 9.02267V9.04625C2.09277 9.05389 2.0955 9.06027 2.09655 9.06749L2.10003 9.08873C2.1014 9.09489 2.10382 9.09807 2.10497 9.10296C2.11465 9.12526 2.12877 9.14532 2.14644 9.1619C2.18853 9.20438 2.2562 9.24378 2.3285 9.27755C2.47583 9.34531 2.64484 9.39554 2.81417 9.44397L2.96508 9.48709L2.91794 9.63843C2.7926 10.0414 2.67715 10.4521 2.5716 10.8628C2.46604 11.2735 2.37059 11.6874 2.2944 12.1027C2.2562 12.3103 2.22347 12.5184 2.19969 12.7261C2.1759 12.9339 2.16012 13.1417 2.16527 13.3436C2.16833 13.4441 2.1758 13.5439 2.19516 13.6347C2.21453 13.7255 2.24568 13.8096 2.28556 13.8511C2.30191 13.8699 2.32347 13.8833 2.34744 13.8895C2.37873 13.8968 2.41116 13.8977 2.44279 13.892C2.48359 13.8855 2.5235 13.8741 2.56171 13.8583C2.58212 13.8498 2.60243 13.8408 2.62243 13.8306C2.64242 13.8204 2.66452 13.8083 2.67705 13.8004L2.93741 13.6384L2.91099 13.9429C2.89152 14.1669 2.87574 14.3938 2.86321 14.6192C2.85069 14.8445 2.84217 15.0705 2.84217 15.294C2.84217 15.4056 2.84459 15.517 2.85132 15.6246C2.85658 15.6769 2.85921 15.7325 2.86869 15.779L2.87447 15.8153C2.87648 15.8249 2.87912 15.8342 2.88237 15.8434L2.88942 15.8699C2.8931 15.8787 2.89847 15.8871 2.90268 15.8958C2.91666 15.9262 2.93749 15.9528 2.9635 15.9735C2.98787 15.9901 3.01615 15.9999 3.04549 16.0019C3.08427 16.0049 3.12326 16.0006 3.16051 15.9893C3.18175 15.9835 3.20263 15.9764 3.22302 15.9681C3.23355 15.9639 3.24407 15.9591 3.25365 15.9547C3.26322 15.9502 3.27469 15.9441 3.2789 15.9417L3.52253 15.8005L3.50801 16.0831C3.49748 16.2974 3.49527 16.5192 3.50517 16.7357C3.51506 16.9521 3.53442 17.1694 3.5802 17.3712C3.60346 17.4709 3.63398 17.5684 3.67491 17.6439C3.69096 17.6748 3.71235 17.7026 3.73806 17.7259C3.75974 17.7421 3.76342 17.744 3.8012 17.7472C3.84298 17.7491 3.88485 17.746 3.92591 17.7379C3.97414 17.7294 4.02183 17.7179 4.06871 17.7036C4.16707 17.6741 4.26337 17.638 4.35696 17.5956L4.54639 17.5099L4.58564 17.7161C4.59354 17.7571 4.60511 17.8094 4.61837 17.8569C4.63163 17.9043 4.64647 17.9539 4.66131 18.0025C4.67783 18.0505 4.69393 18.0989 4.7113 18.1468C4.72866 18.1947 4.74729 18.2424 4.76771 18.2893C4.78812 18.3363 4.80822 18.3832 4.83085 18.4293L4.8981 18.5673L4.97239 18.7017C4.99628 18.7473 5.02628 18.7887 5.05206 18.8332C5.16049 19.0083 5.28426 19.1732 5.42187 19.3261C5.55646 19.4841 5.71274 19.6208 5.87155 19.7605L5.87397 19.7626C5.88344 19.7709 5.88955 19.7824 5.89115 19.7949C5.89274 19.8074 5.88969 19.8201 5.88259 19.8305C5.8755 19.8409 5.86485 19.8482 5.85269 19.8512C5.84053 19.8541 5.82772 19.8524 5.81672 19.8464C5.62603 19.7441 5.4386 19.6261 5.27474 19.4785C5.18834 19.409 5.11426 19.3271 5.03585 19.2485C4.99755 19.2084 4.96387 19.1643 4.92767 19.1223L4.87442 19.0585L4.82506 18.9914C4.69216 18.8125 4.5783 18.62 4.48535 18.4171C4.43884 18.3155 4.3959 18.2122 4.35907 18.1061C4.34149 18.053 4.32339 17.9999 4.30824 17.9447C4.29308 17.8895 4.27888 17.8373 4.26614 17.7733L4.49377 17.893C4.38556 17.9422 4.27409 17.9837 4.16017 18.0173C4.10141 18.035 4.04167 18.0492 3.98126 18.0598C3.91368 18.0723 3.84483 18.0764 3.77626 18.0719C3.75647 18.0696 3.73743 18.068 3.71701 18.0642C3.69512 18.0586 3.67348 18.0524 3.65208 18.0455C3.63074 18.0362 3.60987 18.0259 3.58957 18.0146C3.57081 18.0029 3.55288 17.99 3.53589 17.9758C3.4786 17.9255 3.43123 17.8647 3.39624 17.7966C3.3331 17.6749 3.30153 17.5562 3.27596 17.4391C3.22681 17.2054 3.20924 16.976 3.20018 16.7477C3.19282 16.5186 3.19345 16.2943 3.20545 16.0633L3.43455 16.2048C3.4135 16.2168 3.40087 16.2229 3.38456 16.231C3.36825 16.2391 3.35299 16.2452 3.33752 16.2516C3.30559 16.2646 3.27291 16.2757 3.23965 16.2846C3.16821 16.3053 3.09366 16.3127 3.0196 16.3065C2.93589 16.2996 2.85553 16.2703 2.78681 16.2216C2.72259 16.1732 2.67047 16.1104 2.63464 16.038C2.62632 16.0214 2.61717 16.0051 2.60991 15.9877L2.59254 15.9325C2.58674 15.9147 2.58186 15.8965 2.57791 15.8782L2.57002 15.8303C2.5575 15.7648 2.55497 15.7064 2.54897 15.6453C2.54139 15.526 2.53845 15.409 2.53845 15.2928C2.53845 15.0606 2.54813 14.8308 2.56055 14.6015C2.57297 14.3721 2.58917 14.1441 2.60917 13.9141L2.84311 14.0567C2.81589 14.074 2.78779 14.0898 2.75892 14.1041C2.73156 14.118 2.70346 14.1304 2.67473 14.1423C2.61485 14.1668 2.55239 14.1843 2.48857 14.1945C2.41547 14.2065 2.3407 14.2031 2.26893 14.1847C2.19007 14.1632 2.11887 14.1196 2.06361 14.0589C2.01585 14.0057 1.97805 13.9442 1.95206 13.8774C1.92868 13.819 1.91075 13.7586 1.8985 13.6968C1.87355 13.5784 1.86587 13.4641 1.86219 13.3511C1.85672 13.1257 1.87408 12.9066 1.8986 12.6896C1.92312 12.4726 1.95785 12.2586 1.99679 12.046C2.07487 11.6212 2.17211 11.2014 2.27862 10.785C2.38512 10.3686 2.50151 9.95661 2.6299 9.54391L2.73367 9.73836C2.55844 9.68781 2.38185 9.63705 2.20232 9.55495C2.11297 9.51247 2.02078 9.46362 1.93407 9.37898C1.88677 9.33288 1.84937 9.27747 1.8242 9.21617C1.8183 9.19971 1.81146 9.18208 1.80746 9.16625L1.79863 9.12059C1.7962 9.1054 1.79263 9.08979 1.79157 9.07492L1.78979 9.03063C1.78726 8.91275 1.81273 8.80761 1.84514 8.71075C1.87782 8.61712 1.9186 8.52657 1.96701 8.44015C2.01312 8.35633 2.06357 8.27501 2.11813 8.19653C2.14514 8.15766 2.17292 8.11935 2.20148 8.08162L2.24557 8.0248L2.25125 8.01758L2.25273 8.01577L2.25336 8.01492L2.25031 8.01874C2.24566 8.02494 2.24157 8.03156 2.2381 8.0385C2.23024 8.05427 2.22556 8.07145 2.22431 8.08906C2.22307 8.10667 2.22528 8.12435 2.23084 8.14109C2.24138 8.1722 2.26318 8.19815 2.29188 8.21373C2.32147 8.22961 2.35598 8.23341 2.38827 8.22435L2.28504 8.21628C2.09624 8.12866 1.89565 8.03977 1.71149 7.88886C1.62067 7.81292 1.53185 7.71671 1.47639 7.58937C1.42093 7.46203 1.41409 7.31112 1.45092 7.18102C1.48765 7.05496 1.54563 6.95322 1.6053 6.85891C1.66497 6.76461 1.73064 6.67837 1.79673 6.59341C1.92912 6.4255 2.06656 6.26779 2.20263 6.11008C2.47562 5.79583 2.74429 5.48349 2.9955 5.15745C3.24807 4.83386 3.47675 4.49093 3.71343 4.14641C3.95011 3.80189 4.191 3.4561 4.47336 3.13346C4.61521 2.96965 4.77053 2.81823 4.93767 2.68083C5.10858 2.54269 5.29518 2.42557 5.49353 2.33195C5.89049 2.14302 6.32933 2.05795 6.76102 2.05583C6.97677 2.05478 7.1922 2.07273 7.40487 2.10946C7.51102 2.12752 7.61625 2.14996 7.72058 2.17679C7.7732 2.19007 7.82487 2.20504 7.87675 2.22087C7.92864 2.23669 7.97841 2.25273 8.03577 2.27556H7.92264C7.97999 2.25326 8.02872 2.23733 8.08165 2.22087C8.13459 2.20441 8.18552 2.19007 8.23783 2.17679C8.34229 2.14982 8.44753 2.12737 8.55354 2.10946C8.76638 2.0728 8.98199 2.05496 9.19791 2.05615C9.62939 2.05795 10.0684 2.14302 10.4654 2.33227C10.6639 2.42605 10.8506 2.54338 11.0215 2.68178C11.1887 2.81916 11.344 2.97058 11.4859 3.13442C11.7682 3.45663 12.0098 3.80349 12.2458 4.14737C12.4819 4.49125 12.7113 4.83481 12.9638 5.15841C13.215 5.48424 13.4836 5.79679 13.7565 6.11104C13.8927 6.26875 14.0301 6.42646 14.1625 6.59436C14.2286 6.67858 14.2935 6.76535 14.3539 6.85987C14.4144 6.95439 14.4716 7.05592 14.5083 7.18198C14.5452 7.31208 14.5391 7.46341 14.4829 7.59033C14.4267 7.71724 14.3386 7.81388 14.2478 7.88981C14.0635 8.04073 13.863 8.12962 13.6742 8.21724L13.571 8.22531C13.6033 8.23437 13.6378 8.23057 13.6674 8.21469C13.6961 8.1991 13.7179 8.17316 13.7284 8.14204C13.734 8.12531 13.7362 8.10762 13.7349 8.09002C13.7337 8.07241 13.729 8.05522 13.7212 8.03945C13.7177 8.03251 13.7136 8.0259 13.7089 8.0197L13.7059 8.01588L13.7065 8.01673L13.708 8.01853L13.7137 8.02575L13.7578 8.08257C13.7864 8.12024 13.8142 8.15854 13.8411 8.19748C13.8957 8.27597 13.9461 8.35729 13.9922 8.44111C14.0407 8.52753 14.0814 8.61808 14.1141 8.71171C14.1465 8.80857 14.172 8.91349 14.1695 9.03159L14.1677 9.07588C14.1666 9.09075 14.163 9.10636 14.1606 9.12154L14.1518 9.16721C14.1478 9.18303 14.1413 9.20066 14.135 9.21712C14.1099 9.27842 14.0725 9.33384 14.0252 9.37993C13.9385 9.46489 13.8463 9.513 13.7569 9.55591C13.5774 9.638 13.4008 9.68877 13.2256 9.73932L13.3293 9.54486C13.4577 9.95735 13.5733 10.3692 13.6806 10.7859C13.788 11.2027 13.8844 11.6217 13.9625 12.047C14.0014 12.2594 14.0353 12.4738 14.0606 12.6906C14.086 12.9073 14.1027 13.1266 14.0971 13.3521C14.0934 13.4651 14.0857 13.5794 14.0608 13.6978C14.0485 13.7595 14.0306 13.82 14.0072 13.8783C13.9812 13.9451 13.9434 14.0066 13.8956 14.0598C13.8404 14.1205 13.7692 14.1642 13.6903 14.1857C13.6185 14.2041 13.5438 14.2074 13.4707 14.1954C13.4069 14.1853 13.3444 14.1678 13.2845 14.1433C13.2558 14.1314 13.2277 14.119 13.2003 14.1051C13.173 14.0912 13.1477 14.0779 13.1161 14.0578L13.3503 13.9151C13.3713 14.145 13.3873 14.3727 13.4007 14.6023C13.4141 14.8319 13.4234 15.0614 13.4246 15.2938L13.4234 15.4689C13.4217 15.5279 13.4195 15.5869 13.4163 15.6467C13.4105 15.7079 13.4083 15.7664 13.396 15.8323L13.3882 15.8805C13.3843 15.8991 13.3794 15.9173 13.3737 15.9353L13.3563 15.9913C13.349 16.0089 13.3399 16.0254 13.3315 16.0423C13.2954 16.1159 13.2428 16.1798 13.1777 16.229C13.1079 16.2789 13.0262 16.309 12.941 16.3164C12.8659 16.3229 12.7903 16.3157 12.7177 16.2952C12.684 16.2861 12.6509 16.2751 12.6186 16.2621C12.6024 16.2558 12.587 16.2486 12.5709 16.2409C12.5548 16.2331 12.5413 16.2266 12.5201 16.2142L12.7647 16.0632C12.777 16.2947 12.7782 16.5191 12.7697 16.7486C12.7592 16.9772 12.7431 17.207 12.6899 17.441C12.6622 17.5578 12.6286 17.6765 12.5642 17.7975C12.5284 17.865 12.4804 17.9251 12.4226 17.9747C12.4056 17.9886 12.3877 18.0013 12.3689 18.0127C12.3485 18.0233 12.3277 18.0339 12.3066 18.0427C12.2856 18.0493 12.2637 18.0552 12.242 18.0606C12.2217 18.0642 12.2029 18.0656 12.1832 18.0678C12.1151 18.0718 12.0467 18.0672 11.9797 18.0541C11.9194 18.0432 11.8599 18.0287 11.8014 18.0105C11.6882 17.976 11.5776 17.9336 11.4702 17.8836L11.6833 17.7713C11.67 17.8343 11.6563 17.8862 11.6398 17.9412C11.6232 17.9962 11.6058 18.0484 11.5878 18.1015C11.5498 18.2067 11.5085 18.3102 11.4606 18.4107C11.3667 18.612 11.2526 18.8032 11.1202 18.9811L11.0714 19.048L11.0187 19.1117C10.9832 19.1542 10.9493 19.1975 10.9116 19.2378C10.8344 19.3167 10.7607 19.3983 10.6761 19.4688C10.5141 19.6175 10.3306 19.7385 10.1434 19.8464C10.1323 19.8529 10.1193 19.8549 10.1069 19.8521C10.0944 19.8493 10.0835 19.8419 10.0762 19.8313C10.069 19.8206 10.066 19.8077 10.0678 19.7949C10.0697 19.7822 10.0762 19.7706 10.0861 19.7625L10.0885 19.7601Z" fill="#1D1C22"/>
<g opacity="0.35">
<path d="M10.7713 8.4198C9.58661 9.69762 9.20964 12.2334 7.97047 12.2334C6.73129 12.2334 6.36348 9.76113 5.17871 8.4832" fill="#1D1C22"/>
</g>
<path d="M10.7713 8.4198C9.58661 9.69762 9.20964 11.1822 7.97047 11.1822C6.73129 11.1822 6.36348 9.69762 5.17871 8.4198" fill="#1D1C22"/>
<path d="M7.97052 11.3358C7.06989 11.3358 6.59264 10.6276 6.03993 9.80786C5.76831 9.40429 5.46038 8.94762 5.06785 8.52473C5.04031 8.49502 5.0256 8.4555 5.02694 8.41485C5.02828 8.3742 5.04557 8.33575 5.075 8.30797C5.10443 8.28018 5.1436 8.26533 5.18388 8.26669C5.22416 8.26804 5.26226 8.28549 5.28979 8.31519C5.69833 8.75593 6.01331 9.22311 6.29113 9.63538C6.83658 10.4445 7.2307 11.0291 7.97052 11.0291C8.71245 11.0291 9.13077 10.4115 9.66043 9.62965C9.93858 9.21918 10.2537 8.75391 10.6602 8.31519C10.688 8.28655 10.7258 8.27002 10.7655 8.26914C10.8052 8.26826 10.8436 8.2831 10.8726 8.31049C10.9016 8.33788 10.9189 8.37563 10.9206 8.41568C10.9224 8.45572 10.9085 8.49486 10.882 8.52473C10.4912 8.94635 10.183 9.40131 9.91111 9.80276C9.35398 10.6253 8.87283 11.3358 7.97052 11.3358Z" fill="#1D1C22"/>
<path d="M5.65742 27.5191C5.47757 27.6171 5.3034 27.6976 5.14944 27.7962C4.99547 27.8949 4.88034 28.0317 4.86624 28.1762C4.86438 28.1946 4.86378 28.213 4.86445 28.2315L4.86561 28.2595L4.87003 28.2927C4.87571 28.337 4.87919 28.382 4.89108 28.4233C4.90766 28.5044 4.93795 28.582 4.98063 28.6527C5.02009 28.7183 5.07377 28.7741 5.13765 28.8158C5.16934 28.8366 5.20318 28.8539 5.23857 28.8674C5.25618 28.8742 5.27413 28.88 5.29235 28.8849C5.3014 28.8875 5.31024 28.8898 5.31876 28.8913C5.32297 28.8921 5.3276 28.8933 5.33097 28.8937C5.33339 28.8939 5.33579 28.8943 5.33813 28.895C5.37783 28.898 5.41478 28.9166 5.44103 28.9468C5.46729 28.977 5.48076 29.0164 5.47854 29.0565C5.47632 29.0966 5.45859 29.1342 5.42916 29.1613C5.39974 29.1884 5.36097 29.2027 5.32118 29.2012C5.30719 29.2003 5.30014 29.1994 5.2914 29.1984C5.28267 29.1975 5.27499 29.1961 5.26699 29.1948C5.25099 29.1925 5.23542 29.1893 5.22079 29.1858C5.19079 29.1792 5.16128 29.1705 5.13249 29.1597C5.07485 29.1388 5.01985 29.1111 4.96864 29.0772C4.86593 29.0092 4.78087 28.9173 4.72059 28.8093C4.66274 28.7073 4.62443 28.5952 4.60767 28.4789C4.59599 28.4228 4.59431 28.3676 4.59073 28.3124L4.58862 28.271L4.59031 28.224C4.59496 28.1291 4.62102 28.0364 4.6665 27.9531C4.6959 27.9001 4.73194 27.8511 4.77374 27.8073C4.85282 27.7273 4.94441 27.6611 5.04483 27.6111C5.13897 27.5628 5.23931 27.5279 5.34297 27.5075C5.44505 27.4882 5.5486 27.4792 5.65353 27.4938C5.65628 27.4942 5.65883 27.4954 5.66083 27.4974C5.66284 27.4993 5.66418 27.5019 5.66468 27.5046C5.66518 27.5074 5.66481 27.5102 5.66362 27.5128C5.66243 27.5153 5.66048 27.5174 5.65805 27.5187L5.65742 27.5191Z" fill="#1D1C22"/>
<path d="M4.52844 27.519C4.34744 27.6112 4.17305 27.6871 4.01983 27.7826C3.8666 27.8781 3.75484 28.0125 3.73905 28.1578C3.73455 28.1966 3.73515 28.2359 3.74084 28.2746C3.74337 28.2959 3.74358 28.3171 3.74747 28.3374L3.76073 28.3976C3.781 28.4754 3.81454 28.5491 3.85987 28.6153C3.90772 28.681 3.9655 28.7386 4.03109 28.7862C4.06468 28.8106 4.09984 28.8328 4.13633 28.8526C4.15495 28.8618 4.17327 28.8719 4.192 28.8801C4.21073 28.8883 4.23199 28.897 4.24262 28.9013L4.2564 28.9066C4.29346 28.9204 4.32371 28.9482 4.34074 28.9842C4.35776 29.0202 4.3602 29.0614 4.34754 29.0991C4.33488 29.1369 4.30812 29.1682 4.27295 29.1863C4.23779 29.2044 4.197 29.208 4.15927 29.1962C4.12964 29.1875 4.10052 29.177 4.07203 29.165C4.04519 29.1544 4.01941 29.142 3.99426 29.1291C3.94369 29.1029 3.89524 29.0727 3.84934 29.0388C3.75529 28.97 3.67406 28.8848 3.6094 28.7874C3.54534 28.6882 3.50098 28.5774 3.4788 28.4612L3.46543 28.3753C3.46196 28.3466 3.46249 28.3182 3.46112 28.2897C3.45804 28.2294 3.46274 28.169 3.47512 28.1099C3.50128 27.9893 3.5605 27.8786 3.64602 27.7903C3.7249 27.7106 3.81683 27.6451 3.91775 27.5968C4.01202 27.5498 4.11261 27.5169 4.21631 27.4992C4.31839 27.4825 4.42152 27.4765 4.52518 27.4945C4.52792 27.4949 4.53045 27.4962 4.5324 27.4982C4.53436 27.5002 4.53564 27.5028 4.53606 27.5055C4.53648 27.5083 4.53602 27.5112 4.53475 27.5136C4.53347 27.5161 4.53145 27.5182 4.52897 27.5194L4.52844 27.519Z" fill="#1D1C22"/>
<path d="M15.6488 27.4405C15.4811 27.5467 15.3268 27.6474 15.2143 27.7721C15.2004 27.7874 15.1875 27.8035 15.1755 27.8203L15.1422 27.8709L15.1173 27.9248C15.1075 27.9419 15.1056 27.9622 15.0991 27.9802L15.0905 28.0079L15.087 28.037C15.085 28.0565 15.0802 28.075 15.0797 28.0946C15.082 28.135 15.0777 28.172 15.0871 28.216L15.0962 28.2797C15.1001 28.3003 15.1052 28.3205 15.1115 28.3405C15.1173 28.3603 15.1206 28.3811 15.1279 28.4002L15.1508 28.4563C15.1825 28.5289 15.2269 28.5951 15.282 28.6516C15.3378 28.7085 15.4021 28.7561 15.4726 28.7928C15.5087 28.8116 15.546 28.828 15.5843 28.8417C15.6036 28.8489 15.6227 28.855 15.642 28.8607C15.6612 28.8665 15.6832 28.8714 15.6938 28.8738L15.7062 28.8764C15.7453 28.8839 15.7799 28.9067 15.8026 28.9398C15.8252 28.9729 15.834 29.0136 15.8271 29.0532C15.8202 29.0928 15.7981 29.1281 15.7656 29.1514C15.7331 29.1747 15.6929 29.1842 15.6536 29.1778C15.6165 29.1723 15.5927 29.1671 15.5639 29.1599C15.5367 29.1533 15.5098 29.1453 15.4834 29.1359C15.4304 29.1178 15.379 29.0956 15.3294 29.0694C15.2284 29.0161 15.1375 28.9453 15.0607 28.8603C15.0421 28.8381 15.0219 28.8178 15.0053 28.7936L14.9569 28.7215C14.9423 28.6967 14.9289 28.6711 14.9169 28.6448C14.9034 28.6196 14.8922 28.5932 14.8832 28.5659L14.8562 28.485C14.8479 28.458 14.8441 28.4302 14.8381 28.4029C14.8321 28.3758 14.8276 28.3483 14.8248 28.3207L14.8195 28.2387C14.7972 28.0165 14.8955 27.7621 15.0656 27.6212C15.145 27.5488 15.238 27.4935 15.3392 27.4585C15.4378 27.4252 15.5392 27.4063 15.6432 27.416C15.6467 27.4163 15.6499 27.418 15.6522 27.4208C15.6544 27.4235 15.6555 27.427 15.6552 27.4305C15.655 27.4326 15.6544 27.4345 15.6533 27.4362C15.6523 27.438 15.6508 27.4394 15.6491 27.4405H15.6488Z" fill="#1D1C22"/>
<path d="M14.6528 27.2706C14.4844 27.3869 14.3237 27.4897 14.1888 27.6104C14.1249 27.6687 14.0708 27.7371 14.0286 27.8129C13.9925 27.8844 13.9721 27.9628 13.9686 28.043C13.9656 28.2205 14.0002 28.3914 14.0876 28.5355C14.1304 28.6087 14.1831 28.6754 14.2442 28.7339L14.2917 28.7764C14.3087 28.7895 14.3246 28.8038 14.3419 28.816C14.3593 28.8282 14.3762 28.8412 14.3938 28.8524C14.4114 28.8637 14.4314 28.8757 14.4414 28.8813L14.4533 28.888C14.4874 28.9075 14.5127 28.9395 14.5239 28.9774C14.5351 29.0153 14.5314 29.0562 14.5134 29.0913C14.4955 29.1265 14.4647 29.1533 14.4276 29.166C14.3905 29.1788 14.35 29.1766 14.3145 29.1599C14.2864 29.1466 14.259 29.1317 14.2325 29.1155C14.2077 29.1007 14.184 29.0848 14.161 29.0681C14.1151 29.0348 14.0715 28.9983 14.0304 28.9591C13.9479 28.8792 13.8782 28.7869 13.8238 28.6854C13.7946 28.6357 13.7744 28.5808 13.753 28.5274C13.7371 28.4717 13.7186 28.4168 13.7109 28.3598C13.6881 28.2467 13.6909 28.1325 13.7004 28.0219C13.716 27.9034 13.7543 27.7835 13.8204 27.686C13.8849 27.5929 13.9643 27.5113 14.0553 27.4444C14.1412 27.3808 14.2365 27.331 14.3376 27.2968C14.4372 27.264 14.5393 27.2419 14.6455 27.2458C14.6473 27.2459 14.649 27.2462 14.6506 27.247C14.6522 27.2477 14.6536 27.2487 14.6548 27.25C14.656 27.2513 14.6569 27.2528 14.6575 27.2545C14.6581 27.2561 14.6584 27.2579 14.6583 27.2596C14.6583 27.2617 14.6577 27.2638 14.6567 27.2657C14.6558 27.2675 14.6543 27.2691 14.6526 27.2702L14.6528 27.2706Z" fill="#1D1C22"/>
<path d="M10.19 27.4942C10.2822 27.4907 10.3709 27.5181 10.4523 27.5621C10.5355 27.6078 10.6071 27.6724 10.6615 27.7506C10.7745 27.9076 10.826 28.1102 10.8184 28.2964C10.816 28.3421 10.8165 28.3876 10.8111 28.4338C10.8034 28.4801 10.8006 28.5264 10.7881 28.573C10.7676 28.6698 10.7321 28.7628 10.6828 28.8485C10.6294 28.9395 10.5572 29.0178 10.4711 29.0782C10.427 29.1087 10.3794 29.1337 10.3293 29.1525C10.3039 29.162 10.2779 29.1698 10.2515 29.1758C10.2383 29.1791 10.2245 29.1817 10.2102 29.1838C10.2033 29.185 10.1963 29.1862 10.1882 29.1869C10.1801 29.1877 10.1738 29.1886 10.1601 29.1893C10.1399 29.1905 10.1197 29.1877 10.1006 29.181C10.0815 29.1742 10.0639 29.1637 10.0489 29.15C10.0339 29.1363 10.0217 29.1198 10.0131 29.1013C10.0046 29.0828 9.99971 29.0628 9.9989 29.0424C9.99809 29.022 10.0013 29.0016 10.0084 28.9825C10.0155 28.9633 10.0263 28.9458 10.0402 28.931C10.0541 28.9161 10.0707 28.9042 10.0892 28.896C10.1077 28.8877 10.1277 28.8832 10.1479 28.8829C10.1444 28.8829 10.1479 28.8823 10.1507 28.8819C10.1537 28.8815 10.1565 28.8809 10.1594 28.8802C10.166 28.879 10.1725 28.8773 10.179 28.8752C10.1924 28.872 10.2061 28.866 10.2199 28.8615C10.2473 28.8503 10.2734 28.836 10.2978 28.819C10.3483 28.7837 10.3916 28.7389 10.4254 28.687C10.4433 28.6588 10.4588 28.6292 10.4717 28.5983C10.4877 28.5684 10.4969 28.5334 10.5085 28.4997C10.52 28.466 10.5249 28.4284 10.5339 28.3927C10.543 28.3571 10.5444 28.3184 10.5505 28.2804C10.5686 28.1334 10.5505 27.9914 10.4839 27.8653C10.4162 27.7408 10.313 27.6308 10.183 27.518L10.1818 27.517C10.1798 27.5152 10.1784 27.5129 10.1777 27.5103C10.177 27.5077 10.1771 27.505 10.178 27.5024C10.1789 27.4999 10.1805 27.4977 10.1826 27.4961C10.1848 27.4945 10.1873 27.4936 10.19 27.4935V27.4942Z" fill="#1D1C22"/>
<path d="M11.3183 27.4937C11.5019 27.4811 11.6831 27.587 11.7933 27.7462C11.8497 27.8257 11.8865 27.9167 11.9138 28.0091C11.9235 28.0555 11.9373 28.103 11.9395 28.1498L11.9461 28.2206C11.948 28.2442 11.9461 28.2681 11.9461 28.2919C11.9469 28.4814 11.8876 28.6859 11.7623 28.8442C11.7012 28.9226 11.6281 28.9908 11.5458 29.0459C11.5052 29.0731 11.4627 29.0972 11.4187 29.1181C11.3969 29.1287 11.374 29.138 11.351 29.1467C11.3258 29.1563 11.3 29.1646 11.274 29.1715C11.2362 29.1817 11.1959 29.1767 11.1617 29.1577C11.1274 29.1386 11.1018 29.107 11.0901 29.0693C11.0785 29.0316 11.0817 28.9908 11.0992 28.9555C11.1166 28.9202 11.1469 28.893 11.1838 28.8797L11.1989 28.8743C11.2061 28.8718 11.2255 28.8648 11.2397 28.8586C11.2538 28.8524 11.2706 28.8448 11.2861 28.8374C11.3169 28.8221 11.3467 28.8049 11.3754 28.786C11.4317 28.7487 11.4826 28.7037 11.5266 28.6524C11.5714 28.6024 11.6022 28.5429 11.6299 28.4813C11.6404 28.4488 11.6548 28.4175 11.6601 28.3825L11.6723 28.3312L11.6782 28.2775C11.6887 28.2057 11.6832 28.1316 11.6764 28.0607C11.6646 27.991 11.6472 27.9214 11.6132 27.8589C11.5462 27.7354 11.4469 27.6244 11.3115 27.5183L11.3102 27.5173C11.3074 27.5151 11.3057 27.5119 11.3052 27.5084C11.3048 27.5049 11.3057 27.5014 11.3078 27.4986C11.3091 27.497 11.3107 27.4958 11.3125 27.495C11.3143 27.4941 11.3163 27.4937 11.3183 27.4937Z" fill="#1D1C22"/>
<path d="M6.60824 2.21343C6.50019 2.2191 6.39252 2.23063 6.28569 2.24795C6.05078 2.2844 5.82169 2.35207 5.60438 2.4492C5.25709 2.04978 4.6806 1.35596 4.36383 1.44028C4.32873 1.44973 4.29529 1.46459 4.2647 1.48436C4.03907 1.62964 3.95056 2.03862 3.89636 2.54075C3.83027 3.14142 3.81323 3.88006 3.66895 4.48222C3.6621 4.5109 3.65526 4.53968 3.64727 4.56718C3.54466 4.95546 3.38249 5.27874 3.11055 5.45524C3.05699 5.49018 2.99816 5.49666 2.93428 5.48169C2.91814 5.47779 2.90228 5.47279 2.88682 5.46671C2.7057 5.39736 2.49375 5.17508 2.28107 4.93209C2.12321 4.7507 1.96346 4.55794 1.81686 4.40841C1.26962 3.84883 0.602203 3.64535 0.446872 3.30572C0.435138 3.28064 0.426344 3.25426 0.420667 3.22713C0.406249 3.15927 0.411932 3.08524 0.441714 3.00177C1.02884 1.33897 4.82867 0.618387 4.82867 0.618387C4.82867 0.618387 5.0041 0.142284 5.20658 0.153011C5.53019 0.170321 5.57923 0.570491 5.65626 1.05498C5.66194 1.09099 5.66805 1.12741 5.67415 1.16416C5.67537 1.173 5.67932 1.18124 5.68544 1.18769C5.69157 1.19414 5.69955 1.19847 5.70825 1.20008C5.71696 1.2017 5.72594 1.2005 5.73393 1.19666C5.74192 1.19282 5.74851 1.18654 5.75276 1.17871C5.76908 1.1511 5.78728 1.12168 5.80707 1.09173C5.9062 0.941453 6.04101 0.780451 6.14478 0.790434C6.31 0.806364 6.50564 1.61743 6.60824 2.21343Z" fill="#3C424C"/>
<g opacity="0.35">
<path d="M5.65514 1.05552C5.46834 0.659811 5.36237 0.52451 5.28681 0.52451C5.01761 0.521642 5.03424 0.922448 5.03424 0.922448C3.71623 1.11563 1.94708 1.89366 1.11065 2.49126C0.835127 2.6891 0.600575 2.93936 0.420178 3.22798C0.405761 3.16012 0.411444 3.0861 0.441226 3.00262C1.02835 1.33982 4.82818 0.619242 4.82818 0.619242C4.82818 0.619242 5.00361 0.143139 5.20609 0.153865C5.52907 0.170857 5.57811 0.571451 5.65514 1.05552Z" fill="white"/>
</g>
<g opacity="0.35">
<path d="M4.2646 1.48486C4.03897 1.63015 3.95047 2.03913 3.89627 2.54125C3.83018 3.14193 3.81313 3.88056 3.66885 4.48273C3.66201 4.5114 3.65517 4.54018 3.64717 4.56769C3.54456 4.95596 3.38239 5.27924 3.11046 5.45575C3.05689 5.49069 2.99806 5.49717 2.93418 5.48219C2.91804 5.4783 2.90219 5.4733 2.88672 5.46722C2.70561 5.39787 2.49366 5.17559 2.28097 4.9326C2.12311 4.75121 1.96336 4.55845 1.81677 4.40892C1.26953 3.84934 0.602109 3.64586 0.446777 3.30622L0.625682 2.90606C0.625682 2.90606 0.597583 3.20236 0.963285 3.39628C1.47727 3.66837 2.2414 4.36952 2.27182 4.05325C2.30223 3.73698 2.10428 2.4307 2.43778 2.03828C2.54301 1.91445 2.48713 4.05251 2.90535 4.17973C3.30094 4.30102 3.718 1.66158 4.2646 1.48486Z" fill="#1D1C22"/>
</g>
<path d="M2.99522 5.64294C2.96282 5.64285 2.93055 5.63896 2.89903 5.63137C2.87696 5.62621 2.85527 5.61954 2.8341 5.6114C2.63057 5.53324 2.42031 5.32466 2.16647 5.03409C2.12206 4.98322 2.07744 4.93139 2.03314 4.87988C1.91864 4.74681 1.81056 4.62107 1.70837 4.51678C1.4558 4.2586 1.17597 4.07923 0.928874 3.92088C0.520445 3.65952 0.134642 3.41239 0.297445 2.95105C0.864573 1.34442 4.13863 0.603985 4.71744 0.484508C4.793 0.308107 4.95949 0.00012207 5.19849 0.00012207C5.20354 0.00012207 5.20901 0.00012207 5.21354 0.00012207C5.61555 0.0213624 5.70668 0.420575 5.77919 0.868003C5.91179 0.703921 6.03829 0.6265 6.15805 0.637864C6.25055 0.646572 6.49628 0.669724 6.7579 2.18682L6.78726 2.35674L6.61615 2.36587C6.27444 2.38403 5.95473 2.45891 5.66616 2.5889L5.56398 2.63478L5.42717 2.47696C5.20364 2.21878 4.60884 1.53261 4.40257 1.58837C4.17505 1.64922 4.09307 2.13818 4.04708 2.55736C4.02729 2.73662 4.01224 2.92662 3.99614 3.12777C3.95857 3.59898 3.91974 4.08624 3.81618 4.51795C3.80892 4.54832 3.80166 4.57859 3.79356 4.60843C3.66727 5.08379 3.4709 5.40346 3.19254 5.58443C3.13386 5.623 3.06525 5.64335 2.99522 5.64294ZM5.19743 0.306727C5.14808 0.320321 5.03316 0.501607 4.97001 0.672273L4.93992 0.753305L4.85573 0.769448C4.81858 0.776564 1.13472 1.49311 0.583798 3.05385C0.508973 3.26625 0.655149 3.38307 1.09168 3.66196C1.33962 3.82126 1.64818 4.01837 1.92464 4.3014C2.03356 4.41249 2.15006 4.5479 2.26256 4.67884C2.30633 4.72971 2.35032 4.7809 2.39431 4.83114C2.5788 5.04205 2.78801 5.26561 2.94029 5.32413C2.94882 5.32741 2.95753 5.33017 2.96639 5.33241C3.00227 5.34091 3.01669 5.33411 3.02732 5.3271C3.23969 5.18904 3.39418 4.92778 3.50005 4.52814C3.50763 4.50042 3.51405 4.47345 3.52047 4.44626C3.61844 4.03781 3.65633 3.56277 3.69295 3.10345C3.70916 2.89986 3.72452 2.70763 3.74473 2.5238C3.80356 1.98716 3.90185 1.40528 4.32459 1.29185C4.6824 1.19627 5.13492 1.67482 5.64659 2.26466C5.89737 2.16525 6.16045 2.10093 6.42851 2.0735C6.32138 1.50659 6.19309 1.0872 6.11385 0.960081C6.06733 0.995977 5.9824 1.08752 5.88232 1.25745C5.86208 1.29202 5.83181 1.3195 5.7956 1.33617C5.75939 1.35284 5.71899 1.3579 5.67984 1.35066C5.6407 1.34342 5.60469 1.32424 5.57669 1.2957C5.54869 1.26717 5.53004 1.23064 5.52325 1.19107C5.51336 1.13234 5.50441 1.0751 5.49557 1.01913C5.4197 0.541645 5.36613 0.315648 5.19743 0.306727Z" fill="#1D1C22"/>
<path d="M9.37036 2.21343C9.47838 2.2191 9.58602 2.23062 9.69281 2.24795C9.92776 2.28438 10.1569 2.35206 10.3742 2.4492C10.7215 2.04978 11.2979 1.35596 11.6147 1.44028C11.6498 1.44969 11.6832 1.46456 11.7138 1.48436C11.9394 1.62964 12.0279 2.03862 12.0821 2.54075C12.1482 3.14142 12.1653 3.88006 12.3097 4.48222C12.3165 4.5109 12.3233 4.53968 12.3313 4.56718C12.4338 4.95546 12.596 5.27874 12.8681 5.45524C12.9216 5.49018 12.9806 5.49666 13.0443 5.48169C13.0605 5.47779 13.0763 5.47279 13.0918 5.46671C13.273 5.39736 13.485 5.17508 13.6976 4.93209C13.856 4.7507 14.0151 4.55794 14.1617 4.40841C14.709 3.84883 15.3764 3.64535 15.5318 3.30572C15.5435 3.2806 15.5523 3.25424 15.558 3.22713C15.5725 3.15927 15.5668 3.08524 15.537 3.00177C14.9498 1.33897 11.15 0.618387 11.15 0.618387C11.15 0.618387 10.9745 0.142284 10.772 0.153011C10.4484 0.170321 10.3995 0.570491 10.3223 1.05498C10.3167 1.09099 10.3106 1.12741 10.3045 1.16416C10.3032 1.173 10.2993 1.18124 10.2932 1.18769C10.287 1.19414 10.2791 1.19847 10.2704 1.20008C10.2617 1.2017 10.2527 1.2005 10.2447 1.19666C10.2367 1.19282 10.2301 1.18654 10.2258 1.17871C10.2095 1.1511 10.1913 1.12168 10.1715 1.09173C10.0724 0.941453 9.93759 0.780451 9.83393 0.790434C9.6685 0.806364 9.47286 1.61743 9.37036 2.21343Z" fill="#3C424C"/>
<g opacity="0.35">
<path d="M10.3232 1.05552C10.51 0.659811 10.616 0.52451 10.6916 0.52451C10.9608 0.521642 10.9441 0.922448 10.9441 0.922448C12.2621 1.11563 14.0314 1.89366 14.8677 2.49126C15.1433 2.6891 15.3779 2.93936 15.5583 3.22798C15.5727 3.16012 15.567 3.0861 15.5373 3.00262C14.95 1.33982 11.1503 0.619242 11.1503 0.619242C11.1503 0.619242 10.9748 0.143139 10.7723 0.153865C10.4493 0.170857 10.4004 0.571451 10.3232 1.05552Z" fill="white"/>
</g>
<g opacity="0.35">
<path d="M11.7136 1.48486C11.9393 1.63015 12.0278 2.03913 12.082 2.54125C12.148 3.14193 12.1651 3.88056 12.3095 4.48273C12.3163 4.5114 12.3232 4.54018 12.3312 4.56769C12.4337 4.95596 12.5958 5.27924 12.8679 5.45575C12.9214 5.49069 12.9804 5.49717 13.0441 5.48219C13.0603 5.4783 13.0761 5.4733 13.0916 5.46722C13.2728 5.39787 13.4848 5.17559 13.6975 4.9326C13.8558 4.75121 14.015 4.55845 14.1616 4.40892C14.7088 3.84934 15.3762 3.64586 15.5317 3.30622L15.3528 2.90606C15.3528 2.90606 15.3809 3.20236 15.015 3.39628C14.5012 3.66837 13.7369 4.36952 13.7065 4.05325C13.6761 3.73698 13.8741 2.4307 13.5406 2.03828C13.4353 1.91445 13.4912 4.05251 13.073 4.17973C12.6773 4.30102 12.2601 1.66158 11.7136 1.48486Z" fill="#1D1C22"/>
</g>
<path d="M12.9835 5.64315C12.9136 5.64321 12.8451 5.62273 12.7865 5.58421C12.5084 5.40366 12.3117 5.08368 12.1855 4.60715C12.1776 4.57858 12.1702 4.54821 12.163 4.51752C12.0595 4.08644 12.0207 3.59908 11.9831 3.12797C11.9671 2.92619 11.9516 2.73672 11.9323 2.55745C11.8862 2.13827 11.8042 1.64932 11.5765 1.58836C11.3692 1.53239 10.7756 2.21888 10.5522 2.47695L10.4154 2.63487L10.3124 2.58931C10.0237 2.45975 9.70399 2.38488 9.36228 2.36629L9.19116 2.35716L9.22052 2.18723C9.48246 0.669929 9.72809 0.647307 9.82038 0.63828C9.94004 0.62681 10.0664 0.704338 10.1992 0.86842C10.2719 0.420992 10.3629 0.0220973 10.765 0.000538278C11.0117 -0.0129494 11.1838 0.304594 11.261 0.484606C11.8398 0.603659 15.1139 1.34484 15.681 2.95114C15.8439 3.41248 15.4582 3.65962 15.0496 3.92098C14.8024 4.07933 14.5222 4.2587 14.2702 4.51677C14.1678 4.62117 14.0597 4.74691 13.9452 4.87998C13.9009 4.93149 13.8564 4.98332 13.8118 5.03419C13.5581 5.32422 13.3477 5.53334 13.1461 5.61086C13.1236 5.61947 13.1006 5.62657 13.0772 5.6321C13.0465 5.63937 13.0151 5.64308 12.9835 5.64315ZM11.5591 1.27985C11.5911 1.27972 11.6229 1.28382 11.6538 1.29206C12.0768 1.40527 12.1751 1.98715 12.234 2.524C12.2542 2.70784 12.2695 2.90017 12.2858 3.10365C12.3223 3.56297 12.3602 4.03823 12.4582 4.44615C12.4647 4.47387 12.4711 4.50063 12.4784 4.52697C12.5846 4.92798 12.7391 5.18924 12.951 5.32709C12.9615 5.33431 12.9764 5.341 13.01 5.33304C13.0203 5.33059 13.0304 5.32747 13.0402 5.32369C13.1907 5.26581 13.3998 5.04226 13.5843 4.83134C13.6283 4.78111 13.6723 4.72992 13.7161 4.67905C13.8287 4.5481 13.9451 4.41269 14.0542 4.30139C14.3305 4.01858 14.6391 3.82104 14.8871 3.66217C15.3236 3.38275 15.4697 3.26603 15.3949 3.05405C14.8436 1.49225 11.1602 0.776767 11.123 0.769652L11.0388 0.753616L11.0088 0.672371C10.9457 0.501811 10.8308 0.320524 10.7773 0.306612C10.6131 0.315852 10.5592 0.541849 10.4838 1.01923C10.475 1.07519 10.4659 1.13244 10.4562 1.19064C10.4496 1.23036 10.4309 1.26706 10.4029 1.29574C10.3749 1.32441 10.3387 1.34369 10.2995 1.35094C10.2602 1.35819 10.2197 1.35306 10.1834 1.33626C10.1471 1.31945 10.1168 1.29179 10.0966 1.25701C9.99676 1.08773 9.91194 0.996606 9.86511 0.960709C9.78586 1.08815 9.65758 1.50712 9.55044 2.07413C9.81854 2.10156 10.0817 2.16587 10.3325 2.26529C10.7991 1.72579 11.2171 1.27985 11.5591 1.27985Z" fill="#1D1C22"/>
<path d="M5.625 8.80713C5.65973 8.84303 5.69488 8.87977 5.73024 8.91694H5.68814C5.66368 8.88245 5.64253 8.84568 5.625 8.80713Z" fill="white"/>
<path d="M10.2107 8.9169C10.2329 8.89354 10.2548 8.8706 10.2771 8.84766C10.2644 8.87171 10.2501 8.89485 10.2343 8.9169H10.2107Z" fill="white"/>
<path d="M10.3988 8.34351C10.4012 8.51891 10.3595 8.69207 10.2776 8.8468L10.3988 8.34351Z" fill="white"/>
<path d="M9.4015 8.84692C9.37214 9.3049 9.31081 9.76022 9.21797 10.2095C9.0357 11.072 8.68126 12.0255 8.00636 12.0255C7.33642 12.0255 6.98271 11.0876 6.79928 10.2307C6.70375 9.77466 6.64093 9.31223 6.61133 8.84703L9.4015 8.84692Z" fill="#EF5F5E"/>
<g opacity="0.35">
<path d="M9.4015 8.84692C9.37214 9.3049 9.31081 9.76022 9.21797 10.2095C9.0357 11.072 8.68126 12.0255 8.00636 12.0255C7.33642 12.0255 6.98271 11.0876 6.79928 10.2307C6.70375 9.77466 6.64093 9.31223 6.61133 8.84703H6.65416C6.68268 9.09533 6.72783 9.41542 6.79928 9.74741C6.98271 10.604 7.336 11.5422 8.00636 11.5422C8.68168 11.5422 9.0357 10.589 9.21797 9.72617C9.28637 9.40151 9.33079 9.09023 9.35857 8.84692H9.4015Z" fill="white"/>
</g>
<path d="M7.90186 11.0383L7.8163 9.03276C7.81457 8.99209 7.82892 8.95239 7.8562 8.92239C7.88347 8.8924 7.92144 8.87457 7.96174 8.87282C8.00205 8.87108 8.04139 8.88556 8.07111 8.91308C8.10083 8.94061 8.1185 8.97892 8.12023 9.01959C8.12023 9.02395 8.12023 9.02851 8.12023 9.03276L8.03467 11.0383C8.03372 11.0554 8.0263 11.0715 8.01396 11.0833C8.00161 11.0951 7.98526 11.1016 7.96827 11.1016C7.95127 11.1016 7.93493 11.0951 7.92258 11.0833C7.91023 11.0715 7.90282 11.0554 7.90186 11.0383Z" fill="#1D1C22"/>
<path d="M8.00651 12.1784C7.41612 12.1784 6.97623 11.605 6.69903 10.4727C6.50318 9.67293 6.46172 8.88778 6.45972 8.85518L6.76322 8.83936C6.80637 9.68292 7.11398 11.8722 8.00651 11.8722C8.89903 11.8722 9.20622 9.68292 9.24979 8.83936L9.55329 8.85518C9.55161 8.88821 9.50983 9.67357 9.31398 10.4732C9.03679 11.6045 8.59679 12.1784 8.00651 12.1784Z" fill="#1D1C22"/>
<g opacity="0.35">
<path d="M9.40139 8.84692C9.37203 9.3049 9.3107 9.76022 9.21786 10.2095C9.11415 10.2425 9.00605 10.2593 8.8973 10.2594C8.29608 10.2594 8.05866 9.83311 7.99226 9.67753C7.99068 9.67318 7.98781 9.66942 7.98405 9.66677C7.98028 9.66411 7.9758 9.66269 7.97121 9.66269C7.96662 9.66269 7.96214 9.66411 7.95837 9.66677C7.95461 9.66942 7.95174 9.67318 7.95016 9.67753C7.88334 9.83311 7.6455 10.2594 7.04427 10.2594C6.96202 10.2595 6.88004 10.2498 6.80002 10.2306C6.70448 9.77455 6.64167 9.31212 6.61206 8.84692H9.40139Z" fill="#1D1C22"/>
</g>
<path d="M10.3988 8.34267V8.34352L10.2776 8.84681C10.2777 8.84709 10.2777 8.84739 10.2776 8.84766C10.2553 8.8706 10.2334 8.89354 10.2112 8.91691C9.84441 9.30083 9.44545 9.72287 8.8979 9.72287C8.29636 9.72287 8.05905 9.29647 7.99222 9.14089C7.99069 9.13649 7.98784 9.13268 7.98407 9.12998C7.9803 9.12729 7.97579 9.12584 7.97117 9.12584C7.96655 9.12584 7.96205 9.12729 7.95828 9.12998C7.95451 9.13268 7.95166 9.13649 7.95013 9.14089C7.8833 9.29647 7.64546 9.72287 7.04434 9.72287C6.4971 9.72287 6.09794 9.30083 5.73118 8.91691C5.69561 8.87974 5.66046 8.84257 5.62594 8.8071C5.55765 8.66224 5.5232 8.5035 5.52523 8.3431C5.52744 8.117 5.5989 7.83599 5.82863 7.52163C6.41797 6.71524 7.28018 7.11169 7.42457 6.10691C7.56895 5.10214 6.89975 3.25146 7.96276 3.25146C9.02577 3.25146 8.35687 5.10246 8.50084 6.10691C8.6448 7.11137 9.50733 6.71524 10.0969 7.52163C10.3251 7.83567 10.3967 8.11657 10.3988 8.34267Z" fill="white"/>
<g opacity="0.35">
<path d="M10.2776 8.84699C10.2776 8.84723 10.2776 8.84749 10.2776 8.84773C10.2552 8.87067 10.233 8.89379 10.2111 8.91708C9.8441 9.30079 9.44535 9.72283 8.89759 9.72283C8.29636 9.72283 8.05895 9.29654 7.99254 9.14095C7.99096 9.1366 7.98809 9.13284 7.98433 9.13019C7.98057 9.12754 7.97608 9.12611 7.97149 9.12611C7.9669 9.12611 7.96242 9.12754 7.95866 9.13019C7.95489 9.13284 7.95203 9.1366 7.95045 9.14095C7.88362 9.29654 7.64578 9.72283 7.04456 9.72283C6.49732 9.72283 6.09836 9.30079 5.7315 8.91708C5.69583 8.87991 5.66089 8.84274 5.62626 8.80705C5.57912 8.70892 5.5084 8.52031 5.54418 8.55302C5.91104 8.89074 6.49795 9.26616 7.04529 9.26616C7.64652 9.26616 7.88436 8.8917 7.95118 8.75491C7.95309 8.75091 7.95608 8.74754 7.9598 8.74518C7.96352 8.74282 7.96783 8.74157 7.97223 8.74157C7.97663 8.74157 7.98093 8.74282 7.98466 8.74518C7.98838 8.74754 7.99137 8.75091 7.99328 8.75491C8.0601 8.8917 8.29752 9.26616 8.89833 9.26616C9.44556 9.26616 10.3862 8.52583 10.3862 8.52551L10.2776 8.84699Z" fill="#1D1C22"/>
</g>
<path d="M8.89735 9.87618C8.40084 9.87618 8.11764 9.61757 7.97041 9.41027C7.82308 9.61757 7.5401 9.87618 7.04348 9.87618C6.43531 9.87618 6.00667 9.42747 5.62855 9.03155C5.40029 8.7926 5.18476 8.56692 4.97176 8.48642C4.95224 8.48004 4.93421 8.46973 4.91874 8.45612C4.90328 8.44251 4.89071 8.42588 4.88179 8.40723C4.87288 8.38859 4.86779 8.36831 4.86686 8.34762C4.86592 8.32694 4.86915 8.30628 4.87634 8.28689C4.88354 8.2675 4.89455 8.24978 4.90872 8.2348C4.92289 8.21983 4.93992 8.2079 4.95878 8.19975C4.97764 8.1916 4.99794 8.18739 5.01846 8.18738C5.03898 8.18736 5.05929 8.19155 5.07816 8.19967C5.35578 8.3045 5.59456 8.55449 5.84734 8.81915C6.19989 9.18831 6.56443 9.56989 7.04348 9.56989C7.54578 9.56989 7.74657 9.2276 7.80961 9.08041C7.82286 9.04839 7.8452 9.02105 7.87381 9.00182C7.90243 8.98259 7.93604 8.97233 7.97041 8.97233C8.00479 8.97233 8.0384 8.98259 8.06701 9.00182C8.09563 9.02105 8.11797 9.04839 8.13122 9.08041C8.19436 9.22749 8.39515 9.56989 8.89735 9.56989C9.37639 9.56989 9.74104 9.18831 10.0936 8.81915C10.3462 8.55449 10.5851 8.3045 10.8627 8.19967C10.8815 8.19155 10.9019 8.18736 10.9224 8.18738C10.9429 8.18739 10.9632 8.1916 10.9821 8.19975C11.0009 8.2079 11.0179 8.21983 11.0321 8.2348C11.0463 8.24978 11.0573 8.2675 11.0645 8.28689C11.0717 8.30628 11.0749 8.32694 11.074 8.34762C11.073 8.36831 11.068 8.38859 11.059 8.40723C11.0501 8.42588 11.0375 8.44251 11.0221 8.45612C11.0066 8.46973 10.9886 8.48004 10.9691 8.48642C10.7561 8.56692 10.5405 8.7926 10.3123 9.03155C9.93447 9.42747 9.50552 9.87618 8.89735 9.87618Z" fill="#1D1C22"/>
<path d="M8.93103 7.61954C8.93103 7.92604 8.68983 8.25803 8.45367 8.50941C8.20015 8.77948 7.81235 8.77948 7.55915 8.50941C7.3231 8.25803 7.08179 7.92604 7.08179 7.61954C7.08147 7.0194 8.93103 7.0194 8.93103 7.61954Z" fill="#1D1C22"/>
<g opacity="0.35">
<path d="M8.44351 7.55815C8.44351 7.60657 8.32944 7.65914 8.21788 7.69886C8.09802 7.74134 7.91469 7.74134 7.79483 7.69886C7.68317 7.65914 7.56909 7.60657 7.56909 7.55815C7.56909 7.4632 8.44351 7.4632 8.44351 7.55815Z" fill="white"/>
</g>
<path d="M7.96124 9.28098C7.92095 9.28096 7.88233 9.26479 7.85385 9.23603C7.82538 9.20727 7.80938 9.16828 7.80938 9.12763V8.71196C7.80884 8.69148 7.81238 8.67111 7.81977 8.65204C7.82717 8.63297 7.83827 8.61559 7.85243 8.60092C7.86659 8.58625 7.88352 8.57459 7.90221 8.56663C7.92091 8.55867 7.941 8.55457 7.96129 8.55457C7.98158 8.55457 8.00167 8.55867 8.02037 8.56663C8.03906 8.57459 8.05599 8.58625 8.07015 8.60092C8.08431 8.61559 8.09541 8.63297 8.10281 8.65204C8.1102 8.67111 8.11373 8.69148 8.1132 8.71196V9.12763C8.1132 9.1683 8.09719 9.20731 8.06869 9.23607C8.04019 9.26483 8.00154 9.28098 7.96124 9.28098Z" fill="#1D1C22"/>
<path d="M6.31214 4.4494C6.44053 4.5025 6.56913 4.37432 6.51673 4.24464C6.41149 3.98455 6.21154 3.68177 5.83605 3.60021C5.14421 3.44951 4.7462 4.16106 5.19693 4.26493C5.54106 4.34384 5.95402 4.30051 6.31214 4.4494Z" fill="#DD7F40"/>
<path d="M9.51352 4.4494C9.38513 4.5025 9.25653 4.37432 9.30883 4.24464C9.41407 3.98455 9.61402 3.68177 9.98962 3.60021C10.6817 3.44951 11.0796 4.16106 10.629 4.26493C10.2847 4.34384 9.87186 4.30051 9.51352 4.4494Z" fill="#DD7F40"/>
<path d="M6.55554 5.92298C6.63528 5.32701 6.34697 4.79579 5.91158 4.73646C5.4762 4.67714 5.0586 5.11217 4.97886 5.70814C4.89912 6.3041 5.18743 6.83533 5.62281 6.89465C6.0582 6.95398 6.4758 6.51895 6.55554 5.92298Z" fill="#1D1C22"/>
<path d="M6.28075 5.64423C6.30773 5.43827 6.23505 5.2587 6.11843 5.24314C6.00181 5.22758 5.8854 5.38193 5.85842 5.58789C5.83144 5.79385 5.90411 5.97343 6.02074 5.98898C6.13736 6.00454 6.25377 5.85019 6.28075 5.64423Z" fill="white"/>
<path d="M5.48015 6.1368C5.49186 6.03366 5.45399 5.94457 5.39555 5.93781C5.33712 5.93104 5.28025 6.00918 5.26853 6.11232C5.25681 6.21546 5.29469 6.30455 5.35312 6.31131C5.41156 6.31807 5.46843 6.23994 5.48015 6.1368Z" fill="white"/>
<path d="M10.3496 6.89452C10.785 6.83519 11.0733 6.30397 10.9935 5.708C10.9138 5.11203 10.4962 4.677 10.0608 4.73633C9.62541 4.79566 9.3371 5.32688 9.41685 5.92284C9.49659 6.51881 9.91418 6.95384 10.3496 6.89452Z" fill="#1D1C22"/>
<path d="M9.91252 5.99006C10.029 5.97463 10.1017 5.79539 10.0749 5.58971C10.0482 5.38404 9.93207 5.22982 9.81561 5.24525C9.69915 5.26068 9.62643 5.43993 9.65319 5.6456C9.67996 5.85127 9.79606 6.00549 9.91252 5.99006Z" fill="white"/>
<path d="M10.6189 6.31171C10.6774 6.30495 10.7153 6.21585 10.7035 6.11271C10.6918 6.00957 10.6349 5.93144 10.5765 5.9382C10.5181 5.94496 10.4802 6.03405 10.4919 6.13719C10.5036 6.24034 10.5605 6.31847 10.6189 6.31171Z" fill="white"/>
</g>
<defs>
<clipPath id="clip0_48_6504">
<rect width="25.7143" height="30" fill="white"/>
</clipPath>
</defs>
</svg>
