<svg width="29" height="26" viewBox="0 0 29 26" fill="none" xmlns="http://www.w3.org/2000/svg">
<g clip-path="url(#clip0_48_6236)">
<path d="M4.21137 7.40334C4.87699 8.16867 4.6626 8.71025 4.7237 9.3413C4.76652 9.78275 4.47752 9.96052 4.04546 10.0567C3.54475 10.168 2.77879 10.1398 2.07542 9.64827C1.7884 9.44761 1.439 9.16622 0.901338 9.13228C0.871534 9.01423 0.958363 8.89737 1.10321 8.78898C0.894582 8.5906 0.628731 8.38606 0.161404 8.16359C0.156635 8.1613 0.785003 6.89531 2.9602 6.85191C2.98613 6.54205 3.19555 6.4031 3.46011 6.4239C3.48684 6.97493 3.76521 6.89013 4.21137 7.40334Z" fill="#C4612B"/>
<path d="M4.04554 10.0564C3.54464 10.1678 2.77887 10.1395 2.075 9.64828C1.78799 9.44732 1.43918 9.16613 0.900922 9.13189C0.871118 9.01404 0.958146 8.89708 1.10309 8.78899C0.894465 8.59051 0.628315 8.38597 0.160889 8.16331C0.160889 8.15843 0.276826 7.92442 0.580032 7.65627C0.984274 7.29794 1.72113 6.8764 2.95998 6.85182C2.98581 6.54206 3.19514 6.40281 3.4597 6.42381C3.48662 6.97485 3.76529 6.88974 4.21145 7.40335C4.64947 7.9071 4.7058 8.3138 4.71107 8.71314C4.71395 8.92048 4.70262 9.12542 4.72359 9.34121C4.7666 9.78276 4.4776 9.96063 4.04554 10.0564Z" fill="#B1411E"/>
<g opacity="0.4">
<path d="M4.65847 9.70884C4.65923 9.67561 4.65791 9.64236 4.65449 9.6093C4.63353 9.39351 4.64456 9.18856 4.64198 8.98123C4.63671 8.58189 4.58038 8.17499 4.14236 7.67143C3.69619 7.15783 3.43591 7.24632 3.2702 6.69419C3.00564 6.67279 2.91672 6.80975 2.89089 7.11951C1.65204 7.14409 0.915183 7.56533 0.510941 7.92396C0.413993 8.00954 0.324429 8.10317 0.243202 8.20385C0.216179 8.19061 0.188859 8.17688 0.160645 8.16404C0.160645 8.15916 0.276582 7.92515 0.579788 7.657C0.98403 7.29867 1.72088 6.87714 2.95974 6.85255C2.98557 6.5428 3.19489 6.40354 3.45945 6.42455C3.48637 6.97558 3.76504 6.89048 4.21121 7.40408C4.64923 7.90783 4.70556 8.31454 4.71082 8.71387C4.7137 8.92121 4.70238 9.12615 4.72334 9.34195C4.73864 9.49225 4.7145 9.61249 4.65847 9.70884Z" fill="white"/>
</g>
<path d="M4.04554 10.0564C3.54464 10.1677 2.77887 10.1395 2.075 9.64826C1.78799 9.4473 1.43918 9.16611 0.900922 9.13187C0.871118 9.01402 0.958146 8.89707 1.10309 8.78897C0.894465 8.5905 0.628315 8.38595 0.160889 8.16329C0.160889 8.15841 0.276826 7.9244 0.580032 7.65625C0.547447 7.86796 0.575562 8.06086 0.753989 8.12457C1.43044 8.36584 1.87293 8.36903 2.57104 9.15118C3.09291 9.73615 3.55388 7.94062 4.71107 8.71322C4.71395 8.92056 4.70262 9.1255 4.72359 9.3413C4.7666 9.78274 4.4776 9.96061 4.04554 10.0564Z" fill="#963F27"/>
<path d="M3.54043 10.2696C2.98332 10.2714 2.43931 10.1004 1.98307 9.78012C1.95783 9.7625 1.932 9.74409 1.90558 9.72537C1.63873 9.53626 1.33612 9.32096 0.891049 9.29289C0.857074 9.29077 0.824643 9.27791 0.79842 9.25617C0.772197 9.23442 0.753533 9.2049 0.745109 9.17186C0.711729 9.04116 0.751268 8.91306 0.862636 8.78864C0.696727 8.6479 0.466441 8.48715 0.0921027 8.30888C0.0594606 8.29326 0.0330009 8.2671 0.0169675 8.23462C0.000934089 8.20213 -0.00374355 8.16518 0.0036845 8.12971C0.0174937 8.06511 0.21569 7.71535 0.656194 7.38688C1.04941 7.09374 1.74036 6.74208 2.82444 6.6948C2.90391 6.40316 3.14602 6.23694 3.47287 6.26351C3.51188 6.26666 3.54841 6.28391 3.57565 6.31207C3.60289 6.34022 3.61897 6.37734 3.6209 6.4165C3.63441 6.6941 3.70564 6.74905 3.89609 6.89596C4.01431 6.98714 4.16134 7.10051 4.33321 7.29779C4.87962 7.92666 4.87624 8.42255 4.87267 8.90241C4.87157 9.04724 4.87058 9.184 4.88439 9.32614C4.94469 9.94883 4.45462 10.1315 4.08067 10.2147C3.90306 10.2523 3.72195 10.2707 3.54043 10.2696ZM1.1118 8.99448C1.53968 9.06973 1.84259 9.28473 2.09225 9.4623C2.11801 9.48062 2.14321 9.49843 2.16785 9.51575C2.9669 10.0743 3.78065 9.95053 4.01103 9.89936C4.50459 9.78987 4.58853 9.61071 4.564 9.35709C4.5486 9.19783 4.54969 9.04644 4.55078 8.89923C4.55416 8.44136 4.55704 8.0457 4.09051 7.50901C3.94 7.33591 3.81234 7.23757 3.70008 7.15068C3.51748 7.00993 3.36796 6.89467 3.3165 6.59327C3.22023 6.61796 3.13549 6.69062 3.12098 6.86431C3.11765 6.90409 3.09972 6.94121 3.07065 6.96851C3.04159 6.99581 3.00345 7.01135 2.96362 7.01212C1.33255 7.04467 0.617647 7.79159 0.392825 8.09707C0.815744 8.31604 1.05259 8.51651 1.21442 8.67079C1.2314 8.68698 1.24465 8.70668 1.25325 8.72852C1.26184 8.75037 1.26557 8.77383 1.26418 8.79727C1.26279 8.82071 1.25631 8.84356 1.2452 8.86423C1.23408 8.8849 1.21859 8.90289 1.19982 8.91694C1.16837 8.94029 1.13893 8.96622 1.1118 8.99448Z" fill="#650000"/>
<path d="M2.63334 13.8591C3.10424 16.1992 6.59906 16.0471 6.61357 15.992C6.61357 15.992 9.17532 14.3128 6.28572 14.2164C5.8339 14.2014 5.47257 14.1513 5.18695 14.0726C3.22962 13.5335 4.81072 11.6589 4.99213 10.6137C5.11711 9.89388 4.77754 9.35171 4.48675 9.03359C4.30674 8.83741 3.99876 8.83293 3.8099 9.02046L3.79997 9.03041C3.73667 9.09389 3.69272 9.17411 3.67326 9.2617C3.6538 9.34929 3.65964 9.44062 3.69009 9.525C4.04098 10.5204 3.35778 11.1125 2.91251 11.9601C2.64993 12.4595 2.47021 13.0478 2.63334 13.8591Z" fill="#FEB845"/>
<path d="M2.63335 13.8591C3.10426 16.1992 6.59907 16.0471 6.61358 15.992C6.61358 15.992 9.17533 14.3128 6.28573 14.2165C5.83391 14.2014 5.47258 14.1514 5.18696 14.0726C4.90372 14.2625 4.49938 14.4271 3.965 14.3969C2.90079 14.3372 2.55884 13.1489 2.91192 11.9601C2.64994 12.4596 2.47022 13.0478 2.63335 13.8591Z" fill="#F48D40"/>
<path d="M6.27904 16.1778C6.23593 16.1778 6.19122 16.1772 6.14592 16.176C5.3888 16.1561 2.88665 15.9341 2.47546 13.8912C2.23384 12.6906 2.70266 11.9551 3.11624 11.3062C3.4872 10.7241 3.78027 10.2645 3.53876 9.57887C3.4569 9.34656 3.51512 9.08637 3.68709 8.91586L3.69653 8.90651C3.75741 8.84644 3.82969 8.79921 3.90911 8.76761C3.98852 8.73602 4.07346 8.7207 4.15888 8.72256C4.24314 8.72422 4.32618 8.74306 4.40294 8.77792C4.4797 8.81277 4.54857 8.86293 4.60535 8.92532C4.92882 9.27897 5.28607 9.86384 5.15086 10.642C5.10039 10.9326 4.95505 11.2683 4.80126 11.6237C4.5214 12.2707 4.20419 13.0035 4.49438 13.4629C4.72288 13.8241 5.3273 14.0236 6.29166 14.0556C7.20625 14.0862 7.70079 14.2795 7.80342 14.6468C7.96972 15.2417 6.96752 15.9508 6.71905 16.1158C6.66451 16.1615 6.57917 16.1668 6.49582 16.1719C6.43313 16.1756 6.35882 16.1778 6.27904 16.1778ZM6.45787 15.952C6.45771 15.952 6.45757 15.9519 6.45747 15.9518L6.45787 15.952ZM6.45787 15.9515C6.45787 15.9515 6.45757 15.9514 6.45757 15.9513L6.45787 15.9515ZM6.48111 15.9007C6.47045 15.9161 6.46258 15.9333 6.45787 15.9515C6.4625 15.9333 6.47026 15.916 6.48082 15.9005L6.48111 15.9007ZM4.14349 9.04516C4.10264 9.04497 4.06215 9.05287 4.02435 9.06839C3.98656 9.08392 3.95219 9.10677 3.92323 9.13564L3.9133 9.14499C3.87151 9.18685 3.84259 9.23984 3.82996 9.29768C3.81733 9.35551 3.82154 9.41576 3.84207 9.47127C4.13584 10.3053 3.77253 10.8757 3.38726 11.4797C2.98789 12.1068 2.5749 12.7538 2.79118 13.8272C2.90662 14.4004 3.22979 14.8639 3.75196 15.205C4.80583 15.8936 6.33577 15.8693 6.54539 15.8438C6.99245 15.5452 7.57164 15.0138 7.49326 14.7335C7.46653 14.6379 7.29456 14.4117 6.28123 14.378C5.18841 14.3416 4.51524 14.0986 4.22257 13.6353C3.84117 13.0316 4.19445 12.2154 4.5061 11.4952C4.65204 11.1579 4.78994 10.8392 4.83395 10.5865C4.9466 9.9375 4.6429 9.4434 4.36831 9.1432C4.34071 9.11293 4.30725 9.08861 4.26996 9.07172C4.23268 9.05483 4.19235 9.04572 4.15143 9.04496L4.14349 9.04516Z" fill="#650000"/>
<path d="M15.8824 19.3346C15.8824 19.3346 15.6241 22.5547 11.9463 23.378C11.9463 23.378 12.1052 25.7599 10.1321 25.8365C8.42145 25.903 8.01601 24.3335 8.1101 23.1966C8.22325 21.8306 8.88212 21.0984 9.66438 20.4495C10.685 19.6022 9.84072 15.8489 13.0011 13.332" fill="#FD9D24"/>
<path d="M15.8822 19.3346C15.8822 19.3346 15.6338 22.4396 12.1417 23.3311H12.1409C12.0773 23.3476 12.0125 23.363 11.9464 23.3779C11.9464 23.3779 12.1054 25.76 10.1322 25.8364C8.42133 25.903 8.01609 24.3334 8.11008 23.1966C8.16889 22.4875 8.37464 21.9489 8.6686 21.5045C8.94071 21.0923 9.28823 20.7611 9.66426 20.4489C10.6849 19.6017 9.8407 15.8484 13.0009 13.332L15.8822 19.3346Z" fill="#FD9D24"/>
<path d="M15.8822 19.3346C15.8822 19.3346 15.7936 20.4428 14.9775 21.5251C14.5958 22.0314 14.0551 22.532 13.2896 22.9112C12.9227 23.091 12.5379 23.2317 12.1417 23.3311H12.1409C12.0773 23.3476 12.0125 23.363 11.9464 23.3779C11.9464 23.3779 12.1054 25.76 10.1322 25.8364C8.42133 25.903 8.01609 24.3334 8.11008 23.1966C8.16889 22.4875 8.37464 21.9489 8.6686 21.5045C8.94071 21.0923 9.28823 20.7611 9.66426 20.4489C10.6849 19.6017 9.8407 15.8484 13.0009 13.332L15.8822 19.3346Z" fill="#F48D40"/>
<path d="M10.0271 26.0002C9.43337 26.0002 8.95025 25.8091 8.58962 25.4315C8.11355 24.9332 7.87432 24.0928 7.94973 23.1835C8.06189 21.8286 8.67496 21.0609 9.56173 20.325C9.8855 20.0563 10.0062 19.3948 10.1591 18.5576C10.4447 16.993 10.8358 14.8502 12.9011 13.2056C12.9345 13.179 12.9771 13.1667 13.0196 13.1716C13.062 13.1764 13.1008 13.198 13.1274 13.2315C13.154 13.265 13.1662 13.3077 13.1613 13.3502C13.1565 13.3927 13.135 13.4316 13.1015 13.4582C11.131 15.0275 10.7524 17.1012 10.476 18.6157C10.3114 19.5175 10.1814 20.2298 9.76727 20.5735C8.94349 21.2574 8.37364 21.9671 8.27081 23.2102C8.20296 24.0288 8.4092 24.7759 8.82239 25.2084C9.13881 25.5397 9.57742 25.6962 10.126 25.6755C10.5995 25.6571 10.9791 25.4926 11.2543 25.1867C11.8518 24.5227 11.7865 23.4 11.7858 23.3887C11.7833 23.3503 11.7946 23.3122 11.8176 23.2814C11.8406 23.2506 11.8739 23.229 11.9114 23.2206C13.3855 22.8906 14.4745 22.1366 15.1473 20.9793C15.6517 20.112 15.7214 19.3294 15.7221 19.3217C15.7262 19.2796 15.7467 19.2408 15.7791 19.2136C15.8115 19.1865 15.8533 19.1732 15.8954 19.1766C15.9375 19.18 15.9765 19.1998 16.0042 19.2318C16.0318 19.2638 16.0458 19.3054 16.0431 19.3477C16.0404 19.382 15.9696 20.1997 15.4333 21.1285C14.9499 21.9658 13.9829 23.0481 12.111 23.5053C12.111 23.8537 12.0558 24.7768 11.495 25.4015C11.1594 25.7753 10.703 25.976 10.1388 25.998C10.1009 25.9994 10.0638 26.0002 10.0271 26.0002Z" fill="#650000"/>
<path d="M23.0994 14.6333C23.5782 15.0314 25.0267 14.8999 26.0608 15.0604C26.2945 15.0966 26.4435 15.7365 26.6558 15.8362C26.9961 17.1355 26.8247 17.6659 26.2305 17.9358C22.9826 19.1378 20.2716 17.4852 18.9683 16.2182" fill="#FD9D24"/>
<path d="M26.2306 17.9356C25.813 18.0912 25.381 18.205 24.941 18.2753C24.4967 18.3459 24.0461 18.3684 23.597 18.3423C21.5476 18.2241 19.8992 17.1228 18.9683 16.2184L23.0993 14.6334C23.578 15.0316 25.0271 14.9001 26.0607 15.0602C26.2947 15.0966 26.4436 15.7363 26.6558 15.8366C26.9961 17.1358 26.8249 17.6658 26.2306 17.9356Z" fill="#FD9D24"/>
<path d="M26.2306 17.9356C25.813 18.0912 25.381 18.205 24.941 18.2753C24.4967 18.3459 24.0461 18.3684 23.597 18.3423C21.5476 18.2241 19.8992 17.1228 18.9683 16.2184L23.0993 14.6334C23.578 15.0316 25.0271 14.9001 26.0607 15.0602C26.2947 15.0966 26.4436 15.7363 26.6558 15.8366C26.9961 17.1358 26.8249 17.6658 26.2306 17.9356Z" fill="#FD9D24"/>
<path d="M26.7431 17.4363C26.6476 17.6699 26.4748 17.8244 26.2308 17.9356C25.8132 18.0912 25.3812 18.205 24.9412 18.2753C24.4969 18.3459 24.0464 18.3684 23.5973 18.3423C21.5478 18.2241 19.8995 17.1228 18.9685 16.2184L23.0995 14.6334C23.5783 15.0316 25.0274 14.9001 26.061 15.0602C26.1145 15.0687 26.1637 15.1086 26.21 15.1663C26.3666 15.3611 26.4926 15.7593 26.6561 15.8363C26.8564 16.602 26.8794 17.1006 26.7431 17.4363Z" fill="#FEB845"/>
<path d="M26.7431 17.4363C26.6476 17.6699 26.4748 17.8244 26.2308 17.9356C25.8132 18.0912 25.3812 18.205 24.9412 18.2753C24.4969 18.3459 24.0464 18.3684 23.5973 18.3423C21.5478 18.2241 19.8995 17.1228 18.9685 16.2184L23.0995 14.6334C23.5783 15.0316 25.0274 14.9001 26.061 15.0602C26.1145 15.0687 26.1637 15.1086 26.21 15.1663C25.3378 15.5596 24.0719 16.1829 23.7397 16.6218C23.3641 17.1171 23.7929 17.9083 24.6723 17.5873C24.9791 17.4751 24.8853 16.2634 25.1711 16.2129C25.3599 16.1793 25.648 17.4541 25.8476 17.3803C26.2563 17.2285 26.5427 17.2814 26.7431 17.4363Z" fill="#F48D40"/>
<path d="M26.2928 15.1292C25.9143 15.2984 25.4483 15.5164 25.0136 15.7463C24.9592 15.5074 24.9495 15.2065 25.1311 14.962C25.601 14.9943 25.9348 15.0424 25.9348 15.0424C26.0562 15.0618 26.1759 15.0908 26.2928 15.1292Z" fill="#FCE8D0"/>
<path d="M26.2927 15.1291C25.8872 15.3103 25.3811 15.5479 24.9217 15.7955L24.3435 14.9338C25.1802 14.9338 25.9351 15.0424 25.9351 15.0424C26.0564 15.0619 26.176 15.0908 26.2927 15.1291Z" fill="#FC7D27"/>
<path d="M23.9571 18.5157C23.2433 18.5157 22.529 18.3958 21.8188 18.1558C20.3671 17.6652 19.3394 16.8039 18.8561 16.3343C18.8261 16.3043 18.809 16.2638 18.8086 16.2213C18.8082 16.1789 18.8245 16.138 18.854 16.1075C18.8835 16.077 18.9238 16.0594 18.9662 16.0585C19.0085 16.0576 19.0496 16.0735 19.0803 16.1027C19.833 16.8341 22.5674 19.1165 26.1693 17.7867C26.6202 17.5798 26.8349 17.1938 26.5155 15.937C26.407 15.85 26.3275 15.6981 26.2441 15.5389C26.1896 15.4345 26.088 15.2403 26.0335 15.2199C25.6815 15.1654 25.2692 15.1451 24.8705 15.1255C24.0879 15.087 23.3487 15.0506 22.9967 14.7581C22.9804 14.7446 22.9669 14.728 22.957 14.7092C22.9471 14.6905 22.941 14.67 22.939 14.6488C22.937 14.6277 22.9392 14.6064 22.9454 14.5861C22.9517 14.5659 22.9618 14.547 22.9753 14.5307C22.9888 14.5143 23.0054 14.5008 23.0241 14.4909C23.0428 14.481 23.0633 14.4749 23.0844 14.4729C23.1055 14.4709 23.1267 14.4731 23.147 14.4793C23.1672 14.4856 23.186 14.4958 23.2023 14.5093C23.4718 14.7331 24.1908 14.7681 24.8862 14.8027C25.2936 14.8226 25.7142 14.8434 26.0856 14.9012C26.2913 14.9331 26.4124 15.1647 26.5294 15.3889C26.5839 15.493 26.6749 15.6676 26.7243 15.6905C26.7456 15.7006 26.7645 15.7152 26.7796 15.7334C26.7947 15.7516 26.8057 15.7728 26.8117 15.7957C27.1575 17.1165 27.0133 17.7579 26.2971 18.0832C26.2936 18.0848 26.29 18.0863 26.2864 18.0876C25.5145 18.3729 24.7363 18.5157 23.9571 18.5157Z" fill="#650000"/>
<path d="M25.1658 16.1598C25.3591 18.2885 26.5187 18.412 27.0463 18.2673C27.8204 18.0548 27.9339 17.0248 27.4786 16.2109C27.1671 15.6535 26.7857 15.1827 25.9349 15.0425C25.9349 15.0425 25.1799 14.9338 24.3433 14.9338L25.1658 16.1598Z" fill="#FEB845"/>
<path d="M26.2927 15.1291C25.8872 15.3103 25.3811 15.5479 24.9217 15.7955L24.3435 14.9338C25.1802 14.9338 25.9351 15.0424 25.9351 15.0424C26.0564 15.0619 26.176 15.0908 26.2927 15.1291Z" fill="#FC7D27"/>
<path d="M25.2459 16.1524C25.3121 16.338 25.3565 16.5207 25.4041 16.7013C25.4488 16.882 25.5015 17.0591 25.5724 17.2258C25.5912 17.2667 25.6085 17.3086 25.6283 17.3487C25.6481 17.3889 25.6676 17.4295 25.6911 17.4668C25.7336 17.5436 25.7819 17.617 25.8355 17.6864C25.9397 17.8209 26.0701 17.933 26.2186 18.0157C26.3665 18.0962 26.5314 18.1404 26.6997 18.1445C26.8686 18.148 27.0397 18.1175 27.1758 18.0409C27.3136 17.9644 27.4202 17.8403 27.4878 17.69C27.5553 17.5397 27.5853 17.3664 27.5847 17.1916C27.5831 17.0139 27.5548 16.8375 27.5009 16.6682C27.4739 16.5829 27.4415 16.4994 27.4036 16.4183C27.3848 16.3777 27.3639 16.3379 27.3427 16.2988C27.3216 16.2598 27.2966 16.2174 27.2732 16.1775C27.1775 16.0182 27.0737 15.8671 26.9527 15.7363C26.8328 15.6067 26.6934 15.4969 26.5394 15.4109C26.3858 15.3255 26.2158 15.2671 26.04 15.2276L25.9087 15.2021L25.7696 15.1842C25.6751 15.1729 25.5803 15.1627 25.4852 15.1537C25.1052 15.1171 24.7234 15.0961 24.3434 15.0955C24.3219 15.0961 24.3005 15.0923 24.2805 15.0844C24.2605 15.0766 24.2422 15.0648 24.2268 15.0497C24.2115 15.0347 24.1992 15.0167 24.1909 14.9969C24.1825 14.977 24.1782 14.9557 24.1782 14.9342C24.1782 14.9126 24.1825 14.8913 24.1909 14.8714C24.1992 14.8516 24.2115 14.8336 24.2268 14.8186C24.2422 14.8035 24.2605 14.7917 24.2805 14.7839C24.3005 14.776 24.3219 14.7722 24.3434 14.7728C24.7362 14.7735 25.1268 14.7951 25.5157 14.8325C25.613 14.8416 25.7103 14.8521 25.8075 14.8638L25.956 14.8828L26.1091 14.9127C26.3098 14.9576 26.5094 15.0257 26.6941 15.1282C26.8783 15.2308 27.0452 15.3621 27.1885 15.517C27.3303 15.6704 27.4468 15.8405 27.5496 16.0124C27.5752 16.0558 27.5993 16.0984 27.6244 16.1427C27.6495 16.187 27.6732 16.2344 27.6951 16.282C27.7391 16.3763 27.7769 16.4733 27.8082 16.5726C27.8718 16.7728 27.905 16.9815 27.9067 17.1917C27.9067 17.4031 27.8727 17.6206 27.7812 17.8238C27.6917 18.0265 27.5349 18.2115 27.3341 18.3236C27.2354 18.379 27.129 18.4191 27.0183 18.4424C26.9114 18.4652 26.8022 18.4759 26.6929 18.4742C26.4731 18.471 26.257 18.4169 26.0616 18.316C25.9646 18.2655 25.8735 18.2042 25.7901 18.1334C25.7087 18.0628 25.6339 17.9848 25.5668 17.9004C25.5017 17.8171 25.443 17.7288 25.3915 17.6364C25.3645 17.5911 25.3443 17.5433 25.3206 17.4971C25.2986 17.45 25.2797 17.402 25.2591 17.3546C25.1857 17.1648 25.1313 16.968 25.0967 16.7674C25.0653 16.5688 25.057 16.3677 25.0858 16.168C25.0885 16.1497 25.0972 16.1328 25.1105 16.12C25.1238 16.1073 25.141 16.0993 25.1594 16.0975C25.1778 16.0956 25.1962 16.0999 25.2118 16.1098C25.2274 16.1196 25.2393 16.1344 25.2456 16.1517L25.2459 16.1524Z" fill="#650000"/>
<path d="M22.0127 14.7124C21.4973 16.5092 20.4287 18.1192 19.0106 19.3979C16.5811 21.5892 13.1261 22.8075 9.67205 22.3234C8.84181 22.2072 8.05797 21.9506 7.3835 21.561C6.73646 21.187 6.19055 20.69 5.802 20.0761L6.93783 13.0787C9.44703 11.6418 12.2269 13.0787 14.4328 10.9088C18.9438 11.8977 22.6939 12.3372 22.0127 14.7124Z" fill="#FD9D24"/>
<path d="M22.0127 14.7125C21.4973 16.5093 20.4287 18.1193 19.0106 19.398C16.5811 21.5893 13.1261 22.8076 9.67205 22.3235C8.84181 22.2073 8.05797 21.9507 7.3835 21.561C6.73646 21.1871 6.19055 20.6901 5.802 20.0762L6.93783 13.0788C7.34168 12.8477 7.75248 12.6906 8.16705 12.5811C8.68882 12.4432 9.21595 12.3806 9.74179 12.3391C10.1902 12.3044 10.6376 12.2846 11.0797 12.2467C11.6369 12.1991 12.1853 12.1228 12.7168 11.9506C12.9922 11.8623 13.2581 11.7469 13.5108 11.6061C13.8479 11.4163 14.1581 11.1819 14.4328 10.9093C14.7204 10.9722 15.0044 11.0333 15.2848 11.0924C19.4036 11.9617 22.6505 12.4885 22.0127 14.7125Z" fill="#FD9D24"/>
<path d="M22.0128 14.7123C21.9431 14.9556 21.8634 15.1953 21.7736 15.4315C21.6005 15.8859 21.3931 16.3264 21.1532 16.7491C20.5968 17.7317 19.8675 18.6253 19.0107 19.3979C16.5812 21.5891 13.1261 22.8074 9.67215 22.3233C8.84191 22.2072 8.05797 21.9506 7.3836 21.5609C6.73656 21.1869 6.19055 20.6899 5.802 20.0759L6.81534 13.8304L6.93734 13.0789C7.34118 12.8478 7.75198 12.6907 8.16665 12.5812C8.68842 12.4433 9.21546 12.3807 9.7413 12.3392C10.1898 12.3044 10.6372 12.2847 11.0793 12.2468C11.1139 12.244 11.1488 12.2407 11.1832 12.2375C11.7046 12.1891 12.2179 12.112 12.716 11.9507C12.9914 11.8624 13.2573 11.747 13.51 11.6062C13.8471 11.4163 14.1572 11.182 14.4321 10.9094C14.4787 10.9194 14.5254 10.9299 14.5717 10.9393C14.8118 10.9917 15.0492 11.0427 15.2841 11.0922C16.4307 11.3341 17.5094 11.55 18.456 11.7824C20.9104 12.3862 22.473 13.1076 22.0128 14.7123Z" fill="#FEB845"/>
<path d="M11.2311 12.1599C10.5394 13.2096 11.465 15.584 9.92822 15.839C10.2241 17.2963 13.9979 16.8785 13.9979 16.8785C13.9979 16.8785 15.5643 18.8047 17.9649 18.9269C18.1547 18.9368 18.2883 18.0844 19.572 17.3371C21.0774 16.4612 22.8557 16.6215 22.8557 16.6215L15.8823 8.9502" fill="#FC7D27"/>
<path d="M21.7737 15.4312C21.6007 15.8856 21.3933 16.3261 21.1533 16.7488C20.6508 16.8532 20.0952 17.0328 19.5721 17.337C18.2881 18.0841 18.1548 18.9364 17.9648 18.9268C15.5643 18.8041 13.9977 16.8783 13.9977 16.8783C13.9977 16.8783 10.2242 17.2964 9.92822 15.8386C11.4284 15.5898 10.5825 13.3219 11.1841 12.2375C11.7054 12.1891 12.2188 12.112 12.7169 11.9507C12.9922 11.8624 13.2582 11.747 13.5109 11.6062C13.848 11.4163 14.1581 11.182 14.4329 10.9094C14.4796 10.9194 14.5263 10.9299 14.5726 10.9393C14.8126 10.9917 15.05 11.0427 15.2849 11.0922C16.4316 11.3341 17.5103 11.55 18.4568 11.7824L21.7737 15.4312Z" fill="#F48D40"/>
<path d="M22.5238 16.6099C21.9391 16.6087 20.6813 16.6914 19.572 17.3373C18.288 18.0844 18.1547 18.9367 17.9646 18.9271C16.4061 18.8475 15.1985 18.0073 14.5439 17.4281C14.8926 17.0262 15.4591 16.6014 16.2957 16.6014C17.883 16.6014 19.1034 16.411 19.1034 16.411C20.1409 16.4857 21.6045 16.3727 22.3687 16.5672C22.4114 16.578 22.4533 16.5894 22.4948 16.6014L22.5238 16.6099Z" fill="#FC7D27"/>
<g opacity="0.4">
<path d="M14.5732 10.9398C13.2916 13.4176 9.05866 12.0568 7.05394 13.6349C6.97099 13.7003 6.89161 13.7652 6.81641 13.8306L6.9384 13.079C7.34225 12.8479 7.75305 12.6908 8.16762 12.5814C8.68939 12.4434 9.21652 12.3809 9.74237 12.3394C10.1908 12.3046 10.6382 12.2848 11.0803 12.2469C11.6375 12.1993 12.1859 12.1231 12.7174 11.9509C12.9928 11.8625 13.2587 11.7471 13.5114 11.6063C13.8485 11.4165 14.1586 11.1821 14.4334 10.9095C14.4798 10.9197 14.5265 10.9302 14.5732 10.9398Z" fill="white"/>
</g>
<g opacity="0.4">
<path d="M7.13701 13.572C7.1088 13.592 7.08098 13.6136 7.05366 13.635C5.11213 15.1634 5.34162 16.5278 4.92933 18.2999C4.6592 19.4613 3.85231 20.1137 3.37793 20.3928C3.57166 20.1931 3.75763 20.0046 3.91669 19.8183C3.92473 19.8091 3.93278 19.7994 3.94043 19.7897C4.16187 19.517 4.29232 19.1632 4.3854 18.7554C4.48356 18.3213 4.53959 17.8255 4.61569 17.3022C4.69616 16.7448 4.80048 16.1553 5.00424 15.5732C5.16001 15.1295 5.37341 14.6897 5.679 14.2723C5.99065 13.8459 6.39817 13.4421 6.93812 13.0793C6.93812 13.0793 6.94487 13.098 6.95858 13.133C6.98839 13.2093 7.04958 13.3647 7.13701 13.572Z" fill="white"/>
</g>
<path d="M19.0107 19.398C16.5812 21.5893 13.1262 22.8076 9.6721 22.3234C8.84186 22.2073 8.05801 21.9507 7.38354 21.561L9.90695 19.6669C9.90695 19.6669 13.1967 20.226 15.1416 17.8156C16.402 18.2333 17.8535 18.8627 19.0107 19.398Z" fill="#FFF8EE"/>
<path d="M19.0107 19.3979C16.5812 21.5892 13.1262 22.8075 9.6721 22.3234C8.84186 22.2072 8.05801 21.9506 7.38354 21.5609L9.90695 19.667C9.90778 19.6669 9.90861 19.6669 9.90944 19.667C9.99686 19.6814 12.4058 20.0596 14.295 18.6363C14.6102 18.3989 14.8949 18.1233 15.1425 17.8158C16.402 18.2332 17.8535 18.8626 19.0107 19.3979Z" fill="#FFF8EE"/>
<path d="M19.0107 19.398C16.5812 21.5892 13.1262 22.8076 9.6721 22.3234C8.84186 22.2073 8.05801 21.9507 7.38354 21.561L9.90695 19.667C9.90778 19.6669 9.90861 19.6669 9.90944 19.667C10.2235 20.4294 9.94043 21.0176 9.98265 21.2245C10.082 21.7135 12.9233 21.8204 14.6577 20.8983C16.2586 20.047 14.5844 19.757 14.2941 18.6359C14.6093 18.3985 14.894 18.1229 15.1416 17.8154C16.402 18.2333 17.8535 18.8626 19.0107 19.398Z" fill="#FCE8D0"/>
<path d="M11.1768 22.589C10.666 22.5894 10.1558 22.554 9.64994 22.4832C7.89588 22.2375 6.44373 21.3916 5.66614 20.1627C5.64327 20.1265 5.63567 20.0827 5.64501 20.041C5.65436 19.9992 5.67988 19.9629 5.71596 19.9399C5.75205 19.917 5.79574 19.9094 5.83743 19.9188C5.87911 19.9281 5.91538 19.9537 5.93825 19.9899C6.66537 21.1386 8.03447 21.9308 9.69495 22.1636C15.003 22.9072 20.4595 19.5449 21.8583 14.6686C21.9836 14.2314 21.9502 13.8623 21.7559 13.5394C21.1151 12.4753 18.7386 11.9792 15.9868 11.4048C15.4995 11.3032 14.9965 11.1981 14.4832 11.0863C13.2248 12.28 11.771 12.3714 10.3651 12.4599C9.24957 12.5295 8.09606 12.6025 7.01835 13.2198C6.98126 13.2411 6.93727 13.2467 6.89606 13.2354C6.85485 13.2242 6.81979 13.197 6.79859 13.1598C6.7774 13.1226 6.7718 13.0786 6.78303 13.0373C6.79427 12.996 6.82141 12.9609 6.8585 12.9396C8.00099 12.2852 9.19315 12.2102 10.345 12.1378C11.7789 12.0476 13.1335 11.9624 14.3205 10.795C14.3396 10.7763 14.3631 10.7626 14.3888 10.7552C14.4145 10.7478 14.4416 10.7469 14.4678 10.7526C15.0088 10.8712 15.5393 10.9816 16.0524 11.089C18.9945 11.7031 21.3184 12.1881 22.0317 13.3728C22.2714 13.771 22.3171 14.237 22.1678 14.7579C20.8605 19.3142 16.1207 22.5889 11.1768 22.589Z" fill="#650000"/>
<path d="M14.094 18.1296C16.1044 21.3369 20.942 19.7725 20.9878 19.7725C21.0336 19.7725 21.884 20.5257 23.0933 20.2694C23.8867 20.1012 24.7027 19.2986 24.4055 18.3092C24.1287 17.3889 23.4286 16.8375 22.3689 16.5673C21.6049 16.3727 20.1412 16.4856 19.1037 16.4113" fill="#FD9D24"/>
<path d="M23.0935 20.2694C21.884 20.5256 21.0336 19.7728 20.9874 19.7728C20.9412 19.7728 16.1043 21.3368 14.0935 18.1297C14.0935 18.1297 14.7089 16.6017 16.2957 16.6017C17.8826 16.6017 19.1035 16.4113 19.1035 16.4113C20.141 16.4859 21.6046 16.3729 22.3689 16.5673C22.4115 16.5783 22.4534 16.5895 22.4949 16.6017C23.4842 16.8825 24.14 17.4262 24.4058 18.3092C24.7028 19.2988 23.8867 20.1012 23.0935 20.2694Z" fill="#FD9D24"/>
<path d="M23.0935 20.2693C21.884 20.5255 21.0336 19.7727 20.9874 19.7727C20.9801 19.7727 20.8565 19.8106 20.6455 19.8623C20.2407 19.9619 19.8302 20.0367 19.4163 20.0861C18.9554 20.1434 18.4906 20.1639 18.0264 20.1474C17.6964 20.1359 17.3677 20.0999 17.0429 20.0397C16.554 19.9482 16.0664 19.7933 15.6115 19.5492C15.2786 19.372 14.9724 19.1486 14.7019 18.8856C14.4698 18.6587 14.2657 18.4047 14.094 18.1291C14.094 18.1291 14.7091 16.6011 16.296 16.6011C17.8829 16.6011 19.1036 16.4106 19.1036 16.4106C20.1411 16.4853 21.6047 16.3723 22.369 16.5667C22.4116 16.5777 22.4535 16.5889 22.4949 16.6011C23.4842 16.8818 24.1401 17.4256 24.4059 18.3086C24.7028 19.2987 23.8867 20.101 23.0935 20.2693Z" fill="#FD9D24"/>
<path d="M23.0935 20.2693C21.884 20.5255 21.0336 19.7727 20.9874 19.7727C20.9801 19.7727 20.8565 19.8106 20.6455 19.8623C20.2407 19.9619 19.8302 20.0367 19.4163 20.0861C18.9554 20.1434 18.4906 20.1639 18.0264 20.1474C17.6964 20.1359 17.3677 20.0999 17.0429 20.0398C16.554 19.9482 16.0664 19.7933 15.6115 19.5492C15.2786 19.372 14.9724 19.1486 14.7019 18.8856C14.4701 18.659 14.2663 18.4053 14.0948 18.1301L14.094 18.1293C14.094 18.1293 14.7091 16.6012 16.296 16.6012C17.8829 16.6012 19.1036 16.4108 19.1036 16.4108C20.1411 16.4854 21.6047 16.3724 22.369 16.5668C22.4116 16.5778 22.4535 16.589 22.4949 16.6012C23.4842 16.882 24.1401 17.4257 24.4059 18.3087C24.4348 18.4046 24.4538 18.5031 24.4626 18.6028C24.5377 19.4548 23.8065 20.118 23.0935 20.2693Z" fill="#FEB845"/>
<path d="M22.5238 16.6099C21.9391 16.6087 20.6813 16.6914 19.572 17.3373C18.288 18.0844 18.1547 18.9367 17.9646 18.9271C16.4061 18.8475 15.1985 18.0073 14.5439 17.4281C14.8926 17.0262 15.4591 16.6014 16.2957 16.6014C17.883 16.6014 19.1034 16.411 19.1034 16.411C20.1409 16.4857 21.6045 16.3727 22.3687 16.5672C22.4114 16.578 22.4533 16.5894 22.4948 16.6014L22.5238 16.6099Z" fill="#F48D40"/>
<path d="M23.0935 20.2694C21.8839 20.5256 21.0335 19.7728 20.9873 19.7728C20.98 19.7728 20.8565 19.8107 20.6454 19.8624C20.2406 19.962 19.8301 20.0368 19.4162 20.0862C18.9553 20.1435 18.4905 20.164 18.0264 20.1475C17.6963 20.136 17.3676 20.1 17.0428 20.0398C16.554 19.9483 16.0664 19.7934 15.6115 19.5493C15.2786 19.3721 14.9723 19.1487 14.7018 18.8857C14.4701 18.6591 14.2662 18.4054 14.0947 18.1301C14.143 18.1838 16.2432 20.4674 20.6919 18.8757C20.6919 18.8757 21.5991 19.9757 23.03 19.7873C23.9822 19.6623 24.3333 19.0475 24.4625 18.6028C24.5377 19.4549 23.8065 20.1181 23.0935 20.2694Z" fill="#F48D40"/>
<path d="M14.1621 18.0868C14.3986 18.3868 14.6528 18.6641 14.9399 18.9019C15.226 19.1406 15.5417 19.3414 15.8791 19.4991C16.2169 19.6567 16.5765 19.7668 16.9433 19.8454C17.3125 19.9225 17.6877 19.9671 18.0646 19.9789C18.8209 20.0066 19.5841 19.9256 20.3289 19.7686C20.5154 19.7288 20.6998 19.6843 20.8836 19.6336L20.9191 19.6237L20.94 19.6181C20.9574 19.6135 20.9754 19.6113 20.9933 19.6115C21.0133 19.6126 21.0329 19.6168 21.0515 19.6241C21.0575 19.6264 21.0634 19.629 21.0691 19.632C21.085 19.6403 21.0901 19.6439 21.0978 19.6485L21.1158 19.6602L21.1472 19.6811C21.187 19.7078 21.2255 19.7331 21.2647 19.7574C21.3428 19.8062 21.4227 19.8511 21.5044 19.8921C21.831 20.0559 22.1891 20.1521 22.5495 20.157C22.7296 20.1597 22.9093 20.1407 23.0848 20.1002C23.2561 20.0594 23.4197 19.9915 23.5696 19.899C23.871 19.7155 24.1191 19.4383 24.2316 19.1158C24.2873 18.9551 24.3079 18.7843 24.2922 18.615C24.2836 18.5297 24.2672 18.4455 24.243 18.3633C24.2168 18.2769 24.1861 18.1919 24.1508 18.1088C24.0101 17.7772 23.7855 17.488 23.4993 17.2698C23.213 17.0509 22.8746 16.8953 22.5195 16.7856C22.4313 16.7592 22.3382 16.7322 22.2528 16.7132C22.1649 16.6933 22.0739 16.6793 21.9813 16.6672C21.7966 16.6434 21.6071 16.6303 21.4167 16.6214C21.0356 16.6039 20.6498 16.6045 20.2627 16.59C19.8755 16.5755 19.4854 16.5567 19.0976 16.492C19.0777 16.4887 19.0598 16.4781 19.0473 16.4623C19.0348 16.4465 19.0286 16.4266 19.03 16.4065C19.0314 16.3863 19.0402 16.3675 19.0548 16.3535C19.0693 16.3395 19.0885 16.3315 19.1086 16.331C19.8767 16.3103 20.646 16.2645 21.4298 16.2941C21.6259 16.3014 21.8228 16.3127 22.022 16.3365C22.1213 16.3485 22.2217 16.3631 22.3229 16.3846C22.4265 16.4068 22.5196 16.4329 22.617 16.461C22.8109 16.5181 23.0003 16.59 23.1832 16.6761C23.3689 16.7644 23.5449 16.872 23.7082 16.997C23.8734 17.124 24.0218 17.2714 24.1499 17.4359C24.2774 17.6009 24.3832 17.7818 24.4646 17.9739C24.505 18.0691 24.5401 18.1665 24.5697 18.2657C24.6001 18.3697 24.6205 18.4763 24.6308 18.5842C24.6503 18.8022 24.6229 19.0219 24.5506 19.2284C24.4774 19.4311 24.3672 19.6184 24.2256 19.7807C24.0866 19.9403 23.9237 20.0771 23.7426 20.1862C23.562 20.2967 23.365 20.3776 23.1589 20.4257C22.9569 20.4714 22.75 20.4924 22.543 20.4881C22.1288 20.4806 21.7216 20.3678 21.358 20.1831C21.2669 20.137 21.1783 20.0864 21.0925 20.0323C21.0497 20.0053 21.0074 19.9771 20.967 19.9498L20.9231 19.92L20.9324 19.9242C20.9483 19.9303 20.9651 19.9337 20.9821 19.9341C20.9941 19.9347 21.0061 19.9338 21.0178 19.9312L21.0037 19.9351L20.9693 19.9451C20.7805 19.9983 20.5891 20.0462 20.3973 20.0881C19.6299 20.2548 18.8433 20.3439 18.0527 20.3203C17.6559 20.3085 17.2608 20.2621 16.872 20.1816C16.4802 20.0996 16.0995 19.9711 15.7379 19.7989C15.3763 19.6257 15.0343 19.4037 14.7407 19.1282C14.448 18.8543 14.2058 18.5308 14.0254 18.1726C14.0163 18.1547 14.0142 18.134 14.0195 18.1146C14.0248 18.0951 14.0371 18.0784 14.0541 18.0676C14.071 18.0568 14.0914 18.0527 14.1112 18.0561C14.131 18.0595 14.1488 18.0702 14.1612 18.086L14.1621 18.0868Z" fill="#650000"/>
<path d="M9.92305 19.5298C9.92305 19.5298 9.7181 22.7083 6.16526 23.4247C6.04816 23.4481 5.92713 23.469 5.80215 23.4873C5.80215 23.4873 5.70707 25.6503 3.97496 25.6503C2.60964 25.6503 1.68631 24.7559 1.92952 22.9237C2.00899 22.3238 2.23113 21.8353 2.51179 21.4161C2.94464 20.7691 3.51588 20.2879 3.91655 19.8183C5.05079 18.4883 3.89122 15.1254 6.93798 13.079C6.93798 13.079 7.82773 15.4633 8.9415 16.6691C10.0553 17.875 9.92305 19.5298 9.92305 19.5298Z" fill="#FD9D24"/>
<path d="M9.92305 19.5299C9.92305 19.5299 9.90735 19.7768 9.80751 20.1483C9.70051 20.546 9.54101 20.9276 9.33323 21.283C9.13931 21.6161 8.90105 21.9212 8.62499 22.1899C8.24747 22.5581 7.76067 22.8938 7.13359 23.1414C6.81982 23.2643 6.49577 23.3591 6.16526 23.4246C6.04816 23.4481 5.92713 23.469 5.80215 23.4872C5.80215 23.4872 5.70707 25.6502 3.97496 25.6502C2.60964 25.6502 1.68631 24.7559 1.92952 22.9236C2.00899 22.3237 2.23113 21.8352 2.51179 21.4161C2.51656 21.4084 2.52172 21.4011 2.52709 21.3939C2.67481 21.1749 2.83874 20.9758 3.00584 20.7888C3.32504 20.4321 3.65686 20.1228 3.91655 19.8182C3.9246 19.809 3.93264 19.7993 3.94029 19.7895C4.16174 19.5169 4.29218 19.1631 4.38527 18.7553C4.48342 18.3212 4.53945 17.8254 4.61555 17.302C4.69602 16.7446 4.80034 16.1552 5.0041 15.5731C5.15987 15.1294 5.37327 14.6896 5.67886 14.2722C5.99051 13.8458 6.39803 13.4419 6.93798 13.0792C6.93798 13.0792 6.94474 13.0978 6.95845 13.1329C7.09753 13.4923 7.92638 15.5703 8.94151 16.6696C10.0556 17.8752 9.92305 19.5299 9.92305 19.5299Z" fill="#FD9D24"/>
<path d="M9.92363 19.5297C9.92363 19.5297 9.91032 19.7359 9.83184 20.055C9.82458 20.0848 9.81654 20.1163 9.80809 20.1481C9.70111 20.5458 9.54161 20.9275 9.33381 21.2829C9.13986 21.6159 8.9016 21.921 8.62557 22.1897C8.24805 22.558 7.76125 22.8937 7.13418 23.1414C6.8204 23.2643 6.49635 23.3591 6.16584 23.4246C6.04875 23.448 5.92768 23.4688 5.80263 23.4871C5.80273 23.4884 5.80273 23.4898 5.80263 23.4912C5.79707 23.5964 5.66355 25.6502 3.97594 25.6502C2.61052 25.6502 1.68729 24.7558 1.9305 22.9235C2.00997 22.3237 2.23211 21.8352 2.51277 21.416C2.51753 21.4084 2.5227 21.4011 2.52807 21.3938C2.67579 21.1749 2.83962 20.9758 3.00672 20.7888C3.32602 20.4321 3.65784 20.1227 3.91753 19.8182C3.92558 19.8088 3.93362 19.7992 3.94127 19.7895C4.16272 19.5168 4.29316 19.163 4.38615 18.7551C4.4844 18.3212 4.54043 17.8254 4.61653 17.3019C4.697 16.7445 4.80132 16.1551 5.00508 15.573C5.16085 15.1291 5.37425 14.6895 5.67984 14.2719C5.99149 13.8455 6.39901 13.4417 6.93886 13.0791C6.93886 13.0791 6.94572 13.0976 6.95943 13.1328C7.09851 13.4922 7.92736 15.5701 8.94239 16.6694C10.0557 17.8749 9.92363 19.5297 9.92363 19.5297Z" fill="#FEB845"/>
<path d="M9.8314 20.0551C9.82415 20.0849 9.8161 20.1164 9.80765 20.1482C9.70068 20.5459 9.54117 20.9275 9.33337 21.2829C9.13942 21.616 8.90116 21.9211 8.62513 22.1898C8.24761 22.5581 7.76081 22.8937 7.13374 23.1415C6.81996 23.2644 6.49591 23.3591 6.16541 23.4246C6.04831 23.4481 5.92724 23.4689 5.80219 23.4872C5.80229 23.4885 5.80229 23.4899 5.80219 23.4912C5.46243 22.6319 4.97235 22.4461 5.17412 22.2442C5.56386 21.8534 8.25467 22.8683 9.8314 20.0551Z" fill="#F48D40"/>
<g opacity="0.4">
<path d="M7.13701 13.572C7.1088 13.592 7.08098 13.6136 7.05366 13.635C5.11213 15.1634 5.34162 16.5278 4.92933 18.2999C4.6592 19.4613 3.85231 20.1137 3.37793 20.3928C3.57166 20.1931 3.75763 20.0046 3.91669 19.8183C3.92473 19.8091 3.93278 19.7994 3.94043 19.7897C4.16187 19.517 4.29232 19.1632 4.3854 18.7554C4.48356 18.3213 4.53959 17.8255 4.61569 17.3022C4.69616 16.7448 4.80048 16.1553 5.00424 15.5732C5.16001 15.1295 5.37341 14.6897 5.679 14.2723C5.99065 13.8459 6.39817 13.4421 6.93812 13.0793C6.93812 13.0793 6.94487 13.098 6.95858 13.133C6.98839 13.2093 7.04958 13.3647 7.13701 13.572Z" fill="white"/>
</g>
<path d="M5.62134 24.359C5.40953 24.9596 4.95373 25.6503 3.97496 25.6503C2.60964 25.6503 1.68631 24.756 1.92952 22.9237C2.00899 22.3238 2.23113 21.8353 2.51179 21.4161C2.51298 21.421 2.51417 21.4261 2.51536 21.4311C2.41724 21.683 2.34992 21.946 2.31488 22.2141C2.07168 24.0464 2.99491 24.9407 4.36023 24.9407C4.95015 24.9407 5.35032 24.6898 5.62134 24.359Z" fill="#F48D40"/>
<path d="M6.16532 23.4247C6.13432 23.4308 6.10293 23.4368 6.07153 23.4425C6.07219 23.4404 6.07272 23.4382 6.07312 23.436C6.10213 23.4328 6.13154 23.4292 6.16134 23.4252C6.16254 23.4252 6.16412 23.4247 6.16532 23.4247Z" fill="#FCE8D0"/>
<path d="M10.0032 19.5352C10.0018 19.6688 9.99077 19.8021 9.97008 19.9341C9.95045 20.0651 9.92422 20.195 9.8915 20.3234C9.82541 20.5809 9.73537 20.8317 9.62257 21.0724C9.39403 21.5575 9.07808 21.9962 8.6906 22.3664C8.30265 22.7367 7.84406 23.03 7.35458 23.239C7.11087 23.3449 6.85913 23.4312 6.60173 23.497C6.3463 23.5637 6.08679 23.6136 5.82484 23.6463L5.96264 23.4937C5.95608 23.5963 5.94431 23.6985 5.92737 23.7999C5.91108 23.8994 5.89111 23.9983 5.86677 24.0962C5.81885 24.2938 5.75232 24.4863 5.66807 24.6713C5.58234 24.8606 5.47139 25.0373 5.33824 25.1967C5.06358 25.528 4.67288 25.7417 4.24612 25.7939C4.14297 25.8073 4.03896 25.8129 3.93497 25.8107C3.8843 25.8098 3.83354 25.8091 3.78277 25.805C3.73201 25.8026 3.68124 25.7979 3.63057 25.7918C3.22643 25.7479 2.81593 25.6057 2.48709 25.3375C2.32371 25.2036 2.18394 25.0431 2.07361 24.8627C1.96614 24.6841 1.88402 24.4913 1.82962 24.29C1.72312 23.8907 1.71268 23.4804 1.74944 23.0832C1.7862 22.6861 1.88257 22.2838 2.04967 21.9168C2.13231 21.7334 2.22862 21.5564 2.33777 21.3875C2.44666 21.2208 2.56484 21.0604 2.69175 20.907C2.94329 20.6014 3.22067 20.3251 3.48582 20.0498C3.55206 19.9809 3.61696 19.9117 3.68054 19.8421C3.71214 19.8072 3.74343 19.7725 3.77383 19.7369C3.78982 19.719 3.80363 19.7021 3.81675 19.6855C3.82986 19.6688 3.84397 19.652 3.85649 19.6341C3.95981 19.4948 4.03779 19.3329 4.10068 19.1625C4.22457 18.8194 4.28865 18.4443 4.34537 18.0667C4.4021 17.6892 4.448 17.3034 4.51178 16.9185C4.57556 16.5336 4.65533 16.148 4.77097 15.7697C4.88661 15.3915 5.03643 15.0209 5.23135 14.6728C5.42592 14.3239 5.66324 14.0006 5.9378 13.7106C6.2117 13.4208 6.52037 13.1666 6.84851 12.9452C6.86605 12.9333 6.88577 12.9249 6.90653 12.9207C6.92729 12.9164 6.94869 12.9163 6.96949 12.9203C6.9903 12.9243 7.01011 12.9324 7.02779 12.9441C7.04546 12.9559 7.06066 12.971 7.0725 12.9886C7.08434 13.0062 7.09259 13.026 7.09678 13.0468C7.10098 13.0676 7.10103 13.089 7.09693 13.1099C7.09284 13.1307 7.08468 13.1505 7.07292 13.1682C7.06117 13.1859 7.04605 13.201 7.02843 13.2128H7.02783C6.71727 13.4225 6.42748 13.6613 6.17166 13.9322C5.91539 14.2028 5.69392 14.5044 5.5124 14.8301C5.33029 15.1554 5.18803 15.5035 5.07905 15.8635C4.97006 16.2235 4.89178 16.5949 4.82939 16.9711C4.767 17.3474 4.72011 17.7291 4.66378 18.114C4.60546 18.4984 4.54108 18.8893 4.40289 19.2734C4.33236 19.4644 4.24235 19.6542 4.11578 19.8253C4.10058 19.847 4.08389 19.8678 4.067 19.8884C4.05011 19.909 4.03352 19.9299 4.01733 19.9481C3.98494 19.986 3.95196 20.0228 3.91888 20.0594C3.85265 20.1324 3.78569 20.2038 3.718 20.2735C3.44837 20.5533 3.17894 20.8223 2.94011 21.1125C2.82117 21.2563 2.71036 21.4066 2.6082 21.5627C2.50799 21.718 2.41953 21.8805 2.34354 22.0489C2.19114 22.3851 2.10361 22.743 2.07003 23.114C2.03646 23.485 2.04728 23.8573 2.14037 24.2053C2.18668 24.377 2.25652 24.5415 2.34791 24.694C2.43925 24.8434 2.55497 24.9763 2.69026 25.0873C2.96127 25.3082 3.3078 25.4323 3.66693 25.4713C3.71184 25.4767 3.75635 25.4812 3.80234 25.483C3.84755 25.4868 3.89325 25.4872 3.93885 25.4881C4.02742 25.4901 4.11602 25.4854 4.2039 25.4741C4.3758 25.4526 4.54223 25.3993 4.69467 25.3169C4.99778 25.1529 5.22548 24.8644 5.3756 24.5363C5.45143 24.37 5.51131 24.1968 5.55442 24.0192C5.57667 23.9296 5.59486 23.8395 5.60976 23.7486C5.62466 23.6578 5.63628 23.5632 5.64115 23.4799C5.64335 23.4425 5.6582 23.407 5.68326 23.3793C5.70831 23.3516 5.74207 23.3332 5.77895 23.3273C6.27469 23.2459 6.75989 23.114 7.2156 22.9168C7.32985 22.8684 7.44052 22.8125 7.5504 22.7555C7.65898 22.6957 7.76618 22.6344 7.8696 22.5663C8.07716 22.4325 8.27284 22.281 8.45445 22.1135C8.63549 21.9452 8.80147 21.7612 8.95049 21.5638C9.09893 21.3649 9.23113 21.1543 9.34579 20.934C9.46149 20.7126 9.5611 20.4831 9.64383 20.2472C9.72859 20.0116 9.79502 19.7697 9.84252 19.5238L9.84342 19.519C9.84701 19.4991 9.85793 19.4813 9.87402 19.4691C9.8901 19.4569 9.91018 19.4512 9.93028 19.4531C9.95037 19.455 9.96902 19.4643 9.98254 19.4794C9.99606 19.4944 10.0035 19.5139 10.0033 19.5342L10.0032 19.5352Z" fill="#650000"/>
<path d="M25.413 16.7344C25.4233 16.7701 25.4436 16.8021 25.4715 16.8265C25.5062 16.8553 25.547 16.8757 25.5907 16.8863C25.6878 16.9116 25.8053 16.905 25.9171 16.8738C26.0322 16.8413 26.1404 16.7877 26.2362 16.7159C26.3349 16.6422 26.4208 16.5527 26.4904 16.4509L26.4912 16.4499C26.5028 16.4326 26.5207 16.4205 26.5411 16.4161C26.5615 16.4117 26.5828 16.4154 26.6005 16.4265C26.6182 16.4375 26.631 16.4549 26.6361 16.4752C26.6412 16.4954 26.6383 16.5169 26.628 16.535C26.5593 16.6608 26.4703 16.7744 26.3646 16.8711C26.2566 16.9706 26.1311 17.0493 25.9945 17.1031C25.8554 17.1566 25.7016 17.1871 25.537 17.1634C25.4495 17.151 25.3659 17.1191 25.2924 17.07C25.2127 17.0153 25.1502 16.939 25.1122 16.85L25.1109 16.847C25.0945 16.8077 25.0942 16.7635 25.1102 16.724C25.1262 16.6845 25.1571 16.6529 25.1961 16.6361C25.2352 16.6193 25.2794 16.6187 25.3189 16.6343C25.3585 16.65 25.3903 16.6806 25.4074 16.7196C25.4095 16.7245 25.4119 16.7295 25.413 16.7344Z" fill="#650000"/>
<path d="M25.8649 17.7392C25.9271 17.8315 26.0225 17.896 26.1312 17.9192C26.2444 17.9458 26.3741 17.9347 26.4959 17.8936C26.741 17.8119 26.9567 17.6127 27.0423 17.3578V17.3571C27.049 17.3376 27.063 17.3213 27.0813 17.3117C27.0996 17.3022 27.1209 17.3 27.1408 17.3057C27.1606 17.3115 27.1775 17.3246 27.188 17.3424C27.1985 17.3603 27.2017 17.3815 27.197 17.4016C27.1583 17.5597 27.0824 17.7062 26.9756 17.8288C26.868 17.9532 26.7344 18.0522 26.5842 18.1188C26.433 18.1854 26.261 18.2207 26.0832 18.1974C25.9924 18.1856 25.9044 18.1571 25.8238 18.1135C25.7415 18.0685 25.6687 18.0081 25.6093 17.9356L25.6059 17.9316C25.5924 17.9152 25.5823 17.8963 25.5761 17.876C25.5699 17.8557 25.5678 17.8343 25.5698 17.8132C25.5719 17.7921 25.5781 17.7715 25.588 17.7528C25.598 17.7341 25.6115 17.7175 25.6279 17.704C25.6443 17.6905 25.6631 17.6803 25.6834 17.6741C25.7036 17.6679 25.7249 17.6658 25.746 17.6679C25.7671 17.6699 25.7876 17.6761 25.8063 17.6861C25.825 17.6961 25.8416 17.7096 25.855 17.726C25.8589 17.7306 25.8619 17.7348 25.8649 17.7392Z" fill="#650000"/>
<path d="M23.8636 17.9754C23.9155 18.004 23.9653 18.0364 24.0126 18.0723C24.0589 18.1074 24.1033 18.145 24.1455 18.1849C24.2309 18.2665 24.3055 18.3587 24.3675 18.4593C24.4007 18.5091 24.4255 18.5642 24.4524 18.6186C24.4737 18.6751 24.4987 18.7312 24.512 18.7907C24.5478 18.9082 24.5576 19.0313 24.5617 19.154C24.563 19.1969 24.5472 19.2386 24.5179 19.2698C24.4885 19.3011 24.448 19.3194 24.4052 19.3208C24.3623 19.3221 24.3207 19.3063 24.2895 19.2769C24.2583 19.2475 24.24 19.2068 24.2387 19.1639C24.2387 19.1578 24.2387 19.1515 24.2392 19.1454L24.2401 19.1355C24.248 19.0416 24.2538 18.9456 24.2369 18.8517C24.2327 18.8039 24.2179 18.7584 24.2071 18.7112C24.1908 18.6661 24.1773 18.6191 24.1549 18.5754C24.1136 18.4849 24.0609 18.4 23.9981 18.323C23.9659 18.2839 23.9316 18.2467 23.8954 18.2114C23.86 18.1768 23.8224 18.1447 23.7827 18.1152L23.7771 18.1111C23.7606 18.0991 23.7493 18.0811 23.7455 18.0609C23.7417 18.0408 23.7458 18.0199 23.7568 18.0027C23.7679 17.9854 23.7851 17.973 23.8049 17.968C23.8248 17.963 23.8458 17.9658 23.8637 17.9758L23.8636 17.9754Z" fill="#650000"/>
<path d="M22.9062 18.8574C23.0061 18.9452 23.0963 19.0433 23.1755 19.1502C23.2544 19.2574 23.3246 19.3745 23.3734 19.5064C23.3984 19.5734 23.4167 19.6428 23.4281 19.7135C23.4389 19.7872 23.4406 19.8619 23.4332 19.936C23.4187 20.0871 23.3574 20.2332 23.2734 20.3553V20.3558C23.2614 20.3733 23.246 20.3882 23.2283 20.3997C23.2105 20.4113 23.1906 20.4192 23.1698 20.423C23.1489 20.4268 23.1276 20.4265 23.1069 20.4221C23.0861 20.4176 23.0665 20.4091 23.0491 20.3971C23.0316 20.3851 23.0167 20.3697 23.0052 20.3519C22.9937 20.3341 22.9858 20.3142 22.982 20.2933C22.9782 20.2724 22.9785 20.251 22.9829 20.2302C22.9874 20.2095 22.9958 20.1898 23.0078 20.1724C23.0109 20.1679 23.0144 20.1634 23.0178 20.1592C23.0844 20.081 23.1338 19.9929 23.1547 19.8942C23.1755 19.7956 23.1712 19.6878 23.1435 19.5798C23.1157 19.4718 23.0678 19.3643 23.0083 19.2622C22.948 19.1598 22.8773 19.0639 22.7973 18.9761L22.7942 18.9726C22.7804 18.9575 22.7729 18.9375 22.7732 18.917C22.7735 18.8964 22.7817 18.8767 22.796 18.862C22.8104 18.8473 22.8298 18.8386 22.8503 18.8377C22.8708 18.8369 22.8909 18.8439 22.9064 18.8574H22.9062Z" fill="#650000"/>
<path d="M4.93096 24.5575C4.91861 24.6914 4.89572 24.8242 4.86251 24.9545C4.82911 25.0893 4.77905 25.2194 4.71349 25.3419C4.64474 25.4663 4.55086 25.5876 4.42002 25.6771C4.28918 25.7666 4.12496 25.8116 3.96909 25.8116H3.9671C3.94558 25.8121 3.92418 25.8083 3.90414 25.8004C3.8841 25.7926 3.86584 25.7807 3.85044 25.7657C3.83503 25.7506 3.82278 25.7326 3.81442 25.7128C3.80606 25.6929 3.80176 25.6715 3.80176 25.65C3.80176 25.6284 3.80606 25.6071 3.81442 25.5872C3.82278 25.5673 3.83503 25.5493 3.85044 25.5343C3.86584 25.5192 3.8841 25.5074 3.90414 25.4995C3.92418 25.4916 3.94558 25.4878 3.9671 25.4884C3.97227 25.4884 3.97763 25.4884 3.9826 25.4891C4.08443 25.499 4.18238 25.4847 4.272 25.4369C4.36161 25.3891 4.44178 25.3101 4.50794 25.2149C4.57536 25.1151 4.63015 25.0074 4.67107 24.8941C4.71413 24.777 4.74794 24.6567 4.77221 24.5343V24.5338C4.77667 24.5139 4.78848 24.4965 4.80526 24.485C4.82204 24.4734 4.84254 24.4687 4.86267 24.4717C4.88279 24.4747 4.90103 24.4852 4.91374 24.5011C4.92644 24.517 4.93267 24.5372 4.93116 24.5575H4.93096Z" fill="#650000"/>
<path d="M3.74169 24.2078C3.71691 24.3589 3.67847 24.5074 3.62684 24.6514C3.57389 24.7957 3.50762 24.9384 3.40957 25.0702C3.35882 25.1385 3.29895 25.1994 3.23164 25.2513C3.15912 25.3071 3.07634 25.3479 2.98804 25.3716C2.89797 25.3935 2.80451 25.3976 2.71285 25.3838C2.62195 25.3726 2.54088 25.3416 2.4615 25.3097C2.42236 25.2933 2.39124 25.2621 2.37484 25.2229C2.35845 25.1837 2.35812 25.1397 2.37391 25.1002C2.38971 25.0608 2.42036 25.0291 2.45925 25.0122C2.49813 24.9952 2.54212 24.9942 2.58171 25.0095C2.58742 25.0117 2.59299 25.0143 2.5984 25.0172L2.60327 25.0199C2.71156 25.0796 2.82283 25.1113 2.92784 25.0958C3.03285 25.0802 3.13567 25.0128 3.2227 24.9166C3.30973 24.8205 3.38106 24.7006 3.44066 24.5744C3.50001 24.4468 3.54779 24.3141 3.58343 24.1779L3.58432 24.1743C3.58934 24.154 3.60202 24.1364 3.6197 24.1253C3.63738 24.1142 3.65867 24.1105 3.67908 24.1148C3.69949 24.1191 3.71743 24.1312 3.72911 24.1485C3.74079 24.1658 3.7453 24.187 3.74169 24.2076V24.2078Z" fill="#650000"/>
<path d="M10.0033 24.4081C9.99987 24.5659 9.98261 24.7231 9.95174 24.8778C9.91926 25.0329 9.87564 25.1891 9.79368 25.3388C9.75176 25.4171 9.69816 25.4886 9.63473 25.5508C9.5651 25.6185 9.48071 25.669 9.38825 25.6984C9.29307 25.7283 9.19343 25.7306 9.10143 25.7188C9.00765 25.7084 8.9246 25.6783 8.84313 25.6475C8.82305 25.6401 8.80462 25.6289 8.78891 25.6144C8.77319 25.5999 8.7605 25.5824 8.75158 25.563C8.74265 25.5435 8.73767 25.5225 8.73692 25.5011C8.73616 25.4797 8.73965 25.4584 8.74719 25.4384C8.75472 25.4184 8.76615 25.4 8.7808 25.3845C8.79546 25.3689 8.81305 25.3564 8.83257 25.3477C8.85208 25.339 8.87313 25.3342 8.89448 25.3337C8.91584 25.3332 8.93708 25.337 8.95698 25.3448C8.96275 25.347 8.96831 25.3494 8.97377 25.3521L8.97814 25.3544C9.09349 25.4141 9.21181 25.4468 9.31463 25.426C9.41746 25.4052 9.51332 25.3256 9.58694 25.2141C9.66056 25.1026 9.7149 24.968 9.75663 24.8297C9.79758 24.6894 9.82636 24.5459 9.84266 24.4008V24.3973C9.84515 24.3768 9.85539 24.358 9.87128 24.3448C9.88716 24.3317 9.90749 24.3251 9.92806 24.3265C9.94864 24.3279 9.9679 24.3371 9.98187 24.3523C9.99585 24.3675 10.0035 24.3875 10.0032 24.4081H10.0033Z" fill="#650000"/>
<path d="M11.2762 24.4882C11.2701 24.6371 11.2513 24.7852 11.2201 24.931C11.1898 25.0795 11.1431 25.2241 11.081 25.3623C11.0165 25.5022 10.9302 25.6398 10.8071 25.7538C10.7445 25.8116 10.6743 25.8607 10.5985 25.8996C10.5205 25.9374 10.4378 25.9645 10.3525 25.9802C10.3315 25.9847 10.3098 25.985 10.2886 25.981C10.2675 25.9769 10.2474 25.9687 10.2294 25.9568C10.2115 25.9448 10.1962 25.9294 10.1843 25.9115C10.1724 25.8935 10.1642 25.8733 10.1603 25.8521C10.1563 25.8309 10.1566 25.8092 10.1611 25.7881C10.1657 25.767 10.1744 25.7471 10.1867 25.7294C10.1991 25.7118 10.2149 25.6968 10.2331 25.6853C10.2514 25.6739 10.2717 25.6662 10.2929 25.6628C10.2976 25.6618 10.3022 25.6612 10.3069 25.6607H10.31C10.3662 25.6556 10.4215 25.6433 10.4746 25.6242C10.5284 25.6027 10.579 25.574 10.6251 25.5391C10.7201 25.4672 10.801 25.3658 10.8669 25.2519C10.9334 25.1343 10.9867 25.0097 11.0258 24.8803C11.067 24.7491 11.0972 24.6147 11.1159 24.4784V24.4747C11.1185 24.454 11.1289 24.4351 11.1451 24.4219C11.1613 24.4088 11.1819 24.4024 11.2026 24.4042C11.2234 24.406 11.2427 24.4158 11.2564 24.4315C11.2701 24.4472 11.2772 24.4676 11.2762 24.4885V24.4882Z" fill="#650000"/>
<path d="M10.9593 8.31712C10.2378 9.33786 10.9565 11.1611 9.0144 12.2706C10.329 13.1255 11.522 12.7628 11.5204 12.7712C11.2984 13.888 12.0082 15.132 10.8505 16.1056C12.4691 16.8903 14.4632 16.3821 14.5897 16.3815C15.8877 17.6187 16.4269 17.8486 17.6477 18.3555C19.0883 16.6916 21.2441 16.2233 23.8542 16.4785C25.1557 16.5142 26.415 16.2794 27.0562 14.5652C30.1049 13.8309 28.3235 9.61367 28.3306 9.61965C28.8488 8.55252 28.8094 7.45285 28.7876 7.21565C28.6811 6.06581 28.1369 5.57669 27.3168 5.44152C27.4545 4.3736 26.8223 2.89241 26.1849 2.10707C25.8482 1.6925 24.5609 0.428193 22.8815 0.211006C20.9007 -0.0451006 19.8763 0.78075 19.8763 0.78075C19.8763 0.78075 18.433 -0.242879 14.8135 0.854008C13.5132 1.24797 12.5557 1.20905 12.5557 1.20905C12.5557 1.20905 12.4472 2.04705 12.9539 2.53507C12.3368 3.14692 11.582 4.21036 11.3061 4.65399C10.2062 6.42364 10.3464 7.27836 9.17266 7.77007C9.90038 8.33613 10.9653 8.30866 10.9593 8.31712Z" fill="#C4612B"/>
<path d="M27.0563 14.5653C26.4148 16.2793 25.155 16.5141 23.8541 16.4786C21.2442 16.2233 19.0885 16.6916 17.6475 18.3553C16.4267 17.8486 15.8876 17.6187 14.5899 16.3814C14.463 16.3823 12.4691 16.8901 10.8506 16.1054C12.0082 15.1321 11.2983 13.8884 11.5202 12.771C11.5222 12.7624 10.3287 13.1255 9.01416 12.2703C10.957 11.1612 10.2377 9.3378 10.9593 8.31715C10.9593 8.30869 9.89835 8.33447 9.17242 7.76971C9.50573 7.63035 9.73284 7.46114 9.91285 7.25053C10.3666 6.7192 10.518 5.92082 11.306 4.65333C11.5818 4.21 12.3367 3.14626 12.9536 2.53471C12.4469 2.04698 12.5554 1.20869 12.5554 1.20869C12.5554 1.20869 13.5132 1.24741 14.8133 0.853346C18.4326 -0.243143 19.876 0.780287 19.876 0.780287C19.876 0.780287 20.9004 -0.0458619 22.8814 0.210642C24.5603 0.42773 25.848 1.69194 26.1845 2.1067C26.822 2.89174 27.4545 4.37304 27.3164 5.44116C28.1365 5.57633 28.6809 6.06565 28.7872 7.21539C28.8094 7.45258 28.8488 8.55226 28.3302 9.61928C28.3302 9.62486 28.792 10.7246 28.8375 11.8969C28.8818 13.018 28.5444 14.207 27.0563 14.5653Z" fill="#C4612B"/>
<path d="M27.0563 14.5653C26.4148 16.2793 25.155 16.5141 23.8541 16.4786C21.2442 16.2233 19.0885 16.6916 17.6475 18.3553C16.4267 17.8486 15.8876 17.6187 14.5899 16.3814C14.463 16.3823 12.4691 16.8901 10.8506 16.1054C12.0082 15.1321 11.2983 13.8884 11.5202 12.771C11.5222 12.7624 10.3287 13.1255 9.01416 12.2703C10.957 11.1612 10.2377 9.3378 10.9593 8.31715C10.9593 8.30869 9.89835 8.33447 9.17242 7.76971C9.35919 7.69137 9.51258 7.60388 9.64303 7.50504L9.64591 7.50305C9.64873 7.5006 9.65168 7.49831 9.65475 7.49618C9.74918 7.42356 9.83575 7.34123 9.91305 7.25053C10.3668 6.7192 10.5182 5.92082 11.3062 4.65333C11.582 4.21 12.3369 3.14626 12.9538 2.53471C12.4471 2.04698 12.5556 1.20869 12.5556 1.20869C12.5556 1.20869 13.5134 1.24741 14.8135 0.853346C18.4328 -0.243143 19.8762 0.780287 19.8762 0.780287C19.8762 0.780287 20.9006 -0.0458619 22.8816 0.210642C24.5605 0.42773 25.8482 1.69194 26.1847 2.1067C26.2114 2.13935 26.2375 2.1728 26.2642 2.20793C26.8734 3.01417 27.4491 4.41763 27.3167 5.44076C28.1368 5.57593 28.6812 6.06525 28.7875 7.21499C28.8097 7.45219 28.8491 8.55186 28.3305 9.61889C28.3305 9.62446 28.7923 10.7242 28.8378 11.8965C28.8818 13.018 28.5444 14.207 27.0563 14.5653Z" fill="#B1411E"/>
<g opacity="0.4">
<path d="M26.2639 2.20842C26.1933 2.1572 26.1258 2.10183 26.0617 2.04259C24.5664 0.681936 22.2012 0.0857149 21.0469 0.664218C20.3628 1.00712 20.5332 1.5271 20.5332 1.5271C19.0636 0.307581 16.3473 0.704929 14.9844 1.16359C13.7813 1.5682 12.8227 1.52023 12.8227 1.52023C12.8533 2.34558 13.8019 2.53321 13.8019 2.53321C13.2446 2.66469 12.0854 4.26702 11.3837 5.50983C10.7257 6.6753 9.77146 7.40947 9.65503 7.49667C9.74946 7.42405 9.83604 7.34172 9.91333 7.25101C10.367 6.71969 10.5185 5.92131 11.3065 4.65382C11.5823 4.21049 12.3372 3.14675 12.954 2.5352C12.4474 2.04747 12.5559 1.20918 12.5559 1.20918C12.5559 1.20918 13.5137 1.2479 14.8138 0.853835C18.4331 -0.242654 19.8765 0.780775 19.8765 0.780775C19.8765 0.780775 20.9009 -0.0453736 22.8819 0.211131C24.5608 0.428219 25.8484 1.69243 26.185 2.10719C26.2112 2.13984 26.2373 2.17308 26.2639 2.20842Z" fill="white"/>
</g>
<path d="M12.1789 7.71775C12.0755 7.73427 11.9764 7.74761 11.8809 7.75886C12.0572 7.71088 12.1789 7.71775 12.1789 7.71775Z" fill="#A54D21"/>
<path d="M27.0563 14.5653C26.4148 16.2793 25.155 16.5141 23.8541 16.4786C21.2442 16.2233 19.0885 16.6916 17.6475 18.3552C16.4267 17.8486 15.8876 17.6187 14.5899 16.3813C14.463 16.3822 12.4691 16.8901 10.8506 16.1054C12.0082 15.132 11.2983 13.8883 11.5202 12.771C11.5222 12.7624 10.3287 13.1255 9.01416 12.2703C10.957 11.1612 10.2377 9.33776 10.9593 8.31712C10.9593 8.30866 9.89835 8.33444 9.17242 7.76967C9.50573 7.63032 9.73284 7.46111 9.91285 7.25049C10.1443 7.59817 10.675 7.89588 11.8813 7.75812C11.459 7.87309 10.7237 8.30438 10.6054 9.9071C10.516 11.1161 9.92815 11.9503 10.7503 11.8559C11.2073 11.8039 11.62 11.275 12.3983 11.0536C11.7497 11.6728 11.7964 13.2956 12.0778 14.409C12.2175 14.9617 13.2302 16.1057 14.0938 14.6967C14.8624 16.2816 15.778 16.2663 15.882 15.3337C15.9758 14.4991 13.3768 12.1271 15.0707 9.74496C16.087 8.31532 26.5292 9.36782 27.2565 9.78368C27.9838 10.1995 27.6431 13.276 28.8376 11.8963C28.8818 13.018 28.5444 14.207 27.0563 14.5653Z" fill="#963F27"/>
<path d="M17.6476 18.5169C17.6264 18.5169 17.6055 18.5127 17.586 18.5045C16.3839 18.0054 15.8257 17.7736 14.5354 16.5524C14.5202 16.555 14.5036 16.558 14.4871 16.561C12.9983 16.8257 11.7512 16.7215 10.7803 16.2509C10.7562 16.2392 10.7353 16.2216 10.7196 16.1997C10.704 16.1778 10.6941 16.1524 10.6907 16.1256C10.6874 16.0989 10.6908 16.0718 10.7006 16.0467C10.7105 16.0217 10.7264 15.9995 10.747 15.9822C11.4558 15.3863 11.4018 14.6776 11.3446 13.9274C11.3207 13.6131 11.296 13.2903 11.3282 12.9708C10.8335 13.042 9.91205 13.0473 8.92663 12.4064C8.90345 12.3914 8.88453 12.3706 8.8717 12.3461C8.85886 12.3215 8.85254 12.2941 8.85334 12.2665C8.85414 12.2388 8.86203 12.2118 8.87626 12.188C8.89048 12.1643 8.91057 12.1446 8.93458 12.1309C10.1086 11.4598 10.2516 10.5341 10.389 9.63945C10.4542 9.21612 10.5165 8.8119 10.6877 8.46134C10.0376 8.40331 9.47075 8.20623 9.07366 7.89757C9.05146 7.88025 9.03416 7.85742 9.0235 7.83133C9.01284 7.80525 9.00918 7.77682 9.01288 7.74887C9.01659 7.72093 9.02754 7.69445 9.04463 7.67206C9.06173 7.64967 9.08437 7.63215 9.11032 7.62125C9.80575 7.32981 9.995 6.91455 10.3381 6.16036C10.5307 5.73724 10.7702 5.21069 11.1693 4.56868C11.4052 4.18925 12.1036 3.18732 12.7321 2.53078C12.2987 1.9904 12.3912 1.22318 12.3957 1.18834C12.4011 1.14849 12.4211 1.11207 12.4518 1.08618C12.4826 1.0603 12.5218 1.04679 12.5619 1.04829C12.5711 1.04829 13.5111 1.08044 14.7665 0.699918C17.9375 -0.260903 19.4771 0.375431 19.8685 0.588637C20.1702 0.388669 21.1898 -0.169927 22.9019 0.0511423C24.5113 0.259272 25.8346 1.42046 26.3095 2.00543C26.9625 2.80958 27.5603 4.23424 27.4908 5.31092C28.3713 5.5094 28.8484 6.12911 28.9478 7.20061C28.9524 7.25168 29.0554 8.44481 28.5058 9.62621C28.7019 10.1405 29.3982 12.1806 28.6877 13.5479C28.3879 14.1252 27.8797 14.5125 27.1764 14.701C26.4779 16.4685 25.1049 16.674 23.8498 16.6397C23.846 16.6397 23.8422 16.6397 23.8386 16.639C21.0522 16.3664 19.067 16.9625 17.7693 18.4611C17.7542 18.4786 17.7355 18.4927 17.7145 18.5023C17.6935 18.5119 17.6707 18.5169 17.6476 18.5169ZM14.5897 16.2202C14.631 16.2202 14.6708 16.2361 14.7008 16.2647C15.9491 17.4542 16.4941 17.7007 17.6033 18.1621C18.9737 16.644 21.0236 16.0403 23.8642 16.317C25.0805 16.3496 26.2905 16.152 26.9053 14.5083C26.9145 14.4836 26.9297 14.4616 26.9494 14.4441C26.9691 14.4266 26.9929 14.4142 27.0185 14.408C27.67 14.2511 28.1355 13.9115 28.402 13.3986C29.0739 12.1056 28.3405 10.0858 28.1866 9.69399C28.1591 9.62372 28.1705 9.57266 28.1909 9.53792C28.7298 8.41953 28.6315 7.27845 28.627 7.23028C28.5353 6.24029 28.1231 5.73724 27.2904 5.60047C27.2492 5.59367 27.2122 5.57111 27.1873 5.53754C27.1623 5.50397 27.1514 5.46201 27.1567 5.42051C27.2847 4.42884 26.6869 2.98188 26.0597 2.20888C26.0467 2.19296 24.7463 0.614914 22.8607 0.371449C20.9806 0.128382 19.9865 0.89899 19.9767 0.907152C19.9493 0.928956 19.9157 0.941295 19.8808 0.942318C19.8459 0.943341 19.8116 0.932992 19.783 0.912826C19.7697 0.903668 18.3409 -0.0460047 14.8598 1.00878C13.8418 1.31734 13.0358 1.36581 12.7074 1.37139C12.704 1.61217 12.7408 2.10626 13.065 2.4192C13.0805 2.43412 13.0928 2.45199 13.1013 2.47176C13.1098 2.49153 13.1143 2.51281 13.1144 2.53433C13.1146 2.55585 13.1104 2.57718 13.1022 2.59707C13.094 2.61696 13.0819 2.635 13.0666 2.65013C12.4675 3.24406 11.7131 4.30412 11.4423 4.73969C11.0543 5.36388 10.8195 5.87997 10.6308 6.29464C10.32 6.97765 10.1024 7.45592 9.49658 7.79275C9.87261 8.00586 10.3699 8.13247 10.9284 8.15387C10.978 8.15576 11.0604 8.15885 11.1033 8.24584C11.1161 8.27193 11.1217 8.30099 11.1194 8.32998C11.1172 8.35897 11.1071 8.38681 11.0904 8.41057C10.852 8.7477 10.7816 9.20487 10.707 9.68881C10.5732 10.5571 10.4227 11.5339 9.32362 12.2689C10.279 12.798 11.1278 12.6931 11.4645 12.6179C11.496 12.6108 11.5697 12.5944 11.6326 12.656C11.6518 12.6748 11.666 12.698 11.6739 12.7237C11.6818 12.7493 11.6832 12.7766 11.6779 12.8029C11.6084 13.1531 11.6361 13.5171 11.6655 13.9025C11.7214 14.6367 11.7792 15.3939 11.1384 16.0572C12.0149 16.4135 13.1208 16.4761 14.4305 16.2431C14.5281 16.2257 14.5604 16.2202 14.5886 16.2201L14.5897 16.2202Z" fill="#650000"/>
<path d="M23.7834 3.24442C23.7834 3.24442 23.9789 1.49408 25.3351 1.24772C26.9257 0.959069 27.8106 2.54727 27.5025 3.86144C27.2288 5.02939 26.0104 5.33766 26.0104 5.33766L23.7834 3.24442Z" fill="#FEB845"/>
<path d="M24.218 2.03376C24.3395 2.38691 24.7029 2.53144 25.2887 2.50048C26.0672 2.45987 26.1197 2.83751 26.908 3.93559C27.0657 4.15457 27.2061 4.27272 27.3288 4.3202C27.4068 4.17605 27.4652 4.02205 27.5024 3.86233C27.8104 2.54796 26.9256 0.959566 25.335 1.24852C24.8043 1.34397 24.4511 1.67095 24.218 2.03376Z" fill="#FEB845"/>
<g opacity="0.4">
<path d="M24.1658 2.16506C24.3934 1.88237 24.7099 1.64687 25.1468 1.56784C26.7375 1.27919 27.622 2.86728 27.3143 4.18166C27.2922 4.2758 27.2628 4.36808 27.2264 4.45767C27.2674 4.4171 27.302 4.37059 27.3291 4.31971C27.4071 4.17556 27.4655 4.02156 27.5027 3.86185C27.8107 2.54747 26.9259 0.959078 25.3353 1.24803C24.8043 1.34428 24.4511 1.67126 24.218 2.03357C24.1976 2.07611 24.1801 2.12005 24.1658 2.16506Z" fill="white"/>
</g>
<path d="M23.7031 3.23541C23.6983 3.13726 23.7025 3.03887 23.7155 2.94148C23.7276 2.84489 23.7458 2.74915 23.7698 2.65481C23.8189 2.46418 23.8912 2.28032 23.9851 2.10737C24.0789 1.92962 24.1952 1.76476 24.3311 1.61685C24.4707 1.46536 24.6351 1.33886 24.8172 1.2428C24.9091 1.19503 25.005 1.15555 25.1039 1.12485C25.2017 1.09505 25.3017 1.07292 25.4029 1.05865C25.6044 1.02821 25.8093 1.02798 26.0108 1.05796C26.215 1.08854 26.4127 1.1531 26.5957 1.24897C26.7778 1.34499 26.9434 1.46952 27.0864 1.61785C27.3712 1.91267 27.559 2.28414 27.6584 2.67124C27.7577 3.05833 27.7688 3.46961 27.6796 3.86208C27.6351 4.06111 27.5611 4.25234 27.4601 4.42944C27.4089 4.51733 27.3515 4.60151 27.2885 4.68137C27.2251 4.75995 27.1565 4.83426 27.0834 4.90383C26.9364 5.04069 26.7739 5.15984 26.5961 5.24663C26.5078 5.29055 26.4162 5.32717 26.322 5.35612C26.2272 5.38681 26.1293 5.40685 26.0301 5.41584C26.0114 5.41739 25.9928 5.41245 25.9773 5.40185C25.9619 5.39124 25.9505 5.37563 25.9452 5.35763C25.9399 5.33963 25.941 5.32035 25.9482 5.30303C25.9554 5.28571 25.9684 5.27142 25.9849 5.26256L25.9908 5.25937C26.3049 5.09016 26.6105 4.90542 26.8581 4.66783C26.9188 4.60779 26.9756 4.54385 27.0281 4.47642C27.0793 4.40883 27.1258 4.33779 27.1672 4.26381C27.2483 4.11477 27.3067 3.95449 27.3408 3.78823C27.4094 3.44812 27.3992 3.09676 27.311 2.76122C27.2238 2.42727 27.058 2.11423 26.8242 1.87117C26.5923 1.62651 26.2867 1.46177 25.9558 1.41121C25.7884 1.3859 25.6182 1.38473 25.4505 1.40773C25.2844 1.42648 25.1227 1.47414 24.9729 1.54857C24.6756 1.69638 24.4381 1.95826 24.2696 2.26364C24.1032 2.57061 23.9815 2.91062 23.8623 3.25332L23.861 3.25731C23.8549 3.27536 23.8427 3.29073 23.8266 3.30076C23.8104 3.31079 23.7913 3.31486 23.7724 3.31227C23.7536 3.30967 23.7363 3.30058 23.7234 3.28655C23.7106 3.27252 23.703 3.25443 23.702 3.23541H23.7031Z" fill="#650000"/>
<path d="M24.4829 3.77854C24.5624 4.05983 24.7321 4.04938 24.9981 4.27622C25.3207 4.55094 25.3224 4.6676 25.672 4.65665C25.8645 4.58578 26.0892 4.48107 26.2892 4.33167C26.5873 4.1087 26.8299 3.7872 26.8307 3.33412C26.8324 2.41142 26.0497 1.97943 25.4049 2.21294C25.271 2.26169 25.148 2.33659 25.0431 2.43331C24.6823 2.76397 24.4978 3.30406 24.4829 3.77854Z" fill="#FF9878"/>
<path d="M24.4829 3.77852C24.5624 4.0598 24.7321 4.04935 24.9981 4.2762C25.3207 4.55091 25.3224 4.66757 25.672 4.65662C25.8645 4.58575 26.0892 4.48104 26.2892 4.33164C25.4823 4.29959 25.9515 3.78658 25.9672 3.5034C25.9885 3.10525 25.3419 3.44109 25.1543 3.12516C24.9934 2.85363 25.3124 2.34958 25.4049 2.21301C25.271 2.26176 25.148 2.33666 25.0431 2.43339C24.6823 2.76394 24.4978 3.30403 24.4829 3.77852Z" fill="#ED6E5D"/>
<path d="M25.6305 4.81871C25.3498 4.81871 25.2449 4.73022 25.0771 4.56748C25.0269 4.51891 24.9701 4.46376 24.8944 4.39917C24.8259 4.342 24.7532 4.29019 24.6768 4.24419C24.5335 4.15401 24.398 4.06871 24.3284 3.82245C24.3239 3.80654 24.3218 3.79002 24.3223 3.77348C24.3399 3.20324 24.5748 2.64405 24.935 2.31418C25.2952 1.98432 25.8102 1.89812 26.2489 2.09232C26.7158 2.29896 26.9934 2.76339 26.9923 3.33473C26.9907 4.21492 26.1992 4.63576 25.7276 4.80786C25.7117 4.8138 25.6949 4.81716 25.6779 4.81781C25.661 4.81841 25.6453 4.81871 25.6305 4.81871ZM25.1028 4.15381C25.1865 4.22508 25.2498 4.28659 25.3008 4.33596C25.4392 4.47023 25.4697 4.4992 25.6413 4.49641C26.0363 4.34711 26.6686 4.00471 26.6699 3.33443C26.6707 2.89508 26.4646 2.54123 26.1183 2.38794C25.7916 2.24322 25.4213 2.30642 25.152 2.55287C24.859 2.82112 24.666 3.28088 24.6453 3.75795C24.6805 3.86585 24.7296 3.89671 24.8482 3.97126C24.9377 4.02549 25.0229 4.08652 25.1031 4.15381H25.1028Z" fill="#650000"/>
<path d="M23.6255 2.95251C23.6255 2.95251 25.4208 2.95251 26.3139 3.9642C25.9251 4.12346 25.771 4.28829 25.6739 4.46327C25.6739 4.46327 26.2295 4.8439 26.4964 5.57001C26.4964 5.57001 25.8147 6.14095 24.3426 4.96792C22.8704 3.79489 23.6255 2.95251 23.6255 2.95251Z" fill="#B1411E"/>
<path d="M23.6253 2.87181C23.8762 2.86943 24.1269 2.88566 24.3754 2.92038C24.6248 2.95476 24.8713 3.008 25.1127 3.07964C25.3581 3.15219 25.5951 3.25055 25.8198 3.37308C25.9337 3.4366 26.0432 3.50769 26.1476 3.58588C26.2527 3.66607 26.349 3.75723 26.4349 3.85782L26.437 3.8604C26.4507 3.87667 26.461 3.89548 26.4674 3.91574C26.4737 3.936 26.4761 3.95733 26.4742 3.9785C26.4724 3.99966 26.4664 4.02026 26.4566 4.03911C26.4468 4.05796 26.4334 4.07468 26.4172 4.08834C26.4044 4.09901 26.3902 4.1077 26.3748 4.11412C26.2548 4.16389 26.1398 4.22033 26.0428 4.2899C25.9481 4.35505 25.8699 4.44141 25.8143 4.54213L25.7647 4.33061C25.7953 4.3545 25.8172 4.37361 25.8412 4.39541C25.8651 4.41721 25.887 4.43831 25.9096 4.45991C25.9535 4.5038 25.996 4.54859 26.0366 4.59498C26.1176 4.68694 26.192 4.78449 26.2593 4.88692C26.3269 4.98826 26.387 5.09445 26.4391 5.20464C26.493 5.31353 26.5342 5.42809 26.5719 5.54306C26.5786 5.56267 26.5776 5.58414 26.5689 5.60301C26.5603 5.62187 26.5448 5.63668 26.5255 5.64437C26.5063 5.65205 26.4848 5.65202 26.4656 5.64427C26.4464 5.63653 26.4309 5.62167 26.4223 5.60278L26.4207 5.5992C26.3733 5.49697 26.3236 5.39634 26.2626 5.30238C26.2037 5.20767 26.1378 5.11745 26.0657 5.03244C25.9946 4.94744 25.9176 4.86761 25.8353 4.79355C25.7946 4.75653 25.7524 4.72139 25.7097 4.68755C25.6881 4.67132 25.6667 4.6544 25.6448 4.63927C25.623 4.62414 25.5995 4.60782 25.5829 4.59787C25.5501 4.57824 25.5261 4.54692 25.5155 4.51021C25.5049 4.47351 25.5087 4.43415 25.5259 4.40009L25.533 4.38625C25.5723 4.31464 25.6198 4.24784 25.6745 4.18718C25.7289 4.12785 25.7895 4.07447 25.8552 4.02792C25.9831 3.93655 26.1181 3.87165 26.2525 3.81571L26.1929 4.07202C26.1135 3.99149 26.034 3.91087 25.9463 3.83641C25.858 3.76181 25.7649 3.69311 25.6676 3.63077C25.4673 3.50584 25.2543 3.40242 25.0324 3.32221C24.8067 3.24068 24.5753 3.17629 24.34 3.12961C24.1042 3.08071 23.8651 3.04878 23.6247 3.03406H23.6215C23.6005 3.03303 23.5808 3.02387 23.5666 3.00853C23.5523 2.99318 23.5445 2.97286 23.5449 2.95188C23.5454 2.93091 23.5539 2.91092 23.5688 2.89617C23.5837 2.88143 23.6038 2.87308 23.6247 2.87291L23.6253 2.87181Z" fill="#650000"/>
<path d="M16.3999 4.53203C16.3999 4.53203 15.8288 2.52011 14.1921 2.49781C12.2725 2.47153 11.5466 4.50555 12.1643 5.98456C12.7133 7.29843 14.2009 7.42076 14.2009 7.42076L16.3999 4.53203Z" fill="#FEB845"/>
<path d="M15.654 3.19834C15.5807 3.6363 15.1831 3.87588 14.4917 3.95482C13.5718 4.05993 13.5842 4.51222 12.8751 5.9536C12.7334 6.24156 12.5923 6.40688 12.4579 6.48661C12.3382 6.33297 12.2397 6.16394 12.165 5.98406C11.5474 4.50485 12.2731 2.47043 14.1927 2.49721C14.8325 2.50607 15.3101 2.8201 15.654 3.19834Z" fill="#FEB845"/>
<g opacity="0.4">
<path d="M15.7411 3.34244C15.4192 3.05597 15.0025 2.84227 14.4754 2.8355C12.5557 2.80922 11.8301 4.84324 12.4476 6.32235C12.4918 6.4283 12.5442 6.53063 12.6044 6.62842C12.5485 6.58889 12.4989 6.54122 12.4571 6.48698C12.3375 6.33334 12.239 6.16431 12.1643 5.98442C11.5467 4.50522 12.2723 2.4708 14.192 2.49758C14.8327 2.50604 15.3103 2.81977 15.6542 3.19841C15.6865 3.24433 15.7155 3.29246 15.7411 3.34244Z" fill="white"/>
</g>
<path d="M16.3225 4.55376C16.1281 4.16886 15.9193 3.79022 15.6618 3.45976C15.4025 3.1313 15.0686 2.86613 14.684 2.74838C14.4916 2.68866 14.2929 2.66587 14.0864 2.67462C13.8799 2.68338 13.6774 2.71444 13.4856 2.77914C13.1011 2.90525 12.7685 3.16315 12.5409 3.50077C12.3105 3.83661 12.1764 4.24192 12.1393 4.65539C12.1013 5.07112 12.1593 5.49004 12.3089 5.87968C12.3827 6.07067 12.4845 6.24958 12.6109 6.41051C12.6752 6.49007 12.745 6.56513 12.8195 6.63516C12.8955 6.70469 12.9758 6.76922 13.06 6.82836C13.2301 6.94611 13.4165 7.04037 13.609 7.12528C13.8042 7.2086 14.004 7.28055 14.2075 7.34077L14.2133 7.34256C14.2317 7.34797 14.2476 7.35974 14.2581 7.37578C14.2687 7.39182 14.2733 7.4111 14.271 7.43019C14.2688 7.44928 14.2598 7.46694 14.2458 7.48006C14.2318 7.49317 14.2135 7.50088 14.1944 7.50182C14.0776 7.50753 13.9606 7.50086 13.8452 7.48191C13.7305 7.46456 13.6174 7.43834 13.5068 7.40348C13.2844 7.3352 13.073 7.22869 12.8765 7.0984C12.7786 7.03194 12.685 6.95912 12.5965 6.88042C12.5083 6.80027 12.4259 6.71406 12.3497 6.62242C12.1991 6.43699 12.0769 6.23006 11.9873 6.00848C11.8085 5.57112 11.743 5.09275 11.7826 4.62493C11.8223 4.15711 11.9693 3.69089 12.2414 3.29533C12.3777 3.09643 12.5448 2.9206 12.7364 2.77446C12.9289 2.62844 13.1445 2.51571 13.3742 2.44091C13.6011 2.36671 13.8379 2.32676 14.0766 2.32237C14.1961 2.31916 14.3156 2.32522 14.4342 2.34048C14.5541 2.35682 14.6723 2.38381 14.7874 2.42111C15.0161 2.49652 15.2304 2.61054 15.4208 2.75823C15.607 2.90296 15.7737 3.07117 15.9168 3.2587C16.1307 3.53184 16.2938 3.84132 16.3984 4.17234C16.4342 4.2823 16.4604 4.39512 16.477 4.50957C16.4795 4.52862 16.4752 4.54794 16.4648 4.56412C16.4545 4.5803 16.4388 4.59231 16.4205 4.59802C16.4022 4.60374 16.3825 4.60279 16.3648 4.59535C16.3471 4.5879 16.3326 4.57445 16.3239 4.55735L16.3225 4.55376Z" fill="#650000"/>
<path d="M15.685 5.29462C15.6468 5.63971 15.4465 5.66072 15.1783 5.97883C14.8541 6.36394 14.8749 6.5009 14.463 6.55674C14.2237 6.51145 13.94 6.43292 13.6767 6.29715C13.2843 6.09439 12.9369 5.76553 12.8474 5.2349C12.665 4.15454 13.4974 3.49491 14.2979 3.64233C14.4644 3.6731 14.6231 3.73671 14.7648 3.82945C15.2531 4.14538 15.575 4.7417 15.685 5.29462Z" fill="#FF9878"/>
<path d="M15.6848 5.29456C15.6467 5.63966 15.4464 5.66066 15.1781 5.97877C14.854 6.36388 14.8747 6.50084 14.4628 6.55668C14.2235 6.51139 13.9399 6.43286 13.6765 6.29709C14.6153 6.1012 13.9653 5.59238 13.8916 5.26381C13.7889 4.80146 14.6121 5.06802 14.7698 4.66112C14.9052 4.31145 14.4331 3.78381 14.298 3.64197C14.4645 3.67274 14.6232 3.73635 14.765 3.8291C15.2529 4.14532 15.5748 4.74164 15.6848 5.29456Z" fill="#ED6E5D"/>
<path d="M14.4638 6.71784C14.4538 6.71787 14.4438 6.71697 14.434 6.71516C13.8556 6.60706 12.8597 6.27461 12.6887 5.26193C12.5779 4.60499 12.808 4.01773 13.3035 3.69125C13.7694 3.38419 14.3775 3.38508 14.8527 3.69334C15.4263 4.06551 15.7401 4.74842 15.8424 5.26303C15.8457 5.2794 15.8465 5.29619 15.8446 5.31279C15.8124 5.60334 15.6747 5.72597 15.5288 5.85576C15.4473 5.92562 15.3712 6.00162 15.3013 6.0831C15.2246 6.17438 15.1684 6.25052 15.119 6.31761C14.9457 6.55281 14.8464 6.66798 14.4849 6.71685C14.4779 6.71761 14.4708 6.71795 14.4638 6.71784ZM14.0729 3.78153C13.8623 3.78173 13.6564 3.84404 13.4808 3.9607C13.095 4.21501 12.9177 4.68124 13.0067 5.20788C13.1427 6.01333 13.9687 6.29531 14.4678 6.39236C14.6869 6.36011 14.7201 6.31512 14.8602 6.12501C14.9098 6.05742 14.9718 5.97341 15.0552 5.87428C15.135 5.78082 15.222 5.69367 15.3152 5.61359C15.4399 5.50261 15.5001 5.44896 15.5217 5.30025C15.4272 4.85344 15.1582 4.27503 14.678 3.96378C14.4981 3.8457 14.288 3.78242 14.0729 3.78163V3.78153Z" fill="#650000"/>
<path d="M16.8732 3.91589C16.8732 3.91589 15.0825 4.25302 14.4103 5.27347C14.8171 5.37828 14.9921 5.52101 15.1118 5.68156C15.1118 5.68156 14.2339 6.45366 14.0461 7.70513C14.0461 7.70513 15.1405 7.50984 16.0865 6.23449C17.0325 4.95913 16.8732 3.91589 16.8732 3.91589Z" fill="#B1411E"/>
<path d="M16.888 3.99522C16.6641 4.06032 16.4389 4.13975 16.2211 4.22585C16.0038 4.31168 15.7916 4.40961 15.5852 4.51918C15.3816 4.62947 15.1864 4.7515 15.009 4.89105C14.8317 5.0306 14.6728 5.18647 14.5446 5.36225L14.4503 5.1171C14.5914 5.15422 14.7339 5.20031 14.8729 5.27347C14.9442 5.31067 15.0114 5.35531 15.0734 5.40665C15.1358 5.45921 15.1918 5.51886 15.2404 5.58442C15.2636 5.61335 15.2756 5.64971 15.2742 5.6868C15.2728 5.72389 15.258 5.75922 15.2327 5.78628L15.2177 5.8023C15.1913 5.83047 15.1572 5.86481 15.1275 5.89845L15.0361 6.00157C14.9759 6.07158 14.9172 6.14308 14.8599 6.21607C14.744 6.36168 14.6383 6.51521 14.5437 6.67553C14.4484 6.83645 14.3657 7.00446 14.2961 7.17809C14.2233 7.35138 14.1729 7.53273 14.1254 7.71658L14.1242 7.72106C14.119 7.74063 14.1067 7.75754 14.0896 7.76841C14.0726 7.77928 14.052 7.78332 14.0321 7.77974C14.0122 7.77615 13.9944 7.7652 13.9822 7.74906C13.97 7.73291 13.9643 7.71276 13.9662 7.69259C13.9861 7.49481 14.015 7.29445 14.0736 7.10254C14.0978 7.0046 14.1342 6.91103 14.1663 6.81528C14.2053 6.72261 14.2417 6.62815 14.2878 6.53857C14.3743 6.35586 14.4767 6.18113 14.5938 6.0164C14.6236 5.97519 14.6546 5.93558 14.6851 5.89517C14.7171 5.85535 14.7495 5.81683 14.7829 5.77861C14.8163 5.74039 14.8511 5.70306 14.8881 5.66753C14.9252 5.63199 14.9602 5.59716 15.0052 5.55983L14.9825 5.77772C14.914 5.68548 14.825 5.61051 14.7225 5.55874C14.617 5.5029 14.4954 5.46239 14.3699 5.42934H14.3691C14.3487 5.42399 14.3295 5.41465 14.3126 5.40187C14.2958 5.38908 14.2816 5.3731 14.2709 5.35482C14.2603 5.33655 14.2533 5.31635 14.2504 5.29537C14.2475 5.27439 14.2488 5.25305 14.2541 5.23256C14.2587 5.21544 14.2659 5.19918 14.2757 5.18438C14.3449 5.07395 14.4247 4.9706 14.5141 4.87582C14.6029 4.7835 14.6987 4.69815 14.8006 4.62051C15.0016 4.47055 15.2186 4.34327 15.4474 4.24098C15.5598 4.18862 15.6744 4.14264 15.79 4.10073C15.9056 4.05883 16.0222 4.0211 16.1398 3.98696C16.375 3.91886 16.6151 3.86862 16.8579 3.83666C16.878 3.83419 16.8983 3.83938 16.9147 3.85121C16.9312 3.86303 16.9426 3.88063 16.9467 3.9005C16.9508 3.92038 16.9473 3.94107 16.9369 3.95847C16.9265 3.97587 16.9099 3.98871 16.8905 3.99443L16.888 3.99522Z" fill="#650000"/>
<path d="M12.3712 11.1821C12.2864 11.3035 12.2096 11.4302 12.1412 11.5616C12.0714 11.6936 12.0076 11.8286 11.9498 11.9665C11.8936 12.1048 11.8397 12.2437 11.7954 12.3859C11.7488 12.5273 11.7108 12.6712 11.6753 12.8152L11.6745 12.8183C11.6642 12.8599 11.6378 12.8957 11.6012 12.9178C11.5646 12.94 11.5207 12.9466 11.4792 12.9363C11.4377 12.926 11.4019 12.8996 11.3799 12.8629C11.3578 12.8263 11.3511 12.7823 11.3614 12.7407C11.3625 12.7362 11.3639 12.7314 11.3654 12.7271C11.4163 12.5784 11.4695 12.4309 11.5314 12.287C11.591 12.1423 11.6605 12.0017 11.7315 11.8629C11.8024 11.724 11.8831 11.59 11.9678 11.459C12.0525 11.3263 12.1458 11.1994 12.2472 11.0791C12.2604 11.0623 12.2797 11.0514 12.3009 11.0488C12.3221 11.0462 12.3434 11.0522 12.3602 11.0654C12.3771 11.0786 12.3879 11.0979 12.3905 11.1192C12.3931 11.1404 12.3871 11.1618 12.374 11.1787L12.3712 11.1821Z" fill="#650000"/>
<path d="M14.1739 14.7046C14.1731 14.8486 14.184 14.9923 14.2066 15.1344C14.229 15.2765 14.2625 15.4166 14.3069 15.5534C14.3499 15.6881 14.4061 15.8181 14.4749 15.9416L14.5271 16.0321L14.586 16.1175L14.6159 16.16L14.6489 16.1998L14.7143 16.2788L14.7229 16.2893C14.7503 16.3223 14.7634 16.3648 14.7594 16.4075C14.7555 16.4502 14.7347 16.4895 14.7018 16.5169C14.6689 16.5443 14.6264 16.5574 14.5838 16.5534C14.5412 16.5495 14.5019 16.5287 14.4746 16.4957C14.4716 16.4921 14.4686 16.4881 14.4659 16.4844L14.3964 16.384L14.3621 16.3343L14.3323 16.2817L14.2733 16.1765L14.2227 16.0677C14.1585 15.9232 14.1088 15.7726 14.0743 15.6183C14.0396 15.4665 14.0171 15.3123 14.0069 15.1569C13.9962 15.0017 13.9984 14.8459 14.0137 14.6911C14.0158 14.6704 14.0257 14.6513 14.0415 14.6378C14.0572 14.6243 14.0776 14.6174 14.0983 14.6185C14.119 14.6197 14.1385 14.6289 14.1527 14.6441C14.1668 14.6593 14.1745 14.6794 14.1743 14.7002L14.1739 14.7046Z" fill="#650000"/>
<path d="M12.131 7.79772C12.0283 7.82255 11.9277 7.85498 11.8298 7.89477C11.7317 7.9344 11.6366 7.98097 11.5452 8.03412C11.4552 8.08563 11.37 8.14498 11.2904 8.2115C11.2102 8.2753 11.1425 8.35085 11.0783 8.4261L11.0731 8.43227C11.0596 8.44933 11.0428 8.4635 11.0237 8.47391C11.0046 8.48432 10.9836 8.49076 10.962 8.49286C10.9403 8.49495 10.9185 8.49265 10.8978 8.48609C10.8771 8.47953 10.8579 8.46884 10.8414 8.45468C10.8249 8.44051 10.8114 8.42316 10.8017 8.40365C10.7921 8.38414 10.7864 8.36288 10.7852 8.34114C10.7839 8.3194 10.7871 8.29763 10.7944 8.27713C10.8017 8.25663 10.8131 8.23783 10.8279 8.22185C10.8319 8.2171 10.8362 8.21258 10.8408 8.20831C10.9302 8.1248 11.0232 8.04577 11.1251 7.98276C11.2245 7.91855 11.3292 7.86313 11.4382 7.81713C11.545 7.77142 11.6549 7.73337 11.7671 7.70326C11.8793 7.67276 11.9936 7.6509 12.1092 7.63787C12.1302 7.63427 12.1519 7.6392 12.1693 7.65159C12.1868 7.66397 12.1986 7.68279 12.2022 7.70391C12.2058 7.72503 12.2009 7.74672 12.1885 7.7642C12.1761 7.78168 12.1574 7.79352 12.1363 7.79713L12.131 7.79772Z" fill="#650000"/>
<path d="M19.876 0.780762C19.876 0.780762 20.378 1.17502 20.6807 1.78757Z" fill="#C4612B"/>
<path d="M19.9754 0.653725C20.0231 0.696625 20.0607 0.735045 20.1009 0.776751C20.1411 0.818457 20.1779 0.859864 20.2148 0.902465C20.2885 0.987668 20.3579 1.07609 20.4228 1.16773C20.4882 1.2588 20.5485 1.35336 20.6036 1.45101C20.6588 1.54834 20.7086 1.6487 20.7526 1.75161C20.7609 1.77037 20.7617 1.79159 20.7549 1.81095C20.7481 1.8303 20.7343 1.84635 20.7161 1.85581C20.6979 1.86528 20.6768 1.86746 20.6571 1.86192C20.6374 1.85637 20.6206 1.84352 20.61 1.82596L20.6083 1.82317C20.5553 1.73272 20.4974 1.64529 20.4347 1.56129C20.3724 1.47724 20.3056 1.39666 20.2345 1.31992C20.1641 1.24281 20.0902 1.16939 20.0128 1.09965C19.9742 1.06481 19.935 1.03103 19.8951 0.998318C19.8559 0.966566 19.8129 0.932824 19.7765 0.907741H19.7758C19.7584 0.895689 19.7435 0.880312 19.732 0.862487C19.7205 0.844662 19.7125 0.824739 19.7087 0.803855C19.7049 0.782971 19.7052 0.761535 19.7096 0.740771C19.7141 0.720007 19.7225 0.700322 19.7346 0.682839C19.7466 0.665356 19.7619 0.650419 19.7797 0.638879C19.7975 0.627339 19.8174 0.619422 19.8383 0.615581C19.8591 0.611741 19.8805 0.612052 19.9012 0.616496C19.9219 0.62094 19.9416 0.62943 19.959 0.641482C19.9647 0.645259 19.9702 0.649346 19.9754 0.653725Z" fill="#650000"/>
<path d="M27.3357 6.59809C27.2174 6.30765 27.2503 5.8892 27.3166 5.44128Z" fill="#C4612B"/>
<path d="M27.2611 6.62856C27.217 6.53227 27.1858 6.43055 27.1683 6.32607C27.1508 6.22463 27.1404 6.12209 27.1374 6.0192C27.1303 5.81564 27.1418 5.61538 27.1572 5.4176C27.1606 5.37482 27.1807 5.33511 27.2132 5.3072C27.2457 5.2793 27.288 5.26548 27.3307 5.26879C27.3734 5.27211 27.413 5.29228 27.4409 5.32487C27.4687 5.35746 27.4825 5.3998 27.4792 5.44258C27.4786 5.45007 27.4775 5.45751 27.476 5.46488C27.4349 5.6527 27.3982 5.83993 27.379 6.02626C27.3598 6.21259 27.3584 6.39903 27.4103 6.56764L27.4111 6.57023C27.4169 6.58969 27.4152 6.61063 27.4062 6.62888C27.3973 6.64713 27.3819 6.66135 27.363 6.6687C27.3441 6.67606 27.3231 6.67601 27.3042 6.66857C27.2854 6.66113 27.27 6.64684 27.2612 6.62856H27.2611Z" fill="#650000"/>
<path d="M21.9461 15.297C18.1198 15.7415 15.7912 14.1591 15.1369 12.8185C14.6494 11.8198 14.8012 10.7293 15.175 9.84649C15.3778 8.4293 15.5947 6.84648 16.5712 5.57003C17.9404 3.78027 20.2783 4.00184 21.5782 5.50035C22.4279 4.10685 23.5118 3.94371 24.4833 4.3307C26.4967 5.13267 26.7119 8.72183 26.9296 9.33567C27.1013 9.7796 27.4921 10.2096 27.4921 11.049C27.4917 12.7777 25.9108 14.8364 21.9461 15.297Z" fill="#FEB845"/>
<path d="M27.492 11.0489C27.492 12.7775 25.9112 14.8365 21.9465 15.2967C18.1198 15.7414 15.7913 14.1591 15.137 12.8183C14.8589 12.2471 14.7884 11.646 14.85 11.0707C14.8875 11.4169 14.9846 11.754 15.137 12.0669C15.7913 13.4075 18.1198 14.99 21.9465 14.5453C25.6197 14.1185 27.2464 12.3202 27.4658 10.6833C27.4834 10.8044 27.4921 10.9266 27.492 11.0489Z" fill="#F48D40"/>
<path d="M20.6691 15.534C19.4208 15.534 18.2691 15.3111 17.2868 14.8747C16.2112 14.3969 15.3749 13.6731 14.9924 12.8894C14.5528 11.9888 14.5623 10.8935 15.0187 9.80302L15.023 9.77316C15.2245 8.36373 15.4528 6.76637 16.4437 5.47141C17.077 4.64357 17.9631 4.17117 18.9387 4.14111C19.8931 4.11125 20.8561 4.51835 21.5555 5.237C22.5911 3.70136 23.8625 3.90929 24.5428 4.18033C26.2527 4.86135 26.7238 7.43028 26.9502 8.66492C27.0025 8.95019 27.0439 9.17554 27.0813 9.28115C27.123 9.38895 27.184 9.50491 27.2485 9.62763C27.4288 9.97064 27.6532 10.3975 27.6532 11.0485C27.6532 12.0379 27.1772 13.0041 26.3127 13.769C25.3063 14.6597 23.8029 15.2433 21.9651 15.4568C21.5349 15.5075 21.1022 15.5333 20.6691 15.534ZM19.0356 4.46241C19.0065 4.46241 18.9775 4.46241 18.9484 4.46381C18.0713 4.49078 17.2724 4.91839 16.6991 5.66819C15.7598 6.89617 15.5377 8.44913 15.3418 9.81934L15.3347 9.86911C15.3326 9.8828 15.3289 9.89617 15.3235 9.90892C15.076 10.4936 14.7413 11.6398 15.2818 12.7471C15.6315 13.4638 16.4099 14.1313 17.4178 14.5786C18.6795 15.1392 20.2392 15.3318 21.9281 15.136C23.7002 14.9301 25.1427 14.3737 26.0996 13.527C26.8937 12.8241 27.3315 11.9443 27.3315 11.0485C27.3315 10.4774 27.1363 10.1058 26.9639 9.77803C26.8948 9.64684 26.8298 9.52292 26.7797 9.39353C26.732 9.25925 26.6908 9.0344 26.6338 8.72325C26.4178 7.54564 25.9681 5.09526 24.4241 4.48023C23.6773 4.18272 22.6011 4.13265 21.7159 5.58408C21.7027 5.60573 21.6846 5.62395 21.663 5.63727C21.6415 5.6506 21.6171 5.65864 21.5919 5.66075C21.5667 5.66287 21.5413 5.65899 21.5178 5.64944C21.4944 5.63989 21.4735 5.62493 21.4569 5.60578C20.8321 4.88604 19.9325 4.46241 19.0356 4.46241Z" fill="#650000"/>
<path d="M23.7651 10.5161C22.9643 10.2738 22.897 9.53996 22.4276 9.54643C21.9478 9.553 21.5468 10.4423 21.6924 10.9184C21.7703 11.175 24.0567 10.7786 23.7651 10.5161Z" fill="#F48D40"/>
<path d="M25.0785 11.7546C25.1129 12.2698 24.7551 13.3391 23.0499 13.6458C22.3865 13.7653 21.16 13.815 20.6236 12.9889C20.0742 12.1428 20.9945 10.9108 22.4276 10.5918C24.3831 10.1566 25.0376 11.1448 25.0785 11.7546Z" fill="#FFF8EE"/>
<path d="M21.0059 12.0982C21.0059 12.0982 21.3031 12.6257 21.7778 12.7107C22.5891 12.8563 22.8663 12.0115 22.8663 12.0115C23.1523 12.2588 23.6684 12.4992 24.1455 12.1435C24.34 11.9979 24.3622 11.6803 24.351 11.4609C24.0412 12.0326 23.3931 11.8392 23.0521 11.2463C23.0521 11.2463 22.5864 11.2724 22.4379 11.4355C22.3875 11.807 22.072 12.1051 21.5098 12.1655C21.3541 12.1824 21.183 12.1315 21.0191 12.0502C21.0095 12.081 21.0059 12.0982 21.0059 12.0982Z" fill="#FCE8D0"/>
<path d="M22.8281 11.0128C22.8707 11.09 22.9066 11.1707 22.9355 11.254C22.965 11.3365 22.9882 11.4212 23.0051 11.5072C23.0229 11.5946 23.0333 11.6833 23.0364 11.7724C23.0397 11.8634 23.0356 11.9545 23.024 12.0448C23.0213 12.0669 23.0142 12.0882 23.003 12.1074C22.9918 12.1266 22.9767 12.1433 22.9588 12.1564C22.9409 12.1695 22.9205 12.1788 22.8988 12.1837C22.8772 12.1885 22.8547 12.1889 22.8329 12.1847C22.8111 12.1805 22.7904 12.1719 22.7721 12.1594C22.7538 12.1468 22.7382 12.1306 22.7264 12.1118C22.7146 12.093 22.7068 12.0719 22.7035 12.0499C22.7001 12.0279 22.7013 12.0055 22.707 11.984L22.7088 11.9778C22.7513 11.8347 22.7702 11.6856 22.7648 11.5364C22.7625 11.4596 22.7544 11.383 22.7406 11.3075C22.7274 11.2321 22.7082 11.158 22.6832 11.0857L22.6811 11.0797C22.6742 11.0605 22.6747 11.0394 22.6826 11.0206C22.6906 11.0017 22.7053 10.9866 22.7239 10.9782C22.7425 10.9698 22.7636 10.9688 22.7829 10.9753C22.8022 10.9818 22.8184 10.9954 22.8281 11.0133V11.0128Z" fill="#650000"/>
<path d="M24.4201 11.2102C24.4719 11.4173 24.4954 11.623 24.4607 11.8478C24.4423 11.9589 24.4045 12.0781 24.3193 12.1843C24.2977 12.2111 24.2735 12.2357 24.247 12.2576C24.2212 12.2786 24.2012 12.2934 24.1769 12.3105C24.1294 12.3434 24.0794 12.3726 24.0273 12.3979C23.9202 12.4484 23.8049 12.4791 23.687 12.4887C23.5703 12.4972 23.4531 12.4862 23.34 12.4561C23.1238 12.3974 22.9251 12.2867 22.7612 12.1335L23.0195 12.0616C23.0083 12.097 22.9997 12.1204 22.9885 12.1482C22.9772 12.1761 22.966 12.2009 22.9535 12.2264C22.9284 12.2777 22.9006 12.3275 22.87 12.3757C22.8079 12.4745 22.7322 12.5641 22.645 12.6416C22.5542 12.7223 22.45 12.7863 22.337 12.8308C22.2232 12.8744 22.1025 12.8969 21.9807 12.8973C21.9216 12.8974 21.8626 12.8928 21.8042 12.8835C21.7445 12.875 21.6857 12.8611 21.6286 12.8418C21.5168 12.8031 21.4125 12.7456 21.3201 12.6717C21.1463 12.532 21.0094 12.3517 20.9215 12.1466C20.9127 12.1252 20.9117 12.1014 20.9187 12.0794C20.9257 12.0574 20.9403 12.0387 20.9599 12.0265C20.9795 12.0142 21.0027 12.0094 21.0255 12.0128C21.0483 12.0162 21.0692 12.0276 21.0844 12.045L21.0898 12.0513C21.2114 12.1906 21.3521 12.3281 21.4996 12.4226C21.5701 12.4695 21.6471 12.5059 21.7281 12.5305C21.8023 12.5524 21.8929 12.5603 21.9746 12.5578C22.1403 12.5532 22.2907 12.4903 22.417 12.3806C22.4817 12.3237 22.5391 12.2591 22.588 12.1882C22.6132 12.1518 22.6364 12.114 22.6575 12.0751L22.6879 12.0161C22.6974 11.9975 22.7078 11.9741 22.7131 11.9615L22.8002 11.7575L22.9713 11.8897C23.0396 11.944 23.1127 11.9919 23.1898 12.0327C23.2641 12.0739 23.3431 12.1057 23.4252 12.1275C23.5854 12.17 23.7473 12.1663 23.8969 12.1053C23.9349 12.09 23.9717 12.0717 24.007 12.0507C24.0238 12.0407 24.0445 12.027 24.0577 12.0178C24.0701 12.0091 24.0816 11.9994 24.0921 11.9886C24.1364 11.944 24.1706 11.8719 24.1939 11.7908C24.2167 11.7044 24.2299 11.6158 24.2331 11.5264C24.238 11.4336 24.2369 11.3405 24.2297 11.2477V11.2407C24.2281 11.2166 24.2355 11.1927 24.2506 11.1738C24.2657 11.1549 24.2872 11.1424 24.3111 11.1386C24.3349 11.1349 24.3593 11.1402 24.3794 11.1536C24.3995 11.1669 24.4139 11.1874 24.4197 11.2108L24.4201 11.2102Z" fill="#650000"/>
<path d="M22.8892 11.682C23.6591 11.4392 23.9092 10.7529 23.833 10.5771C23.7885 10.4744 23.3454 10.3351 22.6983 10.4346C22.0511 10.5341 21.6978 10.7217 21.692 10.9184C21.6863 11.0992 21.975 11.6249 22.8892 11.682Z" fill="#650000"/>
<g opacity="0.4">
<path d="M22.9953 10.9975C23.4072 10.8951 23.5119 10.6671 23.5003 10.6281C23.4945 10.6082 23.2619 10.5738 22.9564 10.6042C22.6509 10.6345 22.4292 10.7137 22.4275 10.7346C22.4243 10.7751 22.5713 10.9781 22.9953 10.9975Z" fill="white"/>
</g>
<path d="M20.4778 7.01153C20.6996 7.37105 20.448 7.68061 19.9479 7.55579C19.7607 7.50901 18.986 7.12032 18.9599 6.89955C18.9203 6.56451 20.129 6.44626 20.4778 7.01153Z" fill="#650000"/>
<path d="M23.5195 8.72524C23.668 8.6479 23.8099 8.57076 23.9382 8.4777C24.066 8.38632 24.1836 8.28155 24.2892 8.16515C24.396 8.0482 24.4901 7.9188 24.6042 7.78413C24.6621 7.71744 24.7248 7.64796 24.8101 7.58765C24.8542 7.55565 24.9031 7.53105 24.9551 7.51479C25.0084 7.4991 25.0644 7.49506 25.1194 7.50294C25.1372 7.50575 25.1536 7.51438 25.166 7.5275C25.1784 7.54061 25.1861 7.55747 25.1879 7.57543C25.1897 7.5934 25.1855 7.61146 25.176 7.6268C25.1665 7.64213 25.1522 7.65388 25.1353 7.66021L25.1244 7.66419C25.0594 7.68838 25.0177 7.72321 24.9735 7.77647C24.9293 7.82972 24.8878 7.89531 24.8429 7.96429C24.754 8.10364 24.6499 8.25295 24.5223 8.38463C24.3945 8.51838 24.2456 8.63012 24.0816 8.71539C23.9206 8.79896 23.7466 8.85453 23.567 8.87972C23.548 8.88234 23.5287 8.87815 23.5124 8.86789C23.4962 8.85763 23.4841 8.84195 23.4782 8.82362C23.4724 8.80529 23.4732 8.78548 23.4805 8.76769C23.4878 8.74989 23.5011 8.73525 23.5182 8.72634L23.5195 8.72524Z" fill="#650000"/>
<path d="M23.7563 9.34181C23.8978 10.0651 24.434 10.5715 24.9537 10.4722C25.4733 10.373 25.7803 9.70581 25.6392 8.98258C25.5329 8.43991 25.2046 8.01947 24.8276 7.8855C24.5405 8.1204 24.2623 8.5061 23.791 8.65372C23.7238 8.88812 23.7012 9.06032 23.7563 9.34181Z" fill="#650000"/>
<path d="M24.4495 9.67311C24.596 9.64398 24.6716 9.40225 24.6184 9.13318C24.5651 8.86411 24.4031 8.6696 24.2566 8.69873C24.11 8.72785 24.0344 8.96959 24.0877 9.23866C24.1409 9.50772 24.3029 9.70224 24.4495 9.67311Z" fill="white"/>
<g opacity="0.35">
<path d="M25.3579 9.64015C25.3964 9.45087 25.3614 9.28391 25.2797 9.26723C25.1981 9.25056 25.1007 9.39048 25.0622 9.57976C25.0236 9.76904 25.0586 9.936 25.1403 9.95268C25.222 9.96936 25.3194 9.82943 25.3579 9.64015Z" fill="white"/>
</g>
<path d="M20.57 9.82737C20.5387 10.6179 20.0534 11.2434 19.4856 11.2238C18.9178 11.2042 18.483 10.5469 18.5143 9.7568C18.5377 9.16367 18.8169 8.6636 19.1947 8.45935C19.538 8.66111 19.8901 8.91632 20.4145 8.99515C20.524 9.23274 20.5822 9.51981 20.57 9.82737Z" fill="#650000"/>
<path d="M20.2568 9.62353C20.2691 9.32941 20.1492 9.08553 19.989 9.0788C19.8288 9.07207 19.6889 9.30505 19.6766 9.59917C19.6643 9.89328 19.7842 10.1372 19.9444 10.1439C20.1047 10.1506 20.2445 9.91765 20.2568 9.62353Z" fill="white"/>
<g opacity="0.35">
<path d="M19.3018 10.6905C19.386 10.6591 19.3954 10.4757 19.323 10.2808C19.2506 10.0859 19.1236 9.9533 19.0395 9.98468C18.9554 10.0161 18.9459 10.1995 19.0184 10.3944C19.0908 10.5893 19.2177 10.7219 19.3018 10.6905Z" fill="white"/>
</g>
<path d="M20.81 9.09924C20.6928 9.1162 20.5742 9.1223 20.4559 9.11745C20.3359 9.11181 20.2167 9.09477 20.0999 9.06659C19.8651 9.01115 19.6429 8.90912 19.4422 8.79426C19.2416 8.6794 19.0563 8.55398 18.8719 8.45653C18.6905 8.35625 18.4902 8.29521 18.2838 8.27737H18.2831C18.2639 8.27575 18.2459 8.26742 18.2323 8.25384C18.2187 8.24026 18.2103 8.22229 18.2086 8.20312C18.2069 8.18394 18.212 8.16477 18.223 8.14898C18.234 8.1332 18.2502 8.12181 18.2687 8.11682C18.3889 8.08549 18.5139 8.07682 18.6372 8.09124C18.762 8.10408 18.883 8.13961 18.9964 8.1841C19.2229 8.27628 19.4145 8.40517 19.6031 8.51715C19.6975 8.57339 19.7907 8.62734 19.8858 8.67522C19.9805 8.7226 20.078 8.76434 20.1776 8.80023C20.2778 8.83584 20.3802 8.86489 20.4842 8.88723C20.5892 8.90903 20.6965 8.92425 20.8061 8.93769H20.8083C20.8278 8.94004 20.8458 8.94942 20.8589 8.9641C20.8721 8.97877 20.8794 8.99772 20.8796 9.01743C20.8799 9.03714 20.8729 9.05625 20.8601 9.07121C20.8473 9.08617 20.8295 9.09596 20.81 9.09874V9.09924Z" fill="#650000"/>
<path d="M23.1589 6.78352C23.0217 7.12981 23.2881 7.35964 23.7024 7.174C23.8577 7.10433 24.4703 6.64746 24.459 6.45187C24.4417 6.15456 23.3745 6.23906 23.1589 6.78352Z" fill="#650000"/>
<path d="M27.0622 13.5409C27.1475 13.9001 27.1305 14.2415 27.0562 14.5649Z" fill="#C4612B"/>
<path d="M27.1405 13.5222C27.1953 13.6948 27.2286 13.8736 27.2398 14.0544C27.2506 14.2371 27.2416 14.4204 27.2131 14.6012V14.6032C27.2065 14.6456 27.1834 14.6837 27.1488 14.7091C27.1141 14.7344 27.0709 14.745 27.0285 14.7384C26.9861 14.7318 26.9481 14.7086 26.9228 14.6739C26.8975 14.6392 26.8869 14.5959 26.8935 14.5534C26.8949 14.5449 26.8969 14.5365 26.8995 14.5283C26.9988 14.219 27.0356 13.8885 26.9841 13.559C26.9811 13.539 26.9858 13.5185 26.9972 13.5017C27.0085 13.4849 27.0258 13.473 27.0455 13.4683C27.0652 13.4637 27.0859 13.4666 27.1036 13.4766C27.1212 13.4865 27.1345 13.5027 27.1408 13.522L27.1405 13.5222Z" fill="#650000"/>
<path d="M3.12091 6.84504C3.11599 6.88284 3.11327 6.92089 3.11276 6.95901C3.11187 6.99882 3.11276 7.03864 3.11515 7.07845C3.11926 7.15616 3.13389 7.23294 3.15866 7.30669L3.16035 7.31137C3.16683 7.32958 3.16661 7.34952 3.15973 7.36759C3.15285 7.38566 3.13976 7.40067 3.12281 7.40993C3.10587 7.41919 3.08618 7.42209 3.0673 7.41811C3.04841 7.41413 3.03156 7.40353 3.01978 7.38821C2.96191 7.31082 2.9151 7.22573 2.88069 7.13539C2.86334 7.0912 2.84784 7.04637 2.8342 7.00092C2.81996 6.95398 2.80832 6.9063 2.79932 6.85808L2.79774 6.84882C2.79353 6.82531 2.7945 6.80116 2.80056 6.77805C2.80662 6.75495 2.81764 6.73345 2.83285 6.71505C2.84806 6.69665 2.86708 6.68179 2.88861 6.67151C2.91013 6.66123 2.93363 6.65578 2.95747 6.65553C2.98132 6.65528 3.00493 6.66024 3.02666 6.67007C3.04839 6.67989 3.06773 6.69435 3.08331 6.71243C3.0989 6.73051 3.11036 6.75177 3.11691 6.77474C3.12345 6.79772 3.12492 6.82184 3.12121 6.84544L3.12091 6.84504Z" fill="#512717"/>
<path d="M1.04421 8.63838C1.09098 8.62758 1.13835 8.61967 1.18608 8.61469C1.23178 8.60951 1.27718 8.60623 1.32258 8.60474C1.41301 8.60149 1.50355 8.60635 1.59311 8.61927C1.61219 8.62205 1.62968 8.63154 1.64243 8.64604C1.65519 8.66054 1.66238 8.6791 1.66274 8.69843C1.6631 8.71775 1.65659 8.73657 1.64439 8.75154C1.63218 8.7665 1.61506 8.77663 1.59609 8.78012H1.59311C1.51574 8.79404 1.43977 8.81486 1.3661 8.84233C1.32944 8.85577 1.29338 8.8708 1.25841 8.88702C1.22508 8.902 1.19276 8.91912 1.16164 8.93828C1.14161 8.95158 1.11891 8.96032 1.09514 8.96389C1.07137 8.96746 1.04712 8.96576 1.02407 8.95893C1.00103 8.9521 0.979757 8.94029 0.961757 8.92433C0.943758 8.90838 0.929465 8.88867 0.919885 8.86658C0.910306 8.8445 0.905671 8.82058 0.906308 8.79651C0.906944 8.77244 0.912837 8.7488 0.92357 8.72726C0.934304 8.70572 0.949619 8.68679 0.968436 8.67181C0.987254 8.65684 1.00912 8.64617 1.03249 8.64057L1.04421 8.63838Z" fill="#650000"/>
</g>
<defs>
<clipPath id="clip0_48_6236">
<rect width="29" height="26" fill="white"/>
</clipPath>
</defs>
</svg>
