<svg width="30" height="30" viewBox="0 0 30 30" fill="none" xmlns="http://www.w3.org/2000/svg">
<g clip-path="url(#clip0_48_6617)">
<path d="M1.6261 9.77978C1.81449 9.48034 2.21984 9.43401 2.51979 9.62231L2.56643 9.65169L2.5957 9.60505C2.7841 9.30561 3.16952 9.17186 3.46885 9.36016C3.54009 9.40493 3.60181 9.4633 3.65048 9.53194C3.69916 9.60058 3.73383 9.67813 3.75251 9.76017C3.7712 9.84221 3.77354 9.92713 3.7594 10.0101C3.74526 10.093 3.71491 10.1724 3.67009 10.2436L3.64081 10.2902L3.04861 11.2317C3.03681 11.2505 3.02142 11.2667 3.00333 11.2796C2.98524 11.2924 2.96479 11.3015 2.94316 11.3065C2.92153 11.3114 2.89915 11.312 2.87728 11.3082C2.85542 11.3045 2.83451 11.2965 2.81574 11.2847L1.87428 10.6926L1.82774 10.6632C1.75648 10.6185 1.69473 10.5601 1.64603 10.4915C1.59733 10.4229 1.56262 10.3453 1.54389 10.2633C1.52517 10.1812 1.52279 10.0963 1.53689 10.0133C1.551 9.93039 1.58131 9.85102 1.6261 9.77978Z" fill="#FF0068"/>
<path d="M0.0535355 7.89619C0.156259 7.73338 0.376293 7.70821 0.53911 7.81062L0.564483 7.82655L0.580405 7.80117C0.683128 7.63836 0.892376 7.56563 1.05519 7.66763C1.09391 7.69198 1.12746 7.72371 1.15391 7.76102C1.18037 7.79834 1.19921 7.84049 1.20937 7.88509C1.21953 7.92968 1.2208 7.97584 1.21312 8.02093C1.20544 8.06602 1.18895 8.10915 1.16459 8.14786L1.14867 8.17314L0.826736 8.68501C0.820316 8.69522 0.811948 8.70407 0.802108 8.71105C0.792268 8.71803 0.781149 8.723 0.769387 8.72568C0.757625 8.72836 0.74545 8.7287 0.733558 8.72667C0.721665 8.72465 0.710289 8.7203 0.700078 8.71387L0.188206 8.39194L0.162936 8.37601C0.0848508 8.32685 0.0294708 8.2487 0.00895857 8.15874C-0.0115537 8.06877 0.00447897 7.97435 0.0535355 7.89619Z" fill="#FF0068"/>
<path d="M1.64749 5.39976C1.9986 5.07104 2.54745 5.15075 2.87576 5.50248L2.92712 5.55713L2.98177 5.50577C3.33298 5.17705 3.88573 5.13504 4.21445 5.48625C4.37214 5.65485 4.45641 5.87919 4.4487 6.10992C4.44099 6.34065 4.34195 6.55886 4.17336 6.71657L4.11871 6.76793L3.01464 7.8003C2.99262 7.82089 2.96677 7.83694 2.93855 7.84754C2.91033 7.85813 2.88031 7.86307 2.85018 7.86206C2.82006 7.86105 2.79043 7.85411 2.76298 7.84165C2.73554 7.82918 2.71082 7.81143 2.69024 7.78941L1.65725 6.68483L1.60589 6.63018C1.52782 6.54666 1.46697 6.44858 1.42681 6.34154C1.38665 6.23451 1.36797 6.12061 1.37184 6.00635C1.3757 5.89209 1.40203 5.77972 1.44933 5.67564C1.49662 5.57156 1.56396 5.47781 1.64749 5.39976Z" fill="#FF0068"/>
<path d="M15.8613 21.8839C15.7467 22.3725 15.6579 22.8511 15.587 23.3141C15.5596 23.4974 15.5345 23.6781 15.5119 23.8562C15.2211 26.1342 15.3235 27.9453 14.8519 28.4587C14.3972 28.9538 12.4607 28.9556 11.9497 28.4895C11.8933 28.4382 11.8342 28.2345 11.7759 27.931C11.619 27.1161 11.4688 25.5822 11.3987 24.3534C11.3954 24.2975 11.3926 24.2425 11.3898 24.1881C11.3766 23.9349 11.3678 23.6977 11.3625 23.4859L13.883 22.5888L15.8613 21.8839Z" fill="#C2C6D2"/>
<g opacity="0.3">
<path d="M15.8613 21.8839C15.7467 22.3725 15.6579 22.8511 15.587 23.3141C15.5596 23.4974 15.5345 23.6781 15.5119 23.8562C15.2211 26.1342 15.3235 27.9453 14.8519 28.4587C14.3972 28.9538 12.4607 28.9556 11.9497 28.4895C11.8933 28.4382 11.8342 28.2345 11.7759 27.931C12.6861 28.0813 14.6377 28.2425 14.7476 26.8833C14.9177 24.7824 12.5429 25.0152 11.3898 24.1877C11.3766 23.9345 11.3678 23.6973 11.3625 23.4855L13.883 22.5884L15.8613 21.8839Z" fill="#000072"/>
</g>
<path d="M12.5938 28.484C12.5941 28.5746 12.575 28.6643 12.5379 28.747C12.2852 28.6893 12.0748 28.6032 11.9498 28.4891C11.8898 28.4342 11.8266 28.2054 11.7639 27.8663C11.8241 27.8481 11.8866 27.839 11.9494 27.8391C12.1204 27.8392 12.2843 27.9072 12.4052 28.0281C12.526 28.1491 12.5939 28.313 12.5938 28.484Z" fill="white"/>
<path d="M13.8828 28.6221C13.8829 28.6858 13.8734 28.7491 13.8547 28.8099C13.4438 28.8545 12.9858 28.8381 12.6091 28.7621C12.5986 28.7161 12.5934 28.6692 12.5936 28.6221C12.5925 28.5367 12.6084 28.452 12.6403 28.3729C12.6722 28.2937 12.7195 28.2217 12.7795 28.1609C12.8394 28.1002 12.9109 28.052 12.9896 28.0191C13.0684 27.9862 13.1529 27.9692 13.2382 27.9692C13.3235 27.9692 13.408 27.9862 13.4868 28.0191C13.5655 28.052 13.637 28.1002 13.6969 28.1609C13.7569 28.2217 13.8042 28.2937 13.8361 28.3729C13.868 28.452 13.8839 28.5367 13.8828 28.6221Z" fill="white"/>
<path d="M15.0087 28.1933C14.965 28.3027 14.9133 28.3914 14.8518 28.4586C14.6864 28.6385 14.3258 28.7531 13.9091 28.8039C13.8915 28.7449 13.8827 28.6836 13.8828 28.622C13.8827 28.4914 13.9224 28.3637 13.9965 28.2561C14.0706 28.1484 14.1757 28.0659 14.2979 28.0194C14.42 27.9729 14.5534 27.9646 14.6803 27.9956C14.8073 28.0267 14.9218 28.0956 15.0087 28.1933Z" fill="white"/>
<path d="M12.606 28.8842L12.5114 28.8626C12.2205 28.7962 12.0046 28.6999 11.8697 28.5767C11.81 28.522 11.7415 28.4008 11.6471 27.8878L11.6279 27.7837L11.7293 27.7528C11.8006 27.7313 11.8748 27.7204 11.9492 27.7206C12.1516 27.7209 12.3456 27.8014 12.4886 27.9445C12.6316 28.0876 12.712 28.2817 12.7122 28.484C12.7125 28.5915 12.6899 28.6977 12.6458 28.7957L12.606 28.8842ZM11.9024 27.9597C11.9771 28.3311 12.0257 28.3968 12.0315 28.4035C12.1179 28.4823 12.2656 28.5518 12.4611 28.6055C12.4793 28.5283 12.4798 28.4479 12.4625 28.3704C12.4453 28.2929 12.4108 28.2203 12.3616 28.1581C12.3123 28.0958 12.2497 28.0454 12.1783 28.0107C12.1069 27.976 12.0286 27.9579 11.9492 27.9577C11.9334 27.9577 11.9178 27.9583 11.9024 27.9597Z" fill="#000072"/>
<path d="M13.3889 28.9532C13.1091 28.9532 12.8311 28.9278 12.5857 28.8783L12.5107 28.8632L12.4936 28.7885C12.4812 28.7339 12.475 28.6781 12.4751 28.6221C12.474 28.5211 12.4929 28.4209 12.5307 28.3273C12.5685 28.2337 12.6245 28.1485 12.6955 28.0767C12.7665 28.0048 12.851 27.9478 12.9442 27.9089C13.0374 27.87 13.1374 27.85 13.2383 27.85C13.3393 27.85 13.4393 27.87 13.5325 27.9089C13.6256 27.9478 13.7102 28.0048 13.7811 28.0767C13.8521 28.1485 13.9082 28.2337 13.946 28.3273C13.9838 28.4209 14.0027 28.5211 14.0015 28.6221C14.0016 28.6976 13.9903 28.7728 13.968 28.845L13.945 28.9193L13.8676 28.9278C13.7086 28.9449 13.5488 28.9534 13.3889 28.9532ZM12.7137 28.661C13.035 28.717 13.4072 28.7311 13.7586 28.7002C13.7625 28.6744 13.7644 28.6482 13.7644 28.6221C13.7654 28.5524 13.7525 28.4832 13.7265 28.4185C13.7005 28.3538 13.6619 28.2949 13.613 28.2453C13.564 28.1956 13.5057 28.1562 13.4414 28.1293C13.3771 28.1024 13.308 28.0886 13.2383 28.0886C13.1686 28.0886 13.0996 28.1024 13.0353 28.1293C12.971 28.1562 12.9126 28.1956 12.8637 28.2453C12.8147 28.2949 12.7762 28.3538 12.7502 28.4185C12.7241 28.4832 12.7113 28.5524 12.7122 28.6221C12.7122 28.6351 12.7127 28.6482 12.7137 28.661Z" fill="#000072"/>
<path d="M13.8245 28.9336L13.7957 28.838C13.775 28.768 13.7646 28.6953 13.7649 28.6223C13.7648 28.4675 13.8117 28.3164 13.8995 28.189C13.9872 28.0615 14.1117 27.9638 14.2563 27.9087C14.4009 27.8536 14.5588 27.8438 14.7091 27.8806C14.8594 27.9174 14.995 27.999 15.0978 28.1146L15.1465 28.1694L15.1194 28.2374C15.0692 28.3632 15.0104 28.4618 14.9399 28.5389C14.7182 28.78 14.2652 28.8802 13.9241 28.9217L13.8245 28.9336ZM14.5278 28.0957C14.3883 28.0959 14.2545 28.1514 14.1558 28.25C14.0571 28.3487 14.0016 28.4825 14.0015 28.6221C14.0015 28.6386 14.0022 28.6549 14.0037 28.6712C14.3694 28.615 14.6436 28.5101 14.7646 28.3784C14.8062 28.331 14.8408 28.2778 14.8673 28.2205C14.7725 28.14 14.6522 28.0958 14.5278 28.0957Z" fill="#000072"/>
<path d="M13.3779 29.0267C12.7466 29.0267 12.116 28.8953 11.8232 28.6278C11.7556 28.5662 11.5972 28.4218 11.3917 26.537C11.2787 25.5071 11.1941 24.311 11.1751 23.4898C11.1745 23.4652 11.1788 23.4406 11.1877 23.4176C11.1966 23.3946 11.21 23.3736 11.227 23.3558C11.244 23.3379 11.2644 23.3236 11.287 23.3136C11.3095 23.3037 11.3339 23.2982 11.3585 23.2977C11.3832 23.2971 11.4077 23.3014 11.4307 23.3103C11.4537 23.3192 11.4747 23.3326 11.4926 23.3496C11.5104 23.3666 11.5247 23.387 11.5347 23.4096C11.5447 23.4321 11.5501 23.4564 11.5507 23.4811C11.5917 25.2544 11.8999 28.0608 12.0842 28.3569C12.5362 28.7516 14.3424 28.7369 14.7139 28.3317C14.9762 28.0459 15.0408 27.1541 15.1227 26.0248C15.2073 24.8559 15.3128 23.4012 15.6787 21.8411C15.684 21.8168 15.6941 21.7937 15.7084 21.7733C15.7227 21.7529 15.741 21.7356 15.762 21.7223C15.7831 21.709 15.8066 21.7001 15.8312 21.6959C15.8557 21.6918 15.8809 21.6926 15.9051 21.6983C15.9294 21.704 15.9523 21.7145 15.9724 21.7291C15.9926 21.7437 16.0097 21.7622 16.0227 21.7834C16.0356 21.8047 16.0442 21.8283 16.048 21.853C16.0517 21.8776 16.0506 21.9027 16.0445 21.9269C15.685 23.4575 15.5811 24.8963 15.4974 26.052C15.4035 27.3477 15.3415 28.2037 14.9908 28.5857C14.7222 28.878 14.0496 29.0267 13.3779 29.0267Z" fill="#6B184E"/>
<path d="M13.3892 29.0225C13.1048 29.0225 12.8218 28.9967 12.5718 28.9463C12.5474 28.9414 12.522 28.936 12.4973 28.9304C12.1931 28.861 11.9667 28.7593 11.8229 28.6278C11.7589 28.5694 11.6818 28.4601 11.5788 27.9003C11.381 26.8217 11.2022 24.6819 11.1746 23.4899C11.1736 23.4402 11.1923 23.3921 11.2267 23.3561C11.2611 23.3202 11.3083 23.2993 11.3581 23.2982C11.4078 23.297 11.456 23.3156 11.492 23.3499C11.528 23.3842 11.549 23.4314 11.5503 23.4812C11.5776 24.6592 11.7537 26.7704 11.9483 27.8324C12.0211 28.2278 12.0716 28.3348 12.0839 28.3572C12.1786 28.4394 12.3539 28.5124 12.5794 28.5638C12.6 28.5683 12.6227 28.5733 12.6453 28.5777C12.9977 28.6489 13.4419 28.6659 13.8343 28.6232C13.8521 28.6213 13.8685 28.6197 13.8846 28.6175C14.2842 28.5689 14.5933 28.462 14.7134 28.3315C14.7578 28.2832 14.7985 28.2131 14.8341 28.1237C14.9994 27.7145 15.0535 26.9684 15.1218 26.0238C15.2066 24.855 15.3121 23.4005 15.678 21.841C15.6833 21.8166 15.6934 21.7936 15.7077 21.7732C15.722 21.7528 15.7403 21.7355 15.7613 21.7222C15.7824 21.7089 15.8059 21.6999 15.8305 21.6958C15.855 21.6917 15.8802 21.6925 15.9044 21.6982C15.9287 21.7039 15.9516 21.7143 15.9717 21.729C15.9919 21.7436 16.009 21.762 16.022 21.7833C16.0349 21.8046 16.0435 21.8282 16.0473 21.8528C16.051 21.8775 16.0498 21.9026 16.0438 21.9268C15.6843 23.4573 15.5804 24.8955 15.4966 26.051C15.4256 27.0284 15.3696 27.8006 15.1826 28.2637C15.1295 28.3966 15.0664 28.5021 14.9901 28.5855C14.7538 28.8423 14.2841 28.9474 13.932 28.9903C13.9142 28.9927 13.894 28.9949 13.8738 28.9969C13.7128 29.0141 13.5511 29.0227 13.3892 29.0225Z" fill="#000072"/>
<path d="M20.7776 25.7267C20.7776 25.7267 22.4363 25.4614 22.33 26.5513C22.2237 27.6412 22.6902 27.9756 22.6902 27.9756C22.6902 27.9756 20.7006 28.0602 20.3584 27.0819C20.1144 26.3834 20.6416 25.9431 20.6416 25.9431" fill="#666566"/>
<g opacity="0.35">
<path d="M22.5059 27.9763C22.2824 27.8155 21.8924 27.417 21.9692 26.6307C22.0454 25.8525 21.2213 25.765 20.7439 25.7788L20.7774 25.7257C20.7774 25.7257 22.4361 25.46 22.3297 26.55C22.2234 27.64 22.69 27.9745 22.69 27.9745C22.69 27.9745 22.6208 27.9783 22.5059 27.9763Z" fill="white"/>
</g>
<g opacity="0.3">
<path d="M20.3584 27.0812C20.1145 26.3827 20.6416 25.9422 20.6416 25.9422L20.7773 25.7265C20.7773 25.7265 21.1111 25.6732 21.4696 25.7124C21.287 25.8544 21.0722 26.1119 21.0659 26.5355C21.0562 27.2216 21.8841 27.7185 22.445 27.9755C21.9028 27.9616 20.6268 27.8472 20.3584 27.0812Z" fill="#000072"/>
</g>
<path d="M22.5621 28.1256C22.0896 28.1256 20.5416 28.0537 20.2186 27.1299C19.944 26.3442 20.5219 25.8491 20.5467 25.8285C20.5746 25.8056 20.6097 25.7934 20.6458 25.794C20.6352 25.7731 20.6296 25.7501 20.6295 25.7267C20.6295 25.7033 20.635 25.6802 20.6455 25.6593C20.6561 25.6384 20.6715 25.6204 20.6904 25.6066C20.7093 25.5928 20.7312 25.5836 20.7543 25.5799C20.7954 25.5734 21.7749 25.4226 22.2408 25.8607C22.4264 26.0354 22.5061 26.2724 22.4771 26.5652C22.382 27.5411 22.7741 27.8531 22.7781 27.8561C22.8024 27.8747 22.8204 27.9002 22.8297 27.9294C22.839 27.9585 22.8392 27.9898 22.8302 28.0191C22.8213 28.0481 22.8037 28.0737 22.7797 28.0924C22.7557 28.111 22.7265 28.1218 22.6962 28.1232C22.6849 28.1237 22.6369 28.1256 22.5621 28.1256ZM20.7736 25.8744C20.789 25.9043 20.7937 25.9386 20.787 25.9716C20.7803 26.0045 20.7626 26.0342 20.7368 26.0558C20.7192 26.0709 20.2927 26.4434 20.4984 27.0317C20.7256 27.682 21.8397 27.8042 22.3838 27.8245C22.2512 27.5901 22.1192 27.1847 22.1825 26.5361C22.2019 26.3367 22.1546 26.1868 22.0379 26.0765C21.7395 25.7954 21.0438 25.8337 20.8009 25.8723C20.7919 25.8737 20.7828 25.8745 20.7736 25.8744Z" fill="#000072"/>
<path d="M19.4384 22.4722C19.4384 22.4722 19.2632 23.9883 20.3188 24.8622C21.4741 25.8188 21.4324 26.4823 21.1171 26.5395C20.8017 26.5967 20.6202 26.0547 19.6741 25.5939C18.7833 25.1601 18.0031 24.5738 18.1608 23.1862" fill="#C2C6D2"/>
<path d="M21.0698 26.6923C20.8829 26.6923 20.7363 26.5577 20.5562 26.3924C20.356 26.2089 20.0819 25.9575 19.6093 25.7273C18.6808 25.2753 17.8451 24.6524 18.0134 23.1695C18.0153 23.1498 18.021 23.1308 18.0302 23.1133C18.0395 23.0959 18.0522 23.0806 18.0675 23.0681C18.0828 23.0557 18.1004 23.0464 18.1194 23.0408C18.1383 23.0353 18.1581 23.0336 18.1777 23.0358C18.1973 23.038 18.2163 23.0441 18.2335 23.0538C18.2507 23.0634 18.2658 23.0764 18.278 23.092C18.2901 23.1075 18.299 23.1253 18.3041 23.1444C18.3093 23.1634 18.3106 23.1833 18.3079 23.2029C18.1686 24.4305 18.7792 24.9933 19.739 25.4607C20.2505 25.7098 20.5429 25.978 20.756 26.1739C20.9237 26.328 21.0147 26.4072 21.0901 26.3937C21.1026 26.3915 21.1359 26.3853 21.1517 26.3246C21.1981 26.1476 21.0547 25.6645 20.2236 24.9765C19.1188 24.0623 19.283 22.5204 19.2905 22.4552C19.295 22.4162 19.3148 22.3805 19.3456 22.3561C19.3763 22.3317 19.4156 22.3205 19.4546 22.3249C19.4936 22.3294 19.5293 22.3492 19.5537 22.38C19.5782 22.4108 19.5894 22.45 19.5849 22.489C19.5834 22.5034 19.4335 23.9374 20.4127 24.7481C21.163 25.3694 21.5465 25.9869 21.4384 26.3997C21.3985 26.5522 21.2881 26.659 21.1429 26.6853C21.1188 26.6898 21.0943 26.6922 21.0698 26.6923Z" fill="#000072"/>
<g opacity="0.3">
<path d="M19.6741 25.5941C18.7831 25.1599 18.0029 24.5737 18.1608 23.1863L19.4384 22.4722C19.4297 22.564 19.4261 22.6563 19.4275 22.7486L19.1871 22.8233C18.7464 24.1484 19.3884 24.8834 20.17 25.4923C20.7256 25.9244 20.9388 26.3217 21.1151 26.5401C20.8014 26.5946 20.6182 26.0538 19.6741 25.5941Z" fill="#000072"/>
</g>
<path d="M13.9231 16.1537C13.6104 16.6812 12.8776 17.2068 11.462 17.6595C11.4126 17.6756 11.3638 17.6906 11.3154 17.7046C11.0225 17.7934 10.7235 17.8603 10.4207 17.9047C8.2112 18.2204 7.10271 16.9466 6.60296 15.5699V15.5694C6.19895 14.4567 6.19381 13.2773 6.32766 12.8164C6.66583 11.6543 9.09699 10.4778 9.53335 12.566C9.81513 13.916 10.3431 14.2903 10.8743 14.2541C11.1133 14.2381 11.3529 14.139 11.5713 14.0076C12.0763 13.7056 12.4661 13.2345 12.4661 13.2345C12.4661 13.2345 14.7841 14.7015 13.9231 16.1537Z" fill="#C2C6D2"/>
<g opacity="0.3">
<path d="M11.3155 17.7046C11.0226 17.7934 10.7235 17.8603 10.4207 17.9048C8.21127 18.2204 7.10278 16.9466 6.60303 15.5699C7.1789 16.0984 9.35869 17.8757 11.0843 16.2787L11.3155 17.7046Z" fill="#000072"/>
</g>
<path d="M9.75659 18.1419C8.7159 18.1419 7.86391 17.7668 7.21726 17.0222C6.00245 15.6228 5.95941 13.4094 6.14699 12.7645C6.38654 11.9413 7.47109 11.1957 8.37475 11.2312C8.77805 11.2468 9.48869 11.436 9.71694 12.5282C9.93779 13.5862 10.323 14.1035 10.8613 14.0672C11.0456 14.0549 11.2516 13.9809 11.4743 13.8474C11.9444 13.5663 12.3175 13.12 12.3212 13.1156L12.4266 12.9885L12.5663 13.0766C12.6672 13.1405 15.0281 14.6586 14.0848 16.2499C13.7118 16.8789 12.8486 17.4136 11.5193 17.8388C11.1472 17.9577 10.7864 18.0427 10.4473 18.091C10.2186 18.1243 9.98774 18.1413 9.75659 18.1419ZM8.31343 11.6055C7.59334 11.6055 6.69399 12.2295 6.50775 12.869C6.34206 13.4388 6.3965 15.5031 7.50109 16.7755C8.19632 17.5767 9.16973 17.8936 10.3942 17.7187C10.7126 17.6733 11.0527 17.5932 11.4048 17.4805C12.6438 17.0843 13.4369 16.6055 13.7617 16.0578C14.4088 14.9657 12.9521 13.8081 12.4961 13.4832C12.3388 13.6516 12.0339 13.9502 11.6675 14.1693C11.3935 14.3337 11.1307 14.4254 10.8868 14.4417C10.1327 14.4931 9.61463 13.875 9.34939 12.6045C9.21698 11.9713 8.87512 11.6262 8.36047 11.6062C8.34476 11.6058 8.32914 11.6055 8.31343 11.6055Z" fill="#000072"/>
<path d="M19.6595 23.4034C19.5985 23.4607 19.5347 23.5152 19.468 23.5668C19.4397 23.5894 19.4116 23.611 19.3825 23.6322C19.1556 23.7975 18.8987 23.9379 18.6244 24.0563C17.5497 24.5199 16.2017 24.6448 15.2797 24.6058C15.1848 24.6016 15.0948 24.5955 15.0097 24.5884C12.432 24.3673 10.4992 23.9105 9.97548 21.0319C9.77866 19.9497 10.0398 18.9197 10.4208 17.9047C10.6251 17.3603 10.8636 16.8203 11.0844 16.2787L11.4071 14.7729L11.5715 14.0082L11.7862 13.0082C11.6321 11.303 19.1251 9.71519 18.9306 13.438C18.9025 13.979 19.0025 14.5671 19.1683 15.1829C19.2857 15.6197 19.436 16.0711 19.5967 16.5285C19.7723 17.0296 19.9602 17.5397 20.1308 18.0488C20.7877 20.0089 21.1907 21.9638 19.6595 23.4034Z" fill="#C2C6D2"/>
<g opacity="0.3">
<path d="M19.6596 23.4034C19.5721 23.4854 19.4795 23.5619 19.3823 23.6322C18.1738 24.5123 16.132 24.6847 15.0095 24.5885C12.545 24.3772 10.6704 23.9501 10.0527 21.3979C10.8634 23.1089 12.5624 23.4447 14.7088 23.6223C15.8313 23.7153 17.8727 23.549 19.0816 22.6994C19.1786 22.6316 19.2712 22.5579 19.359 22.4786C20.7483 21.218 20.5454 19.5486 20.0053 17.8372C20.0203 17.8286 20.0349 17.8202 20.0494 17.8113C20.7522 19.8497 21.2536 21.9054 19.6596 23.4034Z" fill="#000072"/>
</g>
<path d="M11.3873 13.9688L11.602 12.9688L11.5985 13.0252C11.5889 12.9022 11.6072 12.7786 11.6521 12.6637C11.6929 12.5576 11.7501 12.4586 11.8215 12.3702C11.8871 12.2868 11.9605 12.2099 12.0406 12.1403C12.1173 12.0727 12.198 12.0099 12.2823 11.9521C12.6153 11.7243 12.9748 11.563 13.3404 11.4294C14.0729 11.17 14.8397 11.0203 15.616 10.9851C16.0061 10.9655 16.3972 10.9829 16.784 11.0373C17.1722 11.0938 17.5609 11.1959 17.9242 11.3763C18.1083 11.467 18.2803 11.5806 18.4361 11.7143C18.5949 11.851 18.7307 12.0125 18.8379 12.1925C18.9441 12.3731 19.0211 12.5694 19.0659 12.774C19.1094 12.9744 19.1272 13.1795 19.1188 13.3844L19.1169 13.4588L19.1145 13.5259C19.1132 13.5706 19.1129 13.6155 19.1132 13.6605C19.1141 13.7505 19.1187 13.8409 19.1253 13.9313C19.1404 14.1135 19.1645 14.2948 19.1978 14.4745C19.2643 14.8363 19.3604 15.196 19.4698 15.5531C19.6892 16.2682 19.959 16.9742 20.2071 17.6929C20.4552 18.4117 20.6891 19.1436 20.8177 19.9097C20.8816 20.2924 20.9136 20.6842 20.8993 21.0789L20.889 21.2269L20.8839 21.3009L20.8748 21.3749L20.8565 21.5226L20.8298 21.6696L20.8162 21.743L20.7983 21.8158L20.7621 21.9612L20.717 22.105C20.7092 22.1287 20.7025 22.1529 20.6938 22.1764L20.6666 22.2466C20.599 22.4356 20.5038 22.6134 20.404 22.7871C20.2961 22.9558 20.1818 23.1212 20.0476 23.2688C20.0142 23.3057 19.9833 23.3451 19.9478 23.3799L19.8427 23.4855C19.7722 23.5574 19.6974 23.6248 19.6187 23.6875C19.5796 23.7191 19.5397 23.7497 19.4992 23.7793L19.3748 23.8626L19.25 23.9454C19.2073 23.9706 19.1637 23.994 19.1205 24.0184C18.7744 24.2122 18.4072 24.3547 18.0343 24.4656C17.6621 24.5743 17.2824 24.6555 16.8983 24.7086C16.5157 24.7621 16.1302 24.7922 15.744 24.7989H15.4538C15.3567 24.7949 15.26 24.7946 15.1627 24.7874C14.9658 24.7758 14.7803 24.7566 14.5894 24.7384C14.2099 24.7004 13.8292 24.6536 13.4491 24.585C13.0691 24.5163 12.6905 24.4246 12.3208 24.292C12.135 24.225 11.9535 24.1464 11.7775 24.0566C11.6001 23.9649 11.4301 23.8597 11.2689 23.7418C11.1076 23.622 10.957 23.4883 10.819 23.3422C10.6802 23.1964 10.5592 23.0355 10.4472 22.8697C10.2331 22.5349 10.0666 22.1718 9.95264 21.7911C9.92563 21.6968 9.89491 21.6032 9.87344 21.5079C9.84961 21.413 9.82588 21.318 9.80801 21.2224C9.72308 20.8358 9.69098 20.4394 9.71258 20.0441C9.72378 19.8478 9.7457 19.6524 9.77822 19.4585C9.84293 19.0722 9.94453 18.6957 10.067 18.3304C10.3073 17.606 10.6187 16.907 10.9964 16.2437C11.0078 16.2237 11.026 16.2085 11.0478 16.201C11.0695 16.1935 11.0932 16.1941 11.1145 16.2028C11.1358 16.2115 11.1532 16.2277 11.1635 16.2483C11.1738 16.2688 11.1762 16.2925 11.1703 16.3147C11.0738 16.6853 10.9443 17.0424 10.8134 17.3953C10.6824 17.7483 10.544 18.0959 10.4313 18.4497C10.317 18.8029 10.2252 19.1606 10.1686 19.5214C10.1404 19.7011 10.1221 19.8821 10.1136 20.0638C10.1062 20.2443 10.1089 20.425 10.1215 20.6051C10.1369 20.7855 10.1636 20.9647 10.2014 21.1417C10.2181 21.2321 10.2403 21.3207 10.2624 21.4094C10.2823 21.4988 10.3107 21.5851 10.3356 21.6728C10.4389 22.0182 10.5883 22.3481 10.7798 22.6536C10.8786 22.8016 10.9845 22.9449 11.1059 23.0742C11.2271 23.2041 11.3594 23.3231 11.5012 23.43C11.6449 23.5366 11.7966 23.6318 11.9549 23.715C12.1158 23.7978 12.2817 23.8704 12.4517 23.9324C12.7939 24.0565 13.1523 24.146 13.5173 24.2125C13.8822 24.279 14.2531 24.3278 14.6267 24.3646C14.8122 24.3828 15.0035 24.402 15.1843 24.4125C15.2757 24.4193 15.3683 24.4195 15.4603 24.4234H15.7376C16.1083 24.417 16.4782 24.388 16.8454 24.3367C17.2113 24.2863 17.573 24.209 17.9275 24.1055C18.2794 24.0009 18.6217 23.8671 18.936 23.691C18.9753 23.6689 19.0151 23.6477 19.0538 23.6249L19.1654 23.5505L19.277 23.4762C19.3128 23.4499 19.348 23.423 19.3825 23.3952C19.4518 23.3401 19.5176 23.2806 19.5795 23.2171L19.6747 23.1217C19.7069 23.0902 19.7343 23.0548 19.7643 23.0216C19.8853 22.8891 19.9862 22.7417 20.0827 22.5922C20.1707 22.4381 20.2556 22.2811 20.3152 22.1131L20.3395 22.0515C20.3471 22.0309 20.3531 22.0091 20.3601 21.9879L20.4003 21.8605L20.4326 21.7305L20.4486 21.6655L20.4607 21.5994L20.4849 21.4672L20.5014 21.3337L20.5096 21.2667L20.5143 21.1992L20.5241 21.0631C20.5371 20.7012 20.508 20.335 20.4473 19.9713C20.3254 19.243 20.098 18.5273 19.8523 17.8162C19.6066 17.1051 19.3356 16.3955 19.1108 15.6634C18.9988 15.2972 18.8989 14.9247 18.8284 14.542C18.7929 14.3496 18.7671 14.1555 18.7511 13.9605C18.7437 13.8623 18.7388 13.7636 18.7379 13.6643C18.7374 13.6147 18.7378 13.5651 18.7391 13.5153L18.7419 13.4405L18.7434 13.3731C18.7575 13.0213 18.6876 12.6746 18.5152 12.3844C18.3443 12.0932 18.0706 11.8685 17.7564 11.7124C17.4423 11.5562 17.0887 11.4609 16.7292 11.4089C16.366 11.3581 15.9988 11.3418 15.6325 11.3603C14.8942 11.3939 14.1648 11.5362 13.4679 11.7826C13.1237 11.908 12.7875 12.0608 12.4955 12.2612C12.3516 12.362 12.2155 12.4742 12.1173 12.6013C12.0164 12.7277 11.9621 12.8654 11.9724 12.9917V13.0322L11.969 13.0481L11.7544 14.0481C11.744 14.0968 11.7146 14.1394 11.6727 14.1665C11.6309 14.1935 11.58 14.2028 11.5312 14.1924C11.4825 14.1819 11.4399 14.1525 11.4129 14.1107C11.3858 14.0688 11.3765 14.0179 11.387 13.9692L11.3873 13.9688Z" fill="#000072"/>
<path d="M19.7423 22.1366C19.6277 22.6251 19.5389 23.1037 19.4681 23.5668C19.4407 23.75 19.4156 23.9307 19.3929 24.1089C19.1022 26.3869 19.2046 28.198 18.733 28.7109C18.2783 29.2059 16.3418 29.2078 15.8307 28.7417C15.6236 28.5524 15.3757 26.2914 15.2798 24.6056C15.2619 24.2904 15.2497 23.9955 15.2437 23.7381L17.764 22.841L19.7423 22.1366Z" fill="#C2C6D2"/>
<path d="M19.9936 22.1795C19.8586 22.7739 19.7535 23.3754 19.6717 23.9812C19.5899 24.5869 19.534 25.1971 19.4868 25.8096L19.4155 26.7315C19.3895 27.0397 19.3655 27.3491 19.3224 27.6616C19.2773 27.9737 19.23 28.2898 19.0842 28.6128C19.0437 28.6934 18.9941 28.7751 18.921 28.849C18.8522 28.9166 18.7733 28.9731 18.6871 29.0163C18.5271 29.0978 18.3662 29.1442 18.2057 29.18C17.8848 29.2487 17.5647 29.2691 17.2444 29.2617C16.9237 29.2514 16.6056 29.2166 16.2861 29.122C16.2047 29.0976 16.1251 29.0677 16.0479 29.0323C15.9642 28.9946 15.8857 28.9463 15.8144 28.8885L15.7858 28.8633C15.7768 28.8546 15.7683 28.8452 15.7602 28.8358C15.7521 28.8263 15.7488 28.8204 15.7432 28.8124C15.7273 28.7879 15.7135 28.7622 15.7021 28.7353C15.6845 28.6938 15.6693 28.6513 15.6566 28.6079C15.6323 28.5268 15.6141 28.4487 15.5974 28.3706C15.5322 28.0595 15.4905 27.7522 15.4505 27.4441C15.374 26.8284 15.3169 26.2126 15.2714 25.5958C15.2483 25.2876 15.2288 24.979 15.2129 24.6699C15.2057 24.5153 15.2026 24.3605 15.2066 24.2054C15.2092 24.0495 15.222 23.8938 15.2449 23.7396C15.2474 23.7236 15.2554 23.7091 15.2675 23.6984C15.2796 23.6878 15.2951 23.6817 15.3112 23.6812C15.3273 23.6808 15.3431 23.686 15.3558 23.6959C15.3684 23.7059 15.3772 23.72 15.3806 23.7358V23.7365C15.413 23.8892 15.4335 24.0419 15.451 24.1947C15.4613 24.271 15.4667 24.3476 15.4747 24.424L15.4926 24.6536C15.5124 24.96 15.5357 25.2662 15.5625 25.5724C15.6159 26.1844 15.6804 26.7959 15.7635 27.4026C15.8066 27.705 15.8523 28.0086 15.9176 28.3002C15.934 28.3721 15.9519 28.444 15.9728 28.5106C15.9821 28.5411 15.9931 28.5711 16.0058 28.6004C16.0095 28.609 16.0139 28.6172 16.0189 28.6251C16.0189 28.6251 16.0198 28.6265 16.0189 28.6251C16.0173 28.6227 16.0153 28.6205 16.013 28.6188L16.0279 28.6315C16.1166 28.7034 16.2489 28.7575 16.3839 28.7965C16.5236 28.8357 16.6661 28.8638 16.8101 28.8807C16.9567 28.8984 17.1042 28.9083 17.2518 28.9102C17.3998 28.9121 17.5477 28.9065 17.6951 28.8935C17.8408 28.8814 17.9855 28.8598 18.1284 28.8287C18.2682 28.7969 18.4052 28.7544 18.5196 28.6951C18.5715 28.6693 18.619 28.6356 18.6607 28.5953C18.6962 28.5598 18.7289 28.5085 18.7568 28.4515C18.8644 28.21 18.9163 27.9097 18.9551 27.6132C18.9944 27.3153 19.0167 27.0086 19.0405 26.703L19.1062 25.7807C19.1986 24.548 19.3401 23.3076 19.6285 22.0938C19.6405 22.046 19.6707 22.0048 19.7128 21.9791C19.7548 21.9533 19.8053 21.9451 19.8533 21.9563C19.9013 21.9674 19.943 21.997 19.9694 22.0386C19.9959 22.0802 20.0049 22.1305 19.9946 22.1787L19.9936 22.1795Z" fill="#000072"/>
<g opacity="0.3">
<path d="M19.6595 23.4035C19.5985 23.4608 19.5346 23.5152 19.4679 23.5669C19.4405 23.7501 19.4155 23.9308 19.3927 24.109C19.102 26.387 19.2044 28.1981 18.7328 28.711C18.2782 29.206 16.3416 29.2078 15.8306 28.7418C15.7672 28.684 15.6996 28.4308 15.6343 28.0588C16.3731 28.3397 17.8418 28.2768 18.2303 27.8541C18.6426 27.4055 18.6163 25.965 18.7971 24.0881C18.7361 24.0796 18.6788 24.0688 18.6244 24.0562C17.9762 23.9035 17.7775 23.4554 17.7638 22.841C17.7404 21.7824 18.2655 20.2286 17.986 18.8378L20.1306 18.0492C20.7877 20.009 21.1907 21.9639 19.6595 23.4035Z" fill="#000072"/>
</g>
<path d="M19.3796 14.5474C19.7597 15.0311 20.1109 15.621 20.4153 16.2655C21.8662 19.337 22.2551 23.6486 19.6972 23.6453C19.5849 23.6453 19.4802 23.6406 19.3825 23.6321C17.1683 23.4306 18.4497 21.0375 17.9861 18.7304" fill="#C2C6D2"/>
<g opacity="0.3">
<path d="M21.1964 22.7505C20.9015 23.3072 20.4157 23.6463 19.6967 23.6454C19.5844 23.6454 19.4797 23.6406 19.382 23.6322C17.1678 23.4307 18.4492 21.0376 17.9856 18.7305L18.0175 18.6338C19.0466 20.3575 17.786 22.6223 20.1044 22.8332C20.2269 22.8435 20.3575 22.8497 20.498 22.8497C20.7545 22.8505 20.9865 22.8159 21.1964 22.7505Z" fill="#000072"/>
</g>
<path d="M19.5277 14.4312C19.9652 14.9913 20.3144 15.6061 20.6113 16.2408C20.9064 16.8765 21.1503 17.5347 21.3407 18.2091C21.5297 18.8834 21.6694 19.5737 21.7293 20.277C21.761 20.6305 21.7666 20.9859 21.7459 21.3402C21.7229 21.6963 21.6692 22.0552 21.5568 22.4057C21.4997 22.5832 21.4247 22.7546 21.333 22.917C21.2379 23.0842 21.1191 23.2367 20.9802 23.3698C20.8375 23.5044 20.6725 23.6132 20.4927 23.6916C20.3148 23.7677 20.1262 23.8159 19.9336 23.8346C19.8401 23.844 19.7461 23.8475 19.6522 23.8448L19.3791 23.8334C19.1951 23.8129 19.0093 23.7895 18.8244 23.7236C18.6411 23.6614 18.4579 23.5655 18.3075 23.4235C18.1559 23.2829 18.0459 23.1024 17.9772 22.9192C17.9069 22.7351 17.873 22.5481 17.8544 22.3659C17.837 22.1866 17.8299 22.0065 17.833 21.8264C17.8374 21.4723 17.8638 21.1263 17.8823 20.7836C17.9008 20.4408 17.9131 20.1011 17.9182 19.7634C17.9234 19.4258 17.9129 19.0899 17.8937 18.7489V18.7478C17.8923 18.7249 17.8993 18.7022 17.9133 18.6841C17.9274 18.666 17.9476 18.6535 17.9701 18.6491C17.9926 18.6447 18.016 18.6487 18.0358 18.6602C18.0557 18.6717 18.0706 18.6901 18.078 18.7118C18.1926 19.0483 18.2454 19.4025 18.269 19.7541C18.2944 20.1064 18.2773 20.457 18.2617 20.8034C18.2462 21.1498 18.223 21.4927 18.2217 21.8289C18.2202 21.9939 18.228 22.1589 18.2452 22.323C18.2626 22.4835 18.2938 22.6387 18.3479 22.777C18.4021 22.9153 18.4786 23.0358 18.5811 23.1296C18.6836 23.2233 18.8116 23.2923 18.9538 23.3415C18.9902 23.3525 19.0257 23.3646 19.0627 23.3751L19.177 23.3992C19.2156 23.4076 19.2545 23.4138 19.2938 23.4176C19.3335 23.4221 19.3722 23.4289 19.4125 23.4319L19.6565 23.4421C19.7351 23.4447 19.8137 23.4421 19.892 23.4342C20.0435 23.42 20.1919 23.3825 20.3319 23.323C20.4692 23.2633 20.5952 23.1804 20.7042 23.0778C20.9236 22.8707 21.0761 22.587 21.1767 22.2819C21.2767 21.9749 21.3287 21.6463 21.3514 21.3144C21.3721 20.9795 21.3681 20.6435 21.3394 20.3092C21.2848 19.6365 21.1528 18.9669 20.972 18.312C20.7909 17.6564 20.5562 17.0167 20.2704 16.3994C19.9828 15.7848 19.645 15.1918 19.232 14.6634L19.2312 14.6626C19.2161 14.6431 19.2049 14.6208 19.1983 14.597C19.1917 14.5732 19.1899 14.5484 19.1929 14.5239C19.1959 14.4994 19.2037 14.4757 19.2159 14.4542C19.2281 14.4327 19.2443 14.4139 19.2638 14.3987C19.2833 14.3835 19.3055 14.3723 19.3293 14.3657C19.3531 14.3591 19.378 14.3573 19.4025 14.3603C19.427 14.3633 19.4507 14.3711 19.4722 14.3833C19.4936 14.3955 19.5125 14.4118 19.5277 14.4312Z" fill="#000072"/>
<path d="M29.7349 9.50334C29.6686 10.2091 29.4883 10.8955 29.1837 11.4498C28.5892 12.5317 27.4623 13.2262 26.5316 14.0068C26.1076 14.3621 25.7065 14.7118 25.3258 15.0165C24.6182 15.5831 23.9819 15.9947 23.4056 16.0034C20.9813 16.0399 21.5512 13.1354 21.5512 13.1354L22.541 6.49302C24.535 5.50482 27.4387 4.72731 28.7733 5.85377C29.5209 6.48542 29.8739 8.03685 29.7349 9.50334Z" fill="#FF67A0"/>
<g opacity="0.3">
<path d="M25.0999 13.9825C25.337 14.3513 28.8801 11.7513 28.8645 9.63881C28.8575 8.72714 28.2605 10.2306 27.3326 11.5013C26.4047 12.772 24.9632 13.7696 25.0999 13.9825Z" fill="white"/>
</g>
<g opacity="0.3">
<path d="M29.7348 9.50334C28.1488 7.26602 25.0427 7.40295 24.6603 9.69553C24.1868 12.5336 23.3425 12.7104 23.3836 14.0646C23.4123 15.0168 24.493 15.0972 25.326 15.0165C24.6185 15.5831 23.9821 15.9947 23.4058 16.0034C20.9815 16.0399 21.5515 13.1354 21.5515 13.1354L22.5412 6.49302C24.5353 5.50482 27.439 4.72731 28.7735 5.85377C29.5208 6.48542 29.8738 8.03685 29.7348 9.50334Z" fill="#000072"/>
</g>
<path d="M23.36 16.1916C22.6905 16.1916 22.1722 15.9772 21.8186 15.5541C21.0837 14.6746 21.3446 13.2139 21.3656 13.104L21.9797 8.98198L22.0271 8.93729C23.1263 7.90256 25.903 5.5657 27.951 6.21029C28.9427 6.52237 29.6134 7.48499 29.9438 9.07135L29.9485 9.09354L29.9477 9.11624C29.9158 10.0335 29.7027 10.8945 29.3478 11.5405C28.8712 12.4076 28.0774 13.0267 27.3096 13.6258C27.09 13.797 26.8629 13.9741 26.6522 14.1511C26.5147 14.2664 26.3796 14.381 26.2468 14.4937C25.1813 15.3977 24.261 16.1784 23.408 16.1915C23.3919 16.1915 23.3759 16.1916 23.36 16.1916ZM22.332 9.16647L21.7352 13.1719C21.7325 13.1854 21.4747 14.5578 22.1078 15.3142C22.3935 15.6554 22.8285 15.8232 23.4021 15.8156C24.1204 15.8053 24.9931 15.0642 26.0036 14.2069C26.1368 14.0937 26.2724 13.979 26.4106 13.8629C26.6263 13.6817 26.8564 13.5024 27.0783 13.3287C27.816 12.7535 28.5788 12.1585 29.0182 11.3592C29.3424 10.7689 29.5385 9.97634 29.5711 9.12528C29.2687 7.69526 28.6856 6.83454 27.8376 6.56818C25.9628 5.97834 23.2083 8.34879 22.332 9.16647Z" fill="#000072"/>
<path d="M29.7603 9.10964C28.5845 3.47207 23.4986 7.80978 22.156 9.074L22.5407 6.49307C24.535 5.50487 27.4386 4.72725 28.773 5.85382C29.4539 6.42928 29.8073 7.76746 29.7603 9.10964Z" fill="#C2C6D2"/>
<g opacity="0.7">
<path d="M29.7603 9.1098C29.7578 9.09758 29.7552 9.08525 29.7522 9.07344C29.7226 7.87496 29.3749 6.74089 28.7633 6.22378C27.4287 5.09732 24.5251 5.87452 22.5311 6.86303L22.2088 9.02475C22.1906 9.04159 22.1732 9.05813 22.1562 9.07405L22.5411 6.49302C24.5351 5.50482 27.4388 4.72731 28.7734 5.85377C29.4537 6.42913 29.8072 7.76731 29.7603 9.1098Z" fill="white"/>
</g>
<path d="M29.7602 9.29755C29.7171 9.2975 29.6753 9.2826 29.6418 9.25537C29.6084 9.22814 29.5853 9.19022 29.5765 9.14799C29.2755 7.70472 28.6907 6.83671 27.8384 6.5687C25.9277 5.96726 23.1046 8.43899 22.2849 9.21085C22.2565 9.23761 22.2205 9.25486 22.1818 9.26019C22.1431 9.26552 22.1038 9.25867 22.0692 9.2406C22.0346 9.22252 22.0064 9.19412 21.9887 9.15933C21.971 9.12455 21.9646 9.08511 21.9703 9.0465L22.355 6.46546C22.3595 6.43547 22.3712 6.40702 22.3891 6.38253C22.407 6.35804 22.4305 6.33825 22.4577 6.32484C23.5774 5.77013 24.8234 5.35811 25.8759 5.19488C27.2067 4.98851 28.2507 5.16673 28.8946 5.71035C29.5867 6.29536 30.0004 7.6322 29.9485 9.11635C29.9469 9.16225 29.9286 9.20597 29.8969 9.23924C29.8653 9.27252 29.8225 9.29305 29.7768 9.29694C29.771 9.29735 29.7657 9.29755 29.7602 9.29755ZM22.7123 6.61832L22.42 8.5788C23.6938 7.45069 26.1153 5.63258 27.9514 6.2103C28.578 6.40753 29.0766 6.86455 29.4421 7.57467C29.2885 6.87307 29.0115 6.3009 28.6521 5.99735C27.4706 5.00011 24.8348 5.58584 22.7123 6.61832Z" fill="#000072"/>
<path d="M12.1665 6.63037L11.1264 10.6022C11.1264 10.6022 10.4872 13.4922 8.65715 12.5875C8.35432 12.438 8.10244 12.0977 7.86618 11.6432C7.57968 11.092 7.31733 10.3718 7.01789 9.6186C6.59867 8.56291 5.99825 7.51564 5.94545 6.30248C5.92768 5.89159 5.97288 5.44618 6.06616 4.99666C6.14187 4.63467 6.24397 4.2787 6.37165 3.93162C9.34776 -0.858173 11.6127 4.97919 12.1665 6.63037Z" fill="#FF67A0"/>
<g opacity="0.3">
<path d="M12.1665 6.63037L11.1264 10.6022C11.1264 10.6022 10.4872 13.4922 8.65716 12.5875C8.35433 12.438 8.10245 12.0977 7.86619 11.6432C8.61607 10.5204 9.83848 9.29605 10.1763 7.86532C10.6141 6.01167 10.1396 3.57455 8.15453 3.53316C7.23135 3.51374 6.50993 4.31683 6.06616 4.99666C6.14187 4.63467 6.24398 4.2787 6.37166 3.93162C9.34777 -0.858173 11.6127 4.97919 12.1665 6.63037Z" fill="#000072"/>
</g>
<path d="M9.33647 12.9511C9.0922 12.9511 8.83734 12.886 8.57406 12.7559C7.91581 12.4306 7.50286 11.3739 7.02478 10.1504C6.96541 9.9986 6.90501 9.8441 6.84317 9.68817C6.74805 9.44882 6.6408 9.20352 6.53716 8.96633C6.17475 8.13745 5.79991 7.28043 5.758 6.31062C5.72718 5.59011 5.88229 4.72231 6.19519 3.86713L6.20187 3.84895L6.21214 3.83252C7.07224 2.44852 7.96768 1.80023 8.87268 1.90604C10.6642 2.11518 11.8976 5.23777 12.3447 6.57061L12.3625 6.62382L11.3091 10.6469C11.2843 10.7567 10.9112 12.3418 9.92066 12.817C9.73858 12.9053 9.53884 12.9512 9.33647 12.9511ZM6.13335 6.29459C6.17228 7.19435 6.53284 8.0187 6.88138 8.81594C6.98637 9.05611 7.09494 9.30439 7.19233 9.54959C7.25396 9.70625 7.31559 9.86136 7.37476 10.0138C7.80569 11.1166 8.21278 12.1584 8.74047 12.4193C9.11829 12.6059 9.45101 12.6253 9.75744 12.4787C10.5971 12.0769 10.9395 10.5771 10.9429 10.562L10.9445 10.5552L11.9705 6.63748C11.6158 5.59289 10.4234 2.46526 8.82923 2.27913C8.08438 2.19274 7.31457 2.776 6.54147 4.01434C6.24953 4.81825 6.10469 5.6271 6.13335 6.29429V6.29459Z" fill="#000072"/>
<path d="M6.37158 3.9316C9.34779 -0.858188 11.6127 4.97918 12.1666 6.63036L12.8274 4.10624C12.0141 2.75028 10.7794 1.14348 8.79206 1.39926C7.59317 1.55335 6.83168 2.67396 6.37158 3.9316Z" fill="#C2C6D2"/>
<g opacity="0.7">
<path d="M12.8274 4.10606L12.1665 6.63039C12.1543 6.59341 12.1412 6.55499 12.1269 6.5142L12.6629 4.46672C11.8498 3.11077 10.615 1.50386 8.62778 1.75975C7.65838 1.88456 6.97486 2.64101 6.50562 3.5908C6.97455 2.47707 7.70276 1.5393 8.79193 1.39909C10.7796 1.14361 12.014 2.75 12.8274 4.10606Z" fill="white"/>
</g>
<path d="M12.1666 6.81821C12.1273 6.81821 12.0889 6.80584 12.057 6.78285C12.025 6.75987 12.0011 6.72743 11.9886 6.69012C11.6575 5.70325 10.4512 2.46818 8.82922 2.27917C8.08139 2.19237 7.30778 2.78118 6.53119 4.03081C6.50663 4.07024 6.46833 4.09918 6.42369 4.11203C6.37904 4.12488 6.33122 4.12073 6.28946 4.10039C6.24769 4.08005 6.21494 4.04496 6.19753 4.00189C6.18012 3.95882 6.17928 3.91082 6.19518 3.86717C6.77865 2.27229 7.66834 1.35445 8.7681 1.213C10.8842 0.940886 12.1903 2.67866 12.9886 4.00965C13.0014 4.03105 13.0098 4.0548 13.0133 4.07949C13.0169 4.10418 13.0154 4.12933 13.0091 4.15346L12.3483 6.67758C12.3381 6.71673 12.3155 6.75152 12.2839 6.77679C12.2523 6.80205 12.2134 6.81644 12.173 6.8178L12.1666 6.81821ZM8.68243 1.89488C8.74604 1.89489 8.8096 1.8986 8.87278 1.90597C10.4392 2.08882 11.5788 4.49892 12.1394 5.99262L12.6257 4.13528C11.8203 2.80748 10.6613 1.34808 8.81607 1.58558C8.26681 1.65625 7.82356 1.95364 7.46865 2.35272C7.86927 2.04804 8.27386 1.89543 8.68243 1.89488Z" fill="#000072"/>
<path d="M9.41886 11.7793C9.5786 13.2336 11.6953 14.7508 15.2057 15.4809C17.7389 16.0078 20.3582 15.9252 21.6773 14.9404C23.3619 13.682 23.2712 11.2887 23.5142 9.89973C24.2635 5.61615 22.1926 3.14719 17.7562 2.4495C14.3132 1.90804 11.0829 3.55151 10.5239 7.32445C10.3659 8.39082 10.3135 8.91163 10.1438 9.62546C10.0079 10.1955 9.29775 10.676 9.41886 11.7793Z" fill="#C2C6D2"/>
<g opacity="0.3">
<path d="M20.4153 16.2658C20.1485 16.372 19.8748 16.46 19.5962 16.5293C19.2888 16.6057 18.9769 16.6629 18.6624 16.7008C17.6713 16.8233 16.6015 16.7768 15.5512 16.5805C14.9988 16.4788 14.4546 16.3363 13.9233 16.154C12.9045 15.8017 12.0586 15.3269 11.4072 14.7732C11.2177 14.6128 11.0396 14.4396 10.874 14.2546C11.1131 14.2386 11.3526 14.1395 11.571 14.0081L11.7857 13.0081C11.6316 11.3029 19.1246 9.71507 18.9301 13.4379C18.902 13.9789 19.002 14.567 19.1678 15.1827L19.3796 14.5473C19.7601 15.0311 20.1109 15.6211 20.4153 16.2658Z" fill="#000072"/>
</g>
<path d="M9.41886 11.7793C9.5786 13.2336 11.6953 14.7508 15.2057 15.4809C17.7389 16.0078 20.3582 15.9252 21.6773 14.9404C23.3619 13.682 23.2712 11.2887 23.5142 9.89973C24.2635 5.61615 22.1926 3.14719 17.7562 2.4495C14.3132 1.90804 11.0829 3.55151 10.5239 7.32445C10.3659 8.39082 10.3135 8.91163 10.1438 9.62546C10.0079 10.1955 9.29775 10.676 9.41886 11.7793Z" fill="#C2C6D2"/>
<g opacity="0.3">
<path d="M22.0592 4.2677C22.7625 5.45323 22.9631 7.01145 22.6222 8.94737C22.3775 10.336 22.4308 12.7221 20.8439 13.9994C19.602 14.9991 17.16 15.1159 14.8063 14.6238C11.5692 13.9469 9.62263 12.4788 9.46649 11.0408C9.41184 11.2538 9.38801 11.4957 9.41903 11.7788C9.57877 13.2332 11.6955 14.7504 15.2059 15.4805C17.739 16.0074 20.3584 15.9248 21.6774 14.94C23.3621 13.6816 23.2714 11.2882 23.5143 9.89931C23.9488 7.41423 23.4341 5.54003 22.0592 4.2677Z" fill="#000072"/>
</g>
<g opacity="0.7">
<path d="M23.4096 6.43281C22.5159 4.54845 20.5642 3.38408 17.6652 2.92799C15.2727 2.55181 12.9763 3.16425 11.5024 4.7504C12.8302 2.82752 15.236 2.05299 17.7559 2.4496C20.8151 2.93035 22.7492 4.25343 23.4096 6.43281Z" fill="white"/>
</g>
<path d="M18.1635 15.9899C17.8711 15.9899 17.5686 15.9791 17.2559 15.9574C16.5541 15.9069 15.8564 15.8092 15.1677 15.6648C14.5522 15.5383 13.9446 15.3763 13.3478 15.1795C10.9142 14.368 9.3757 13.1045 9.2323 11.7999C9.14549 11.009 9.45284 10.5097 9.69969 10.1083C9.81874 9.91465 9.92157 9.74742 9.96091 9.58203C10.088 9.04787 10.1482 8.6229 10.2394 7.97955C10.2682 7.77636 10.3 7.55222 10.3379 7.29664C10.586 5.62225 11.3693 4.25736 12.6031 3.35041C13.9775 2.34013 15.8183 1.95419 17.7853 2.2636C20.9761 2.7654 22.9317 4.16039 23.5994 6.40983C23.6066 6.43352 23.609 6.4584 23.6065 6.48302C23.604 6.50764 23.5967 6.53153 23.5849 6.55332C23.5732 6.5751 23.5572 6.59435 23.538 6.60995C23.5188 6.62555 23.4967 6.63721 23.473 6.64425C23.4492 6.65128 23.4244 6.65356 23.3997 6.65095C23.3751 6.64834 23.3513 6.6409 23.3296 6.62904C23.3078 6.61719 23.2887 6.60115 23.2731 6.58187C23.2576 6.56258 23.2461 6.54042 23.2392 6.51666C22.6168 4.41822 20.7623 3.1122 17.7269 2.63484C15.8595 2.34115 14.1188 2.70274 12.8258 3.65324C11.6745 4.49938 10.9427 5.77828 10.7097 7.35129C10.672 7.60594 10.6402 7.82947 10.6116 8.03183C10.5191 8.68505 10.4575 9.1167 10.3265 9.66801C10.2733 9.89205 10.1501 10.0923 10.0199 10.3042C9.79173 10.6751 9.53317 11.0952 9.606 11.758C9.73092 12.8963 11.2103 14.0704 13.4668 14.8224C14.0495 15.0145 14.6429 15.1728 15.2439 15.2963C15.916 15.4372 16.5969 15.5326 17.2819 15.5819C19.1815 15.7143 20.7026 15.4329 21.5646 14.7892C22.8636 13.8191 23.0557 12.1261 23.2101 10.7657C23.2469 10.4422 23.2815 10.1367 23.3287 9.86668C23.4828 8.98634 23.5162 8.17082 23.4282 7.44241C23.4231 7.3934 23.4375 7.34438 23.4682 7.30588C23.499 7.26739 23.5436 7.24251 23.5925 7.23659C23.6414 7.23068 23.6907 7.24421 23.7297 7.27427C23.7687 7.30433 23.7944 7.34852 23.8012 7.39731C23.8936 8.16198 23.8592 9.01438 23.6984 9.93109C23.6531 10.19 23.6191 10.4901 23.5831 10.8078C23.429 12.1645 23.2182 14.0231 21.7889 15.09C21.0022 15.6789 19.734 15.9899 18.1635 15.9899Z" fill="#000072"/>
<path d="M15.082 13.6922C15.082 13.6922 16.0308 14.4556 16.4848 13.8985C16.8422 13.4602 16.6875 12.8507 16.6875 12.8507" fill="#FF67A0"/>
<path d="M16.0467 14.2519C15.5492 14.2519 15.0201 13.8326 14.9892 13.8077C14.9597 13.7827 14.9411 13.7472 14.9374 13.7088C14.9338 13.6703 14.9452 13.6319 14.9694 13.6018C14.9936 13.5717 15.0287 13.5522 15.067 13.5475C15.1054 13.5428 15.144 13.5533 15.1748 13.5767C15.1831 13.5834 16.0143 14.2412 16.37 13.8049C16.6766 13.4288 16.5452 12.8921 16.5439 12.8868C16.5391 12.8679 16.5381 12.8483 16.5409 12.829C16.5437 12.8097 16.5503 12.7912 16.5602 12.7744C16.5702 12.7577 16.5834 12.7431 16.599 12.7314C16.6146 12.7198 16.6324 12.7113 16.6513 12.7066C16.6702 12.7018 16.6898 12.7008 16.7091 12.7036C16.7284 12.7064 16.7469 12.713 16.7636 12.7229C16.7804 12.7329 16.795 12.7461 16.8066 12.7617C16.8183 12.7773 16.8267 12.7951 16.8315 12.814C16.8386 12.8418 16.9999 13.5022 16.6001 13.9922C16.4439 14.1833 16.2478 14.2519 16.0467 14.2519Z" fill="#000072"/>
<path d="M20.4397 8.75344C20.5767 8.8689 20.7752 8.71934 20.6989 8.55724C20.5317 8.20182 20.2577 7.83212 19.8243 7.73771C19.0403 7.56688 19.2055 8.07588 19.6171 8.23962C19.8574 8.33567 20.1662 8.52273 20.4397 8.75344Z" fill="#000072"/>
<path d="M11.9056 7.20287C11.7412 7.27478 11.5934 7.0757 11.7122 6.94165C11.9729 6.64775 12.3399 6.3703 12.7823 6.40173C13.5827 6.45874 13.2807 6.90056 12.8396 6.94175C12.5824 6.96579 12.2333 7.05865 11.9056 7.20287Z" fill="#000072"/>
<path d="M18.0052 2.34782C17.9925 2.61171 17.9413 2.87232 17.8533 3.12143L17.2164 2.85887C17.2154 2.39199 16.8007 1.87951 16.3878 1.50847C16.332 1.45824 16.2761 1.41078 16.2215 1.3662C16.2089 1.35592 16.1962 1.34503 16.184 1.33425C15.5668 0.783753 16.3784 -0.154729 17.0264 0.358375C17.8187 0.985708 18.0324 1.71566 18.0052 2.34782Z" fill="#C2C6D2"/>
<g opacity="0.7">
<path d="M18.0053 2.34782C17.6868 1.38592 16.9526 0.494894 16.5347 0.765879C16.2805 0.930237 16.3116 1.25536 16.3881 1.50847C16.3322 1.45824 16.2763 1.41078 16.2218 1.3662C16.2091 1.35592 16.1964 1.34503 16.1843 1.33425C15.567 0.783753 16.3786 -0.154729 17.0266 0.358375C17.8187 0.985708 18.0325 1.71566 18.0053 2.34782Z" fill="white"/>
</g>
<path d="M17.7649 3.09048C17.7703 2.94349 17.7878 2.80614 17.7975 2.66932C17.8071 2.53249 17.818 2.39833 17.8171 2.26428C17.8157 1.99648 17.7686 1.73083 17.6639 1.48738C17.5612 1.24341 17.4098 1.0206 17.2264 0.823374L17.0826 0.680075L16.9266 0.547972C16.9147 0.537053 16.9022 0.526766 16.8892 0.517155L16.8565 0.49394C16.8351 0.480214 16.8126 0.46816 16.7893 0.457884C16.7459 0.437607 16.6992 0.425655 16.6514 0.42265C16.5589 0.416486 16.4623 0.445865 16.3791 0.505445C16.2956 0.565234 16.2326 0.649319 16.1987 0.746229C16.1679 0.83981 16.1679 0.934316 16.2056 1.01917C16.2261 1.06385 16.2534 1.10509 16.2865 1.14141C16.306 1.15979 16.3228 1.1788 16.3467 1.19801L16.432 1.26991C16.6626 1.46879 16.8746 1.69005 17.0581 1.94316C17.1523 2.07255 17.2321 2.21177 17.2963 2.35837C17.3598 2.50948 17.4055 2.67795 17.4042 2.85874C17.4033 2.90757 17.3835 2.95416 17.3489 2.98863C17.3143 3.02309 17.2676 3.04273 17.2188 3.04337C17.1699 3.04401 17.1228 3.02561 17.0873 2.99206C17.0518 2.95852 17.0307 2.91246 17.0286 2.86367V2.85925C17.0252 2.74811 16.9905 2.63049 16.9377 2.51554C16.8822 2.39652 16.8139 2.28387 16.7342 2.17953C16.572 1.96381 16.3728 1.7674 16.1615 1.58805L16.0793 1.51994C16.0447 1.49087 16.0115 1.46002 15.9801 1.42749C15.9142 1.35691 15.8601 1.27612 15.8201 1.18825C15.7369 1.00674 15.7344 0.789887 15.7985 0.609196C15.861 0.429068 15.9779 0.27281 16.1331 0.16204C16.2858 0.0520231 16.4823 -0.0125902 16.681 0.00189377C16.7789 0.00876722 16.8746 0.0338506 16.9633 0.0758548C17.0063 0.0955213 17.0477 0.118534 17.087 0.14468L17.143 0.185153C17.1636 0.199329 17.1738 0.210937 17.1898 0.22388L17.3651 0.376218L17.5287 0.543247C17.7397 0.773553 17.9163 1.04248 18.032 1.33864C18.1509 1.63366 18.2004 1.95385 18.1948 2.26726C18.1931 2.58087 18.1126 2.89315 17.942 3.15222C17.9304 3.16982 17.9133 3.18314 17.8934 3.19015C17.8735 3.19716 17.8519 3.19748 17.8318 3.19106C17.8117 3.18464 17.7942 3.17184 17.782 3.15459C17.7699 3.13735 17.7637 3.1166 17.7644 3.09552L17.7649 3.09048Z" fill="#000072"/>
<path d="M17.1993 2.84581L16.692 2.99096C16.4402 2.67252 15.8393 2.57246 15.3857 2.5663L15.3482 2.56496C15.3293 2.56388 15.3105 2.56182 15.2918 2.5588C14.7193 2.47005 14.7771 1.5781 15.391 1.57861C16.3059 1.57954 16.8033 2.05063 17.0602 2.52829C17.115 2.63026 17.1615 2.73644 17.1993 2.84581Z" fill="#C2C6D2"/>
<g opacity="0.7">
<path d="M17.0602 2.52829C16.5037 2.07929 15.6051 1.78005 15.3411 1.9816C15.1171 2.15253 15.1861 2.38551 15.2918 2.5588C14.7193 2.47005 14.7771 1.5781 15.391 1.57861C16.3059 1.57954 16.8033 2.05063 17.0602 2.52829Z" fill="white"/>
</g>
<path d="M17.022 2.90731C16.9475 2.71748 16.8519 2.53628 16.7266 2.38209C16.6044 2.22774 16.4534 2.09865 16.2819 2.00201C16.1115 1.90658 15.9216 1.84608 15.7233 1.81382L15.573 1.79554L15.4201 1.78917C15.3992 1.78784 15.3782 1.78784 15.3573 1.78917C15.3404 1.79063 15.3236 1.79345 15.3071 1.79759C15.2767 1.80388 15.2479 1.81594 15.2221 1.83313C15.1693 1.86996 15.131 1.92394 15.1135 1.98588C15.0932 2.05275 15.0941 2.12425 15.116 2.19061C15.1378 2.25348 15.1745 2.30237 15.229 2.33216C15.2587 2.34789 15.2906 2.35895 15.3236 2.36493C15.3424 2.36678 15.3597 2.37038 15.3823 2.37089L15.4679 2.37449C15.7025 2.38815 15.9386 2.41558 16.169 2.49211C16.2867 2.53068 16.3987 2.58478 16.5021 2.65297C16.6065 2.72292 16.7047 2.81538 16.7661 2.93207C16.7761 2.95112 16.7794 2.97298 16.7754 2.99411C16.7714 3.01524 16.7603 3.03439 16.7441 3.04847C16.7278 3.06255 16.7073 3.07073 16.6858 3.07167C16.6643 3.07262 16.6432 3.06629 16.6257 3.05369L16.6189 3.04876C16.4626 2.93505 16.2735 2.87722 16.0736 2.83428C15.8697 2.7911 15.6623 2.76669 15.454 2.76134L15.3726 2.76021C15.3365 2.75948 15.3005 2.75688 15.2646 2.75241C15.1874 2.74121 15.1125 2.71759 15.0429 2.68245C14.8978 2.60952 14.7852 2.47269 14.734 2.32559C14.6821 2.17974 14.677 2.02139 14.7192 1.87248C14.7617 1.71779 14.8565 1.58262 14.9875 1.49004C15.0539 1.44407 15.1283 1.41078 15.2068 1.39183C15.2444 1.38243 15.2826 1.37598 15.3212 1.37252L15.3775 1.36985C15.3981 1.36851 15.4092 1.37047 15.4255 1.37057L15.6065 1.37786L15.7881 1.39985C16.0342 1.4367 16.2715 1.51864 16.4879 1.64155C16.7071 1.76421 16.8937 1.94017 17.0426 2.13648C17.1168 2.23438 17.1823 2.3386 17.2384 2.44793C17.2929 2.55645 17.3391 2.66895 17.3765 2.78446C17.3924 2.83093 17.3895 2.88179 17.3683 2.92613C17.3472 2.97046 17.3095 3.00473 17.2633 3.0216C17.2172 3.03846 17.1663 3.03658 17.1215 3.01635C17.0768 2.99612 17.0417 2.95915 17.0239 2.91337L17.022 2.90731Z" fill="#000072"/>
<path d="M16.6875 12.8505C14.3303 13.7031 15.4722 16.6071 13.216 18.3174C12.7267 18.6884 12.0758 19.0095 11.3186 18.551C10.9634 18.3361 10.8392 17.7749 10.8392 17.7749C10.8392 17.7749 10.078 17.5923 10.1284 17.1344C10.2352 16.1614 11.2636 16.8965 11.5932 16.0841C12.258 14.4461 11.6857 14.275 11.8972 12.5272C12.0191 11.5205 12.4505 10.8504 12.8628 10.4822C13.6998 9.73403 14.9908 9.87055 15.3764 10.7454" fill="#C2C6D2"/>
<g opacity="0.3">
<path d="M13.2161 18.3173C12.7266 18.6886 12.0759 19.0096 11.3183 18.551C10.9632 18.336 10.8391 17.775 10.8391 17.775C10.8391 17.775 10.0779 17.5921 10.1284 17.1345C10.1489 16.9511 10.2015 16.8286 10.2756 16.7449C10.2321 17.3394 11.0231 17.2417 11.1637 17.3433C11.3044 17.4449 11.3632 17.799 11.751 17.9471C12.4461 18.2128 12.9372 17.8871 13.2367 17.6108C15.0702 15.9187 13.9507 11.2728 16.6552 12.0535L16.6876 12.8504C14.3299 13.7026 15.4723 16.6071 13.2161 18.3173Z" fill="#000072"/>
</g>
<path d="M16.7379 12.9897L16.605 13.044L16.5385 13.0712L16.4749 13.1035C16.4328 13.1254 16.3897 13.1456 16.3483 13.1687L16.2279 13.2436C16.0708 13.3479 15.9284 13.4727 15.8042 13.6146C15.6819 13.7607 15.5761 13.9199 15.4889 14.0894C15.3987 14.2594 15.3279 14.4422 15.2622 14.6277C15.1318 15 15.0362 15.3912 14.9224 15.782C14.8108 16.1732 14.6814 16.5667 14.5037 16.9434C14.3236 17.3185 14.0953 17.6774 13.8051 17.9827C13.7689 18.0207 13.7332 18.0597 13.6966 18.0968L13.5812 18.2041C13.5063 18.278 13.4213 18.3397 13.3408 18.4069C13.1749 18.54 12.9948 18.6545 12.8038 18.7482C12.6053 18.8465 12.3897 18.9054 12.1688 18.9215C11.9445 18.9382 11.7168 18.8959 11.512 18.8127C11.4621 18.7897 11.4093 18.7716 11.3619 18.744L11.29 18.7047C11.2645 18.6918 11.24 18.6772 11.2165 18.6611C11.1178 18.5942 11.0321 18.5098 10.9637 18.4122C10.8991 18.3212 10.8444 18.2235 10.8005 18.1209C10.7783 18.0707 10.7594 18.0198 10.7412 17.9683C10.723 17.9169 10.7083 17.8671 10.6941 17.8072L10.8042 17.9193C10.738 17.9028 10.6728 17.8824 10.609 17.8583C10.5455 17.8345 10.4835 17.8071 10.4233 17.7761C10.3024 17.7121 10.1796 17.6332 10.0826 17.5033C10.0311 17.4354 9.99597 17.3565 9.97992 17.2728C9.97566 17.2513 9.97302 17.2295 9.97201 17.2076C9.97027 17.186 9.97027 17.1643 9.97201 17.1427C9.97281 17.1237 9.9748 17.1046 9.97797 17.0858L9.98537 17.0337C9.99102 16.9989 10.0004 16.9633 10.0084 16.928C10.0208 16.8923 10.0289 16.8567 10.0463 16.821C10.1085 16.6682 10.2282 16.546 10.3797 16.4808C10.4473 16.4521 10.5176 16.4307 10.5897 16.4169C10.7247 16.39 10.8492 16.3813 10.9614 16.3618C11.0737 16.3423 11.1733 16.3155 11.2504 16.2672C11.3276 16.2189 11.3853 16.1498 11.427 16.0578L11.4427 16.0237L11.4588 15.9815L11.4909 15.897C11.5114 15.8406 11.5343 15.784 11.5545 15.7279C11.5897 15.6139 11.6323 15.5009 11.6588 15.3858C11.7205 15.1568 11.759 14.9262 11.7626 14.693C11.7679 14.4598 11.7393 14.2204 11.7184 13.9717C11.6976 13.7229 11.6823 13.4683 11.6896 13.2145C11.6896 13.0874 11.7016 12.9615 11.7078 12.8344C11.7209 12.7086 11.7315 12.5839 11.7489 12.4574C11.7829 12.2029 11.8407 11.9521 11.9213 11.7082C12.0018 11.4624 12.1102 11.2266 12.2443 11.0054C12.3113 10.894 12.3859 10.7872 12.4675 10.6859C12.5488 10.5831 12.6384 10.4872 12.7356 10.3992C12.9318 10.2195 13.1611 10.0796 13.4108 9.98752C13.6603 9.89567 13.9261 9.85657 14.1915 9.87267C14.4558 9.8888 14.7195 9.96636 14.9444 10.1111C15.1694 10.2558 15.3509 10.4688 15.4436 10.7153C15.4504 10.7331 15.4501 10.7528 15.4427 10.7704C15.4354 10.7879 15.4216 10.802 15.4042 10.8097C15.3868 10.8173 15.3671 10.818 15.3492 10.8115C15.3313 10.8051 15.3165 10.792 15.308 10.775C15.204 10.5693 15.0397 10.4002 14.837 10.2903C14.638 10.1799 14.4092 10.1268 14.1806 10.1225C13.9508 10.1194 13.7227 10.1617 13.5093 10.2471C13.2964 10.3326 13.1015 10.4575 12.9349 10.6152C12.5987 10.9336 12.3572 11.3548 12.2128 11.8044C12.1399 12.0305 12.0884 12.2629 12.0587 12.4986C12.0434 12.6169 12.0342 12.7387 12.0225 12.8581C12.0178 12.9783 12.0065 13.0986 12.0081 13.2188C12.0032 13.4594 12.0184 13.6981 12.0416 13.9416C12.0648 14.185 12.0929 14.4373 12.0879 14.6987C12.0829 14.9602 12.0395 15.2205 11.9726 15.4677C11.943 15.5937 11.8984 15.7124 11.8603 15.8342C11.8389 15.8939 11.8156 15.9526 11.7933 16.0118L11.7595 16.1004L11.7426 16.1448L11.7196 16.1949C11.688 16.2638 11.6474 16.3283 11.5988 16.3866C11.5481 16.4467 11.4884 16.4986 11.4219 16.5407C11.2883 16.6236 11.1431 16.6592 11.0129 16.6798C10.8828 16.7003 10.7588 16.7084 10.6512 16.7293C10.5437 16.7501 10.4571 16.7824 10.4033 16.8394C10.3475 16.8945 10.31 16.9825 10.2921 17.087L10.2861 17.1267C10.2839 17.1383 10.2824 17.15 10.2818 17.1617C10.2809 17.1709 10.2809 17.1801 10.2818 17.1893C10.282 17.1983 10.2829 17.2072 10.2847 17.2161C10.2917 17.2542 10.3077 17.2901 10.3312 17.321C10.4353 17.4632 10.6669 17.5725 10.8734 17.6303L10.9623 17.653L10.9835 17.7423C10.9927 17.7807 11.0072 17.8288 11.0217 17.8718C11.0363 17.9147 11.0536 17.9593 11.0722 18.0016C11.1077 18.0848 11.1519 18.164 11.2042 18.2379C11.2515 18.3062 11.3109 18.3654 11.3794 18.4125C11.3975 18.425 11.4165 18.4362 11.4362 18.446L11.4971 18.4794C11.5169 18.4908 11.5375 18.5008 11.5588 18.5093L11.6218 18.5366C11.7909 18.6052 11.971 18.6383 12.1498 18.6248C12.3328 18.611 12.5114 18.5618 12.6757 18.4798C12.8475 18.3951 13.0094 18.2917 13.1585 18.1716C13.2329 18.1091 13.3126 18.0522 13.381 17.9838L13.4876 17.8849C13.5218 17.8506 13.5543 17.8145 13.5877 17.7795C13.8548 17.4982 14.0655 17.1674 14.2348 16.8151C14.4019 16.4607 14.5266 16.0843 14.6364 15.6989C14.7482 15.3142 14.8446 14.9197 14.9812 14.5289C15.0503 14.3338 15.1257 14.1386 15.2247 13.9518C15.3225 13.7619 15.4413 13.5835 15.5787 13.4199C15.7206 13.2573 15.8836 13.1144 16.0635 12.9952L16.2005 12.91C16.2471 12.8839 16.2955 12.861 16.3429 12.8365L16.4148 12.8003L16.4886 12.7702L16.6363 12.7102C16.6727 12.6954 16.7135 12.6957 16.7496 12.711C16.7858 12.7263 16.8144 12.7553 16.8292 12.7917C16.844 12.828 16.8437 12.8688 16.8284 12.905C16.8132 12.9412 16.7841 12.9698 16.7478 12.9846L16.7379 12.9897Z" fill="#000072"/>
<path d="M17.4842 13.2366C17.326 13.2731 17.1701 13.2643 17.0138 13.2197C16.8532 13.1738 16.7089 13.0834 16.5977 12.9588C16.5407 12.8918 16.4889 12.811 16.4649 12.7252C16.4394 12.6426 16.429 12.5561 16.4341 12.4698C16.4392 12.389 16.4552 12.3094 16.4817 12.2329C16.5071 12.158 16.543 12.0871 16.5884 12.0222C16.5983 12.0086 16.6124 11.9986 16.6286 11.9939C16.6448 11.9892 16.6621 11.9901 16.6777 11.9965C16.6934 12.0028 16.7064 12.0142 16.7148 12.0288C16.7232 12.0434 16.7264 12.0604 16.724 12.0771L16.7229 12.0847C16.7037 12.214 16.6913 12.3491 16.7032 12.4669C16.7162 12.5864 16.752 12.6846 16.8204 12.7642C16.8992 12.8538 16.9957 12.9261 17.1039 12.9764C17.2145 13.0295 17.3456 13.066 17.4716 13.0894L17.4811 13.0912C17.498 13.0942 17.5133 13.103 17.5244 13.1161C17.5356 13.1291 17.5419 13.1456 17.5423 13.1627C17.5427 13.1799 17.5371 13.1966 17.5266 13.2102C17.5161 13.2237 17.5012 13.2332 17.4845 13.237L17.4842 13.2366Z" fill="#000072"/>
<path d="M14.4348 11.5547C14.3201 11.4081 14.1888 11.2753 14.0436 11.1588C13.8989 11.043 13.7405 10.9467 13.5736 10.8831C13.4065 10.8222 13.231 10.7937 13.062 10.8177C13.0196 10.8213 12.9783 10.8329 12.9367 10.8411C12.8961 10.8548 12.8545 10.8643 12.8155 10.8822C12.7353 10.9119 12.6604 10.9572 12.5869 11.0032L12.58 11.0076C12.5466 11.0285 12.5064 11.0352 12.468 11.0264C12.4297 11.0175 12.3964 10.9938 12.3756 10.9604C12.3547 10.9271 12.348 10.8868 12.3568 10.8485C12.3657 10.8101 12.3894 10.7769 12.4227 10.756C12.4251 10.7545 12.4279 10.7528 12.4302 10.7516C12.5233 10.7002 12.6184 10.6521 12.7218 10.6205C12.772 10.6017 12.8257 10.5919 12.8778 10.5787C12.9313 10.5709 12.9843 10.5606 13.0386 10.5591C13.2549 10.5431 13.4693 10.5936 13.6587 10.6773C13.8481 10.7638 14.0157 10.8828 14.1641 11.0178C14.3124 11.1529 14.4443 11.3049 14.5571 11.4708C14.5676 11.4867 14.5715 11.506 14.5681 11.5247C14.5647 11.5435 14.5542 11.5601 14.5388 11.5713C14.5234 11.5825 14.5043 11.5874 14.4854 11.5848C14.4665 11.5823 14.4494 11.5726 14.4375 11.5578L14.4348 11.5547Z" fill="#000072"/>
<path d="M19.7517 11.6536C19.7942 11.2929 19.8141 10.9224 19.7449 10.5934C19.7134 10.4351 19.6488 10.2853 19.5554 10.1538C19.462 10.0273 19.3393 9.9255 19.1978 9.85714C19.053 9.78256 18.9009 9.73449 18.7474 9.73613C18.594 9.73777 18.4414 9.78205 18.2997 9.86443C18.1579 9.94682 18.028 10.0625 17.915 10.1967C17.8881 10.2314 17.8585 10.2645 17.8328 10.3009C17.8071 10.3373 17.7805 10.3728 17.7563 10.4109L17.6866 10.5267C17.6661 10.567 17.6441 10.6066 17.6225 10.647L17.6191 10.6535C17.6081 10.6739 17.5899 10.6895 17.5681 10.6974C17.5462 10.7052 17.5222 10.7047 17.5007 10.6959C17.4793 10.687 17.4618 10.6706 17.4517 10.6497C17.4416 10.6288 17.4396 10.6049 17.4461 10.5826C17.4602 10.535 17.4735 10.4867 17.489 10.4388C17.5063 10.3919 17.5253 10.3455 17.5436 10.2986C17.5636 10.2524 17.5864 10.2073 17.6085 10.1617C17.6307 10.1161 17.6599 10.074 17.6854 10.0298C17.7954 9.85786 17.936 9.69874 18.1132 9.57475C18.2904 9.45077 18.5068 9.36602 18.734 9.35462C18.9612 9.34321 19.186 9.3991 19.378 9.49566C19.4782 9.54213 19.5724 9.60079 19.6583 9.67029C19.7443 9.74308 19.8208 9.82651 19.8858 9.91857C19.9491 10.0099 20.0002 10.1091 20.038 10.2137C20.0754 10.3146 20.1024 10.4191 20.1185 10.5256C20.1489 10.7301 20.1464 10.9382 20.1112 11.1419C20.0946 11.2409 20.0713 11.3386 20.0416 11.4345C20.0122 11.5309 19.9746 11.6246 19.9293 11.7146C19.9191 11.7343 19.9023 11.7499 19.8818 11.7585C19.8613 11.7672 19.8385 11.7684 19.8172 11.7619C19.7959 11.7554 19.7776 11.7416 19.7655 11.723C19.7533 11.7044 19.748 11.6821 19.7506 11.66L19.7517 11.6536Z" fill="#000072"/>
<path d="M11.0457 9.6859C11.0465 9.59208 11.0545 9.49847 11.0696 9.40587C11.0841 9.31376 11.1039 9.22256 11.1289 9.13273C11.1792 8.94878 11.2535 8.7722 11.3496 8.60751C11.4485 8.44089 11.5735 8.27879 11.7411 8.14957C11.8269 8.08459 11.9212 8.03174 12.0213 7.9925C12.1223 7.95213 12.2328 7.93303 12.338 7.9246C12.4456 7.9158 12.5538 7.92325 12.6591 7.94669C12.8783 7.99559 13.0722 8.12294 13.2041 8.30478C13.2661 8.38876 13.3162 8.48096 13.3527 8.57875C13.4247 8.76827 13.4532 8.96252 13.4555 9.15235C13.4578 9.33995 13.4353 9.52704 13.3884 9.7087C13.3825 9.7311 13.3687 9.75057 13.3494 9.76343C13.3302 9.77629 13.3069 9.78163 13.284 9.77845C13.261 9.77527 13.2401 9.76379 13.2251 9.74618C13.21 9.72857 13.202 9.70606 13.2025 9.68292V9.68128C13.2076 9.51186 13.1978 9.34233 13.1731 9.17465C13.1477 9.01029 13.1041 8.85199 13.0363 8.71444C12.9685 8.5769 12.8752 8.46493 12.7624 8.39949C12.6501 8.33241 12.5148 8.31331 12.369 8.32666C12.2276 8.33899 12.1014 8.39158 11.9829 8.47448C11.8602 8.56699 11.7546 8.6803 11.671 8.80926C11.4919 9.07634 11.3579 9.39714 11.2306 9.71631L11.2288 9.72062C11.2206 9.74116 11.2056 9.75821 11.1862 9.76884C11.1668 9.77947 11.1443 9.78302 11.1226 9.77887C11.1008 9.77473 11.0812 9.76315 11.0671 9.74613C11.053 9.72911 11.0452 9.70771 11.0452 9.68559L11.0457 9.6859Z" fill="#000072"/>
<g opacity="0.3">
<path d="M7.92008 9.21526C7.53621 9.42707 6.12828 6.62477 7.14668 4.7738C7.58613 3.97502 7.52059 5.5697 7.60893 7.14065C7.67149 8.24873 8.14135 9.09322 7.92008 9.21526Z" fill="white"/>
</g>
<path d="M7.48138 10.3031L6.66987 11.5707C6.64829 11.3364 6.3505 10.7229 6.2487 10.179C6.16786 9.75112 6.20874 9.36601 6.60145 9.24418C7.03073 9.11064 7.27028 9.46914 7.3877 9.81296C7.45693 10.0155 7.48323 10.2138 7.48138 10.3031Z" fill="#C2C6D2"/>
<g opacity="0.3">
<path d="M7.48146 10.303L6.66995 11.5706C6.64837 11.3363 6.35058 10.7229 6.24878 10.1789C6.5099 10.272 6.9171 10.2817 7.38778 9.81262C7.45701 10.0155 7.48331 10.2138 7.48146 10.303Z" fill="#6B184E"/>
</g>
<path d="M6.66984 11.7585C6.62304 11.7585 6.57794 11.7409 6.54338 11.7094C6.50882 11.6778 6.48728 11.6345 6.48299 11.5879C6.47538 11.5063 6.40625 11.3143 6.33917 11.1287C6.14893 10.6005 5.88832 9.87714 6.11606 9.4192C6.20235 9.2457 6.34688 9.12644 6.54554 9.06449C6.77934 8.99177 6.99999 9.02659 7.18377 9.16527C7.56323 9.45166 7.67355 10.1122 7.66883 10.3077C7.66763 10.3575 7.64669 10.4048 7.61062 10.4391C7.57454 10.4735 7.52629 10.4922 7.47648 10.491C7.42666 10.4898 7.37936 10.4688 7.34498 10.4328C7.31061 10.3967 7.29197 10.3484 7.29317 10.2986C7.29656 10.1613 7.20174 9.64961 6.95747 9.46512C6.87077 9.39978 6.77544 9.38643 6.65731 9.42331C6.55756 9.45413 6.49295 9.50621 6.45248 9.58654C6.29613 9.90077 6.53466 10.5631 6.69265 11.0013C6.7778 11.2376 6.84498 11.4241 6.857 11.5533C6.85929 11.5778 6.85672 11.6026 6.84943 11.6262C6.84214 11.6498 6.83028 11.6717 6.81452 11.6907C6.79876 11.7096 6.77941 11.7253 6.75758 11.7368C6.73575 11.7483 6.71187 11.7554 6.6873 11.7577C6.68155 11.7582 6.67559 11.7585 6.66984 11.7585Z" fill="#000072"/>
<path d="M10.149 13.3279C10.0086 14.1954 9.74 14.992 8.36988 14.9874C7.80069 14.9851 6.56533 14.7784 6.24216 13.2678C5.9303 11.8092 7.3864 9.49335 8.66582 9.30085C8.71044 9.29383 8.75545 9.28958 8.8006 9.28811C8.99033 9.28246 9.30322 9.44035 9.33702 9.74009C9.40369 10.331 8.67425 11.082 8.67425 11.082C8.67425 11.082 10.0331 11.7128 10.1622 12.8776C10.1781 13.0276 10.1737 13.1791 10.149 13.3279Z" fill="#C2C6D2"/>
<g opacity="0.7">
<path d="M10.1619 12.8779C9.72935 12.0794 8.71105 11.6271 8.41192 11.2651C8.13714 10.9321 8.76601 10.6677 8.95954 9.99595C9.06565 9.62769 8.87407 9.41782 8.66554 9.30134C8.71016 9.29432 8.75517 9.29006 8.80032 9.2886C8.99005 9.28295 9.30295 9.44083 9.33674 9.74058C9.40341 10.3314 8.67397 11.0825 8.67397 11.0825C8.67397 11.0825 10.0328 11.7131 10.1619 12.8779Z" fill="white"/>
</g>
<path d="M6.93737 14.6223C6.7588 14.5275 6.60166 14.3969 6.47573 14.2387C6.3482 14.0811 6.24694 13.904 6.17588 13.7141C6.14049 13.6206 6.10991 13.5253 6.08425 13.4286C6.07305 13.3798 6.0596 13.3332 6.05045 13.2825C6.04131 13.2318 6.03083 13.1811 6.02457 13.1303C5.99943 12.9298 5.99836 12.727 6.02138 12.5263C6.04302 12.3298 6.08015 12.1353 6.13243 11.9446C6.18622 11.7568 6.25189 11.5727 6.32904 11.3932C6.40524 11.2144 6.49188 11.0403 6.58852 10.8717C6.6837 10.7024 6.7893 10.5391 6.9047 10.3829C7.13439 10.0696 7.40117 9.77973 7.71766 9.53772C7.87647 9.41763 8.04832 9.30926 8.23918 9.22831C8.28808 9.20993 8.33544 9.18907 8.38577 9.17346C8.43713 9.15959 8.48613 9.14131 8.53914 9.13237C8.59214 9.12343 8.64371 9.10946 8.69877 9.107L8.78023 9.10032C8.7965 9.09908 8.81283 9.09891 8.82912 9.09981C8.84631 9.10009 8.86346 9.10143 8.88049 9.10381C9.00383 9.12035 9.12143 9.16614 9.22348 9.23735C9.32333 9.30649 9.41393 9.40171 9.46868 9.52323C9.49615 9.58309 9.5143 9.6468 9.52251 9.71214C9.52549 9.74296 9.52539 9.77131 9.52662 9.801C9.52867 9.82999 9.52819 9.8591 9.52518 9.88801C9.51881 9.94399 9.51491 10.0017 9.50022 10.0535L9.48142 10.1333L9.45646 10.2086C9.38732 10.4083 9.28861 10.5848 9.1791 10.7489C9.12332 10.8311 9.06611 10.9106 9.00447 10.9869C8.94284 11.0633 8.88192 11.1365 8.8093 11.2129L8.75362 10.9116C8.80499 10.9347 8.84607 10.9551 8.89014 10.978C8.93421 11.0009 8.97612 11.024 9.01783 11.0489C9.10144 11.0981 9.18314 11.1504 9.26293 11.2059C9.42422 11.317 9.57494 11.4427 9.71316 11.5814C9.85448 11.723 9.97898 11.8804 10.0842 12.0505C10.1912 12.2256 10.2704 12.4162 10.3191 12.6155C10.3333 12.6652 10.3397 12.7171 10.3493 12.7678C10.3572 12.8191 10.3608 12.8705 10.366 12.9218C10.3668 12.9732 10.3691 13.0252 10.3679 13.0767C10.3643 13.1281 10.3634 13.1795 10.357 13.2308C10.3507 13.2822 10.3438 13.3342 10.3352 13.3808C10.3265 13.4274 10.3179 13.4733 10.3081 13.5204C10.2898 13.6137 10.2664 13.7072 10.2394 13.8006C10.1866 13.9873 10.1104 14.174 10.0008 14.3451C9.94515 14.4305 9.88047 14.5097 9.80788 14.5813C9.7348 14.6515 9.65305 14.7119 9.56463 14.7613C9.5447 14.7728 9.52128 14.7766 9.49873 14.7721C9.47619 14.7676 9.45606 14.755 9.4421 14.7367C9.42814 14.7185 9.4213 14.6957 9.42287 14.6728C9.42443 14.6499 9.43429 14.6283 9.4506 14.6121L9.45266 14.6101C9.69498 14.3643 9.81219 14.0507 9.88584 13.7102C9.90474 13.6254 9.92005 13.5387 9.93515 13.4511C9.94275 13.4073 9.94943 13.363 9.95569 13.3187C9.96196 13.2743 9.96453 13.2365 9.96946 13.1948C9.98218 13.0332 9.96748 12.8706 9.92601 12.7138C9.8832 12.556 9.8177 12.4052 9.73155 12.2662C9.64152 12.1237 9.53671 11.9911 9.41886 11.8706C9.2974 11.7477 9.16692 11.6341 9.02851 11.5308C8.9588 11.4788 8.88716 11.4293 8.81361 11.3824C8.77684 11.3592 8.73975 11.3364 8.70277 11.3141C8.66579 11.2918 8.62625 11.2695 8.5944 11.2525L8.58711 11.2486C8.56518 11.237 8.54574 11.2213 8.5299 11.2022C8.51406 11.1831 8.50214 11.1611 8.49481 11.1375C8.48748 11.1138 8.4849 11.0889 8.4872 11.0642C8.4895 11.0395 8.49664 11.0155 8.50822 10.9936C8.51655 10.9782 8.52691 10.9639 8.53903 10.9512C8.59492 10.892 8.65501 10.8214 8.70945 10.753C8.7639 10.6847 8.81649 10.612 8.86611 10.5395C8.964 10.3941 9.04752 10.2409 9.10042 10.0875L9.11973 10.0301L9.13278 9.97327C9.14428 9.93495 9.14479 9.89889 9.14993 9.86222C9.15211 9.84474 9.15235 9.82706 9.15065 9.80952C9.14973 9.79268 9.15065 9.77429 9.1489 9.75816C9.14534 9.73111 9.13762 9.70478 9.126 9.68009C9.10391 9.63048 9.0619 9.58446 9.00879 9.54809C8.95696 9.51217 8.89749 9.48879 8.83508 9.47978C8.82897 9.47875 8.82279 9.47826 8.81659 9.47834C8.80974 9.47791 8.80286 9.47812 8.79605 9.47896L8.73791 9.4843C8.69928 9.48533 8.66025 9.49704 8.62132 9.50341C8.58238 9.50978 8.54376 9.52549 8.50483 9.53566C8.466 9.54778 8.42799 9.56525 8.38936 9.57953C8.23661 9.64527 8.08972 9.73721 7.95228 9.84394C7.67729 10.0584 7.43465 10.3254 7.22653 10.6161C7.12146 10.7614 7.02472 10.9125 6.93675 11.0687C6.84799 11.2244 6.76844 11.3851 6.69854 11.5501C6.55965 11.8788 6.4559 12.223 6.41276 12.569C6.39014 12.7393 6.38807 12.9118 6.4066 13.0826C6.41091 13.1245 6.41964 13.1648 6.4256 13.2067C6.43156 13.2486 6.44399 13.2915 6.45292 13.3339C6.47385 13.418 6.49902 13.5011 6.52832 13.5827C6.58535 13.7446 6.65758 13.9007 6.74404 14.049C6.83084 14.1974 6.93511 14.3354 7.05221 14.473L7.05386 14.475C7.06827 14.4919 7.07637 14.5132 7.07677 14.5353C7.07718 14.5575 7.06986 14.5791 7.05607 14.5965C7.04228 14.6138 7.02288 14.6258 7.0012 14.6304C6.97952 14.635 6.95692 14.632 6.93726 14.6217L6.93737 14.6223Z" fill="#000072"/>
<path d="M12.2292 26.0306C12.2685 26.0612 12.3112 26.0873 12.3563 26.1085C12.4033 26.1309 12.452 26.1497 12.5018 26.1649C12.6034 26.1941 12.7082 26.2108 12.8139 26.2147C12.9203 26.2211 13.0282 26.212 13.1364 26.2026L13.2994 26.182C13.3539 26.1727 13.4083 26.1627 13.4638 26.1557L13.468 26.1552C13.4823 26.1535 13.4968 26.157 13.5087 26.1651C13.5207 26.1733 13.5292 26.1855 13.5328 26.1994C13.5364 26.2134 13.5348 26.2282 13.5283 26.2411C13.5218 26.254 13.5108 26.2641 13.4974 26.2694C13.4432 26.291 13.3879 26.3097 13.3324 26.3289C13.2757 26.344 13.2184 26.3579 13.1606 26.37C13.0438 26.3879 12.9243 26.4017 12.804 26.3915C12.6825 26.3856 12.5626 26.3608 12.4487 26.3179C12.3912 26.2958 12.3361 26.2677 12.2843 26.2342C12.2319 26.199 12.185 26.1644 12.1396 26.1089C12.1301 26.0977 12.1252 26.0833 12.1258 26.0687C12.1263 26.054 12.1323 26.0401 12.1426 26.0296C12.1529 26.0192 12.1667 26.0129 12.1813 26.0121C12.1959 26.0112 12.2104 26.0159 12.2218 26.0251L12.2292 26.0306Z" fill="#000072"/>
<path d="M12.2292 25.6179C12.2685 25.6485 12.3112 25.6746 12.3563 25.6957C12.4033 25.7182 12.4519 25.737 12.5018 25.7521C12.6034 25.7813 12.7082 25.7981 12.8139 25.8021C12.9203 25.8084 13.0282 25.7993 13.1364 25.7899L13.2994 25.7694C13.3539 25.7599 13.4083 25.75 13.4638 25.743L13.468 25.7425C13.4823 25.7407 13.4968 25.7443 13.5087 25.7524C13.5207 25.7605 13.5292 25.7727 13.5328 25.7867C13.5364 25.8007 13.5348 25.8155 13.5283 25.8284C13.5218 25.8413 13.5108 25.8513 13.4974 25.8567C13.4432 25.8784 13.3879 25.897 13.3324 25.9162C13.2757 25.9313 13.2184 25.9453 13.1606 25.9573C13.0438 25.975 12.9243 25.9888 12.804 25.9786C12.6824 25.9728 12.5626 25.948 12.4487 25.9051C12.3912 25.8829 12.3361 25.8549 12.2843 25.8215C12.2319 25.7861 12.185 25.7515 12.1396 25.696C12.1301 25.6848 12.1252 25.6705 12.1258 25.6558C12.1263 25.6412 12.1323 25.6273 12.1426 25.6168C12.1529 25.6063 12.1667 25.6001 12.1813 25.5992C12.1959 25.5984 12.2104 25.603 12.2218 25.6122L12.2292 25.6179Z" fill="#000072"/>
<path d="M16.2481 25.9424C16.2874 25.973 16.3301 25.9991 16.3752 26.0204C16.4222 26.0427 16.4709 26.0616 16.5207 26.0768C16.6223 26.1058 16.7271 26.1226 16.8327 26.1266C16.9391 26.1329 17.0471 26.1239 17.1553 26.1144L17.3184 26.0934C17.3727 26.084 17.4272 26.0741 17.4827 26.0672L17.4868 26.0666C17.5012 26.0648 17.5157 26.0683 17.5276 26.0764C17.5396 26.0845 17.5482 26.0967 17.5518 26.1107C17.5554 26.1247 17.5538 26.1396 17.5473 26.1525C17.5407 26.1654 17.5297 26.1754 17.5163 26.1808C17.4622 26.2025 17.4067 26.2211 17.3512 26.2404C17.2945 26.2554 17.2373 26.2694 17.1795 26.2815C17.0626 26.2992 16.9432 26.313 16.8229 26.3028C16.7013 26.297 16.5814 26.2722 16.4675 26.2293C16.41 26.2072 16.3549 26.1791 16.3032 26.1456C16.2509 26.1103 16.2038 26.0757 16.1584 26.0204C16.1488 26.0092 16.1438 25.9948 16.1443 25.9801C16.1448 25.9653 16.1508 25.9513 16.1611 25.9408C16.1714 25.9303 16.1853 25.924 16.2 25.9232C16.2147 25.9224 16.2292 25.9271 16.2406 25.9364L16.2481 25.9424Z" fill="#000072"/>
<path d="M16.2481 25.5299C16.2874 25.5605 16.33 25.5866 16.3751 25.6077C16.4222 25.6302 16.4708 25.6491 16.5207 25.6641C16.6223 25.6933 16.727 25.7101 16.8327 25.7141C16.9391 25.7203 17.047 25.7113 17.1553 25.7018L17.3183 25.6813C17.3727 25.672 17.4271 25.662 17.4827 25.655L17.4868 25.6545C17.5011 25.6527 17.5156 25.6562 17.5276 25.6643C17.5395 25.6724 17.5481 25.6846 17.5517 25.6986C17.5554 25.7126 17.5538 25.7275 17.5472 25.7404C17.5407 25.7533 17.5297 25.7633 17.5163 25.7687C17.4621 25.7903 17.4067 25.809 17.3512 25.8282C17.2945 25.8433 17.2373 25.8572 17.1795 25.8693C17.0626 25.8872 16.9432 25.9009 16.8229 25.8908C16.7013 25.8849 16.5814 25.8601 16.4675 25.8172C16.41 25.795 16.3549 25.767 16.3031 25.7335C16.2508 25.6982 16.2038 25.6636 16.1584 25.6082C16.1489 25.5969 16.144 25.5826 16.1446 25.568C16.1451 25.5533 16.1511 25.5394 16.1614 25.5289C16.1717 25.5184 16.1855 25.5122 16.2001 25.5113C16.2147 25.5105 16.2292 25.5151 16.2406 25.5243L16.2481 25.5299Z" fill="#000072"/>
<path d="M16.4747 28.7365C16.475 28.8271 16.4559 28.9168 16.4188 28.9995C16.1661 28.9418 15.9557 28.8557 15.8307 28.7417C15.7706 28.6868 15.7074 28.458 15.6448 28.1189C15.7049 28.1007 15.7675 28.0915 15.8303 28.0917C15.9149 28.0917 15.9988 28.1084 16.077 28.1408C16.1551 28.1732 16.2262 28.2207 16.286 28.2806C16.3459 28.3405 16.3933 28.4116 16.4257 28.4898C16.4581 28.568 16.4747 28.6518 16.4747 28.7365Z" fill="white"/>
<path d="M17.7639 28.8749C17.764 28.9386 17.7545 29.0019 17.7358 29.0628C17.3249 29.1073 16.8669 29.0909 16.4902 29.0148C16.4797 28.9689 16.4745 28.9219 16.4747 28.8749C16.4736 28.7895 16.4895 28.7048 16.5214 28.6257C16.5533 28.5465 16.6006 28.4745 16.6606 28.4138C16.7205 28.353 16.792 28.3048 16.8707 28.2719C16.9495 28.239 17.034 28.222 17.1193 28.222C17.2046 28.222 17.2891 28.239 17.3679 28.2719C17.4466 28.3048 17.5181 28.353 17.578 28.4138C17.638 28.4745 17.6853 28.5465 17.7172 28.6257C17.7491 28.7048 17.765 28.7895 17.7639 28.8749Z" fill="white"/>
<path d="M18.8898 28.446C18.8461 28.5554 18.7944 28.6442 18.7329 28.7114C18.5676 28.8913 18.2069 29.0058 17.7902 29.0566C17.7726 28.9976 17.7638 28.9364 17.7639 28.8748C17.7638 28.7441 17.8034 28.6165 17.8775 28.5088C17.9517 28.4012 18.0568 28.3186 18.1789 28.2721C18.3011 28.2255 18.4345 28.2173 18.5614 28.2483C18.6884 28.2794 18.8029 28.3483 18.8898 28.446Z" fill="white"/>
<path d="M16.5461 29.1371L16.4515 29.1155C16.1607 29.049 15.9448 28.9529 15.8099 28.8296C15.7501 28.7748 15.6817 28.6536 15.5873 28.1407L15.5681 28.0367L15.6694 28.0059C15.7407 27.9842 15.8149 27.9732 15.8894 27.9734C16.0918 27.9737 16.2858 28.0543 16.4288 28.1974C16.5718 28.3405 16.6522 28.5346 16.6524 28.7369C16.6527 28.8444 16.6301 28.9506 16.586 29.0486L16.5461 29.1371ZM15.8426 28.2126C15.9173 28.584 15.9659 28.6497 15.9717 28.6564C16.0581 28.7351 16.2058 28.8046 16.4013 28.8585C16.4195 28.7812 16.4199 28.7008 16.4027 28.6233C16.3855 28.5458 16.3509 28.4733 16.3017 28.411C16.2525 28.3487 16.1899 28.2983 16.1185 28.2636C16.0471 28.2289 15.9688 28.2108 15.8894 28.2106C15.8737 28.2105 15.8581 28.2111 15.8426 28.2126Z" fill="#000072"/>
<path d="M17.3295 29.206C17.0497 29.206 16.7718 29.1806 16.5265 29.131L16.4514 29.1159L16.4343 29.0413C16.422 28.9867 16.4157 28.9309 16.4158 28.8749C16.4147 28.7739 16.4335 28.6737 16.4714 28.5801C16.5092 28.4865 16.5652 28.4013 16.6362 28.3295C16.7072 28.2577 16.7917 28.2006 16.8849 28.1617C16.9781 28.1228 17.078 28.1028 17.179 28.1028C17.28 28.1028 17.38 28.1228 17.4731 28.1617C17.5663 28.2006 17.6508 28.2577 17.7218 28.3295C17.7928 28.4013 17.8488 28.4865 17.8867 28.5801C17.9245 28.6737 17.9434 28.7739 17.9422 28.8749C17.9423 28.9504 17.931 29.0256 17.9088 29.0978L17.8857 29.1722L17.8083 29.1806C17.6493 29.1976 17.4895 29.2061 17.3295 29.206ZM16.6543 28.9138C16.9757 28.9698 17.3477 28.9838 17.6993 28.953C17.7032 28.9272 17.7051 28.901 17.7051 28.8749C17.7061 28.8052 17.6932 28.736 17.6672 28.6713C17.6412 28.6066 17.6026 28.5477 17.5536 28.4981C17.5047 28.4484 17.4464 28.409 17.3821 28.3821C17.3177 28.3552 17.2487 28.3414 17.179 28.3414C17.1093 28.3414 17.0403 28.3552 16.976 28.3821C16.9116 28.409 16.8533 28.4484 16.8044 28.4981C16.7554 28.5477 16.7168 28.6066 16.6908 28.6713C16.6648 28.736 16.6519 28.8052 16.6529 28.8749C16.6525 28.8879 16.653 28.9009 16.6539 28.9138H16.6543Z" fill="#000072"/>
<path d="M17.7647 29.1864L17.7359 29.0908C17.715 29.0208 17.7045 28.9481 17.7046 28.8751C17.7045 28.7203 17.7514 28.5692 17.8392 28.4418C17.9269 28.3143 18.0514 28.2166 18.196 28.1615C18.3406 28.1065 18.4985 28.0967 18.6488 28.1334C18.7991 28.1702 18.9347 28.2518 19.0375 28.3674L19.0863 28.4222L19.0591 28.4902C19.0089 28.616 18.9502 28.7146 18.8795 28.7917C18.658 29.0329 18.2049 29.133 17.8638 29.1745L17.7647 29.1864ZM18.468 28.3485C18.3285 28.3487 18.1947 28.4042 18.096 28.5029C17.9973 28.6015 17.9418 28.7353 17.9417 28.8749C17.9417 28.8913 17.9425 28.9077 17.9439 28.924C18.3097 28.8677 18.5838 28.7628 18.7048 28.6312C18.7464 28.5837 18.781 28.5305 18.8075 28.4732C18.7127 28.3928 18.5924 28.3486 18.468 28.3485Z" fill="#000072"/>
</g>
<defs>
<clipPath id="clip0_48_6617">
<rect width="29.9524" height="30" fill="white"/>
</clipPath>
</defs>
</svg>
