<svg width="25" height="30" viewBox="0 0 25 30" fill="none" xmlns="http://www.w3.org/2000/svg">
<g clip-path="url(#clip0_48_6361)">
<path d="M24.2967 11.1196C24.2913 11.0993 24.2856 11.08 24.2789 11.0608C24.2236 10.8861 24.1156 10.7328 23.9697 10.622C23.2931 10.0995 21.7677 10.787 19.2357 11.4943C19.2357 11.4943 19.2346 11.4948 19.2342 11.4948C19.1446 7.36194 18.3889 4.33291 16.0052 2.94486C16.0052 2.94479 16.0051 2.94474 16.005 2.9447C16.0049 2.94466 16.0048 2.94464 16.0047 2.94464C16.0046 2.94464 16.0045 2.94466 16.0044 2.9447C16.0043 2.94474 16.0043 2.94479 16.0042 2.94486L16.0037 2.94434C15.0388 2.38329 13.8074 2.0908 12.245 2.10329C6.82186 2.06061 5.38072 5.68868 5.25529 11.4954C2.72277 10.7876 1.19577 10.1 0.519701 10.6226C-0.500385 11.4105 0.603494 13.7474 4.14517 16.2653L4.24093 15.8562L4.24249 15.8578C3.01163 20.8708 4.03275 24.2256 6.93219 26.0264C7.52898 26.3964 8.20348 26.7012 8.95571 26.9408C11.0956 27.6221 13.3943 27.6221 15.5342 26.9408C19.994 25.5184 21.7734 21.8149 20.1933 15.6423L20.198 15.6397L20.3448 16.2653C22.9595 14.4068 24.2455 12.6466 24.3293 11.5354V11.5344C24.341 11.3953 24.33 11.2552 24.2967 11.1196ZM19.2346 11.5334V11.5287L19.2357 11.5339L19.2346 11.5334Z" fill="#6A5B75"/>
<g opacity="0.55">
<path d="M23.9696 10.6221C23.3242 10.1224 21.5661 10.8235 19.2341 11.4949C19.2397 11.663 19.3196 11.7825 19.3232 11.9547C21.7745 11.2703 23.5449 10.5586 24.2527 10.99C24.1928 10.8443 24.095 10.7173 23.9696 10.6221ZM20.5487 16.054L20.544 16.0566C20.5487 16.0748 20.5533 16.093 20.5575 16.1107C20.5588 16.11 20.5601 16.1092 20.5612 16.1081L20.5487 16.054ZM4.49791 16.677C4.56297 16.3871 4.62126 16.0962 4.6681 15.8032C4.6743 15.7637 4.67164 15.7234 4.66031 15.6851C4.64898 15.6469 4.62926 15.6116 4.6026 15.5819C4.57594 15.5522 4.54299 15.5288 4.50616 15.5134C4.46932 15.498 4.42953 15.491 4.38966 15.493L4.373 15.494C4.373 15.494 4.12943 16.3361 4.11538 16.4032C3.28422 20.2171 3.81414 23.0249 5.52736 24.8767C4.07686 23.0057 3.68497 20.2863 4.49791 16.677Z" fill="white"/>
</g>
<g opacity="0.55">
<path d="M17.4738 4.24756C16.4048 3.11194 14.8419 2.49988 12.5956 2.51758C7.25674 2.47594 5.7771 5.99128 5.61284 11.641C5.60721 11.8251 5.58319 12.0081 5.54113 12.1874L5.16255 13.8062L5.24686 11.8076C2.92825 11.1389 1.51418 10.5393 0.870381 11.0374C0.23647 11.5266 0.422793 12.6149 1.50429 13.9727C0.116767 12.4233 -0.17833 11.1612 0.519076 10.6226C1.19566 10.1 2.72215 10.7881 5.25519 11.4954C5.3801 5.68869 6.82175 2.06062 12.2449 2.1033C14.7503 2.083 16.4059 2.84703 17.4738 4.24756Z" fill="white"/>
</g>
<g opacity="0.55">
<path d="M19.2346 11.5287V11.5334L19.2357 11.5339L19.2346 11.5287Z" fill="white"/>
</g>
<path d="M10.9952 27.3789C10.9834 28.3501 9.82057 28.5156 9.23298 28.0129C9.1478 28.129 9.05347 28.2381 8.95089 28.3392C8.74323 28.5411 8.53193 28.6645 8.32271 28.7149C7.75802 28.8523 7.20634 28.4604 6.77488 27.6475C6.74886 27.6564 6.72336 27.6647 6.69838 27.6725C5.09538 28.1726 4.43962 27.1177 7.00544 26.071L8.8619 26.6795L10.9952 27.3789Z" fill="#FFB127"/>
<g opacity="0.6">
<path d="M10.9954 27.3789C10.9954 27.4341 11.0027 27.3841 10.9954 27.4341L7.24814 26.312C5.91422 26.8564 5.45102 27.4024 5.53897 27.7313C5.00291 27.5096 5.24752 26.7887 7.00665 26.071L10.9954 27.3789Z" fill="white"/>
</g>
<g opacity="0.3">
<path d="M10.9953 27.3791C10.9834 28.3502 9.82061 28.5157 9.23302 28.013C9.14785 28.1291 9.05352 28.2382 8.95094 28.3393C8.74328 28.5412 8.53198 28.6646 8.32275 28.7151C8.62102 28.5051 8.82479 28.1862 8.89012 27.8274C8.95545 27.4685 8.87711 27.0983 8.67198 26.7967L8.86194 26.6796L10.9953 27.3791Z" fill="#371A45"/>
</g>
<g opacity="0.6">
<path d="M9.03051 28.0551C9.02843 28.0666 9.00241 28.1816 8.95088 28.3393C8.18322 29.0851 7.36621 28.7619 6.77539 27.6476C6.74937 27.6565 6.72387 27.6648 6.69889 27.6726L6.6687 27.2161C6.73844 27.1969 6.81278 27.2035 6.87807 27.2346C6.94336 27.2658 6.99524 27.3194 7.02417 27.3857C7.17146 27.7215 7.50299 28.296 8.06872 28.3752C8.85252 28.4845 9.02166 28.0775 9.03051 28.0551Z" fill="white"/>
</g>
<path d="M17.791 27.6475C17.1268 28.8997 16.177 29.1532 15.3333 28.0129C14.7457 28.5156 13.583 28.3501 13.5706 27.3789L14.7499 26.9922L17.2496 26.1731L17.5603 26.071C20.1668 27.1343 19.4496 28.2059 17.791 27.6475Z" fill="#FFB127"/>
<path d="M19.3573 24.4973C15.3333 29.121 7.33215 27.5534 5.22807 24.4973C3.20299 21.5281 4.69981 18.7723 5.41647 17.7481C5.80005 17.1995 6.12637 16.6119 6.37254 15.989C7.0179 14.3563 6.84668 13.268 6.62548 9.8289C6.40585 7.75958 7.60497 5.89636 9.05391 5.4852C10.0205 5.21041 11.1383 5.70171 11.9554 7.33801C12.0996 7.62634 12.5102 7.6279 12.6622 7.34374C13.6006 5.58721 14.7227 5.16148 15.7412 5.55547C17.0944 6.07852 18.1686 7.86003 17.96 9.8289C17.7388 13.268 17.5669 14.3563 18.2123 15.989C18.459 16.6114 18.7853 17.199 19.169 17.7481C19.885 18.7729 21.382 21.5281 19.3573 24.4973Z" fill="white"/>
<g opacity="0.3">
<path d="M17.791 27.6475C17.1268 28.8997 16.177 29.1532 15.3333 28.0129C14.7457 28.5156 13.583 28.3501 13.5706 27.3789L14.7499 26.9922C14.8384 27.0136 14.9269 27.0354 15.0159 27.0557C15.452 27.1562 15.7179 27.6293 16.1473 27.7568C16.5272 27.8697 16.9577 27.661 17.1654 27.3233C17.3732 26.9855 17.3782 26.5499 17.2487 26.1751C17.2492 26.1746 17.2492 26.1736 17.2497 26.1731L17.5604 26.071C20.1668 27.1343 19.4496 28.2059 17.791 27.6475Z" fill="#371A45"/>
</g>
<g opacity="0.3">
<path d="M12.7092 9.30261C15.0513 10.4529 15.0166 12.1368 13.195 11.3909L12.7092 9.30261Z" fill="#371A45"/>
</g>
<path d="M12.4672 2.26262C11.8705 2.24992 11.2733 2.27615 10.6873 2.36671C10.1012 2.45727 9.5275 2.61361 8.9931 2.85822C8.45683 3.09857 7.97301 3.44446 7.56123 3.85957C7.45402 3.9596 7.36273 4.07483 7.26593 4.18486C7.21617 4.23878 7.17474 4.29936 7.13061 4.35806L6.9981 4.53481L6.87819 4.72019C6.83905 4.78265 6.79585 4.84208 6.76171 4.90756L6.65335 5.10044C6.63566 5.13281 6.61651 5.16424 6.59996 5.19724L6.55145 5.29696C6.28821 5.82626 6.09085 6.38991 5.94034 6.96646C5.79169 7.54385 5.6874 8.13405 5.61474 8.72851C5.59705 8.87736 5.57768 9.02579 5.56457 9.17526C5.55145 9.32474 5.53251 9.47327 5.52148 9.62285L5.48692 10.0717C5.4789 10.2218 5.46756 10.3716 5.45809 10.5215C5.44278 10.8217 5.42238 11.1218 5.4127 11.4227C5.40646 11.5731 5.39188 11.7233 5.37669 11.8738C5.35857 12.0242 5.33682 12.1748 5.29716 12.3257V12.327C5.2943 12.3388 5.28753 12.3492 5.27797 12.3566C5.26841 12.364 5.25662 12.3679 5.24453 12.3678C5.23245 12.3676 5.22077 12.3633 5.21142 12.3557C5.20208 12.348 5.1956 12.3374 5.19307 12.3256C5.1226 12.0228 5.10095 11.7188 5.10158 11.4152C5.10158 11.2634 5.10355 11.1116 5.10813 10.9597C5.11271 10.8078 5.11427 10.6559 5.1226 10.5041C5.13093 10.3522 5.13686 10.2003 5.14644 10.0486L5.18297 9.5935C5.21087 9.29028 5.24106 8.98707 5.2854 8.6852C5.37034 8.08148 5.48005 7.47911 5.63764 6.88684C5.79523 6.29456 5.99644 5.71061 6.27259 5.15717L6.32328 5.05308C6.34067 5.01862 6.36065 4.98531 6.37929 4.95148L6.49295 4.74903C6.52897 4.68043 6.57435 4.61714 6.61567 4.55125L6.74225 4.35598L6.88173 4.16924C6.92888 4.10741 6.97281 4.04329 7.02558 3.98584C7.12822 3.86873 7.22544 3.74695 7.33931 3.64005C7.77774 3.19808 8.29496 2.82908 8.86267 2.57458C9.4284 2.31539 10.0314 2.15187 10.6397 2.05798C11.248 1.96409 11.864 1.93734 12.4757 1.95035C12.4962 1.95079 12.5164 1.95526 12.5351 1.96351C12.5539 1.97176 12.5709 1.98363 12.5851 1.99843C12.5993 2.01324 12.6104 2.0307 12.6178 2.04981C12.6253 2.06892 12.6289 2.08931 12.6285 2.10981C12.628 2.13032 12.6235 2.15054 12.6153 2.16931C12.607 2.18809 12.5952 2.20505 12.5804 2.21924C12.5656 2.23343 12.5481 2.24457 12.529 2.25201C12.5099 2.25945 12.4895 2.26306 12.469 2.26262H12.4672Z" fill="#371A45"/>
<path d="M4.05432 16.3917C1.57936 14.6326 0.0260225 12.7398 0.000312179 11.4526C-0.00770278 11.0487 0.138752 10.7186 0.42396 10.4983C1.00687 10.0481 2.018 10.3574 3.69365 10.8698C4.17153 11.0156 4.71373 11.1821 5.30341 11.3464L5.21951 11.6472C4.62557 11.4814 4.0819 11.3151 3.60236 11.1684C2.07723 10.702 1.06984 10.3939 0.614966 10.7453C0.408242 10.905 0.306546 11.1409 0.313104 11.4464C0.331632 12.3791 1.37191 14.1007 4.23575 16.1371L4.05432 16.3917Z" fill="#371A45"/>
<path d="M12.0133 1.95048C12.625 1.93747 13.2402 1.96401 13.8493 2.05811C14.4585 2.15221 15.0606 2.31553 15.6263 2.57471C16.1941 2.82921 16.7113 3.19821 17.1496 3.64018C17.2636 3.74708 17.3608 3.86918 17.4634 3.98597C17.5162 4.04343 17.5601 4.10755 17.6073 4.16938L17.7468 4.35612L17.8733 4.55139C17.915 4.61697 17.9601 4.68025 17.9961 4.74916L18.1097 4.9512C18.1283 4.98503 18.1483 5.01834 18.1657 5.05279L18.2164 5.15688C18.4925 5.71023 18.6941 6.29449 18.8514 6.88635C19.0087 7.4782 19.1192 8.08078 19.2039 8.68472C19.2483 8.98658 19.2768 9.29011 19.3055 9.59322L19.342 10.0483L19.3653 10.5038C19.3737 10.6557 19.3752 10.8076 19.3795 10.9594C19.3839 11.1112 19.3862 11.2631 19.386 11.4149C19.386 11.7186 19.3635 12.0225 19.2952 12.3253C19.2926 12.3371 19.2861 12.3477 19.2767 12.3553C19.2674 12.3629 19.2557 12.3671 19.2436 12.3673C19.2315 12.3674 19.2197 12.3634 19.2102 12.356C19.2007 12.3485 19.1939 12.3381 19.1911 12.3263V12.3254C19.1173 12.0235 19.0941 11.723 19.0766 11.4224C19.0662 11.1215 19.047 10.8213 19.031 10.5212L19.0016 10.0714L18.9669 9.62257C18.9403 9.32383 18.9104 9.0253 18.8732 8.72823C18.8004 8.13377 18.6971 7.54336 18.5479 6.96618C18.3986 6.389 18.2005 5.82587 17.9376 5.29647L17.8891 5.19675C17.8725 5.16375 17.8534 5.13232 17.8357 5.09995L17.7273 4.90707C17.6932 4.84149 17.65 4.78216 17.6108 4.7197L17.4904 4.53484L17.3585 4.35789C17.314 4.2996 17.2725 4.2386 17.2232 4.18468C17.1264 4.07466 17.035 3.95943 16.9279 3.8594C16.5156 3.44428 16.0327 3.09839 15.4959 2.85805C14.9617 2.61343 14.3873 2.45678 13.8018 2.36643C13.2164 2.27608 12.6187 2.24974 12.0219 2.26234H12.0203C11.9789 2.26322 11.9389 2.24762 11.909 2.21896C11.8791 2.19031 11.8618 2.15094 11.8609 2.10953C11.86 2.06812 11.8756 2.02806 11.9043 1.99815C11.9329 1.96825 11.9723 1.95095 12.0137 1.95007L12.0133 1.95048Z" fill="#371A45"/>
<path d="M20.1832 15.3972C20.2284 15.478 20.2686 15.5614 20.3036 15.6471C20.3399 15.7315 20.3718 15.8172 20.4014 15.9035C20.4603 16.0764 20.4984 16.2547 20.5408 16.4317C20.6202 16.7872 20.6932 17.1446 20.7498 17.5052L20.7724 17.6405L20.791 17.7758L20.8273 18.0473C20.8401 18.1377 20.8488 18.2287 20.8569 18.3198L20.8827 18.5928C20.8931 18.6837 20.896 18.7753 20.9016 18.8666L20.9174 19.1406C20.924 19.3236 20.9264 19.5069 20.9278 19.69C20.9211 20.4231 20.8459 21.1584 20.6821 21.8772C20.6605 21.9668 20.6354 22.0556 20.6122 22.1448L20.5767 22.2784C20.5649 22.323 20.549 22.3665 20.5351 22.4105L20.4499 22.674L20.3514 22.933L20.3017 23.0623L20.2449 23.1889C20.2065 23.273 20.1701 23.3581 20.1298 23.4413C20.0433 23.6049 19.9625 23.7716 19.863 23.9281C19.7715 24.0893 19.6631 24.2403 19.5586 24.3927C19.5045 24.4678 19.4457 24.5395 19.3893 24.613L19.3036 24.7224L19.2119 24.8265C18.9725 25.1096 18.7007 25.3631 18.417 25.5998L18.2002 25.7728C18.126 25.8276 18.0502 25.8803 17.9751 25.934L17.8621 26.0141L17.7453 26.0881C17.6671 26.1373 17.5899 26.1877 17.5111 26.2354L17.2703 26.3708C17.2299 26.3929 17.1905 26.417 17.1494 26.4376L17.0259 26.4994C16.9435 26.5402 16.8618 26.5827 16.7786 26.622L16.5266 26.7336C15.1765 27.3138 13.7102 27.6024 12.2439 27.6066C10.7777 27.6024 9.31135 27.3138 7.96129 26.7336L7.7096 26.6228C7.62633 26.5833 7.54483 26.5409 7.46239 26.5001L7.33894 26.4383C7.2973 26.4175 7.25837 26.3937 7.21798 26.3715L6.97722 26.2362C6.89843 26.1884 6.82109 26.138 6.74302 26.0889L6.62623 26.0149L6.51319 25.9347C6.43814 25.881 6.36226 25.8283 6.28804 25.7735L6.07174 25.6C5.78799 25.3633 5.51611 25.1098 5.2768 24.8267L5.18499 24.7226L5.09933 24.6132C5.04301 24.5397 4.9842 24.4675 4.93008 24.3929C4.82599 24.24 4.71721 24.0895 4.62572 23.9283C4.5262 23.7721 4.44543 23.6056 4.35883 23.4415C4.31865 23.3583 4.28222 23.2732 4.24381 23.1891L4.18698 23.0626L4.13732 22.9332C4.10464 22.8468 4.0705 22.7609 4.03906 22.6741L3.95454 22.4104C3.94101 22.3664 3.92529 22.3229 3.9129 22.2783L3.87793 22.1446C3.85472 22.0554 3.82953 21.9666 3.80798 21.8771C3.64341 21.1588 3.57055 20.4231 3.56274 19.6902C3.56472 19.5071 3.56555 19.3238 3.5718 19.1408L3.58752 18.8668C3.59324 18.7755 3.59657 18.6839 3.60657 18.5931C3.63779 18.2288 3.67943 17.8654 3.73855 17.5053C3.79539 17.1447 3.86835 16.787 3.9483 16.4319C3.98993 16.2549 4.0323 16.0775 4.09038 15.9045C4.12015 15.8182 4.15283 15.7326 4.18802 15.6479C4.22255 15.5623 4.26175 15.4787 4.30543 15.3974C4.31107 15.3869 4.32005 15.3786 4.33096 15.3737C4.34188 15.3689 4.35409 15.3678 4.36568 15.3707C4.37726 15.3736 4.38754 15.3803 4.3949 15.3897C4.40226 15.3991 4.40627 15.4107 4.40629 15.4226V15.4241C4.4061 15.516 4.401 15.6078 4.39099 15.6992C4.38162 15.7897 4.37017 15.8793 4.3555 15.9682C4.32812 16.1464 4.29627 16.3229 4.25734 16.4979C4.18718 16.8497 4.1258 17.2026 4.0732 17.5565C4.02199 17.9104 3.97744 18.2653 3.94663 18.6211C3.93622 18.71 3.9332 18.7991 3.92748 18.8881L3.91145 19.1552C3.90437 19.3333 3.90052 19.5115 3.89656 19.6897C3.89365 20.402 3.96047 21.1139 4.11453 21.806C4.13472 21.8922 4.15835 21.9775 4.18 22.0633L4.21362 22.1917C4.22497 22.2346 4.24006 22.2762 4.25307 22.3184L4.33395 22.571C4.36414 22.6543 4.39641 22.7361 4.42763 22.8187L4.47499 22.9424L4.52933 23.0631C4.56607 23.1433 4.60063 23.2246 4.63904 23.3039C4.72169 23.4601 4.7983 23.6188 4.89323 23.7675C4.98014 23.9211 5.0834 24.0639 5.1826 24.2095C5.23464 24.2809 5.29013 24.349 5.34363 24.419L5.42503 24.523L5.51236 24.6222C5.7398 24.8916 5.99898 25.1329 6.26972 25.3588L6.47655 25.5241C6.54764 25.5761 6.6204 25.6268 6.69212 25.6783L6.80027 25.7551L6.91237 25.826C6.98732 25.8731 7.06133 25.9215 7.137 25.9674L7.3685 26.0978C7.40732 26.1192 7.44511 26.1423 7.48477 26.1622L7.60374 26.2217C7.68327 26.2609 7.76196 26.3018 7.84211 26.3398L8.08578 26.4477L8.20767 26.5013L8.33196 26.5497L8.58042 26.6466L8.83295 26.7334C8.91736 26.7618 9.00095 26.7926 9.08682 26.8167L9.34278 26.8929C9.42782 26.9193 9.51505 26.9382 9.60103 26.9613C9.77288 27.0081 9.94744 27.0438 10.1215 27.0812C10.2082 27.1015 10.2965 27.1143 10.384 27.1302C10.4715 27.1461 10.5592 27.1625 10.6474 27.1747C10.8244 27.1972 11 27.2262 11.1776 27.24C11.2663 27.2482 11.3545 27.2579 11.4436 27.265L11.7103 27.2803L11.8437 27.2876L11.9772 27.2902L12.2443 27.2953L12.5115 27.2902L12.645 27.2876L12.7784 27.2803L13.0451 27.265C13.1339 27.2579 13.222 27.2482 13.3111 27.24C13.4887 27.2262 13.665 27.1972 13.8413 27.1747C13.9295 27.1625 14.0169 27.1449 14.1047 27.1302C14.1926 27.1155 14.2805 27.1015 14.3672 27.0812C14.5414 27.0438 14.7159 27.0083 14.8877 26.9613C14.9737 26.9382 15.0609 26.9196 15.1459 26.8929L15.4019 26.8167C15.4878 26.7928 15.5713 26.762 15.6558 26.7334L15.9083 26.6466L16.1567 26.5497L16.281 26.5013L16.4029 26.4477L16.6466 26.3398C16.7266 26.3018 16.8054 26.2609 16.885 26.2217L17.0039 26.1622C17.0436 26.1423 17.0814 26.1192 17.1202 26.0978L17.3517 25.9674C17.4274 25.9215 17.5014 25.8731 17.5763 25.826L17.6884 25.7551L17.7966 25.6783C17.8683 25.6263 17.9411 25.5765 18.0122 25.5241L18.219 25.3588C18.4896 25.1329 18.7489 24.8916 18.9763 24.6222L19.0637 24.523L19.145 24.419C19.1986 24.349 19.2546 24.2809 19.3061 24.2095C19.4053 24.0638 19.5086 23.9211 19.5955 23.7675C19.6904 23.6188 19.7669 23.4597 19.8497 23.3039C19.8881 23.2246 19.9225 23.1433 19.9594 23.0631L20.0137 22.9424L20.0611 22.8187C20.0923 22.736 20.1252 22.6541 20.1548 22.5709L20.2349 22.3181C20.2477 22.2758 20.2627 22.2342 20.2738 22.1913L20.3071 22.0629C20.3288 21.977 20.3525 21.8917 20.3727 21.8056C20.5275 21.1138 20.592 20.4018 20.5903 19.6897C20.5859 19.5116 20.5837 19.3334 20.5768 19.1553L20.5608 18.8881C20.5551 18.7991 20.5518 18.71 20.5417 18.6212C20.5104 18.2655 20.4675 17.9106 20.4159 17.5565C20.3643 17.2024 20.3014 16.8496 20.2307 16.498C20.1927 16.3228 20.1564 16.1472 20.1298 15.969C20.1151 15.8801 20.1027 15.7907 20.0947 15.6999C20.085 15.6083 20.0808 15.5162 20.0822 15.4241V15.4226C20.0825 15.4109 20.0866 15.3995 20.0939 15.3903C20.1012 15.3811 20.1114 15.3745 20.1228 15.3716C20.1342 15.3687 20.1462 15.3697 20.1571 15.3743C20.1679 15.3789 20.1769 15.3869 20.1828 15.3971L20.1832 15.3972Z" fill="#371A45"/>
<path d="M20.4345 16.3917L20.2536 16.1372C23.1174 14.1013 24.1577 12.3796 24.1762 11.4465C24.1824 11.141 24.0807 10.9052 23.8744 10.7455C23.4194 10.3939 22.4119 10.7022 20.887 11.1685C20.4074 11.3151 19.8639 11.4814 19.2699 11.6473L19.186 11.3465C19.7762 11.1817 20.3178 11.0161 20.7957 10.8699C22.4715 10.3575 23.4828 10.0483 24.0655 10.4984C24.3507 10.7187 24.4971 11.0488 24.4891 11.4527C24.4629 12.7398 22.9095 14.6323 20.4345 16.3917Z" fill="#371A45"/>
<path d="M10.6782 9.14643C10.7458 8.30061 10.3042 7.57523 9.6918 7.52623C9.07939 7.47724 8.52807 8.12319 8.46041 8.96901C8.39274 9.81482 8.83435 10.5402 9.44676 10.5892C10.0592 10.6382 10.6105 9.99224 10.6782 9.14643Z" fill="#371A45"/>
<path d="M10.1143 8.88237C10.1363 8.59918 10.0046 8.35798 9.82012 8.34362C9.63562 8.32926 9.46819 8.54719 9.44615 8.83038C9.42412 9.11357 9.55581 9.35478 9.74031 9.36914C9.9248 9.3835 10.0922 9.16556 10.1143 8.88237Z" fill="white"/>
<path d="M15.2187 10.5997C15.8292 10.5521 16.271 9.83001 16.2054 8.98675C16.1398 8.14349 15.5916 7.4984 14.981 7.54592C14.3705 7.59344 13.9287 8.31556 13.9943 9.15882C14.0599 10.0021 14.6081 10.6472 15.2187 10.5997Z" fill="#371A45"/>
<path d="M14.8387 9.36695C15.0232 9.3526 15.1549 9.11139 15.1328 8.8282C15.1108 8.54501 14.9434 8.32708 14.7589 8.34143C14.5744 8.35579 14.4427 8.597 14.4647 8.88019C14.4867 9.16338 14.6542 9.38131 14.8387 9.36695Z" fill="white"/>
<path d="M13.2771 10.8585C13.2771 11.2717 13.175 11.5908 13.0169 11.8162C12.6438 12.3486 11.9583 12.354 11.5785 11.8315C11.4147 11.606 11.3079 11.2814 11.3079 10.8588" fill="#371A45"/>
<path d="M13.3385 10.7932L12.3898 10.9473C12.3726 10.9503 12.3552 10.9524 12.3377 10.9535C12.2886 10.9574 12.2391 10.9553 12.1904 10.9473L11.2474 10.7942C11.2166 10.7891 11.1874 10.777 11.1621 10.7587C11.1368 10.7404 11.1161 10.7165 11.1016 10.6889C11.0871 10.6612 11.0791 10.6306 11.0784 10.5994C11.0777 10.5682 11.0842 10.5373 11.0975 10.509C11.4857 9.68464 11.9151 9.28389 12.3377 9.30263C12.7421 9.32137 13.1403 9.72524 13.4905 10.5122C13.5031 10.5404 13.509 10.5711 13.5079 10.6019C13.5067 10.6328 13.4984 10.6629 13.4837 10.6901C13.4691 10.7173 13.4483 10.7407 13.4232 10.7586C13.398 10.7764 13.369 10.7883 13.3385 10.7932Z" fill="#FFB127"/>
<g opacity="0.6">
<path d="M12.7962 9.45666C12.7421 9.43966 12.6862 9.42969 12.6296 9.42699C12.207 9.40826 11.7776 9.809 11.3894 10.6334C11.3765 10.6609 11.3699 10.6909 11.3702 10.7213C11.3705 10.7516 11.3776 10.7815 11.3909 10.8088L11.292 10.7927C11.2613 10.7875 11.2321 10.7754 11.2068 10.7571C11.1815 10.7388 11.1608 10.7149 11.1463 10.6873C11.1317 10.6597 11.1238 10.6291 11.1231 10.5978C11.1224 10.5666 11.1289 10.5357 11.1422 10.5075C11.5304 9.68305 11.9598 9.28231 12.3824 9.30104C12.522 9.30729 12.6608 9.35933 12.7962 9.45666Z" fill="white"/>
</g>
<path d="M13.0168 11.8159C12.6436 12.3483 11.9582 12.3537 11.5784 11.8312C11.5784 11.824 11.5784 11.8199 11.5784 11.8199C12.0475 11.4468 12.5269 11.4454 13.0168 11.8159Z" fill="#EB5463"/>
<path d="M12.29 11.1115C12.2482 11.1114 12.2064 11.1079 12.1651 11.1011L11.2219 10.9479C11.1672 10.9389 11.1154 10.9174 11.0705 10.8851C11.0255 10.8527 10.9888 10.8103 10.963 10.7613C10.9372 10.7123 10.9232 10.658 10.922 10.6026C10.9207 10.5473 10.9324 10.4924 10.956 10.4423C11.3613 9.58201 11.8161 9.14587 12.3077 9.14587H12.3168C12.8077 9.15118 13.2505 9.5894 13.6328 10.4484C13.6551 10.4983 13.6656 10.5528 13.6635 10.6075C13.6614 10.6622 13.6468 10.7156 13.6208 10.7638C13.5948 10.8119 13.5581 10.8535 13.5136 10.8853C13.469 10.917 13.4177 10.9381 13.3637 10.947L12.4148 11.1011C12.3736 11.1079 12.3318 11.1114 12.29 11.1115ZM12.3085 9.45846C11.958 9.45846 11.5783 9.85483 11.2386 10.5758C11.2356 10.5821 11.2341 10.5891 11.2343 10.5961C11.2344 10.6031 11.2362 10.61 11.2394 10.6162C11.2427 10.6224 11.2473 10.6278 11.253 10.6319C11.2587 10.6361 11.2652 10.6388 11.2721 10.64L12.2153 10.7932C12.2648 10.8012 12.3153 10.8012 12.3649 10.7932L13.3138 10.6391C13.3206 10.6379 13.3271 10.6352 13.3327 10.6311C13.3383 10.627 13.3429 10.6218 13.3462 10.6156C13.3494 10.6095 13.3512 10.6027 13.3515 10.5958C13.3517 10.5889 13.3503 10.582 13.3475 10.5757C13.0286 9.85889 12.6612 9.46189 12.3133 9.45846H12.3085Z" fill="#371A45"/>
<path d="M12.2922 12.3541C11.9739 12.3541 11.6743 12.1928 11.4691 11.9105C11.2749 11.6433 11.1724 11.2796 11.1724 10.8586C11.1747 10.8243 11.1899 10.7923 11.215 10.7689C11.2401 10.7454 11.2731 10.7324 11.3074 10.7324C11.3417 10.7324 11.3747 10.7454 11.3997 10.7689C11.4248 10.7923 11.44 10.8243 11.4424 10.8586C11.4424 11.2221 11.5271 11.531 11.6875 11.7519C11.8412 11.9633 12.0614 12.0841 12.2923 12.0841H12.298C12.532 12.082 12.7536 11.9561 12.9062 11.7383C13.0607 11.5189 13.1423 11.2147 13.1423 10.8586C13.1446 10.8243 13.1598 10.7923 13.1849 10.7689C13.21 10.7454 13.243 10.7324 13.2773 10.7324C13.3116 10.7324 13.3446 10.7454 13.3697 10.7689C13.3947 10.7923 13.41 10.8243 13.4123 10.8586C13.4123 11.2706 13.3137 11.6288 13.1271 11.8935C12.924 12.1834 12.6227 12.3515 12.3004 12.3541H12.2922Z" fill="#371A45"/>
<g opacity="0.3">
<path d="M13.3387 10.7932L12.3899 10.9472C12.3727 10.9503 12.3553 10.9524 12.3379 10.9535V9.30261C12.7423 9.32135 13.1404 9.72522 13.4907 10.5121C13.5033 10.5403 13.5092 10.5711 13.508 10.6019C13.5069 10.6328 13.4986 10.6629 13.4839 10.6901C13.4692 10.7172 13.4485 10.7407 13.4233 10.7585C13.3981 10.7764 13.3692 10.7883 13.3387 10.7932Z" fill="#371A45"/>
</g>
<path d="M8.09966 28.8984C8.0727 28.8984 8.04678 28.8973 8.0218 28.8955C7.53091 28.8588 7.07582 28.4929 6.69985 27.8349C5.92823 28.0639 5.30316 27.9615 5.15806 27.5716C4.97299 27.0739 5.64156 26.459 6.94644 25.927C6.96543 25.9192 6.98575 25.9153 7.00626 25.9154C7.02676 25.9155 7.04704 25.9197 7.06595 25.9276C7.08485 25.9356 7.102 25.9472 7.11642 25.9617C7.13084 25.9763 7.14224 25.9936 7.14999 26.0126C7.15773 26.0316 7.16166 26.0519 7.16155 26.0724C7.16144 26.0929 7.15729 26.1132 7.14934 26.1321C7.14139 26.151 7.12979 26.1681 7.11521 26.1826C7.10064 26.197 7.08336 26.2084 7.06437 26.2161C5.75034 26.7522 5.37728 27.2655 5.45097 27.463C5.51551 27.6365 5.99432 27.7459 6.72525 27.4998C6.76027 27.4881 6.79831 27.4891 6.83262 27.5028C6.86692 27.5165 6.89526 27.5419 6.91261 27.5745C7.24216 28.1958 7.64416 28.5544 8.04449 28.5842C8.39902 28.611 8.76594 28.3811 9.10683 27.9203C9.11958 27.9031 9.13573 27.8887 9.15429 27.878C9.17284 27.8673 9.1934 27.8605 9.21468 27.8581C9.23597 27.8556 9.25752 27.8576 9.27801 27.8639C9.29849 27.8702 9.31747 27.8806 9.33375 27.8945C9.62125 28.1401 10.078 28.2058 10.42 28.0506C10.6083 27.9654 10.8339 27.7793 10.8389 27.3769C10.8394 27.3359 10.8561 27.2967 10.8853 27.2678C10.9145 27.239 10.954 27.2228 10.995 27.2228H10.997C11.0175 27.223 11.0378 27.2273 11.0566 27.2354C11.0755 27.2435 11.0925 27.2552 11.1069 27.2698C11.1212 27.2845 11.1325 27.3019 11.1401 27.3209C11.1477 27.3399 11.1515 27.3603 11.1513 27.3808C11.1459 27.8163 10.9263 28.1642 10.5491 28.3351C10.1443 28.5185 9.63718 28.4719 9.26203 28.229C8.82132 28.7684 8.40152 28.8984 8.09966 28.8984Z" fill="#371A45"/>
<path d="M6.71095 27.1401C6.72271 27.1765 6.73832 27.2183 6.75446 27.2568C6.77059 27.2953 6.78829 27.335 6.8065 27.3735C6.84304 27.4505 6.88259 27.5261 6.92413 27.6005C6.93565 27.6211 6.94246 27.6439 6.94408 27.6675C6.9457 27.691 6.94208 27.7146 6.93349 27.7365C6.9249 27.7585 6.91155 27.7783 6.89439 27.7944C6.87724 27.8106 6.85671 27.8228 6.83429 27.8301C6.81186 27.8374 6.7881 27.8396 6.76472 27.8366C6.74133 27.8336 6.7189 27.8255 6.69904 27.8127C6.67918 27.8 6.66239 27.7831 6.64987 27.7631C6.63735 27.7431 6.62941 27.7206 6.62664 27.6972V27.6943C6.61623 27.6039 6.60863 27.5133 6.60446 27.4224C6.60238 27.377 6.60113 27.3315 6.60134 27.2859C6.60155 27.2403 6.6028 27.1961 6.60727 27.1464C6.60778 27.1339 6.61271 27.1221 6.62118 27.113C6.62964 27.1039 6.64108 27.0982 6.65343 27.0968C6.66578 27.0954 6.67821 27.0984 6.6885 27.1054C6.69878 27.1124 6.70623 27.1228 6.70949 27.1348L6.71095 27.1401Z" fill="#371A45"/>
<path d="M9.11126 27.9153C9.15757 27.8724 9.20622 27.8321 9.25699 27.7946C9.3063 27.7575 9.35744 27.723 9.41021 27.6911C9.51607 27.6281 9.63161 27.5731 9.75912 27.5548C9.77171 27.5525 9.78474 27.5549 9.79569 27.5615C9.80664 27.5682 9.81476 27.5786 9.81849 27.5909C9.82221 27.6031 9.82128 27.6163 9.81588 27.6279C9.81048 27.6396 9.80098 27.6488 9.7892 27.6538L9.78577 27.6555C9.69209 27.7003 9.61287 27.7729 9.54147 27.8527C9.50574 27.8931 9.47208 27.9352 9.4406 27.9789C9.40963 28.0212 9.38103 28.0652 9.35494 28.1107C9.33469 28.1475 9.30064 28.1748 9.26028 28.1865C9.21992 28.1982 9.17656 28.1934 9.13973 28.1732C9.1029 28.1529 9.07563 28.1189 9.06391 28.0785C9.05218 28.0382 9.05697 27.9948 9.07722 27.958C9.08513 27.9437 9.09517 27.9307 9.10699 27.9194L9.11126 27.9153Z" fill="#371A45"/>
<path d="M16.4666 28.8984C16.1647 28.8984 15.7449 28.7683 15.3038 28.2292C14.9291 28.4721 14.4214 28.5185 14.0167 28.3352C13.6395 28.1643 13.42 27.8164 13.4146 27.3809C13.4141 27.3395 13.43 27.2996 13.4589 27.27C13.4879 27.2403 13.5274 27.2234 13.5688 27.2229C13.6102 27.2223 13.6501 27.2383 13.6797 27.2672C13.7094 27.2961 13.7263 27.3357 13.7268 27.3771C13.7318 27.7794 13.9574 27.9655 14.1456 28.0507C14.4876 28.2057 14.9445 28.1399 15.2319 27.8946C15.2482 27.8807 15.2671 27.8702 15.2876 27.864C15.3081 27.8577 15.3297 27.8557 15.351 27.8581C15.3723 27.8605 15.3929 27.8673 15.4114 27.878C15.43 27.8888 15.4462 27.9032 15.4589 27.9204C15.7997 28.3811 16.1667 28.6113 16.5206 28.5843C16.921 28.5543 17.323 28.1957 17.6525 27.5746C17.6698 27.542 17.6982 27.5166 17.7325 27.5029C17.7668 27.4893 17.8048 27.4882 17.8399 27.4999C18.571 27.746 19.0496 27.6367 19.1142 27.4632C19.1877 27.2654 18.8146 26.7523 17.5008 26.2163C17.4819 26.2085 17.4646 26.1971 17.45 26.1827C17.4354 26.1683 17.4238 26.1511 17.4159 26.1322C17.3998 26.094 17.3996 26.0511 17.4152 26.0127C17.4309 25.9744 17.4611 25.9438 17.4993 25.9277C17.5374 25.9117 17.5804 25.9115 17.6188 25.9271C18.9238 26.4594 19.5923 27.0744 19.4072 27.5717C19.2622 27.9616 18.6369 28.0645 17.8654 27.8351C17.4898 28.493 17.0346 28.8589 16.5434 28.8956C16.5195 28.8972 16.4935 28.8984 16.4666 28.8984Z" fill="#371A45"/>
<path d="M17.9589 27.1464C17.9633 27.1961 17.9646 27.24 17.9648 27.2859C17.965 27.3318 17.9638 27.377 17.9617 27.4224C17.9575 27.5133 17.9498 27.6039 17.9395 27.6943V27.6964C17.9368 27.7198 17.929 27.7424 17.9166 27.7625C17.9041 27.7825 17.8874 27.7996 17.8675 27.8124C17.8477 27.8252 17.8252 27.8334 17.8018 27.8365C17.7784 27.8396 17.7546 27.8374 17.7322 27.8302C17.7097 27.8229 17.6891 27.8108 17.6719 27.7946C17.6547 27.7785 17.6413 27.7587 17.6326 27.7367C17.624 27.7147 17.6203 27.6911 17.622 27.6676C17.6236 27.644 17.6304 27.6211 17.6419 27.6005C17.6835 27.5261 17.723 27.4505 17.7596 27.3735C17.7778 27.335 17.7954 27.296 17.8117 27.2568C17.8279 27.2176 17.8429 27.1765 17.8552 27.1401L17.8569 27.1348C17.8601 27.1228 17.8676 27.1124 17.8778 27.1054C17.8881 27.0984 17.9006 27.0954 17.9129 27.0968C17.9253 27.0982 17.9367 27.1039 17.9452 27.113C17.9536 27.1221 17.9586 27.1339 17.9591 27.1464H17.9589Z" fill="#371A45"/>
<path d="M15.2116 28.1106C15.1855 28.0652 15.1568 28.0212 15.1258 27.9789C15.0944 27.9351 15.0608 27.893 15.0251 27.8527C14.9537 27.7729 14.8739 27.7002 14.7807 27.6555L14.7773 27.6539C14.7654 27.6489 14.7558 27.6397 14.7503 27.6281C14.7448 27.6164 14.7439 27.6031 14.7476 27.5908C14.7514 27.5784 14.7595 27.5679 14.7706 27.5613C14.7816 27.5546 14.7948 27.5523 14.8074 27.5548C14.9348 27.573 15.0505 27.6277 15.1562 27.6911C15.209 27.7229 15.2602 27.7575 15.3095 27.7945C15.3602 27.832 15.4089 27.8723 15.4552 27.9153L15.459 27.9189C15.4896 27.9477 15.5075 27.9875 15.5088 28.0295C15.5101 28.0715 15.4946 28.1123 15.4658 28.1429C15.4515 28.1581 15.4344 28.1703 15.4154 28.1788C15.3965 28.1873 15.376 28.1921 15.3552 28.1927C15.3132 28.194 15.2724 28.1785 15.2418 28.1497C15.2298 28.1383 15.2196 28.1251 15.2116 28.1106Z" fill="#371A45"/>
<path d="M11.7723 2.59525C10.4711 0.183791 12.8028 -0.962765 13.0158 1.62981C13.7954 0.270498 15.5195 1.37521 13.4551 2.59525" fill="#6A5B75"/>
<g opacity="0.55">
<path d="M12.7103 0.548153C12.0635 0.0714185 11.2954 1.06423 11.7854 2.52587L11.7724 2.59509C10.7159 0.63663 12.055 -0.487547 12.7103 0.548153Z" fill="white"/>
</g>
<g opacity="0.55">
<path d="M14.4132 1.32624C14.1654 1.21278 13.7867 1.27336 13.4732 1.60604C13.3307 1.75739 13.0727 1.69556 13.0226 1.49383L13.0215 1.48935C13.4894 0.936632 14.2935 0.933302 14.4132 1.32624Z" fill="white"/>
</g>
<path d="M11.7265 2.6196C11.5768 2.47428 11.4608 2.29795 11.3865 2.10299C11.3457 2.00744 11.3187 1.90606 11.288 1.80592C11.2743 1.75533 11.2645 1.70329 11.2535 1.65176C11.2422 1.59993 11.2338 1.54753 11.2282 1.49479C11.2012 1.28412 11.203 1.06521 11.2511 0.849434C11.2991 0.633655 11.3939 0.420165 11.5583 0.247375C11.644 0.159171 11.7472 0.0898555 11.8612 0.0438785C11.9816 -0.000459265 12.1117 -0.0116396 12.2378 0.0115065C12.365 0.0317001 12.4756 0.0938423 12.5717 0.163375C12.6171 0.201055 12.6639 0.238111 12.7002 0.282142C12.7194 0.30296 12.7396 0.324402 12.7575 0.346365L12.8064 0.414753C12.9339 0.599097 13.011 0.801449 13.0674 1.0037L13.1055 1.1564L13.1329 1.30972C13.1433 1.36093 13.149 1.41215 13.1543 1.46326L13.1715 1.61689L12.8801 1.55204C12.96 1.41336 13.0586 1.28632 13.1731 1.17451C13.2924 1.05822 13.4345 0.967941 13.5905 0.90939L13.6509 0.888572C13.6711 0.881911 13.6925 0.878163 13.7133 0.873063C13.7555 0.862571 13.7984 0.855608 13.8418 0.852245C13.8849 0.846312 13.9299 0.850059 13.974 0.849955C14.0186 0.856408 14.0633 0.85797 14.1076 0.87171C14.1996 0.893148 14.286 0.933722 14.3613 0.990789C14.4413 1.05023 14.5041 1.12987 14.5432 1.22156C14.5653 1.26715 14.5752 1.31524 14.586 1.36354C14.5905 1.38748 14.5909 1.41142 14.593 1.43546C14.5954 1.45914 14.5954 1.48299 14.593 1.50666L14.5869 1.57651C14.5839 1.5993 14.5779 1.62074 14.5732 1.64292C14.564 1.68619 14.5507 1.7285 14.5335 1.76928C14.469 1.93073 14.3695 2.0625 14.2608 2.1769C14.0401 2.40132 13.7814 2.57244 13.4807 2.63948C13.4695 2.642 13.4577 2.64093 13.4472 2.63641C13.4366 2.63188 13.4277 2.62414 13.4218 2.61428C13.4159 2.60442 13.4132 2.59295 13.4142 2.5815C13.4152 2.57004 13.4198 2.55919 13.4273 2.55048L13.4278 2.54985C13.6247 2.32304 13.8415 2.15233 14.0166 1.9531C14.1016 1.85349 14.1777 1.7494 14.2237 1.64271C14.2697 1.53601 14.2861 1.42849 14.2496 1.34678C14.2331 1.30403 14.205 1.26674 14.1684 1.23915C14.1289 1.20753 14.0826 1.18554 14.0331 1.17493C13.9298 1.14672 13.8091 1.16264 13.6976 1.2023C13.5819 1.24608 13.4765 1.31342 13.3881 1.40007C13.2956 1.49105 13.2158 1.59414 13.1509 1.70651C13.1342 1.73474 13.109 1.757 13.079 1.77017C13.0489 1.78335 13.0155 1.78677 12.9834 1.77995C12.9513 1.77314 12.9222 1.75643 12.9001 1.73219C12.878 1.70794 12.864 1.67737 12.8602 1.64479V1.64167L12.8443 1.5001C12.8394 1.45274 12.8339 1.40559 12.8246 1.35958L12.8 1.22052L12.7661 1.0852C12.7168 0.906997 12.6488 0.734726 12.5502 0.592955L12.5132 0.540286C12.4997 0.524048 12.485 0.509058 12.4715 0.493965C12.445 0.46076 12.4129 0.437444 12.3826 0.411317C12.3192 0.366871 12.2523 0.327109 12.1817 0.318677C12.1121 0.307183 12.0406 0.314367 11.9746 0.339496C11.9054 0.369859 11.843 0.413743 11.7911 0.468567C11.6847 0.586814 11.6156 0.748675 11.5812 0.919487C11.5469 1.0903 11.545 1.27339 11.5638 1.45555C11.5695 1.54694 11.5913 1.63761 11.6062 1.7291C11.6284 1.81987 11.6478 1.91116 11.6791 2.00078C11.7033 2.09207 11.7335 2.18221 11.7567 2.27651C11.7671 2.32419 11.7808 2.37103 11.7922 2.41922C11.804 2.4688 11.8128 2.51903 11.8188 2.56963V2.57421C11.8199 2.58531 11.8175 2.59648 11.8121 2.60622C11.8066 2.61596 11.7983 2.62379 11.7883 2.62868C11.7783 2.63356 11.767 2.63526 11.756 2.63354C11.7449 2.63183 11.7347 2.62678 11.7266 2.61908L11.7265 2.6196Z" fill="#371A45"/>
<g opacity="0.3">
<path d="M17.5805 17.8167C16.4792 15.4622 16.9856 14.2688 17.1329 9.49153C17.2869 4.50924 16.0399 2.989 16.004 2.94529C16.0041 2.94522 16.0042 2.94516 16.0042 2.94513C16.0043 2.94509 16.0044 2.94507 16.0045 2.94507C16.0046 2.94507 16.0047 2.94509 16.0048 2.94513C16.0049 2.94516 16.005 2.94522 16.005 2.94529C18.3887 4.33333 19.1444 7.36236 19.234 11.4953C19.234 11.4953 19.2351 11.4948 19.2355 11.4948C19.2532 13.4959 19.631 14.1844 19.631 14.1844C20.1775 14.9911 21.4266 13.9726 21.4266 13.9726C23.5245 12.7397 24.1924 11.2699 24.2787 11.0612C24.286 11.0446 24.2891 11.0357 24.2891 11.0357C24.2891 11.0357 24.2917 11.0643 24.2965 11.12C24.3031 11.2017 24.3141 11.3412 24.3286 11.5343V11.5353C24.312 11.7586 24.2469 12.0079 24.1319 12.2791C23.6958 13.3085 22.545 14.6513 20.6241 16.0628C20.5325 16.1299 20.4391 16.1974 20.3441 16.2652L20.1973 15.6396L20.1926 15.6422C21.0003 18.7983 20.9301 21.3089 20.0724 23.1992C19.2105 24.7621 17.7532 25.853 15.7604 26.4885C13.6205 27.1697 11.3218 27.1697 9.18192 26.4885C8.96333 26.4187 8.75116 26.3432 8.54541 26.2621C16.3121 26.9949 19.0898 20.7572 17.7908 18.244C17.7642 18.1924 17.7382 18.1414 17.7132 18.0915" fill="#371A45"/>
</g>
</g>
<defs>
<clipPath id="clip0_48_6361">
<rect width="24.4889" height="30" fill="white"/>
</clipPath>
</defs>
</svg>
