<svg width="32" height="30" viewBox="0 0 32 30" fill="none" xmlns="http://www.w3.org/2000/svg">
<path fill-rule="evenodd" clip-rule="evenodd" d="M2.30644 15.5195C2.22554 14.6308 2.63511 13.6921 3.58853 13.2082C4.69793 12.6449 6.55344 12.7073 9.2324 14.2382C9.25181 14.2483 9.26898 14.2622 9.2829 14.2791C9.29682 14.296 9.30719 14.3155 9.3134 14.3365C9.31961 14.3575 9.32154 14.3796 9.31905 14.4013C9.31657 14.4231 9.30973 14.4441 9.29895 14.4631C9.28817 14.4822 9.27366 14.4989 9.2563 14.5122C9.23893 14.5255 9.21906 14.5352 9.19787 14.5407C9.17667 14.5462 9.15459 14.5473 9.13294 14.5441C9.11129 14.5409 9.09052 14.5333 9.07185 14.5219C6.5054 13.0555 4.76038 12.9796 3.73567 13.4992C2.91348 13.9163 2.56154 14.7254 2.63107 15.4902C2.7006 16.255 3.19083 16.973 4.05373 17.2137C5.09942 17.5062 6.68819 17.1098 8.75228 15.2965C8.7683 15.2819 8.78708 15.2706 8.80752 15.2633C8.82795 15.256 8.84964 15.2529 8.8713 15.2541C8.89297 15.2553 8.91417 15.2608 8.93368 15.2703C8.95318 15.2799 8.97059 15.2932 8.98489 15.3095C8.99919 15.3258 9.01009 15.3448 9.01695 15.3654C9.02381 15.386 9.02649 15.4077 9.02485 15.4293C9.0232 15.451 9.01725 15.4721 9.00734 15.4914C8.99744 15.5107 8.98379 15.5278 8.96718 15.5418C8.86276 15.6341 8.75885 15.7223 8.6562 15.8075C8.71088 16.1676 8.73036 16.5322 8.71435 16.8962C8.71436 16.9062 8.7136 16.9163 8.71208 16.9263C8.67137 17.643 8.47063 18.22 8.16597 18.6414C7.65071 19.3544 6.84014 19.6275 5.99595 19.3911C5.45692 19.2394 4.90374 18.8786 4.40491 18.2895L4.39201 18.2738C4.18838 18.0296 4.00657 17.7679 3.84869 17.4918C2.915 17.1801 2.38456 16.3731 2.30644 15.5198V15.5195ZM4.54118 12.5374C4.20492 12.8992 3.76702 13.103 3.30637 13.0598C2.84572 13.0165 2.45207 12.7382 2.18761 12.321C2.14879 12.2593 2.1131 12.1957 2.08067 12.1304C1.82784 11.7112 1.6994 11.1628 1.75199 10.5772C1.75401 10.5537 1.75705 10.53 1.75983 10.5065C1.60862 10.619 1.43306 10.6943 1.24735 10.7264C1.47674 10.6084 1.65945 10.4618 1.79548 10.2865L1.80281 10.2519C1.60054 10.4275 1.3301 10.5388 0.991484 10.5858C1.40477 10.3315 1.71432 10.0852 1.92012 9.84708C2.23135 9.02438 2.90842 8.47828 3.63935 8.54553C4.39404 8.6143 4.97377 9.31817 5.10574 10.2261C5.16938 10.5049 5.18824 10.7921 5.16162 11.0768C5.10701 11.6639 4.87416 12.1792 4.54169 12.5382L4.54118 12.5374ZM4.9361 7.17015L4.42488 7.43385L8.9156 7.01339C8.78584 6.95394 8.67923 6.85347 8.61221 6.72745C8.55785 6.62404 8.54926 6.51229 8.5715 6.46223C8.628 6.33464 8.6773 6.20397 8.71916 6.07085C8.18013 5.92472 7.57612 5.88376 6.96175 5.92548C6.26318 5.9757 5.57445 6.11906 4.91385 6.35174C4.93913 6.57398 4.96189 6.80835 4.9763 7.05638C4.97818 7.09782 4.96437 7.13844 4.93762 7.17015C4.76266 7.37671 4.57986 7.44118 4.4264 7.43385C4.30543 7.42811 4.1898 7.3823 4.09772 7.30364C4.01909 7.23689 3.97586 7.14436 3.97814 7.09202C3.98123 6.98874 3.97903 6.88537 3.97156 6.78231C1.9588 7.88413 0.558391 9.87919 0.816528 12.2687C0.884539 12.8972 0.79352 13.1465 0.683288 13.4484C0.581073 13.7071 0.51571 13.9789 0.489116 14.2559C0.125045 17.7045 2.19975 19.2778 4.77606 19.5501C5.91783 19.6704 7.15845 19.5395 8.33435 19.204C9.07796 18.9936 9.79444 18.697 10.4692 18.3203C10.4735 18.3173 10.4786 18.3153 10.4829 18.3125C10.7661 18.1528 11.0394 17.9762 11.3013 17.7836C11.3145 17.7695 11.3301 17.7579 11.3473 17.7492C11.3979 17.7125 11.4446 17.6754 11.4927 17.6372C13.3661 16.1551 14.1694 13.9515 12.2431 11.5155C12.2217 11.4886 12.2094 11.4557 12.2079 11.4214C12.1536 10.151 11.8848 9.12602 11.4633 8.31975C11.0383 7.50717 10.4563 6.91656 9.78331 6.52013C9.74968 6.62834 9.71454 6.73882 9.67737 6.85057C9.67027 6.87264 9.65855 6.89294 9.64298 6.91011C9.62742 6.92729 9.60837 6.94095 9.58711 6.95019C9.3047 7.09784 9.08146 7.08646 8.91687 7.01339L4.9361 7.17015ZM4.98338 13.5649C4.41376 13.6172 3.87271 13.3664 3.45706 12.9184C3.04571 12.4755 2.75824 11.8384 2.6915 11.1125C2.65777 10.7608 2.68082 10.4061 2.75976 10.0617C2.92309 8.93868 3.6396 8.06945 4.57203 7.98425C5.47437 7.90107 6.31148 8.57612 6.69578 9.59299C6.95046 9.88779 7.33316 10.1922 7.84387 10.5062C7.42535 10.4481 7.0912 10.3102 6.84141 10.0926L6.85 10.1363C7.01855 10.3527 7.2445 10.5338 7.52783 10.6796C7.29757 10.6406 7.07978 10.5478 6.89222 10.4086C6.89576 10.4382 6.8993 10.4668 6.90158 10.4961C6.96807 11.2199 6.8098 11.898 6.49706 12.4161C6.45723 12.4967 6.41318 12.5752 6.36508 12.6512C6.03843 13.1672 5.55173 13.5126 4.98262 13.5649H4.98338Z" fill="#FFC548"/>
<path fill-rule="evenodd" clip-rule="evenodd" d="M8.55191 7.82747C9.45425 7.74429 10.2914 8.41934 10.6757 9.43621C10.9303 9.73101 11.313 10.0354 11.8238 10.3494C11.4052 10.2913 11.0711 10.1534 10.8213 9.9358C10.8241 9.95097 10.8269 9.96513 10.8299 9.97954C10.9984 10.196 11.2244 10.3771 11.5077 10.5229C11.2775 10.4839 11.0597 10.391 10.8721 10.2518C10.8756 10.2814 10.8792 10.31 10.8815 10.3393C10.9775 11.3842 10.6049 12.3323 9.9776 12.8441C10.4901 12.3384 10.7839 11.5003 10.7002 10.5851C10.569 9.16467 9.57713 8.09471 8.4834 8.19508C7.41849 8.29318 6.6509 9.46427 6.73105 10.8366C6.72675 10.7987 6.72245 10.7608 6.71891 10.7221C6.58137 9.22915 7.40155 7.93265 8.55141 7.82747H8.55191Z" fill="#1A0E02"/>
<path fill-rule="evenodd" clip-rule="evenodd" d="M8.48382 8.19497C9.57755 8.09384 10.5694 9.16456 10.7006 10.5849C10.8318 12.0053 10.0506 13.2396 8.9561 13.3392C7.86161 13.4389 6.87053 12.3697 6.74007 10.949C6.60961 9.52838 7.39009 8.2961 8.48458 8.19497H8.48382Z" fill="white"/>
<path d="M8.47775 8.12623C9.04661 8.0739 9.58842 8.3247 10.0041 8.77271C10.4149 9.21617 10.7029 9.8533 10.7696 10.5787C10.8364 11.304 10.6685 11.9834 10.3459 12.4943C10.0192 13.0104 9.53254 13.3557 8.96343 13.408C8.39431 13.4604 7.85276 13.2096 7.43711 12.7616C7.02576 12.3186 6.73829 11.6815 6.67155 10.9556C6.6048 10.2298 6.77116 9.55092 7.09453 9.04071C7.42118 8.52393 7.90863 8.17857 8.47775 8.12623ZM9.90319 8.86727C9.51611 8.4501 9.0145 8.21573 8.49064 8.26453C7.96678 8.31332 7.51523 8.63366 7.21133 9.11453C6.9039 9.60047 6.74537 10.2482 6.80934 10.9427C6.8733 11.6372 7.14686 12.2463 7.53799 12.6678C7.92507 13.0849 8.42592 13.3185 8.95053 13.2705C9.47515 13.2225 9.92544 12.9006 10.2298 12.4203C10.5373 11.9343 10.6958 11.2866 10.6321 10.5913C10.5684 9.89602 10.2938 9.28848 9.90319 8.86702V8.86727Z" fill="#1A0E02"/>
<path fill-rule="evenodd" clip-rule="evenodd" d="M8.69656 9.14142C9.56148 9.06178 10.3463 9.90749 10.4497 11.0306C10.5531 12.1536 9.93566 13.129 9.07074 13.2084C8.20582 13.2878 7.42155 12.4416 7.31839 11.3185C7.21524 10.1955 7.83214 9.22005 8.69656 9.14142Z" fill="#1A0E02"/>
<path fill-rule="evenodd" clip-rule="evenodd" d="M7.91408 9.21263C8.34616 9.17319 8.73881 9.59617 8.79038 10.1572C8.84196 10.7182 8.53326 11.2064 8.10092 11.2466C7.66859 11.2868 7.2762 10.8631 7.22462 10.3013C7.17305 9.73952 7.48175 9.25283 7.91408 9.21263Z" fill="white"/>
<path fill-rule="evenodd" clip-rule="evenodd" d="M9.27648 11.969C9.10178 11.9847 8.9425 11.8135 8.92252 11.5862C8.90255 11.3589 9.02643 11.1612 9.20215 11.1455C9.37786 11.1299 9.53538 11.3003 9.55611 11.5276C9.57684 11.7548 9.45144 11.9526 9.27648 11.969Z" fill="white"/>
<path fill-rule="evenodd" clip-rule="evenodd" d="M3.63907 8.54465C2.90866 8.4774 2.23158 9.0235 1.91985 9.84621C1.71421 10.0849 1.40467 10.3311 0.991211 10.585C1.32949 10.5378 1.59994 10.4264 1.80253 10.251C1.7995 10.2626 1.79748 10.274 1.7952 10.2856C1.65952 10.4614 1.47698 10.6083 1.24758 10.7263C1.43367 10.6946 1.60968 10.6195 1.76132 10.5071C1.75854 10.5306 1.75627 10.5544 1.75349 10.5779C1.67612 11.4228 1.97774 12.1904 2.48517 12.604C2.07104 12.194 1.83313 11.5169 1.90114 10.7764C2.00657 9.62751 2.8098 8.76183 3.69419 8.84299C4.55557 8.92237 5.17702 9.86997 5.11179 10.9799C5.11609 10.9493 5.11887 10.9184 5.12191 10.8876C5.2329 9.67934 4.56923 8.63086 3.63907 8.54541V8.54465Z" fill="#1A0E02"/>
<path fill-rule="evenodd" clip-rule="evenodd" d="M3.69396 8.84219C2.80906 8.76103 2.00633 9.62595 1.9009 10.7756C1.79547 11.9252 2.42678 12.9228 3.31117 13.0045C4.19556 13.0862 4.99905 12.2207 5.10625 11.0709C5.21345 9.921 4.57885 8.92385 3.69396 8.84219Z" fill="white"/>
<path d="M3.69912 8.78614C3.23897 8.74391 2.80032 8.94744 2.46431 9.30949C2.1283 9.67154 1.89873 10.1838 1.84513 10.7708C1.79153 11.3579 1.92604 11.9086 2.18771 12.3209C2.44939 12.7333 2.84507 13.0175 3.30648 13.0597C3.76789 13.1019 4.20503 12.8991 4.54129 12.5373C4.87755 12.1755 5.10661 11.6631 5.16122 11.076C5.21583 10.4889 5.08006 9.93827 4.81864 9.52591C4.55721 9.11355 4.16128 8.82937 3.69912 8.78614ZM2.54597 9.38635C2.85922 9.04958 3.26476 8.86047 3.689 8.89915C4.11325 8.93783 4.47732 9.19698 4.72408 9.58608C4.97084 9.97518 5.10105 10.5033 5.04922 11.0654C4.99739 11.6274 4.77616 12.1202 4.45962 12.4607C4.14713 12.7983 3.74058 12.9874 3.31634 12.9487C2.89209 12.91 2.52802 12.6498 2.28151 12.2607C2.03273 11.8679 1.90455 11.3432 1.95613 10.7815C2.0077 10.2197 2.22994 9.72666 2.54597 9.38534V9.38635Z" fill="#1A0E02"/>
<path fill-rule="evenodd" clip-rule="evenodd" d="M3.52163 9.60772C2.82206 9.54325 2.18721 10.2277 2.10403 11.1363C2.02085 12.045 2.51968 12.8343 3.21925 12.8988C3.91883 12.9632 4.55368 12.2781 4.63762 11.3694C4.72155 10.4608 4.22171 9.67143 3.52163 9.60772Z" fill="#1A0E02"/>
<path fill-rule="evenodd" clip-rule="evenodd" d="M4.15515 9.66557C3.80549 9.63321 3.48794 9.97579 3.44724 10.4301C3.40653 10.8844 3.65506 11.2786 4.00497 11.311C4.35489 11.3433 4.67218 11.0008 4.71441 10.5462C4.75663 10.0916 4.50582 9.69768 4.15616 9.66557H4.15515Z" fill="white"/>
<path fill-rule="evenodd" clip-rule="evenodd" d="M3.05277 11.8953C3.1946 11.9082 3.32304 11.7689 3.34023 11.5858C3.35742 11.4028 3.25553 11.2425 3.11269 11.2296C2.96984 11.2167 2.84241 11.356 2.82598 11.539C2.80955 11.7221 2.90992 11.8824 3.05175 11.8953H3.05277Z" fill="white"/>
<path d="M23.8382 20.0396C24.1714 19.47 24.3656 18.9158 24.4197 18.3826C24.4743 17.8749 24.394 17.3617 24.1868 16.895C23.8599 16.8121 23.5225 16.778 23.1856 16.7938C22.0876 16.8477 20.9704 17.4568 20.2106 18.8579C20.2093 18.8612 20.2077 18.8643 20.2058 18.8673C19.9764 19.2925 19.7807 19.7351 19.6203 20.1908C20.0802 20.1815 20.6028 20.2978 21.1431 20.5448C21.652 20.7769 22.1779 21.1245 22.684 21.5905C22.7428 21.3213 22.8465 21.0639 22.9907 20.8292C23.2028 20.4866 23.4825 20.23 23.7603 20.0811C23.7856 20.0667 23.8127 20.0538 23.8379 20.0409L23.8382 20.0396ZM6.58475 17.8466C6.58341 17.8479 6.58222 17.8494 6.58121 17.8509C6.48495 17.9694 6.4076 18.1021 6.35189 18.2443C6.34477 18.2651 6.3335 18.2843 6.31877 18.3007C6.30403 18.317 6.28614 18.3302 6.26616 18.3395C6.24619 18.3488 6.22454 18.3539 6.20254 18.3546C6.18053 18.3552 6.15862 18.3514 6.13811 18.3434C6.11761 18.3354 6.09895 18.3233 6.08325 18.3078C6.06755 18.2924 6.05514 18.2739 6.04677 18.2536C6.03839 18.2332 6.03423 18.2114 6.03453 18.1894C6.03483 18.1673 6.03958 18.1456 6.0485 18.1255C6.08291 18.0374 6.12416 17.9521 6.17188 17.8704C5.88644 17.8408 5.63361 17.8537 5.40556 17.9075C5.17377 17.9623 4.95492 18.0618 4.76135 18.2006C5.1856 18.6653 5.64069 18.9525 6.08465 19.0771C6.44063 19.1767 6.78751 19.1704 7.09874 19.0635C7.40997 18.9565 7.68556 18.7505 7.90198 18.4514C8.14848 18.1111 8.31762 17.6517 8.37426 17.0826C7.84922 17.1392 7.42042 17.2582 7.08787 17.4396C6.8955 17.5416 6.72466 17.6798 6.58475 17.8466ZM4.40537 18.2896C4.40259 18.2868 4.40032 18.2838 4.39754 18.281C4.39573 18.2787 4.39404 18.2763 4.39248 18.2739C4.18884 18.0296 4.00704 17.768 3.84915 17.4919C2.91546 17.1802 2.38503 16.3731 2.3069 15.5198C2.226 14.6312 2.63558 13.6924 3.58899 13.2085C4.6984 12.6452 6.5539 12.7076 9.23286 14.2385C9.25227 14.2486 9.26945 14.2626 9.28337 14.2794C9.29728 14.2963 9.30766 14.3159 9.31387 14.3369C9.32008 14.3578 9.322 14.3799 9.31952 14.4016C9.31704 14.4234 9.3102 14.4444 9.29942 14.4634C9.28864 14.4825 9.27413 14.4992 9.25676 14.5125C9.2394 14.5258 9.21952 14.5355 9.19833 14.541C9.17714 14.5465 9.15506 14.5476 9.13341 14.5444C9.11176 14.5412 9.09098 14.5336 9.07231 14.5222C6.50586 13.0558 4.76085 12.9799 3.73614 13.4995C2.91394 13.9167 2.56201 14.7257 2.63153 15.4905C2.70106 16.2553 3.19129 16.9733 4.05419 17.214C5.09989 17.5066 6.68866 17.1101 8.75274 15.2968C8.76876 15.2822 8.78754 15.2709 8.80798 15.2636C8.82842 15.2564 8.8501 15.2532 8.87177 15.2544C8.89343 15.2556 8.91464 15.2612 8.93414 15.2707C8.95364 15.2802 8.97106 15.2935 8.98536 15.3098C8.99965 15.3261 9.01055 15.3451 9.01741 15.3657C9.02427 15.3863 9.02696 15.408 9.02531 15.4297C9.02366 15.4513 9.01771 15.4724 9.00781 15.4917C8.99791 15.511 8.98425 15.5281 8.96764 15.5421C8.86323 15.6344 8.75931 15.7226 8.65667 15.8078C8.71134 16.168 8.73082 16.5326 8.71482 16.8965C8.71482 16.9066 8.71406 16.9166 8.71254 16.9266C8.67184 17.6433 8.47109 18.2203 8.16643 18.6418C7.90931 18.9985 7.57735 19.245 7.20569 19.3727C6.83403 19.5004 6.41965 19.5095 5.99743 19.3914C5.4584 19.2397 4.90521 18.8789 4.40638 18.2898L4.40537 18.2896ZM4.54948 17.9513C4.78283 17.7789 5.0488 17.6557 5.33123 17.5892C5.64448 17.5162 5.99288 17.5076 6.3931 17.5693C6.54844 17.4015 6.73081 17.261 6.93263 17.1536C7.31474 16.9451 7.80186 16.8114 8.39398 16.7524C8.39866 16.5167 8.38717 16.2811 8.35959 16.047C6.67602 17.3617 5.30367 17.7409 4.2959 17.5973C4.37832 17.7237 4.46302 17.8408 4.54873 17.9513H4.54948ZM24.8973 20.2424C25.4291 20.2545 25.8581 20.315 26.1844 20.4237C26.4036 20.497 26.5794 20.5919 26.7118 20.7084C26.9563 19.6521 26.6266 18.6857 25.9918 17.9778L25.9802 17.9649C25.9768 17.9618 25.9736 17.9584 25.9708 17.9548C25.6234 17.5777 25.1998 17.2786 24.7281 17.0775C24.6816 17.0575 24.6336 17.0383 24.5863 17.0204C24.741 17.4685 24.7951 17.9451 24.7446 18.4165C24.6954 18.9001 24.5421 19.3957 24.2847 19.9034C24.353 19.8962 24.4221 19.8994 24.4895 19.9127C24.5664 19.927 24.6393 19.9578 24.7032 20.0028C24.7672 20.0478 24.8207 20.1061 24.8601 20.1736C24.874 20.1957 24.8864 20.2187 24.8973 20.2424ZM26.9376 21.1126C26.9376 21.1147 26.9356 21.1174 26.9348 21.1197C26.8355 21.4215 26.7111 21.7145 26.5629 21.9955C27.0286 22.4986 27.5573 22.8668 28.1489 23.0999C28.7481 23.3358 29.4134 23.4345 30.1447 23.3959C30.438 22.7342 30.6421 22.0364 30.7515 21.321C30.9335 20.1615 30.9014 18.8556 30.5839 17.4181C30.0385 17.9618 29.4119 18.2929 28.7041 18.4114C28.0576 18.5196 27.3466 18.4489 26.5713 18.1993C27.0987 19.0041 27.2979 20.0224 26.9381 21.1088L26.9376 21.1126ZM26.6036 21.0795C26.5121 20.9334 26.3385 20.8178 26.0828 20.7326C25.8038 20.6401 25.4347 20.5862 24.9754 20.5708C24.9754 20.585 24.9769 20.5994 24.9777 20.6143C24.9906 20.9784 24.8485 21.435 24.5957 21.7854C24.5832 21.8028 24.5674 21.8176 24.5492 21.8289C24.5311 21.8403 24.5108 21.8479 24.4897 21.8514C24.4686 21.8549 24.447 21.8542 24.4261 21.8493C24.4052 21.8445 24.3855 21.8356 24.3681 21.8231C24.3507 21.8106 24.3359 21.7948 24.3246 21.7767C24.3133 21.7585 24.3057 21.7382 24.3022 21.7171C24.2987 21.696 24.2994 21.6744 24.3042 21.6535C24.3091 21.6327 24.318 21.613 24.3305 21.5955C24.5433 21.3018 24.6622 20.9233 24.6515 20.6244C24.648 20.5119 24.6263 20.4146 24.582 20.3435C24.5654 20.315 24.5429 20.2903 24.5159 20.2712C24.489 20.2521 24.4582 20.239 24.4258 20.2328C24.309 20.2098 24.1418 20.2465 23.9156 20.3681C23.6832 20.493 23.4481 20.7086 23.2683 21.0001C23.097 21.2805 22.9919 21.5961 22.9609 21.9232C22.9136 22.4018 23.0913 22.7939 23.3937 23.0412C23.5799 23.1909 23.8034 23.2871 24.0402 23.3193C24.3108 23.3554 24.5861 23.3236 24.8414 23.2268C25.4988 22.9853 26.1751 22.3232 26.6036 21.081V21.0795ZM4.26935 6.49314C4.26935 6.49871 4.27137 6.50452 4.27213 6.51034C4.29765 6.69188 4.30839 6.87519 4.30424 7.05847L4.30728 7.05493C4.32479 7.06976 4.34427 7.0821 4.36517 7.09159C4.38809 7.10174 4.41269 7.10756 4.43773 7.10878C4.49487 7.1108 4.56415 7.08577 4.6448 7.00613C4.55808 5.63454 4.26859 4.7054 3.88 4.08572C3.57408 3.59852 3.20646 3.30448 2.8295 3.13914C2.45253 2.97379 2.06318 2.93333 1.71706 2.95331C1.15022 2.98643 0.708781 3.17352 0.610431 3.23496C0.461516 3.32901 0.370498 3.50371 0.339653 3.68802C0.320079 3.79643 0.323006 3.9077 0.34825 4.01493C0.365446 4.09939 0.407641 4.17673 0.469355 4.23691C0.499373 4.26319 0.534666 4.28275 0.572867 4.29426C0.611067 4.30577 0.651289 4.30898 0.69083 4.30366C0.938096 4.28065 1.14946 4.24121 1.34363 4.20556C1.76509 4.12794 2.11122 4.06423 2.61004 4.18534C3.06311 4.29582 3.5273 4.70717 3.85345 5.28058C4.06571 5.65594 4.20647 6.06743 4.26859 6.49415L4.26935 6.49314ZM3.97203 6.78238C2.96299 7.33506 2.09503 8.1211 1.52086 9.07856C0.968435 10.0011 0.686533 11.0832 0.816486 12.2708C0.884497 12.8993 0.793479 13.1486 0.683246 13.4504C0.581031 13.7092 0.515669 13.981 0.489075 14.258C0.125509 17.7045 2.20021 19.2779 4.77652 19.5502C5.91829 19.6705 7.15892 19.5395 8.33482 19.204C9.07842 18.9936 9.7949 18.6971 10.4697 18.3204C10.474 18.3174 10.479 18.3154 10.4833 18.3126C10.7665 18.1529 11.0398 17.9763 11.3017 17.7837C11.3149 17.7696 11.3305 17.7579 11.3478 17.7493C11.3983 17.7126 11.4451 17.6754 11.4931 17.6373C13.3666 16.1552 14.1698 13.9516 12.2435 11.5156C12.2222 11.4887 12.2099 11.4558 12.2084 11.4215C12.154 10.1511 11.8853 9.12609 11.4638 8.31982C11.0388 7.50723 10.4568 6.91663 9.78377 6.5202C9.75014 6.62841 9.715 6.73889 9.67784 6.85064C9.67074 6.87271 9.65901 6.893 9.64345 6.91018C9.62788 6.92736 9.60884 6.94102 9.58758 6.95026C9.30517 7.09791 9.08192 7.08653 8.91733 7.01346C8.84602 6.98157 8.78135 6.93654 8.7267 6.88073C8.68223 6.83498 8.64414 6.78344 8.61343 6.72752C8.55908 6.62411 8.55048 6.51236 8.57273 6.4623C8.62923 6.3347 8.67852 6.20404 8.72038 6.07092C8.18135 5.92479 7.57735 5.88383 6.96297 5.92555C6.2644 5.97577 5.57567 6.11912 4.91507 6.35181C4.94035 6.57405 4.96311 6.80842 4.97752 7.05644C4.9794 7.09788 4.96559 7.13851 4.93884 7.17022C4.76312 7.37804 4.5826 7.43973 4.42762 7.43392C4.36146 7.43123 4.29638 7.41623 4.23572 7.38967C4.18629 7.36749 4.14018 7.33856 4.09869 7.30371C4.02006 7.23696 3.97683 7.14443 3.97911 7.09209C3.98203 6.9888 3.97967 6.88543 3.97203 6.78238ZM9.52336 6.24563C9.52478 6.23776 9.52698 6.23005 9.52993 6.22262C9.94482 4.79364 10.0073 3.70724 9.85456 2.88074C9.72132 2.16069 9.42299 1.64037 9.05462 1.26695C8.68625 0.89352 8.24557 0.664207 7.82714 0.525152C7.14046 0.297607 6.52761 0.313029 6.38147 0.340082C6.1514 0.382557 5.95495 0.552456 5.82753 0.763062C5.75175 0.885135 5.70176 1.02142 5.68063 1.16354C5.66344 1.28995 5.67558 1.40954 5.72286 1.50486C5.74824 1.55458 5.78391 1.59833 5.8275 1.63321C5.87109 1.66808 5.9216 1.69327 5.97568 1.70712C6.27453 1.7946 6.54176 1.84769 6.78751 1.89573C7.31137 1.99964 7.74143 2.08484 8.26099 2.45195C8.72973 2.78391 9.07459 3.46832 9.18836 4.27812C9.26707 4.85552 9.22994 5.44281 9.07914 6.00569C9.02394 6.20603 8.95396 6.402 8.8698 6.592C8.88977 6.59048 8.93857 6.6365 8.95879 6.65217C8.98431 6.67851 9.01471 6.69964 9.0483 6.71437M9.87757 6.19784C10.6307 6.62335 11.2815 7.26983 11.7515 8.1699C12.1887 9.00423 12.4698 10.0598 12.5305 11.3555C13.0086 11.9684 13.3254 12.5676 13.5054 13.1453C13.6328 12.9644 13.7625 12.7893 13.8945 12.6199C13.8973 12.6156 13.9008 12.6121 13.9038 12.6078C15.4051 10.6863 17.222 9.49294 19.1083 8.96706C20.3079 8.62997 21.567 8.56092 22.7963 8.7648C22.9374 8.7878 23.0772 8.81536 23.217 8.8452C23.2228 8.84671 23.2276 8.84722 23.2334 8.84874C24.3111 9.08844 25.335 9.52561 26.2535 10.1382C28.2594 11.4685 29.8942 13.6608 30.7164 16.5992C31.2122 18.3743 31.2933 19.9731 31.0746 21.3708C30.9557 22.1455 30.7302 22.9001 30.4046 23.6131C30.4026 23.6181 30.4002 23.623 30.3973 23.6275C30.0818 24.3134 29.6669 24.949 29.166 25.5139C28.9379 25.7712 28.692 26.0121 28.43 26.2349C28.3027 26.5889 28.1238 26.9221 27.8991 27.2237C27.267 28.0631 26.3273 28.5245 25.233 28.6648C24.9932 28.6946 24.7517 28.7097 24.51 28.7101C24.0468 29.1035 23.6311 29.373 23.2099 29.5305C22.7654 29.6954 22.3217 29.7348 21.8194 29.659C21.3071 29.5831 20.9266 29.4567 20.5818 29.3434C20.0708 29.1758 19.6438 29.0355 18.9758 29.1412C18.5981 29.2008 18.2697 29.3627 17.9364 29.5275C17.2637 29.8602 16.5712 30.202 15.3702 29.8544C14.8921 29.7161 14.4937 29.5232 14.1094 29.3376C13.0968 28.8474 12.1846 28.4052 10.1779 29.2896C9.99943 29.3677 9.82397 29.4365 9.64952 29.4967C8.36667 29.9376 7.15487 29.9037 6.1605 29.529C5.15652 29.15 4.37655 28.4244 3.96318 27.4889C3.92171 27.3929 3.88354 27.2963 3.84915 27.1979C3.49797 26.3947 3.74524 25.4815 4.03928 24.3966C4.38236 23.1287 4.79245 21.6155 4.33736 19.8204C1.77799 19.4119 -0.204178 17.722 0.165709 14.2238C0.195025 13.9205 0.266417 13.6226 0.377831 13.339C0.473652 13.076 0.553294 12.8586 0.493121 12.3056C0.356594 11.0418 0.654424 9.89216 1.24149 8.91043C1.86774 7.86549 2.82318 7.01624 3.92904 6.43423C3.86586 6.08534 3.7445 5.74955 3.57003 5.44088C3.28762 4.94356 2.90054 4.59087 2.53344 4.50213C2.10186 4.3967 1.78659 4.45485 1.40254 4.52564C1.20255 4.5623 0.984617 4.60149 0.719906 4.62677C0.635589 4.637 0.550058 4.62904 0.469072 4.60345C0.388087 4.57785 0.313525 4.53519 0.250405 4.47836C0.140522 4.37407 0.0642082 4.2394 0.0312044 4.09154C-0.00480168 3.94098 -0.00970563 3.78466 0.016793 3.63215C0.0628076 3.3639 0.201863 3.1045 0.436234 2.9576C0.55304 2.88454 1.06603 2.6623 1.69885 2.62589C2.08871 2.60365 2.52964 2.64865 2.96021 2.83878C3.39077 3.0289 3.80946 3.36112 4.15507 3.91076C4.46959 4.41237 4.72267 5.09627 4.86653 6.02213C5.53633 5.79175 6.23323 5.6494 6.93971 5.59864C7.58847 5.5549 8.22913 5.59864 8.80381 5.75489C8.91032 5.28446 8.93122 4.79869 8.8655 4.32085C8.76437 3.59827 8.46856 2.99705 8.07289 2.71615C7.61047 2.38748 7.2115 2.30986 6.72557 2.21379C6.47679 2.16322 6.20651 2.11114 5.88542 2.01658C5.66268 1.95211 5.51503 1.81811 5.43033 1.64745C5.35297 1.49121 5.33224 1.30639 5.35727 1.11854C5.38461 0.931332 5.44972 0.751641 5.54866 0.590382C5.72134 0.309996 5.99465 0.0786581 6.32332 0.0184852C6.49095 -0.0128654 7.18294 -0.0338503 7.92928 0.213415C8.39019 0.365111 8.87739 0.62072 9.28823 1.03687C9.69907 1.45303 10.0293 2.02821 10.1754 2.82082C10.3324 3.67083 10.2765 4.77164 9.87732 6.19784H9.87757ZM13.6128 13.5667C13.9547 15.27 13.109 16.7739 11.6936 17.8931C11.6491 17.9283 11.6046 17.9627 11.5589 17.997C11.4518 18.3448 11.3512 18.7057 11.257 19.0799C11.1628 19.4541 11.0761 19.8395 10.9968 20.2361C12.5816 18.2688 13.8609 18.281 15.0699 19.2455C15.9591 19.9552 16.7919 21.1892 17.6864 22.5143C18.1372 23.1815 18.6037 23.8733 19.0982 24.5281C18.8016 23.626 18.7642 22.6233 18.9212 21.6236C18.9909 21.1831 19.0946 20.7486 19.2314 20.3241C19.2314 20.322 19.2329 20.3198 19.2337 20.317C19.4067 19.7809 19.6267 19.2612 19.8911 18.7639C19.3278 16.7075 18.5583 15.189 17.5827 14.2082C16.6287 13.2491 15.4718 12.8041 14.1119 12.873C13.9413 13.0945 13.7749 13.325 13.6131 13.5667H13.6128ZM11.1288 18.3002C10.994 18.3885 10.8557 18.4736 10.7139 18.5555C10.6859 19.0665 10.6952 19.4506 10.762 19.763C10.8178 19.5044 10.878 19.2498 10.9402 19.0005C10.9999 18.7634 11.0627 18.5299 11.1288 18.3002ZM10.3782 18.7411C10.0126 18.9327 9.63562 19.1016 9.24929 19.2468C9.07231 19.7507 9.0043 20.2093 9.06878 20.5734C9.12617 20.902 9.29632 21.1511 9.59415 21.2843C9.6121 21.2924 9.70236 21.3311 9.78832 21.3682C10.4586 21.6557 10.8269 21.814 10.9129 22.8852L10.9172 22.9439C10.9953 23.9266 11.0676 24.8345 12.22 25.0079C12.8716 25.1063 13.4154 25.3657 13.8189 25.7032C14.274 26.0825 14.5521 26.5628 14.608 27.0306C14.6585 27.4404 15.0337 28.0237 15.6357 28.5175C16.1224 28.9174 16.7537 29.2522 17.4776 29.3862C17.5838 29.3374 17.6877 29.2866 17.7908 29.2345C18.1463 29.0575 18.496 28.8861 18.9253 28.8188C19.6713 28.702 20.1315 28.8532 20.6819 29.0337C21.0136 29.1427 21.38 29.263 21.8672 29.3371C22.3152 29.4046 22.707 29.3707 23.0956 29.2269C23.3922 29.1156 23.6905 28.9402 24.0116 28.6944C23.2668 28.6421 22.482 28.4699 21.6973 28.1926C20.6253 27.8133 19.5495 27.2366 18.5705 26.4986C17.8007 25.9171 17.0789 24.9736 16.3709 24.0462C15.7725 23.2624 15.1826 22.4903 14.5979 21.9836C14.1026 22.11 13.5213 22.081 12.9608 21.9442C12.3353 21.7925 11.7326 21.5028 11.3017 21.1407C10.8919 20.7969 10.6424 20.4834 10.5048 20.0657C10.3901 19.7168 10.3579 19.3024 10.3784 18.7414L10.3782 18.7411ZM8.8612 19.3825C8.71642 19.4306 8.5702 19.4757 8.42255 19.5181C7.20898 19.8642 5.92638 19.9984 4.74239 19.8748L4.68374 19.8685C5.11 21.6888 4.69941 23.2058 4.35329 24.4823C4.07518 25.5085 3.84157 26.3715 4.14749 27.0695C4.15147 27.0768 4.15461 27.0845 4.15684 27.0925C4.18845 27.1835 4.22359 27.2723 4.26151 27.3585C4.63848 28.2141 5.35373 28.8755 6.2725 29.2231C7.19912 29.5722 8.33355 29.6023 9.54131 29.1867C9.70818 29.1293 9.87605 29.0641 10.0437 28.9895C12.1879 28.0449 13.1656 28.518 14.2492 29.0433C14.6224 29.2238 15.0077 29.4109 15.4582 29.5414C16.065 29.7169 16.5317 29.6931 16.9337 29.5867C16.3841 29.413 15.873 29.1353 15.4281 28.7688C14.7602 28.2206 14.341 27.5519 14.2828 27.0682C14.2363 26.6827 13.9984 26.2784 13.6083 25.9523C13.248 25.6514 12.759 25.419 12.1707 25.3303C10.761 25.1182 10.679 24.0861 10.5905 22.9686L10.5855 22.91C10.516 22.0357 10.2113 21.9045 9.65812 21.6673C9.62019 21.6509 9.57923 21.6335 9.46091 21.5806C9.05184 21.3986 8.82176 21.0638 8.74566 20.6287C8.68271 20.2705 8.72645 19.845 8.8612 19.3825ZM9.04678 6.71588C9.12414 6.75052 9.23463 6.75482 9.38658 6.6858C9.43512 6.53612 9.48046 6.38949 9.5226 6.24588M11.1551 20.5501C11.264 20.6729 11.3823 20.7869 11.5091 20.8912C11.9032 21.2216 12.4579 21.4868 13.0356 21.6279C13.4483 21.729 13.87 21.7662 14.251 21.7174C13.8338 21.4373 13.4189 21.3169 13.0025 21.4479C12.9615 21.4598 12.9174 21.4551 12.8798 21.4348C12.8422 21.4146 12.814 21.3804 12.8012 21.3397C12.7885 21.2989 12.7923 21.2547 12.8117 21.2167C12.8311 21.1787 12.8647 21.1497 12.9052 21.1362C14.2373 20.717 15.4142 22.2579 16.6283 23.849C17.3233 24.7592 18.0308 25.685 18.766 26.239C19.7179 26.9557 20.7633 27.516 21.8047 27.8844C22.7093 28.205 23.6094 28.3797 24.4422 28.3855H24.4559C24.7009 28.3876 24.9459 28.3733 25.1891 28.3425C26.1976 28.2141 27.06 27.7934 27.6352 27.0278C27.7232 26.9112 27.8032 26.7888 27.8746 26.6614C27.5799 26.8665 27.27 27.0489 26.9477 27.207C25.9852 27.6821 25.01 27.8841 24.0832 27.87C23.051 27.8542 22.0411 27.5673 21.1549 27.0379C20.7448 26.8061 20.3727 26.5129 20.0513 26.1684C20.0369 26.154 20.0225 26.1391 20.0084 26.1239C19.0421 25.1126 18.2029 23.8687 17.4123 22.6976C16.5322 21.3933 15.7126 20.1792 14.8633 19.5019C13.8015 18.6541 12.6637 18.6675 11.2226 20.4737C11.2016 20.5005 11.1788 20.5259 11.1543 20.5496L11.1551 20.5501ZM20.1173 18.372C20.829 17.2497 21.7807 16.6758 22.7526 16.5137C23.5581 15.3419 23.9883 14.1439 24.0432 12.9195C24.0982 11.6952 23.7779 10.4394 23.0825 9.15238C22.97 9.12887 22.8567 9.10738 22.7435 9.08867C21.5605 8.89245 20.349 8.95874 19.1945 9.28284C17.4629 9.76675 15.7902 10.8352 14.3776 12.5415C15.7121 12.5395 16.8573 13.019 17.8133 13.9801C18.7801 14.9518 19.5485 16.4159 20.1183 18.3725L20.1173 18.372ZM23.1738 16.4692C23.7505 16.4442 24.3254 16.5501 24.8553 16.7789C25.3604 16.9945 25.8149 17.3131 26.1897 17.7144C27.1055 18.0864 27.9253 18.2118 28.6493 18.0906C29.3496 17.9738 29.9648 17.6238 30.4949 17.0406C30.4654 16.9238 30.434 16.8058 30.4008 16.6866C29.6024 13.8297 28.0164 11.6999 26.0729 10.4115C25.2855 9.88661 24.4173 9.49433 23.5029 9.25023C24.1342 10.501 24.423 11.7283 24.3694 12.9319C24.3156 14.1389 23.9173 15.3176 23.1745 16.4679L23.1738 16.4692ZM26.3902 22.2901C25.969 22.9517 25.4578 23.3479 24.9527 23.5335C24.6465 23.6492 24.3162 23.6867 23.9919 23.6424C23.9011 23.6295 23.8115 23.6094 23.7239 23.5823C23.0817 24.2565 22.624 24.8936 22.3508 25.4936C22.0887 26.0679 21.996 26.6063 22.0727 27.1089C22.5288 27.2785 23.0012 27.4004 23.4825 27.4725C24.2121 27.587 24.9832 27.5319 25.7422 27.3208C26.1065 27.2182 26.4607 27.0828 26.8006 26.9163C27.6053 26.5199 28.3249 25.9702 28.919 25.2982C29.3401 24.8239 29.6979 24.297 29.9834 23.7307C29.2731 23.7494 28.6209 23.6412 28.0268 23.406C27.4185 23.1658 26.8724 22.7941 26.3885 22.2908L26.3902 22.2901ZM23.4069 23.4447C23.3297 23.401 23.2564 23.3508 23.1877 23.2948C22.8241 22.9982 22.6021 22.5416 22.6284 21.9884C22.099 21.4658 21.5413 21.0846 21.0075 20.8416C20.4642 20.5943 19.9482 20.4892 19.5103 20.5228C19.3937 20.8996 19.3043 21.2843 19.2428 21.6739C19.083 22.6958 19.1346 23.7173 19.4741 24.6151C19.6604 25.1114 19.9419 25.5666 20.3027 25.955C20.601 26.2557 20.9348 26.5189 21.2968 26.7388C21.337 26.7618 21.3777 26.7846 21.4194 26.8076C21.5195 26.8615 21.6234 26.9131 21.7311 26.9623C21.6917 26.4528 21.8002 25.9169 22.0565 25.3548C22.3338 24.748 22.7841 24.1102 23.4074 23.4414L23.4069 23.4447ZM4.30298 7.10499C4.30146 7.13027 4.305 7.05998 4.30728 7.05442L4.30424 7.05796C4.30424 7.07313 4.30424 7.0888 4.30424 7.10448L4.30298 7.10499Z" fill="#1A0E02"/>
<path fill-rule="evenodd" clip-rule="evenodd" d="M12.1718 25.3294C10.7357 25.1129 10.6768 24.045 10.5866 22.909C10.517 22.0348 10.2124 21.9035 9.65919 21.6664C9.62127 21.65 9.58031 21.6325 9.46199 21.5797C9.05291 21.3976 8.82284 21.0629 8.74674 20.6278C8.68378 20.2695 8.72752 19.844 8.86228 19.3816C8.71749 19.4296 8.57128 19.4748 8.42363 19.5171C7.21005 19.8632 5.92746 19.9975 4.74347 19.8738L4.68481 19.8675C5.11108 21.6879 4.70049 23.2049 4.35437 24.4814C4.07626 25.5076 3.84264 26.3705 4.14856 27.0686C4.15254 27.0759 4.15568 27.0836 4.15792 27.0916C4.4962 28.0756 5.26101 28.8404 6.27358 29.2221C7.40524 29.6487 8.73966 29.5642 10.0448 28.9885C12.189 28.044 13.1667 28.517 14.2503 29.0424C14.6235 29.2229 15.0088 29.41 15.4593 29.5405C16.0661 29.7159 16.5328 29.6921 16.9348 29.5857C16.3852 29.412 15.8741 29.1343 15.4292 28.7678C14.7613 28.2197 14.3421 27.551 14.2839 27.0673C14.2374 26.6817 13.9995 26.2775 13.6094 25.9513C13.2491 25.6504 12.7601 25.4181 12.1718 25.3294Z" fill="#FEEB8E"/>
<path fill-rule="evenodd" clip-rule="evenodd" d="M11.304 24.9991C10.7048 24.5498 10.6547 23.7479 10.5879 22.9092C10.5599 22.5596 10.4947 22.3277 10.3907 22.1624C10.2643 22.0792 10.1098 22.0135 9.93009 21.9348C9.89191 21.9181 9.85197 21.9009 9.73364 21.8486C9.53589 21.7635 9.36496 21.6263 9.23911 21.4517C8.96833 21.2588 8.8093 20.9743 8.74812 20.6267C8.70312 20.3703 8.71247 20.0786 8.77189 19.7638C8.7466 19.7711 8.72132 19.7782 8.69604 19.786C7.48247 20.1322 6.19911 20.2664 5.01512 20.1423L4.95621 20.136C5.38273 21.9563 4.97214 23.4733 4.62754 24.7498C4.34943 25.776 4.11582 26.6397 4.42098 27.337C4.42452 27.3441 4.42806 27.3522 4.43109 27.36C4.57788 27.7881 4.80916 28.1824 5.1112 28.5195C5.45178 28.8233 5.84555 29.0616 6.27269 29.2223C7.40434 29.6488 8.73877 29.5644 10.0439 28.9887C12.1881 28.0441 13.1658 28.5172 14.2494 29.0426C14.6226 29.2231 15.0079 29.4102 15.4584 29.5406C15.9315 29.6774 16.318 29.6941 16.6573 29.6418C16.3132 29.4801 15.9904 29.2763 15.6966 29.035C15.537 28.9043 15.3871 28.7623 15.2481 28.61C14.6848 28.0947 14.3343 27.5041 14.282 27.0649C14.2476 26.7838 14.1129 26.4936 13.8914 26.2306C13.8863 26.2271 13.882 26.2228 13.877 26.2185C13.5164 25.9174 13.0277 25.6853 12.4394 25.597C11.8761 25.5118 11.5249 25.2962 11.3017 24.9966L11.304 24.9991Z" fill="#FFEFA3"/>
<path fill-rule="evenodd" clip-rule="evenodd" d="M12.9066 21.1347C14.2387 20.7155 15.4157 22.2565 16.6297 23.8475C17.3248 24.7577 18.0322 25.6835 18.7674 26.2375C19.7193 26.9542 20.7647 27.5145 21.8061 27.8829C22.7107 28.2035 23.6108 28.3782 24.4436 28.384H24.4573C24.7024 28.3861 24.9473 28.3718 25.1905 28.341C26.3623 28.1918 27.3198 27.6508 27.876 26.661C27.5813 26.866 27.2714 27.0484 26.9491 27.2066C25.9866 27.6816 25.0115 27.8836 24.0846 27.8695C23.0524 27.8538 22.0426 27.5668 21.1564 27.0374C20.7462 26.8057 20.3741 26.5124 20.0528 26.168L20.0098 26.1235C19.0435 25.1121 18.2043 23.8682 17.4137 22.6971C16.5337 21.3928 15.714 20.1787 14.8647 19.5014C13.8029 18.6537 12.6651 18.6671 11.224 20.4733C11.203 20.5 11.1802 20.5254 11.1558 20.5491C11.2646 20.6719 11.383 20.7859 11.5097 20.8902C12.1855 21.4578 13.3422 21.8327 14.2516 21.7164C13.8345 21.4363 13.4196 21.3159 13.0032 21.4469C12.9621 21.4588 12.9181 21.4541 12.8805 21.4339C12.8428 21.4136 12.8146 21.3795 12.8019 21.3387C12.7892 21.2979 12.7929 21.2538 12.8123 21.2157C12.8318 21.1777 12.8653 21.1488 12.9058 21.1352L12.9066 21.1347Z" fill="#CC2D67"/>
<path fill-rule="evenodd" clip-rule="evenodd" d="M12.9068 21.1346C14.2389 20.7155 15.4158 22.2564 16.6299 23.8475C17.3249 24.7577 18.0323 25.6835 18.7675 26.2375C19.7194 26.9542 20.7649 27.5145 21.8063 27.8829C22.7109 28.2035 23.611 28.3782 24.4438 28.384H24.4574C24.7025 28.3861 24.9475 28.3718 25.1906 28.341C25.9855 28.2399 26.6823 27.9582 27.2211 27.4788C27.1399 27.5226 27.059 27.5641 26.9774 27.6035C26.0166 28.0793 25.0402 28.2808 24.1136 28.2664C23.0813 28.2516 22.0712 27.9648 21.1851 27.4351C20.7749 27.203 20.4026 26.9099 20.0807 26.5656L20.0385 26.5214C19.0717 25.5086 18.2331 24.2659 17.4427 23.0941C16.5619 21.7905 15.7427 20.5756 14.8935 19.8986C13.8569 19.0708 12.7462 19.0642 11.3501 20.7491C11.4007 20.7959 11.4527 20.8424 11.5094 20.8897C11.8633 21.1865 12.3485 21.4307 12.861 21.5799C12.8805 21.5576 12.9058 21.5413 12.9341 21.5326C13.3755 21.3935 13.8005 21.4701 14.2154 21.6924C13.8109 21.4292 13.4063 21.319 13.0018 21.4464C12.9608 21.4582 12.9167 21.4536 12.8791 21.4333C12.8415 21.4131 12.8133 21.3789 12.8006 21.3382C12.7878 21.2974 12.7916 21.2532 12.811 21.2152C12.8304 21.1772 12.864 21.1482 12.9045 21.1346H12.9068Z" fill="#DE598A"/>
<path fill-rule="evenodd" clip-rule="evenodd" d="M15.0694 19.2465C15.9586 19.9562 16.7914 21.1903 17.6859 22.5153C18.1367 23.1825 18.6032 23.8743 19.0977 24.5291C18.8011 23.627 18.7637 22.6243 18.9207 21.6246C18.9904 21.1841 19.0941 20.7496 19.2309 20.3251L19.2332 20.318C19.4062 19.782 19.6261 19.2622 19.8905 18.7649C19.3272 16.7085 18.5578 15.19 17.5822 14.2092C16.6282 13.2501 15.4713 12.8051 14.1114 12.874C13.9408 13.0955 13.7744 13.3261 13.6126 13.5678C13.9544 15.2711 13.1087 16.7749 11.6934 17.8941C11.6489 17.9293 11.6044 17.9637 11.5586 17.9981C11.4516 18.3458 11.351 18.7067 11.2567 19.0809C11.1625 19.4551 11.0758 19.8405 10.9966 20.2371C12.5813 18.2698 13.8606 18.282 15.0696 19.2465H15.0694Z" fill="#EF5D93"/>
<path fill-rule="evenodd" clip-rule="evenodd" d="M14.3779 12.5397C17.5608 12.5349 19.2155 15.2717 20.1186 18.3706C20.8303 17.2483 21.782 16.6744 22.7539 16.5123C23.5594 15.3406 23.9896 14.1425 24.0445 12.9181C24.0995 11.6938 23.7792 10.4381 23.0838 9.15101C22.9713 9.1275 22.858 9.10601 22.7448 9.0873C21.5618 8.89108 20.3503 8.95737 19.1958 9.28147C17.4642 9.76538 15.7915 10.8338 14.3789 12.5402L14.3779 12.5397Z" fill="#EF5D93"/>
<path fill-rule="evenodd" clip-rule="evenodd" d="M24.3694 12.9314C24.3157 14.1384 23.9174 15.3171 23.1746 16.4675C23.7513 16.4425 24.3262 16.5484 24.8561 16.7772C25.3612 16.9928 25.8157 17.3114 26.1905 17.7127C27.1063 18.0847 27.9261 18.2101 28.65 18.0889C29.3504 17.9721 29.9656 17.6221 30.4957 17.0389C29.7461 14.0555 28.1355 11.777 26.0737 10.4105C25.2862 9.88565 24.4181 9.49337 23.5037 9.24927C24.135 10.5001 24.4238 11.7273 24.3702 12.9309L24.3694 12.9314Z" fill="#EF5D93"/>
<path fill-rule="evenodd" clip-rule="evenodd" d="M30.5837 17.4178C29.4665 18.5303 28.0774 18.685 26.5711 18.1991C27.0993 19.0053 27.2977 20.0245 26.9372 21.1124L26.9344 21.1195C26.8351 21.4213 26.7107 21.7143 26.5625 21.9953C27.5232 23.0319 28.7239 23.4715 30.1443 23.3957C30.4376 22.734 30.6416 22.0362 30.7511 21.3207C30.9331 20.1613 30.901 18.8554 30.5835 17.4178H30.5837Z" fill="#EF5D93"/>
<path fill-rule="evenodd" clip-rule="evenodd" d="M28.0297 23.4038C27.4214 23.1636 26.8753 22.7919 26.3914 22.2886C25.9702 22.9502 25.459 23.3464 24.9538 23.532C24.5425 23.6837 24.1132 23.7011 23.7261 23.5808C23.0839 24.255 22.6262 24.8921 22.353 25.4922C22.0909 26.0664 21.9982 26.6048 22.0749 27.1075C22.531 27.277 23.0034 27.3989 23.4846 27.471C24.5918 27.6442 25.7715 27.4205 26.8027 26.9148C27.6074 26.5184 28.327 25.9688 28.9212 25.2967C29.3423 24.8224 29.7 24.2955 29.9856 23.7292C29.2753 23.7479 28.6231 23.6397 28.029 23.4046L28.0297 23.4038Z" fill="#EF5D93"/>
<path fill-rule="evenodd" clip-rule="evenodd" d="M23.4074 23.4435C23.3302 23.3998 23.2569 23.3496 23.1882 23.2936C22.8246 22.997 22.6026 22.5404 22.6289 21.9872C22.0995 21.4647 21.5418 21.0834 21.008 20.8404C20.4647 20.5932 19.9487 20.488 19.5108 20.5216C19.101 21.8532 18.992 23.3409 19.4741 24.6151C19.6604 25.1115 19.9419 25.5667 20.3026 25.9551C20.601 26.2558 20.9348 26.519 21.2968 26.7389C21.4232 26.8147 21.5949 26.9002 21.7311 26.9624C21.6328 25.6962 22.4643 24.4521 23.4074 23.4415V23.4435Z" fill="#EF5D93"/>
<path fill-rule="evenodd" clip-rule="evenodd" d="M21.1431 20.5748C21.6521 20.8001 22.178 21.1371 22.6841 21.5892C22.7431 21.3272 22.8469 21.0774 22.9908 20.8507C23.2209 20.4899 23.5174 20.2376 23.838 20.0861C24.4327 19.1001 24.6486 18.0547 24.1869 17.0355C23.8596 16.955 23.5225 16.9218 23.1857 16.9369C22.0877 16.989 20.9705 17.5798 20.2107 18.939L20.2059 18.9479C19.9769 19.3597 19.7811 19.7891 19.6204 20.232C20.0803 20.2229 20.6029 20.3357 21.1431 20.5748Z" fill="#EF5D93"/>
<path fill-rule="evenodd" clip-rule="evenodd" d="M24.7441 18.4164C24.6949 18.9 24.5416 19.3956 24.2842 19.9033C24.56 19.878 24.7822 19.995 24.8968 20.2423C25.5519 20.2575 26.305 20.3485 26.7113 20.7083C26.9558 19.6519 26.6261 18.6856 25.9913 17.9777C25.6054 17.5515 25.1237 17.2233 24.5858 17.0203C24.7405 17.4683 24.7946 17.945 24.7441 18.4164Z" fill="#EF5D93"/>
<path fill-rule="evenodd" clip-rule="evenodd" d="M24.9755 20.5709C25.0007 20.9501 24.8559 21.425 24.5962 21.7845C24.571 21.8196 24.5329 21.8434 24.4902 21.8504C24.4476 21.8575 24.4038 21.8473 24.3687 21.8221C24.3335 21.797 24.3098 21.7588 24.3027 21.7162C24.2956 21.6735 24.3058 21.6298 24.331 21.5946C24.5439 21.3008 24.6627 20.9223 24.6521 20.6235C24.6463 20.4559 24.5975 20.2652 24.4263 20.2308C24.3095 20.2078 24.1424 20.2445 23.9161 20.3661C23.6838 20.491 23.4486 20.7067 23.2689 20.9982C23.0976 21.2785 22.9924 21.5942 22.9614 21.9213C22.9141 22.3999 23.0919 22.792 23.3943 23.0393C23.7912 23.3631 24.3431 23.4069 24.842 23.2241C25.4993 22.9826 26.1756 22.3205 26.6042 21.0783C26.3534 20.6771 25.5299 20.5881 24.976 20.5696L24.9755 20.5709Z" fill="#EF5D93"/>
<path fill-rule="evenodd" clip-rule="evenodd" d="M15.0695 19.2469C15.9587 19.9566 16.7915 21.1907 17.686 22.5158C18.1368 23.183 18.6032 23.8747 19.0978 24.5295C18.8012 23.6274 18.7638 22.6247 18.9208 21.625C18.9905 21.1845 19.0942 20.75 19.231 20.3255L19.2333 20.3184C19.4063 19.7824 19.6262 19.2627 19.8906 18.7653C19.5254 17.4309 19.0729 16.3227 18.5332 15.4406C18.3486 15.1854 18.1448 14.9447 17.9234 14.7206C16.9687 13.7617 15.8115 13.3169 14.4518 13.3862C14.2814 13.6068 14.1154 13.8378 13.9537 14.0792C14.2956 15.7827 13.4499 17.2863 12.0345 18.4055C11.99 18.4407 11.945 18.4758 11.8998 18.5102C11.7951 18.8485 11.6969 19.1994 11.6052 19.563C12.9161 18.2902 14.019 18.4086 15.069 19.2469H15.0695Z" fill="#FF99CC"/>
<path fill-rule="evenodd" clip-rule="evenodd" d="M16.4337 13.3516C15.9425 13.096 15.4062 12.9388 14.8548 12.8887C14.809 12.9418 14.763 12.9961 14.718 13.0507C15.3478 13.0507 15.9177 13.1567 16.4337 13.3516Z" fill="#FF99CC"/>
<path fill-rule="evenodd" clip-rule="evenodd" d="M15.1189 12.5913C16.758 12.8262 17.942 13.8531 18.8049 15.2601C19.4117 16.0945 19.8769 17.1058 20.2409 18.1856C20.9377 17.1852 21.8363 16.6656 22.7538 16.5121C23.5593 15.3404 23.9895 14.1423 24.0445 12.9179C24.0925 11.8495 23.8548 10.7578 23.3312 9.6428C23.2488 9.62637 23.1672 9.6112 23.0847 9.59755C21.9016 9.40134 20.6897 9.46763 19.535 9.79172C17.9655 10.2311 16.4427 11.1507 15.1189 12.5913Z" fill="#FF99CC"/>
<path fill-rule="evenodd" clip-rule="evenodd" d="M23.8083 16.4924C24.1693 16.5378 24.5221 16.6338 24.8563 16.7776C25.3614 16.9931 25.8159 17.3117 26.1907 17.713C27.1065 18.085 27.9263 18.2104 28.6502 18.0892C29.3506 17.9724 29.9658 17.6224 30.4959 17.0392C30.1568 15.6904 29.6421 14.4857 28.9893 13.4445C28.2596 12.4153 27.3876 11.5668 26.4142 10.9218C25.6268 10.397 24.7585 10.0049 23.844 9.76135C24.4761 11.0125 24.7651 12.2397 24.7112 13.4428C24.6647 14.4807 24.3639 15.4973 23.8089 16.4924H23.8083Z" fill="#FF99CC"/>
<path fill-rule="evenodd" clip-rule="evenodd" d="M26.9665 22.3839C27.8529 23.1424 28.9173 23.462 30.1448 23.3952C30.438 22.7335 30.6421 22.0357 30.7515 21.3203C30.9032 20.353 30.9058 19.2835 30.7187 18.1205C29.6386 19.0585 28.3272 19.1659 26.9124 18.7096C27.4398 19.5158 27.6385 20.535 27.2779 21.6229L27.2757 21.63C27.1903 21.888 27.0869 22.1397 26.9662 22.3832L26.9665 22.3839Z" fill="#FF99CC"/>
<path fill-rule="evenodd" clip-rule="evenodd" d="M22.3907 27.217C22.7485 27.3293 23.1144 27.4138 23.4851 27.4699C24.5923 27.643 25.772 27.4193 26.8033 26.9136C27.6079 26.5172 28.3275 25.9676 28.9217 25.2955C29.2175 24.9624 29.4822 24.6028 29.7123 24.2213C29.2525 24.1848 28.8005 24.0812 28.3708 23.9138C27.7615 23.6736 27.2151 23.3017 26.7317 22.7979C26.3102 23.4595 25.7993 23.8557 25.2941 24.0413C24.8825 24.193 24.454 24.2104 24.0664 24.0901C23.4251 24.7643 22.9674 25.4014 22.6933 26.0014C22.4996 26.4257 22.3985 26.8302 22.3899 27.215L22.3907 27.217Z" fill="#FF99CC"/>
<path fill-rule="evenodd" clip-rule="evenodd" d="M23.0825 23.1985C22.8102 22.9292 22.6488 22.5676 22.6301 22.1852C22.2439 21.8484 21.8124 21.5676 21.3481 21.3508C20.8055 21.1038 20.2887 20.9991 19.8516 21.032C19.4417 22.3636 19.3328 23.8515 19.8152 25.1258C19.8894 25.3223 19.9782 25.513 20.0809 25.6962C20.1505 25.7848 20.2243 25.8713 20.3024 25.9556C20.6007 26.2562 20.9345 26.5194 21.2965 26.7393C21.4229 26.8152 21.5946 26.9006 21.7308 26.9628C21.636 25.7475 22.3993 24.5529 23.2946 23.5646C23.2066 23.4531 23.1351 23.3294 23.0825 23.1975V23.1985Z" fill="#FF99CC"/>
<path fill-rule="evenodd" clip-rule="evenodd" d="M21.143 20.5433C21.652 20.7754 22.1778 21.123 22.684 21.589C22.7427 21.3198 22.8464 21.0624 22.9907 20.8277C23.2208 20.4558 23.5173 20.1956 23.8379 20.0394C24.3436 19.1745 24.5759 18.2648 24.3489 17.3655C24.0781 17.3118 23.8017 17.2913 23.5259 17.3046C22.4281 17.3577 21.3114 17.9667 20.5519 19.3679L20.5469 19.3772C20.3976 19.6542 20.2626 19.9386 20.1423 20.2293C20.4887 20.2895 20.8255 20.3951 21.1443 20.5433H21.143Z" fill="#FF99CC"/>
<path fill-rule="evenodd" clip-rule="evenodd" d="M24.783 20.0727C24.83 20.1228 24.8685 20.1801 24.897 20.2426C25.5521 20.2578 26.3053 20.3488 26.7116 20.7086C26.8815 20.0007 26.7842 19.255 26.4385 18.6144C26.4041 18.5722 26.3685 18.5297 26.3318 18.488C25.9459 18.0619 25.4641 17.7337 24.9263 17.5305C25.0813 17.9786 25.1357 18.4552 25.0856 18.9266C25.0413 19.3212 24.9391 19.707 24.7822 20.0717L24.783 20.0727Z" fill="#FF99CC"/>
<path fill-rule="evenodd" clip-rule="evenodd" d="M24.5953 21.7856C24.5701 21.8208 24.532 21.8445 24.4893 21.8516C24.4467 21.8586 24.4029 21.8485 24.3678 21.8233C24.3326 21.7981 24.3089 21.76 24.3018 21.7173C24.2947 21.6746 24.3049 21.6309 24.3301 21.5957C24.5164 21.3378 24.631 21.0142 24.6497 20.7386C24.5458 20.7488 24.4153 20.7922 24.2555 20.8785C24.0234 21.0031 23.789 21.2188 23.609 21.5105C23.4374 21.7907 23.3322 22.1065 23.3016 22.4336C23.2799 22.6295 23.3004 22.8278 23.3618 23.0151C23.3726 23.0237 23.3827 23.0331 23.3934 23.0404C23.7903 23.3643 24.3422 23.408 24.8411 23.2252C25.4633 22.9977 26.0996 22.3939 26.5289 21.283C25.4903 20.8623 25.218 20.9834 24.5953 21.7854V21.7856Z" fill="#FF99CC"/>
<path fill-rule="evenodd" clip-rule="evenodd" d="M10.9124 22.8834C10.9918 23.8823 11.0421 24.8284 12.2196 25.0072C12.8711 25.1055 13.4149 25.3649 13.8184 25.7024C14.2735 26.0817 14.5516 26.5621 14.6075 27.0298C14.6581 27.4396 15.0333 28.0229 15.6353 28.5167C16.122 28.9166 16.7533 29.2514 17.4771 29.3854C17.5833 29.3366 17.6872 29.2858 17.7904 29.2337C18.1458 29.0567 18.4955 28.8853 18.9248 28.818C19.6709 28.7012 20.131 28.8524 20.6814 29.0329C21.0132 29.1419 21.3795 29.2622 21.8667 29.3363C22.7152 29.4648 23.3296 29.214 24.0112 28.6936C22.115 28.5602 20.1338 27.6765 18.5701 26.4991C17.1439 25.4241 15.881 23.0948 14.5969 21.9833C14.1016 22.1098 13.5204 22.0807 12.9598 21.9439C12.3343 21.7922 11.7316 21.5025 11.3008 21.1404C10.891 20.7966 10.6414 20.4831 10.5039 20.0654C10.3891 19.7165 10.357 19.3021 10.3775 18.7411C10.0119 18.9327 9.63492 19.1016 9.24859 19.2467C9.07161 19.7506 9.0036 20.2093 9.06807 20.5733C9.12546 20.902 9.29561 21.151 9.59345 21.2843C9.6114 21.2924 9.70166 21.3311 9.78762 21.3682C10.4579 21.6557 10.8262 21.814 10.9122 22.8852L10.9124 22.8834Z" fill="#FFC548"/>
<path fill-rule="evenodd" clip-rule="evenodd" d="M11.6721 24.832C11.8429 24.9221 12.0284 24.9811 12.2198 25.0062C12.8713 25.1046 13.4151 25.364 13.8186 25.7015C13.8745 25.748 13.9284 25.7968 13.9792 25.8461C14.0417 25.8906 14.1017 25.937 14.1592 25.9852C14.6143 26.3644 14.8924 26.8468 14.9488 27.3125C14.9925 27.6774 15.2952 28.179 15.7851 28.6333C16.2842 29.0101 16.8631 29.2671 17.4773 29.3845C17.5835 29.3357 17.6874 29.2848 17.7906 29.2328C18.146 29.0558 18.4957 28.8844 18.925 28.8171C19.6711 28.7003 20.1312 28.8515 20.6817 29.032C21.0134 29.141 21.3797 29.2613 21.8669 29.3354C22.5908 29.4444 23.1442 29.2788 23.7125 28.9056C22.0186 28.6432 20.2994 27.8283 18.9101 26.7819C18.7905 26.6916 18.6729 26.5935 18.5561 26.4873C17.2495 25.4962 16.0807 23.4579 14.9061 22.2742C14.4173 22.391 13.8482 22.3614 13.2993 22.2267C12.6744 22.075 12.0709 21.7852 11.6403 21.4234C11.5786 21.3729 11.5197 21.3203 11.4653 21.2692C11.4072 21.227 11.3521 21.184 11.2997 21.1395C10.8899 20.7957 10.6404 20.4822 10.5028 20.0645C10.4219 19.8172 10.3817 19.5378 10.3731 19.1968C10.1188 19.3171 9.85634 19.4281 9.58935 19.5285C9.41237 20.0324 9.34411 20.491 9.40807 20.8558C9.43193 21.005 9.48792 21.1473 9.57216 21.2727C9.57924 21.2758 9.58581 21.2793 9.59289 21.2821C9.61084 21.2902 9.7011 21.3289 9.78706 21.366C10.1453 21.5195 10.4171 21.6363 10.6062 21.8755C10.9769 22.0899 11.1897 22.3859 11.2519 23.1669C11.3025 23.8063 11.3414 24.4235 11.6711 24.8318L11.6721 24.832Z" fill="#FFE35A"/>
<path fill-rule="evenodd" clip-rule="evenodd" d="M7.90185 18.4513C8.14836 18.111 8.3175 17.6516 8.37414 17.0825C7.67254 17.1584 6.98359 17.3606 6.58462 17.8466C6.48655 17.966 6.40796 18.1003 6.35177 18.2443C6.34465 18.2651 6.33338 18.2843 6.31865 18.3006C6.30391 18.317 6.28602 18.3302 6.26604 18.3395C6.24607 18.3487 6.22442 18.3538 6.20241 18.3545C6.18041 18.3552 6.15849 18.3514 6.13799 18.3433C6.11749 18.3353 6.09883 18.3232 6.08313 18.3078C6.06743 18.2923 6.05502 18.2739 6.04665 18.2535C6.03827 18.2332 6.03411 18.2113 6.03441 18.1893C6.0347 18.1673 6.03946 18.1456 6.04838 18.1254C6.08279 18.0373 6.12404 17.952 6.17176 17.8703C5.63854 17.815 5.18269 17.9032 4.76123 18.2005C5.18547 18.6652 5.64057 18.9524 6.08453 19.0771C6.79548 19.2763 7.46825 19.0518 7.90185 18.4513Z" fill="#FF99CC"/>
<path fill-rule="evenodd" clip-rule="evenodd" d="M7.90183 18.4512C8.12052 18.1479 8.27879 17.7527 8.35135 17.2695C7.69754 17.3563 7.07053 17.5633 6.69786 18.0171C6.59972 18.1362 6.52135 18.2702 6.46577 18.4141C6.45144 18.4506 6.4244 18.4808 6.38962 18.4991C6.35485 18.5173 6.31465 18.5225 6.27641 18.5135C6.23817 18.5045 6.20444 18.4821 6.18141 18.4503C6.15837 18.4184 6.14758 18.3794 6.151 18.3403C6.14746 18.3387 6.14392 18.3382 6.14038 18.3367C6.12042 18.3289 6.10219 18.3173 6.08673 18.3024C6.07128 18.2876 6.0589 18.2698 6.05031 18.2502C6.04171 18.2306 6.03707 18.2094 6.03665 18.188C6.03623 18.1666 6.04003 18.1453 6.04784 18.1254C6.06074 18.0915 6.07515 18.0586 6.09007 18.0265C5.65091 18.0113 5.26534 18.1051 4.90405 18.3504C5.28683 18.7273 5.69085 18.9668 6.0845 19.077C6.79546 19.2762 7.46823 19.0517 7.90183 18.4512Z" fill="#FFC2E1"/>
<path fill-rule="evenodd" clip-rule="evenodd" d="M6.39286 17.569C6.86286 17.053 7.61174 16.8303 8.39374 16.7521C8.39841 16.5165 8.38692 16.2808 8.35935 16.0468C6.67577 17.3615 5.30342 17.7407 4.29565 17.5971C4.37808 17.7235 4.46277 17.8406 4.54848 17.9511C5.09231 17.5561 5.69379 17.4616 6.39185 17.569H6.39286Z" fill="#854910"/>
<path fill-rule="evenodd" clip-rule="evenodd" d="M4.3042 7.05848C4.30502 7.05714 4.30604 7.05595 4.30724 7.05494L4.3042 7.05848ZM2.61076 4.18459C3.06383 4.29507 3.52802 4.70642 3.85417 5.27984C4.06643 5.6552 4.20719 6.06669 4.26931 6.49341C4.26931 6.49897 4.27133 6.50479 4.27209 6.5106C4.29761 6.69214 4.30835 6.87545 4.3042 7.05873V7.10525C4.30269 7.13053 4.30623 7.06303 4.3085 7.05469C4.31078 7.04634 4.31128 7.06606 4.3664 7.09059C4.38932 7.10074 4.41392 7.10657 4.43896 7.10778C4.4961 7.1098 4.56537 7.08477 4.64602 7.00513C4.53857 5.30461 4.07489 3.68626 2.83072 3.13687C2.45376 2.97051 2.0644 2.93107 1.71828 2.95104C1.15144 2.98416 0.710008 3.17125 0.611658 3.23269C0.287028 3.43698 0.242782 4.02986 0.47058 4.23465C0.500598 4.26093 0.535893 4.28048 0.574093 4.292C0.612294 4.30351 0.652516 4.30671 0.692057 4.30139C0.939322 4.27839 1.15069 4.23895 1.34486 4.2033C1.76632 4.12568 2.11244 4.06197 2.61127 4.18307L2.61076 4.18459Z" fill="#FFB800"/>
<path fill-rule="evenodd" clip-rule="evenodd" d="M9.07909 6.00545C9.02376 6.20575 8.95379 6.40171 8.86974 6.59176C8.88972 6.59024 8.93851 6.63625 8.95874 6.65193C8.98426 6.67827 9.01466 6.6994 9.04824 6.71412C9.12561 6.74876 9.23609 6.75306 9.38804 6.68404C9.43658 6.53436 9.48192 6.38772 9.52406 6.24412C9.52548 6.23625 9.52768 6.22854 9.53064 6.22111C9.94553 4.79213 10.008 3.70573 9.85527 2.87924C9.62595 1.64038 8.88492 0.874063 7.82784 0.523644C7.14116 0.2961 6.52831 0.311522 6.38218 0.338575C6.01456 0.406838 5.73013 0.802513 5.68134 1.16203C5.64822 1.40652 5.72078 1.62951 5.97664 1.7046C6.27548 1.79208 6.54272 1.84517 6.78847 1.89321C7.31233 1.99712 7.74239 2.08233 8.26195 2.44943C8.73069 2.78139 9.07555 3.4658 9.18932 4.2756C9.268 4.85381 9.23052 5.44191 9.07909 6.00545Z" fill="#FFB800"/>
<path fill-rule="evenodd" clip-rule="evenodd" d="M3.28452 4.56225C3.57122 4.75996 3.84074 5.06386 4.05261 5.43577C4.26483 5.81121 4.40583 6.22264 4.46851 6.64934C4.46851 6.6549 4.47053 6.66071 4.47053 6.66653C4.49094 6.80968 4.50192 6.95402 4.5034 7.09861C4.55719 7.07906 4.60561 7.04709 4.64473 7.00532C4.55523 5.58948 4.21821 4.22826 3.38843 3.49734C3.27508 3.41841 3.15434 3.35067 3.0279 3.29508C2.65093 3.12871 2.26259 3.08927 1.91546 3.10925C1.34862 3.14161 0.90718 3.32946 0.809083 3.3909C0.525158 3.56939 0.455124 4.04521 0.594685 4.29905C0.62636 4.30489 0.658688 4.30633 0.690759 4.30335C0.938024 4.28034 1.14939 4.2409 1.34356 4.20525C1.76502 4.12764 2.11114 4.06392 2.60997 4.18503C2.83752 4.2409 3.0686 4.37288 3.28376 4.56275L3.28452 4.56225Z" fill="#FFD748"/>
<path fill-rule="evenodd" clip-rule="evenodd" d="M9.07907 6.72588C9.15492 6.74889 9.25605 6.74459 9.38879 6.68416C9.43733 6.53449 9.48267 6.38785 9.52481 6.24424C9.52623 6.23637 9.52843 6.22867 9.53138 6.22124C9.94627 4.79225 10.0087 3.70586 9.85601 2.87936C9.71468 2.11557 9.37867 1.53129 8.8935 1.11361C8.62817 0.926263 8.33606 0.78008 8.02706 0.680017C7.34038 0.452472 6.72828 0.467894 6.58139 0.494947C6.21454 0.56321 5.93011 0.958632 5.88131 1.31841C5.86184 1.45822 5.87777 1.59095 5.94224 1.69259C5.95362 1.69689 5.965 1.70119 5.97739 1.70473C6.27623 1.7922 6.54347 1.8453 6.78921 1.89334C7.31307 1.99725 7.74313 2.08245 8.26269 2.44956C8.31616 2.4867 8.36686 2.52768 8.41439 2.57218C8.43082 2.5828 8.4465 2.59443 8.46293 2.6058C8.93092 2.93777 9.27577 3.62217 9.3898 4.43198C9.46845 5.00978 9.43089 5.59747 9.27931 6.16056C9.22645 6.35363 9.15953 6.54258 9.07907 6.72588Z" fill="#FFD748"/>
<path fill-rule="evenodd" clip-rule="evenodd" d="M2.30655 15.5197C2.2307 14.6819 2.59048 13.799 3.43189 13.2949C3.00208 13.2354 2.63422 12.9682 2.38113 12.5768C2.30961 12.4971 2.24491 12.4115 2.18772 12.321C2.1489 12.2593 2.11321 12.1956 2.08078 12.1303C1.87093 11.7819 1.74679 11.344 1.74199 10.8705C1.64291 10.9155 1.53862 10.9479 1.43151 10.9671C1.5417 10.9112 1.6459 10.8441 1.74249 10.7671C1.74249 10.7299 1.74553 10.6912 1.74755 10.6541C1.56845 10.7441 1.37529 10.8028 1.17641 10.8278C1.24872 10.7825 1.31749 10.7388 1.38423 10.6943C1.33974 10.7072 1.29398 10.718 1.24746 10.7266C1.47685 10.6087 1.65956 10.462 1.79559 10.2867L1.80292 10.2521C1.63656 10.3962 1.42435 10.4973 1.1663 10.5555C0.983806 11.1908 0.9278 11.8557 1.00146 12.5126C1.06972 13.1404 0.977941 13.3907 0.867455 13.6923C0.765727 13.9517 0.700632 14.224 0.674043 14.5014C0.517796 15.9784 0.809559 17.1108 1.39637 17.9449C2.19202 18.9008 3.41393 19.409 4.77617 19.5523C5.19231 19.5951 5.61105 19.6069 6.02893 19.5875C5.53895 19.4148 5.04138 19.0679 4.58933 18.534L4.57643 18.5183C4.49831 18.425 4.42069 18.3254 4.3456 18.2207C4.21602 18.0607 4.09565 17.8935 3.98507 17.7198C3.52842 17.5592 3.13662 17.2541 2.86909 16.8506C2.54613 16.4784 2.34922 16.0135 2.30655 15.5225V15.5197ZM4.58857 12.9131C5.70228 12.7735 7.23947 13.0994 9.23251 14.2384C9.26349 14.2558 9.28791 14.2829 9.30203 14.3155C9.31614 14.3481 9.31916 14.3844 9.31063 14.4189C9.34577 14.4389 9.38167 14.4591 9.41758 14.4799C9.45513 14.5013 9.48264 14.5367 9.49407 14.5784C9.5055 14.62 9.4999 14.6645 9.47851 14.7021C9.45712 14.7396 9.42169 14.7672 9.38001 14.7786C9.33833 14.79 9.29382 14.7844 9.25627 14.763C6.68982 13.2966 4.94481 13.2208 3.91984 13.7408C3.09866 14.158 2.74596 14.9666 2.81625 15.7311C2.84488 16.0574 2.9521 16.372 3.12874 16.6479C3.37641 16.9214 3.69755 17.1179 4.05384 17.2139C5.09954 17.5065 6.6883 17.11 8.75239 15.2967C8.80015 15.3658 8.86165 15.4242 8.93304 15.4684C9.00443 15.5125 9.08418 15.5415 9.16728 15.5534C9.1958 15.5859 9.21025 15.6284 9.20745 15.6715C9.20465 15.7146 9.18484 15.7549 9.15236 15.7834C9.04693 15.8752 8.94378 15.964 8.84138 16.0487C8.89562 16.4091 8.91475 16.774 8.89852 17.1381C8.89952 17.1481 8.89952 17.1582 8.89852 17.1682C8.85756 17.8847 8.65682 18.4616 8.35241 18.8831C8.23883 19.0411 8.10427 19.1829 7.95244 19.3046C8.08071 19.2731 8.20847 19.2393 8.33573 19.2034C9.07887 18.9932 9.79492 18.6969 10.4693 18.3206C10.4736 18.3175 10.4787 18.3155 10.483 18.3127C10.7662 18.1531 11.0395 17.9764 11.3014 17.7838C11.3146 17.7697 11.3302 17.7581 11.3474 17.7494C11.398 17.7128 11.4447 17.6756 11.4928 17.6374C13.3662 16.1554 14.1695 13.9517 12.2432 11.5157C12.2218 11.4889 12.2095 11.4559 12.208 11.4217C12.1537 10.1512 11.8849 9.12624 11.4635 8.31998C11.359 8.11926 11.2407 7.92606 11.1095 7.74176C10.7902 7.34987 10.4036 7.01811 9.96773 6.76205C9.93402 6.87026 9.89887 6.98033 9.8623 7.09225C9.85517 7.11435 9.84335 7.13465 9.82764 7.15176C9.81193 7.16887 9.7927 7.18237 9.77128 7.19135C9.48887 7.33875 9.26563 7.32813 9.10129 7.25507C8.97114 7.19582 8.8644 7.09495 8.7979 6.96836C8.79059 6.95574 8.78434 6.94255 8.77919 6.92892C8.71113 6.87293 8.65463 6.80423 8.61283 6.72666C8.55847 6.62325 8.54987 6.5115 8.57212 6.46144C8.60297 6.39191 8.63078 6.32239 8.65656 6.25286C8.18378 6.15451 7.66902 6.131 7.14744 6.16614C6.44839 6.21595 5.75919 6.35931 5.09827 6.59241C5.1249 6.81388 5.14547 7.04851 5.15996 7.29628C5.16236 7.33797 5.1488 7.37901 5.12204 7.41106C4.94708 7.61737 4.76378 7.68184 4.61031 7.674C4.48933 7.66875 4.37361 7.62308 4.28164 7.5443C4.21211 7.48489 4.16989 7.40449 4.16332 7.35063C4.14019 7.33632 4.11814 7.32035 4.09733 7.30285C4.04082 7.25596 4.00005 7.19286 3.98052 7.12208C2.66405 7.89194 1.63352 9.05141 1.19765 10.4533C1.5093 10.2455 1.75058 10.0432 1.92149 9.84655C2.23272 9.02385 2.9098 8.47774 3.64072 8.54499C4.09935 8.58671 4.49351 8.8633 4.7615 9.27819C5.0338 9.57931 5.22317 9.99572 5.29244 10.4665C5.35608 10.7451 5.37468 11.032 5.34756 11.3165C5.29168 11.9048 5.05883 12.4206 4.72611 12.7783C4.68161 12.8264 4.63585 12.8709 4.58857 12.9131ZM4.6093 7.67501L9.1473 13.6498C8.57819 13.7022 8.03638 13.4514 7.62073 13.0036C7.53123 12.9063 7.44909 12.8026 7.37498 12.6931C6.99574 12.2537 6.73432 11.6447 6.67111 10.956C6.63739 10.6043 6.66043 10.2495 6.73937 9.9052C6.9027 8.78214 7.61921 7.91292 8.55164 7.82772C9.24768 7.76325 9.90477 8.15083 10.3467 8.79807C10.5502 9.03799 10.7138 9.30901 10.8314 9.6008C11.0771 9.84368 11.4084 10.0933 11.8253 10.3497C11.7373 10.3375 11.6533 10.3216 11.5724 10.3024C11.7064 10.3976 11.8521 10.4939 12.0096 10.5911C11.6197 10.5367 11.3029 10.4132 11.0592 10.2207C11.1961 10.3401 11.3472 10.442 11.5092 10.5241C11.4121 10.5065 11.3166 10.4803 11.224 10.446C11.3664 10.5723 11.5244 10.6797 11.6943 10.7656C11.4639 10.7267 11.246 10.634 11.0584 10.4948C11.062 10.5234 11.065 10.5527 11.0678 10.582C11.1345 11.3059 10.9752 11.984 10.6633 12.502C10.6233 12.5825 10.5794 12.661 10.5315 12.7371C10.2046 13.2531 9.71743 13.5985 9.14831 13.6508L4.6093 7.67501Z" fill="#FFDE3E"/>
<path fill-rule="evenodd" clip-rule="evenodd" d="M7.76781 22.3991C8.11191 22.3991 8.39204 22.0801 8.39204 21.6889C8.39204 21.2978 8.11191 20.9792 7.76781 20.9792C7.42371 20.9792 7.14282 21.2983 7.14282 21.6889C7.14282 22.0796 7.42321 22.3991 7.76781 22.3991Z" fill="#FFE35A"/>
<path fill-rule="evenodd" clip-rule="evenodd" d="M7.05053 23.8838C7.21107 23.8838 7.34153 23.7346 7.34153 23.5529C7.34153 23.3711 7.21107 23.2224 7.05053 23.2224C6.88998 23.2224 6.75952 23.3706 6.75952 23.5529C6.75952 23.7351 6.89074 23.8838 7.05053 23.8838Z" fill="#FFE35A"/>
<path fill-rule="evenodd" clip-rule="evenodd" d="M8.45933 24.1024C8.73087 24.1024 8.95234 23.8495 8.95234 23.5418C8.95234 23.2342 8.73087 22.9813 8.45933 22.9813C8.18779 22.9813 7.96606 23.2342 7.96606 23.5418C7.96606 23.8495 8.18754 24.1024 8.45933 24.1024Z" fill="#FFE35A"/>
<path fill-rule="evenodd" clip-rule="evenodd" d="M7.62902 27.7251C7.71069 27.9021 7.61411 28.1213 7.4126 28.2146C7.2111 28.3079 6.98128 28.2399 6.89962 28.0629C6.81795 27.8859 6.91453 27.6667 7.11604 27.5734C7.31754 27.4802 7.54736 27.5482 7.62902 27.7251Z" fill="#FFE35A"/>
<path fill-rule="evenodd" clip-rule="evenodd" d="M6.30608 27.8888C6.34476 27.972 6.29951 28.0736 6.20495 28.1164C6.11039 28.1591 6.00269 28.128 5.96552 28.0448C5.92836 27.9616 5.9726 27.8605 6.06665 27.8173C6.1607 27.774 6.26714 27.8059 6.30532 27.8883L6.30608 27.8888Z" fill="#FFE35A"/>
<path fill-rule="evenodd" clip-rule="evenodd" d="M6.7638 28.5558C6.82827 28.6956 6.75166 28.8691 6.59238 28.9422C6.4331 29.0152 6.25283 28.9616 6.18786 28.8218C6.12288 28.682 6.19999 28.5086 6.35902 28.4355C6.51805 28.3624 6.69958 28.416 6.76354 28.5558H6.7638Z" fill="#FFE35A"/>
<path fill-rule="evenodd" clip-rule="evenodd" d="M22.9734 10.4447C23.0781 10.6722 22.9539 10.9521 22.6953 11.071C22.4366 11.1898 22.1434 11.1026 22.0379 10.876C21.9325 10.6495 22.0574 10.3686 22.316 10.2498C22.5747 10.1309 22.868 10.2182 22.9734 10.4447Z" fill="#DE598A"/>
<path fill-rule="evenodd" clip-rule="evenodd" d="M21.2809 10.6546C21.3294 10.76 21.2715 10.8905 21.1509 10.9464C21.0303 11.0023 20.8945 10.9608 20.8458 10.8554C20.797 10.7499 20.8543 10.619 20.9747 10.5636C21.095 10.5082 21.2321 10.5487 21.2809 10.6546Z" fill="#DE598A"/>
<path fill-rule="evenodd" clip-rule="evenodd" d="M21.8661 11.5081C21.9485 11.6874 21.8512 11.9088 21.6477 12.0026C21.4441 12.0964 21.2118 12.0279 21.1294 11.8479C21.0469 11.6679 21.1445 11.4479 21.3481 11.3541C21.5516 11.2603 21.7837 11.3288 21.8661 11.5081Z" fill="#DE598A"/>
<path fill-rule="evenodd" clip-rule="evenodd" d="M19.2091 18.2982C19.3135 18.5258 19.1896 18.8056 18.931 18.9245C18.6723 19.0433 18.3798 18.9561 18.2736 18.729C18.1674 18.502 18.2931 18.2216 18.5517 18.1025C18.8104 17.9834 19.1036 18.0709 19.2091 18.2982Z" fill="#DE598A"/>
<path fill-rule="evenodd" clip-rule="evenodd" d="M17.5159 18.5073C17.5647 18.6132 17.5065 18.7437 17.3869 18.7988C17.2673 18.8539 17.1296 18.814 17.0808 18.7078C17.032 18.6016 17.0901 18.4721 17.2099 18.4163C17.3298 18.3604 17.4671 18.4019 17.5159 18.5073Z" fill="#DE598A"/>
<path fill-rule="evenodd" clip-rule="evenodd" d="M18.1015 19.3611C18.1846 19.5401 18.0863 19.7616 17.8828 19.8556C17.6792 19.9497 17.4471 19.8809 17.3647 19.7014C17.2823 19.5219 17.3799 19.3009 17.5834 19.2069C17.7869 19.1128 18.019 19.1816 18.1015 19.3611Z" fill="#DE598A"/>
<path fill-rule="evenodd" clip-rule="evenodd" d="M29.6859 16.2539C29.7906 16.4815 29.6667 16.7596 29.4078 16.8797C29.1489 16.9998 28.8562 16.912 28.7505 16.6847C28.6448 16.4574 28.7697 16.1773 29.0286 16.0585C29.2875 15.9396 29.5803 16.0269 29.6859 16.2539Z" fill="#DE598A"/>
<path fill-rule="evenodd" clip-rule="evenodd" d="M27.993 16.4636C28.0418 16.569 27.9837 16.7002 27.8641 16.7553C27.7445 16.8105 27.6067 16.7698 27.5579 16.6643C27.5091 16.5589 27.5665 16.4277 27.6869 16.3726C27.8072 16.3175 27.9442 16.3577 27.993 16.4636Z" fill="#DE598A"/>
<path fill-rule="evenodd" clip-rule="evenodd" d="M28.5788 17.3168C28.662 17.4961 28.5636 17.7175 28.3601 17.8113C28.1566 17.9051 27.9245 17.8366 27.842 17.6574C27.7596 17.4781 27.857 17.2566 28.0605 17.1628C28.264 17.069 28.4964 17.1376 28.5788 17.3168Z" fill="#DE598A"/>
</svg>
