<svg width="30" height="30" viewBox="0 0 30 30" fill="none" xmlns="http://www.w3.org/2000/svg">
<g clip-path="url(#clip0_48_6415)">
<path d="M24.0647 20.3711C22.9295 23.2402 20.5109 23.0331 19.1196 22.159C18.6709 21.8773 18.3294 21.5259 18.1721 21.1863L18.8107 17.6094L19.0988 15.9948L19.1655 15.6198C19.1655 15.6198 19.38 16.4703 19.8138 17.2468C20.2909 18.0977 21.0326 18.8595 22.0455 18.3083C22.0461 18.3083 24.7248 18.7024 24.0647 20.3711Z" fill="white"/>
<g opacity="0.2">
<path d="M24.0646 20.3711C22.5633 24.1654 18.8176 22.5797 18.1726 21.1864L18.6099 17.9989C19.9224 19.5567 21.3945 24.7695 23.9493 19.2277C24.1683 19.5177 24.2541 19.8917 24.0646 20.3711Z" fill="#000072"/>
</g>
<path d="M21.0592 22.9309C20.4353 22.9309 19.7767 22.7551 19.1957 22.4318C18.6284 22.1163 18.1905 21.6924 17.994 21.2685C17.9742 21.2215 17.9733 21.1687 17.9917 21.1212C18.0101 21.0736 18.0462 21.0351 18.0925 21.0137C18.1387 20.9923 18.1915 20.9897 18.2396 21.0065C18.2877 21.0233 18.3275 21.0581 18.3504 21.1036C18.677 21.8098 19.9035 22.5725 21.1406 22.5371C21.9966 22.5128 23.1669 22.1049 23.8813 20.2991C24.01 19.974 24.0028 19.6951 23.8591 19.4466C23.6446 19.0754 23.1612 18.8393 22.7933 18.7071C22.5603 18.6237 22.3209 18.559 22.0776 18.5137C21.6464 18.7301 21.2243 18.7505 20.8223 18.5743C19.5835 18.0313 18.9993 15.7648 18.975 15.6685C18.9687 15.6435 18.9674 15.6175 18.9711 15.5919C18.9749 15.5664 18.9836 15.5418 18.9969 15.5197C19.0101 15.4975 19.0276 15.4782 19.0483 15.4628C19.069 15.4474 19.0926 15.4362 19.1176 15.4299C19.1427 15.4236 19.1687 15.4223 19.1942 15.426C19.2198 15.4298 19.2443 15.4385 19.2665 15.4518C19.2886 15.465 19.308 15.4825 19.3234 15.5032C19.3388 15.524 19.35 15.5475 19.3563 15.5725C19.3617 15.5943 19.9177 17.7496 20.9808 18.2149C21.2892 18.3499 21.6069 18.3243 21.952 18.1367L22.0098 18.1054L22.0746 18.1149C22.1401 18.1246 23.6857 18.3611 24.1999 19.2507C24.4045 19.6048 24.4204 20.0063 24.2472 20.4441C23.9161 21.2812 23.4564 21.9199 22.8809 22.3425C22.3747 22.7143 21.7931 22.912 21.1525 22.9302C21.1214 22.9306 21.0904 22.9309 21.0592 22.9309Z" fill="#000072"/>
<path d="M17.6228 21.7453C17.6228 21.7453 19.4 22.4492 19.5893 24.1892C19.8533 26.6142 17.8194 27.9827 17.8194 27.9827H13.7351V21.5563" fill="white"/>
<g opacity="0.2">
<path d="M19.5669 25.2122C19.2863 26.9957 17.8192 27.9827 17.8192 27.9827H13.7349V27.2894H16.3638C17.7084 27.2894 18.9533 26.53 19.5223 25.3116C19.5376 25.2792 19.5524 25.246 19.5669 25.2122Z" fill="#000072"/>
</g>
<path d="M17.879 28.179H13.5388V21.5563C13.5388 21.5042 13.5595 21.4542 13.5963 21.4174C13.6332 21.3806 13.6831 21.3599 13.7352 21.3599C13.7873 21.3599 13.8373 21.3806 13.8741 21.4174C13.911 21.4542 13.9317 21.5042 13.9317 21.5563V27.7864H17.7561C17.8888 27.6875 18.2844 27.3717 18.6535 26.8677C19.2485 26.0551 19.4977 25.1611 19.3942 24.2103C19.3218 23.5445 18.9934 22.9598 18.4181 22.4728C17.9791 22.1013 17.5546 21.9298 17.5503 21.9276C17.5032 21.9075 17.4659 21.8698 17.4462 21.8225C17.4266 21.7752 17.4261 21.7222 17.445 21.6746C17.4639 21.627 17.5006 21.5887 17.5473 21.5678C17.5941 21.5469 17.6471 21.545 17.6952 21.5626C17.7145 21.5704 18.1747 21.7551 18.6614 22.1644C18.949 22.4062 19.187 22.677 19.3689 22.9694C19.5964 23.3323 19.7386 23.742 19.7848 24.1678C19.8491 24.7399 19.7898 25.319 19.611 25.8662C19.4686 26.3013 19.2501 26.7205 18.9616 27.112C18.4715 27.777 17.9511 28.131 17.9291 28.1458L17.879 28.179Z" fill="#000072"/>
<path d="M17.3067 27.8196C17.8898 27.4856 18.8416 27.6948 18.9906 28.0817C19.1099 28.3916 19.0695 28.9521 18.6653 29.207C18.3418 29.4109 17.8726 29.4104 16.7111 29.4071H10.9521V24.8679L17.3067 27.8196Z" fill="white"/>
<g opacity="0.3">
<path d="M18.6654 29.2067C18.3419 29.4109 17.8728 29.4104 16.7111 29.407H10.9521V24.8678L11.0215 24.8997V28.7096H16.7804C17.9421 28.713 18.4114 28.7135 18.7348 28.5098C18.8595 28.4303 18.9588 28.3167 19.021 28.1825C19.0984 28.5015 19.0287 28.9776 18.6654 29.2067Z" fill="#000072"/>
</g>
<path d="M17.2903 27.7912C17.385 27.7184 17.4907 27.6612 17.6034 27.6218C17.717 27.5814 17.8349 27.5545 17.9547 27.5416C18.0147 27.5352 18.0752 27.5315 18.136 27.5311C18.1968 27.5306 18.2577 27.5336 18.3187 27.5396C18.3801 27.5459 18.4412 27.5554 18.5016 27.568C18.5633 27.5813 18.6241 27.5984 18.6836 27.6193C18.7456 27.641 18.8057 27.6681 18.863 27.7002C18.9257 27.7348 18.9835 27.7776 19.0349 27.8273C19.0634 27.8551 19.0891 27.8855 19.1118 27.9181C19.1177 27.9268 19.1233 27.9353 19.129 27.9446C19.1346 27.9538 19.1405 27.963 19.1449 27.9727C19.1493 27.9824 19.1549 27.9922 19.1594 28.0024C19.1616 28.0072 19.1643 28.0131 19.1658 28.0171L19.1708 28.0296C19.1952 28.094 19.2132 28.1605 19.2248 28.2284C19.2475 28.3595 19.25 28.4934 19.2322 28.6253C19.2146 28.7607 19.1737 28.8919 19.1114 29.0133C19.0454 29.1406 18.9523 29.2519 18.8386 29.3394C18.8102 29.3611 18.7805 29.3812 18.7497 29.3995C18.7197 29.4177 18.6889 29.4341 18.6572 29.4493C18.5959 29.4783 18.5324 29.5025 18.4673 29.5215C18.4056 29.5392 18.343 29.5537 18.2798 29.5647C18.2181 29.5756 18.1574 29.5841 18.0977 29.5902C17.9778 29.6027 17.8608 29.6096 17.7449 29.6133C17.2821 29.6274 16.8327 29.6152 16.3799 29.612L15.7013 29.606C15.4751 29.6041 15.249 29.6043 15.0228 29.6034L14.3443 29.605L13.6657 29.6094C12.7609 29.6166 11.8563 29.6293 10.9516 29.6209L10.7361 29.6189L10.7378 29.4072L10.7423 28.8398L10.7494 28.2724C10.7546 27.8941 10.7609 27.5158 10.7725 27.1376C10.784 26.7593 10.8012 26.381 10.8244 26.0027C10.8357 25.8136 10.8489 25.6245 10.8641 25.4354C10.8794 25.2463 10.8962 25.0572 10.9183 24.868C10.9192 24.86 10.9231 24.8526 10.9291 24.8473C10.9352 24.8419 10.9429 24.839 10.951 24.839C10.959 24.839 10.9668 24.8419 10.9729 24.8473C10.9789 24.8526 10.9827 24.86 10.9837 24.868C11.0056 25.0572 11.0225 25.2463 11.0379 25.4354C11.0532 25.6246 11.0662 25.8136 11.0775 26.0027C11.1006 26.381 11.1179 26.7593 11.1294 27.1376C11.1409 27.5158 11.148 27.8941 11.1532 28.2724L11.1601 28.8398L11.1647 29.4072L10.951 29.1933C11.8558 29.1849 12.7606 29.1976 13.6654 29.2049L14.3441 29.2093L15.0227 29.2109C15.2489 29.21 15.475 29.2102 15.7012 29.2082L16.3799 29.2022L16.7193 29.1988L17.0583 29.1967C17.2836 29.1959 17.5089 29.1933 17.7284 29.1861C17.8385 29.1819 17.9479 29.1765 18.0527 29.166C18.1531 29.1576 18.2527 29.1408 18.3502 29.1156C18.394 29.1039 18.4368 29.0888 18.4783 29.0705C18.517 29.0531 18.5539 29.0319 18.5885 29.0073C18.6561 28.958 18.712 28.8944 18.7522 28.821C18.7958 28.7419 18.8254 28.6559 18.8398 28.5668C18.8556 28.4746 18.8578 28.3806 18.8461 28.2877C18.8406 28.2437 18.831 28.2003 18.8174 28.1581L18.8132 28.1457C18.8124 28.1427 18.8114 28.1397 18.8102 28.1368C18.8091 28.1336 18.8078 28.1305 18.8063 28.1275C18.8048 28.1242 18.8032 28.1209 18.8014 28.1178C18.7933 28.1029 18.7837 28.089 18.7728 28.0761C18.7455 28.0444 18.7145 28.0163 18.6803 27.9922C18.6414 27.9649 18.6004 27.9406 18.5577 27.9195C18.5127 27.8972 18.4664 27.8776 18.4191 27.8608C18.3705 27.8433 18.321 27.8283 18.2709 27.8159C18.2204 27.8027 18.1688 27.7928 18.1167 27.784C18.0646 27.7752 18.012 27.7693 17.959 27.7655C17.747 27.7503 17.5292 27.7701 17.3217 27.8482H17.3211C17.3137 27.851 17.3056 27.8511 17.2981 27.8484C17.2907 27.8457 17.2845 27.8404 17.2806 27.8335C17.2768 27.8266 17.2755 27.8186 17.277 27.8108C17.2786 27.8031 17.2829 27.7961 17.2891 27.7913L17.2903 27.7912Z" fill="#000072"/>
<path d="M23.261 17.4351C23.261 17.2343 23.4509 16.3785 24.0159 16.5695C24.7534 16.8188 23.9528 18.16 23.9119 18.5086" fill="white"/>
<path d="M23.9123 18.7048C23.8845 18.7048 23.8571 18.699 23.8317 18.6876C23.8064 18.6763 23.7838 18.6597 23.7653 18.6389C23.7469 18.6182 23.733 18.5938 23.7247 18.5673C23.7164 18.5408 23.7137 18.5128 23.717 18.4853C23.7302 18.3727 23.7908 18.2164 23.8672 18.0186C24.0053 17.6625 24.2138 17.1245 24.097 16.8748C24.0699 16.817 24.0253 16.7798 23.9527 16.7553C23.8669 16.7263 23.8004 16.7335 23.7372 16.7784C23.5553 16.909 23.457 17.3024 23.457 17.4344C23.457 17.4865 23.4364 17.5365 23.3995 17.5733C23.3627 17.6102 23.3127 17.6309 23.2606 17.6309C23.2085 17.6309 23.1586 17.6102 23.1217 17.5733C23.0849 17.5365 23.0642 17.4865 23.0642 17.4344C23.0642 17.2592 23.1695 16.7024 23.5082 16.4593C23.6751 16.3396 23.8722 16.3133 24.0783 16.3828C24.2509 16.4412 24.3803 16.5537 24.4525 16.708C24.6405 17.1098 24.4051 17.7169 24.233 18.1603C24.1744 18.3115 24.1138 18.4678 24.1059 18.5307C24.1005 18.5783 24.0778 18.6224 24.0421 18.6544C24.0064 18.6865 23.9603 18.7044 23.9123 18.7048Z" fill="#000072"/>
<path d="M0.595491 23.0345C0.678979 23.3159 0.777131 23.5927 0.889543 23.8639C3.07616 29.1363 9.56228 29.0169 9.56228 29.0169L9.75997 27.531C9.55812 27.4963 9.35454 27.4589 9.15003 27.4165C6.66879 26.9099 4.0794 25.8373 3.00937 23.8425C2.5241 22.9374 2.35079 21.8784 2.42381 20.9342C2.53242 19.5272 3.18858 18.3735 4.17587 18.3597C4.80118 18.3512 4.88067 19.0761 4.88969 19.2628C4.93902 20.355 5.38039 20.9761 6.3715 20.8743C6.68092 20.8426 7.03598 20.5728 7.26544 20.1292C7.55429 19.5707 7.64441 18.7359 7.19346 17.7513C5.47421 13.9963 -1.53497 15.8686 0.595491 23.0345Z" fill="white"/>
<path d="M1.50686 16.9935C1.3131 17.717 1.09322 19.2915 2.77365 19.4878C3.0796 18.8148 3.56407 18.3683 4.17586 18.3598C4.80116 18.3512 4.88066 19.0761 4.88967 19.2628C4.939 20.355 5.38037 20.9761 6.37148 20.8744C6.6809 20.8426 7.03596 20.5728 7.26542 20.1292C7.55427 19.5707 7.6444 18.736 7.19344 17.7513C6.16316 15.5 3.23108 15.2716 1.50686 16.9935Z" fill="#F9744B"/>
<g opacity="0.5">
<path d="M7.19356 18.2136C7.36295 18.5833 7.45607 18.9322 7.49097 19.2534C7.54331 18.7906 7.47098 18.242 7.19356 17.6359C5.66923 14.3065 -0.0129573 15.401 0.202758 20.6861C0.407843 15.9027 5.72654 15.0092 7.19356 18.2136Z" fill="white"/>
</g>
<g opacity="0.2">
<path d="M2.42371 20.9343C2.53232 19.5273 3.18848 18.3736 4.17577 18.3599C4.80108 18.3513 4.88057 19.0762 4.88958 19.2629C4.93892 20.3551 5.38029 20.9762 6.3714 20.8744C6.68082 20.8427 7.03587 20.5729 7.26534 20.1293C6.97649 20.2809 6.63899 20.3238 6.30635 20.2963C5.54274 20.2342 5.38849 19.3005 5.28092 18.3206C5.15533 17.178 3.28888 17.1016 2.75254 18.6136C2.4541 19.4541 2.40141 20.3 2.42371 20.9343Z" fill="#000072"/>
</g>
<g opacity="0.2">
<path d="M0.889648 23.8639C3.07626 29.1363 9.56238 29.0169 9.56238 29.0169L9.76007 27.531C9.55822 27.4963 9.35464 27.4589 9.15013 27.4165C8.19669 27.638 6.19714 27.8324 3.66298 26.5744C2.5368 26.0159 1.61733 24.9916 0.889648 23.8639Z" fill="#000072"/>
</g>
<path d="M9.52418 29.2138C9.39593 29.2138 8.98437 29.2076 8.39372 29.1372C7.746 29.06 6.75177 28.8874 5.69353 28.5031C4.49953 28.0696 3.46902 27.4607 2.63077 26.6934C1.58028 25.7318 0.832148 24.5196 0.407188 23.0904C0.125615 22.1429 -0.0111861 21.2417 0.00071457 20.4107C0.0122687 19.6431 0.148954 18.935 0.408805 18.306C0.8764 17.1737 1.73302 16.3253 2.82084 15.9169C3.67653 15.5957 4.59936 15.5784 5.41947 15.868C5.83631 16.014 6.22002 16.2412 6.54831 16.5366C6.89296 16.8473 7.17015 17.2285 7.37211 17.6695C7.60319 18.1753 7.71481 18.6758 7.70244 19.1572C7.6917 19.5731 7.58621 19.9677 7.39718 20.2981C7.14681 20.7359 6.76171 21.0316 6.39198 21.0696C5.923 21.1178 5.5416 21.0184 5.25841 20.7743C4.91548 20.4786 4.72553 19.9732 4.69364 19.2723C4.69087 19.2125 4.67527 19.0037 4.58769 18.8243C4.49734 18.6395 4.36747 18.5541 4.17879 18.5566C3.63852 18.5641 3.28531 18.9726 3.08404 19.3147C2.50541 20.2967 2.34331 22.1855 3.18248 23.7501C4.448 26.1096 7.86755 27.0108 9.79327 27.3381C9.84315 27.3484 9.8871 27.3776 9.91585 27.4196C9.9446 27.4617 9.9559 27.5132 9.94737 27.5634C9.93884 27.6136 9.91115 27.6586 9.87014 27.6887C9.82913 27.7189 9.778 27.732 9.72753 27.7252C8.22007 27.469 6.84016 27.0468 5.73698 26.5039C4.36412 25.8284 3.38826 24.9643 2.8369 23.9356C2.43655 23.1891 2.21459 22.2781 2.21194 21.3707C2.20928 20.5061 2.39911 19.7053 2.7462 19.1159C2.91697 18.8259 3.12055 18.5971 3.35106 18.4358C3.60236 18.2599 3.87919 18.1686 4.17371 18.1645H4.18723C4.81334 18.1645 5.06268 18.7503 5.08556 19.255C5.11236 19.8443 5.25667 20.2555 5.51456 20.4778C5.71549 20.6511 5.98932 20.7172 6.35165 20.6799C6.59429 20.655 6.87066 20.429 7.05645 20.1041C7.22318 19.8128 7.55328 19.0081 7.01521 17.8339C6.22745 16.1133 4.37833 15.7525 2.95903 16.2857C1.2303 16.9335 -0.376642 19.076 0.78362 22.9785C1.51754 25.4479 3.21067 27.181 5.81635 28.1298C7.77489 28.8436 9.54174 28.8213 9.55988 28.821C9.61197 28.82 9.6623 28.8398 9.6998 28.876C9.7373 28.9122 9.75889 28.9618 9.75982 29.0139C9.76076 29.066 9.74096 29.1163 9.70479 29.1538C9.66861 29.1913 9.61902 29.2129 9.56693 29.2138C9.563 29.2136 9.54833 29.2138 9.52418 29.2138Z" fill="#000072"/>
<path d="M19.5122 19.3307C19.4595 20.2827 19.3284 21.2287 19.12 22.1591C18.7146 23.9868 18.1089 25.3923 17.7674 26.1516C16.8687 28.1521 16.4148 28.5678 15.6353 29.056C14.7981 29.5802 12.3642 29.7515 12.3642 29.7515H10.4967C9.74573 29.7515 8.45063 29.5366 8.19748 29.3167C7.94433 29.0968 7.85594 28.74 7.62821 28.4872C5.68412 26.3287 6.77668 24.0285 8.02625 21.5721C8.78397 20.0811 9.48207 18.485 10.002 17.2279C10.566 15.8654 10.9223 14.901 10.9223 14.901C10.9223 14.901 18.3451 13.9671 18.7372 14.901C18.8496 15.1695 18.9487 15.4357 19.0346 15.6995L19.0989 15.9951L19.4047 17.4056L19.4665 17.6897C19.5266 18.2345 19.5418 18.7833 19.5122 19.3307Z" fill="white"/>
<g opacity="0.2">
<path d="M18.6099 24.0069C18.3011 24.9403 17.9821 25.6735 17.7672 26.1516C16.8686 28.1521 16.4146 28.5678 15.6352 29.0561C14.7979 29.5803 12.3641 29.7515 12.3641 29.7515H10.7969L11.3501 26.7366H12.3641C12.3641 26.7366 14.7159 21.8705 14.8279 22.8516C15.2897 26.8947 17.6371 25.5082 18.6099 24.0069Z" fill="#000072"/>
</g>
<path d="M19.0064 15.7086C18.9333 15.5405 18.8591 15.3736 18.7818 15.2087C18.7431 15.1263 18.7041 15.0441 18.6637 14.9626L18.6562 14.9474C18.6543 14.9428 18.652 14.9385 18.6495 14.9342C18.6462 14.9283 18.6423 14.9227 18.638 14.9174C18.6284 14.9055 18.6175 14.8947 18.6055 14.8851C18.5766 14.8627 18.545 14.844 18.5116 14.8293C18.4352 14.7963 18.3556 14.7714 18.274 14.755C18.1899 14.7364 18.103 14.7229 18.0154 14.7121C17.8399 14.6905 17.661 14.6791 17.4813 14.6721C17.3016 14.6652 17.121 14.663 16.9402 14.6636C16.7594 14.6642 16.578 14.6671 16.3966 14.6716C16.0338 14.681 15.6703 14.6964 15.3068 14.7152C14.9433 14.7341 14.5789 14.7595 14.216 14.7876C13.8531 14.8156 13.4889 14.8471 13.1255 14.8816C12.7621 14.9162 12.3991 14.9526 12.0362 14.9921C11.8548 15.0119 11.6734 15.0321 11.4921 15.0527C11.3112 15.0736 11.1292 15.0953 10.9498 15.1179L11.1277 14.9766C11.0547 15.1743 10.9804 15.3685 10.9053 15.5638C10.8302 15.759 10.7543 15.9531 10.6773 16.1472C10.5233 16.5354 10.3663 16.9222 10.2064 17.3077C9.88564 18.0787 9.55404 18.8452 9.2058 19.6047C9.03179 19.9846 8.85378 20.3627 8.67177 20.7391C8.58033 20.927 8.4879 21.1146 8.39447 21.3018C8.30088 21.4887 8.20533 21.6755 8.11105 21.8601C7.92248 22.2298 7.73692 22.6001 7.56488 22.9744C7.39284 23.3488 7.23328 23.7268 7.10041 24.1117C6.96754 24.4965 6.86366 24.8888 6.80821 25.2851C6.75275 25.6814 6.74882 26.0811 6.81433 26.4695C6.8312 26.5664 6.85038 26.6629 6.87591 26.7583L6.88504 26.794L6.89521 26.8295C6.90214 26.8526 6.9085 26.8767 6.91589 26.9002C6.93103 26.947 6.94558 26.9939 6.9628 27.04C6.98001 27.0861 6.99746 27.1324 7.01514 27.178C7.0245 27.2011 7.03443 27.2232 7.04402 27.246L7.05858 27.28L7.07406 27.3135L7.10526 27.3806L7.13854 27.4467L7.15517 27.4797L7.17285 27.5123L7.20821 27.5775C7.30632 27.7502 7.41651 27.9158 7.53796 28.0729C7.59943 28.1516 7.66228 28.2294 7.72884 28.304L7.77944 28.3618C7.80001 28.3849 7.81965 28.4087 7.83791 28.4326C7.87359 28.4792 7.90683 28.5276 7.9375 28.5776C7.99747 28.6742 8.04681 28.769 8.09614 28.8559C8.14548 28.9428 8.194 29.0222 8.24819 29.087C8.26159 29.1035 8.27558 29.1185 8.28967 29.1332C8.29672 29.1404 8.304 29.1474 8.31116 29.1542L8.32272 29.1642L8.32549 29.1667C8.32616 29.1674 8.32689 29.168 8.32768 29.1686L8.32988 29.1703C8.3414 29.1791 8.35365 29.1868 8.36651 29.1934C8.3828 29.2023 8.40117 29.2113 8.4215 29.22C8.46137 29.2374 8.5055 29.2536 8.55079 29.2687C8.59609 29.2839 8.64323 29.2977 8.69071 29.3109C8.88159 29.3635 9.08124 29.4033 9.28148 29.438C9.48171 29.4727 9.6846 29.4994 9.88714 29.5199C10.0897 29.5405 10.2927 29.5546 10.4911 29.5546H12.3645H12.3507L12.4579 29.5462L12.5664 29.5367C12.6388 29.53 12.7112 29.5229 12.7836 29.5155C12.9285 29.5007 13.0732 29.4841 13.2176 29.466C13.5065 29.4295 13.794 29.3868 14.0787 29.3345C14.3634 29.2821 14.6449 29.22 14.9171 29.1392C15.0507 29.1004 15.1819 29.0535 15.3099 28.999C15.3707 28.9728 15.4299 28.9433 15.4874 28.9107C15.5014 28.9028 15.5143 28.8944 15.528 28.8863L15.5734 28.8574C15.6039 28.8381 15.6336 28.8185 15.6636 28.799C15.7228 28.7596 15.7817 28.7199 15.8382 28.6788C15.867 28.6585 15.8943 28.6372 15.9224 28.6164C15.9505 28.5956 15.9774 28.574 16.0033 28.5517C16.0571 28.5084 16.1082 28.4624 16.1587 28.4157C16.1832 28.3917 16.2086 28.3686 16.2323 28.3436L16.2685 28.3069L16.3031 28.2691C16.3973 28.1667 16.485 28.0587 16.5659 27.9456C16.648 27.832 16.7254 27.7132 16.7995 27.5915C16.8736 27.4697 16.9438 27.3446 17.0124 27.2178C17.0471 27.1547 17.08 27.0907 17.1135 27.0264C17.147 26.962 17.1796 26.8977 17.2114 26.8324L17.2596 26.7349L17.3068 26.6367C17.3387 26.5714 17.3693 26.5053 17.4005 26.4395L17.493 26.2413L17.5836 26.042C17.8242 25.5093 18.0494 24.9727 18.2513 24.4262C18.3019 24.2896 18.3511 24.1526 18.3989 24.0151C18.4226 23.9458 18.4469 23.8776 18.4698 23.8085C18.4926 23.7394 18.516 23.6704 18.5383 23.6011C18.6279 23.3238 18.712 23.0449 18.7905 22.7644C18.869 22.4838 18.9407 22.2014 19.0056 21.917C19.0713 21.633 19.1306 21.3475 19.1833 21.0604C19.2361 20.7733 19.2819 20.4851 19.3208 20.1956C19.3391 20.0507 19.3588 19.9058 19.3735 19.7605C19.391 19.6152 19.4031 19.4696 19.4171 19.324V19.3218C19.4193 19.2971 19.4311 19.2743 19.4499 19.2582C19.4687 19.2421 19.493 19.234 19.5177 19.2357C19.5424 19.2373 19.5655 19.2485 19.5821 19.2669C19.5986 19.2853 19.6073 19.3094 19.6063 19.3341C19.6012 19.4819 19.5981 19.63 19.5895 19.7778C19.5829 19.9258 19.5713 20.0734 19.5613 20.2212C19.5367 20.5164 19.5048 20.8111 19.4657 21.1054C19.3856 21.6936 19.275 22.2772 19.1346 22.854C19.0642 23.1424 18.9869 23.4291 18.9027 23.7141C18.8821 23.7854 18.8601 23.8563 18.8383 23.9274C18.8166 23.9984 18.7942 24.0692 18.7715 24.1399C18.7261 24.2813 18.6791 24.422 18.6301 24.5623C18.4353 25.1233 18.2115 25.6751 17.9697 26.2153L17.8783 26.4178L17.7846 26.6197C17.7213 26.754 17.6575 26.8881 17.5898 27.0212C17.5568 27.0879 17.5219 27.154 17.4879 27.2205C17.4539 27.2869 17.4186 27.3529 17.3818 27.4186C17.31 27.5502 17.235 27.6809 17.1548 27.8095C17.0746 27.9381 16.9904 28.0654 16.899 28.1892C16.8073 28.3145 16.7081 28.4341 16.6018 28.5473L16.5615 28.5898L16.52 28.6314C16.4926 28.6594 16.4635 28.6857 16.4352 28.7123C16.3774 28.7649 16.3184 28.8163 16.2573 28.8651C16.1368 28.9608 16.0115 29.0504 15.8819 29.1335C15.8501 29.1538 15.8183 29.1745 15.7865 29.1942L15.7387 29.2241C15.7207 29.2349 15.7025 29.2462 15.6844 29.2563C15.6138 29.2958 15.541 29.3314 15.4664 29.3628C15.3235 29.4225 15.1773 29.4741 15.0285 29.5172C14.736 29.6032 14.4425 29.6657 14.1486 29.72C13.8548 29.7743 13.5604 29.8177 13.2656 29.8549C13.1181 29.8734 12.9706 29.8903 12.8229 29.9055C12.749 29.9132 12.675 29.9204 12.601 29.9271L12.4898 29.9368L12.3772 29.9457L12.371 29.9463H10.4899C10.2719 29.9455 10.0592 29.9304 9.84728 29.9094C9.63538 29.8884 9.42509 29.8595 9.21527 29.8239C9.00545 29.7883 8.7962 29.7458 8.58546 29.6879C8.53277 29.6734 8.47985 29.6577 8.42647 29.6399C8.37309 29.6221 8.31925 29.6025 8.26379 29.5784C8.23594 29.5661 8.20764 29.5527 8.17829 29.5368C8.1451 29.5192 8.11354 29.4986 8.08401 29.4753L8.07107 29.4647C8.06864 29.4627 8.06737 29.4616 8.06587 29.4602L8.06136 29.4561L8.04345 29.4399C8.0319 29.4289 8.02035 29.4177 8.00879 29.4064C7.98684 29.3832 7.96546 29.3601 7.94594 29.3365C7.86691 29.2411 7.80729 29.1415 7.75402 29.0476C7.70076 28.9537 7.65373 28.8633 7.60382 28.7831C7.58003 28.7444 7.55431 28.7069 7.52676 28.6707C7.51347 28.6534 7.49983 28.637 7.48585 28.6212L7.4334 28.5614C7.36176 28.4805 7.29371 28.3965 7.22693 28.3112C7.09385 28.1389 6.97316 27.9574 6.86574 27.7681L6.82669 27.696L6.80717 27.6599L6.78868 27.6232L6.75228 27.5507L6.71762 27.4762L6.70041 27.4388L6.68423 27.4011C6.67348 27.3759 6.66239 27.3508 6.65199 27.3254C6.63212 27.2742 6.61132 27.2235 6.59353 27.1715C6.55598 27.0682 6.52421 26.9629 6.49613 26.8566C6.46805 26.7503 6.44575 26.6428 6.4268 26.5346L6.41363 26.4538L6.40277 26.3722C6.39896 26.345 6.39619 26.3178 6.39353 26.2905C6.39087 26.2632 6.38741 26.2361 6.38567 26.2087C6.37631 26.0995 6.37262 25.9902 6.37169 25.881C6.37077 25.7718 6.37574 25.663 6.38325 25.5545C6.39076 25.446 6.40254 25.3382 6.4171 25.231C6.47637 24.802 6.58752 24.386 6.72328 23.9832C6.85904 23.5804 7.02288 23.1892 7.197 22.8062C7.37112 22.4232 7.55668 22.0475 7.74386 21.6739C7.83791 21.487 7.9308 21.3026 8.02243 21.1166C8.11405 20.9305 8.20429 20.7441 8.29372 20.557C8.47227 20.1828 8.64662 19.8064 8.81677 19.4278C9.15715 18.6708 9.48541 17.9083 9.80153 17.1402C9.95935 16.7561 10.115 16.371 10.2685 15.9848C10.345 15.7917 10.4209 15.5985 10.4962 15.4051C10.571 15.2119 10.6456 15.0174 10.7178 14.8248L10.7647 14.6993L10.8957 14.6835C11.0795 14.6612 11.2613 14.6405 11.4439 14.6203C11.6266 14.6001 11.809 14.5808 11.9917 14.5625C12.3569 14.5257 12.7225 14.4916 13.0884 14.4601C13.4544 14.4287 13.8207 14.4011 14.1873 14.3774C14.5541 14.3537 14.9213 14.3344 15.289 14.3196C15.6568 14.3047 16.0253 14.2965 16.3946 14.301C16.764 14.3055 17.1341 14.3207 17.505 14.3603C17.6918 14.3796 17.8775 14.4083 18.0614 14.4465C18.1539 14.4667 18.2463 14.4902 18.3387 14.52C18.4345 14.5497 18.5267 14.5899 18.6136 14.6398C18.6614 14.6675 18.7051 14.7017 18.7437 14.7412C18.7649 14.7632 18.7835 14.7876 18.799 14.8139C18.8073 14.8278 18.8144 14.8423 18.8204 14.8574C18.824 14.8659 18.8253 14.8701 18.8272 14.8758L18.833 14.8922C18.8631 14.9797 18.8923 15.0674 18.9194 15.1557C18.9742 15.3321 19.0234 15.5102 19.0636 15.69C19.0652 15.6973 19.0639 15.7049 19.0602 15.7114C19.0565 15.7178 19.0505 15.7227 19.0434 15.725C19.0363 15.7273 19.0286 15.727 19.0218 15.724C19.015 15.721 19.0095 15.7156 19.0064 15.7088V15.7086Z" fill="#000072"/>
<path d="M22.9783 14.3355C22.9764 14.3393 22.974 14.3427 22.9722 14.3465L22.9803 14.333C22.9794 14.3337 22.9788 14.3345 22.9783 14.3355Z" fill="#000072"/>
<path d="M22.9721 14.3463L22.7371 14.7233C22.8182 14.6013 22.8972 14.4765 22.9721 14.3463Z" fill="#000072"/>
<path d="M22.9786 14.2141C22.9771 14.2156 22.9757 14.2173 22.9748 14.2183L22.969 14.2262L22.9786 14.2141Z" fill="#000072"/>
<path d="M22.7415 14.5053C22.82 14.4152 22.8963 14.3224 22.9692 14.2261L22.7415 14.5053Z" fill="#000072"/>
<path d="M7.11155 14.5053L6.88428 14.228C6.95672 14.3236 7.03252 14.4157 7.11155 14.5053Z" fill="#000072"/>
<path d="M23.1475 14.1085C23.1443 14.1122 23.1411 14.1164 23.1379 14.1202L23.1495 14.1072L23.1475 14.1085Z" fill="#000072"/>
<path d="M23.1385 14.1199L22.905 14.3812C22.906 14.3812 22.9064 14.3798 22.9072 14.3794C22.9872 14.2956 23.0643 14.2091 23.1385 14.1199Z" fill="#000072"/>
<path d="M15.4118 22.341C14.8818 25.0194 14.8996 28.4794 14.9199 28.5364C14.9267 28.5558 15.7823 28.8946 15.3161 29.3787C14.6666 30.0535 12.5662 29.7946 12.3583 29.4891C12.0543 29.0415 11.1996 23.7844 11.4679 21.3502" fill="white"/>
<path d="M15.4757 22.3537C15.4912 22.404 15.5024 22.4557 15.5091 22.508C15.5161 22.5585 15.5197 22.6083 15.5216 22.6576C15.5236 22.707 15.5227 22.7558 15.5201 22.8044C15.5176 22.8529 15.5128 22.9008 15.5086 22.949C15.4993 23.0452 15.4871 23.1409 15.4721 23.2361C15.4572 23.3315 15.4393 23.4264 15.4227 23.5216L15.4104 23.593L15.3988 23.6647C15.3911 23.7124 15.3841 23.7603 15.3777 23.8082C15.365 23.904 15.3538 24.0001 15.343 24.0961C15.3208 24.2887 15.3005 24.4812 15.282 24.6738C15.2081 25.4448 15.16 26.2193 15.1318 26.9944C15.1183 27.3817 15.1094 27.7698 15.1087 28.156C15.1087 28.2523 15.1087 28.3493 15.1112 28.443L15.1123 28.4777C15.1123 28.4885 15.1132 28.4999 15.1138 28.5071C15.1138 28.5082 15.1138 28.5103 15.1138 28.5083C15.1138 28.5093 15.1138 28.5027 15.1125 28.4996C15.1384 28.5174 15.0456 28.3661 15.0412 28.3832C15.0319 28.3761 15.0291 28.3747 15.0281 28.3739C15.027 28.3731 15.0263 28.373 15.0266 28.373L15.0303 28.3751L15.0606 28.391C15.1057 28.4141 15.1531 28.4405 15.1993 28.4687C15.2984 28.5271 15.3893 28.5983 15.4698 28.6806C15.5157 28.7284 15.555 28.7822 15.5867 28.8405C15.6235 28.9082 15.6452 28.9831 15.6504 29.06C15.6528 29.1 15.6505 29.1402 15.6433 29.1797C15.6364 29.2174 15.6255 29.2542 15.6108 29.2896C15.5841 29.3523 15.5482 29.4107 15.5043 29.4629C15.4272 29.554 15.3356 29.6318 15.2331 29.6931C15.1381 29.7503 15.0374 29.7977 14.9327 29.8346C14.8328 29.8701 14.7306 29.899 14.6268 29.9211C14.4251 29.9633 14.2203 29.9884 14.0144 29.9961C13.8116 30.0047 13.6085 30.0009 13.4062 29.9845C13.2024 29.9689 13 29.9389 12.8004 29.8946C12.6959 29.8715 12.5931 29.8408 12.493 29.8029C12.4666 29.7926 12.4401 29.7814 12.4129 29.7682C12.384 29.7545 12.3559 29.739 12.3288 29.722C12.3132 29.7124 12.2982 29.7019 12.2837 29.6907C12.2665 29.6777 12.2503 29.6634 12.2352 29.648L12.2224 29.6342C12.2181 29.6294 12.2137 29.6239 12.2094 29.6187C12.2052 29.6135 12.2007 29.6072 12.1965 29.6011C12.1923 29.5949 12.1903 29.5916 12.1871 29.5867L12.1826 29.5796L12.1789 29.5732L12.1718 29.5605C12.1674 29.5523 12.1637 29.5449 12.1602 29.5374C12.1455 29.5075 12.1347 29.4808 12.1244 29.4544C12.1141 29.4281 12.1052 29.4027 12.0968 29.3776C12.0798 29.3272 12.065 29.2781 12.0506 29.2291C12.0226 29.1314 11.9981 29.0347 11.975 28.938C11.9288 28.7448 11.8885 28.5521 11.8503 28.3591C11.7744 27.9733 11.7084 27.5871 11.6479 27.2002C11.5874 26.8132 11.5331 26.426 11.4838 26.0371C11.4346 25.6482 11.3914 25.2597 11.3528 24.8702L11.3231 24.5779L11.2947 24.2852C11.2764 24.0901 11.2593 23.8946 11.2465 23.6988C11.2194 23.3061 11.2133 22.9123 11.228 22.519C11.2366 22.3219 11.2533 22.1247 11.2804 21.9281C11.2939 21.8299 11.3101 21.7317 11.3301 21.6343C11.35 21.5369 11.373 21.4397 11.4026 21.344C11.4072 21.3292 11.4167 21.3165 11.4296 21.308C11.4425 21.2995 11.458 21.2957 11.4734 21.2974C11.4887 21.299 11.503 21.3059 11.5139 21.317C11.5247 21.328 11.5314 21.3424 11.5327 21.3578C11.541 21.4557 11.5472 21.5527 11.5534 21.6496L11.5715 21.9392C11.5832 22.1318 11.5943 22.3243 11.6048 22.5169L11.6667 23.6731C11.6868 24.0591 11.7095 24.4459 11.7447 24.8318C11.78 25.2177 11.8256 25.6029 11.8734 25.9872C11.9213 26.3715 11.976 26.7559 12.0352 27.1388C12.0944 27.5217 12.1604 27.9037 12.235 28.2826C12.2724 28.4719 12.312 28.6606 12.3563 28.8464C12.3785 28.9388 12.4025 29.0312 12.4275 29.1208C12.4402 29.1656 12.4536 29.2096 12.4678 29.2517C12.4748 29.2727 12.4821 29.2931 12.4895 29.3123C12.4969 29.3315 12.5046 29.3498 12.5115 29.3635L12.5161 29.3724L12.5179 29.3756L12.5187 29.3771V29.3777C12.5187 29.3777 12.5194 29.379 12.5187 29.3788C12.518 29.3785 12.5171 29.3764 12.5167 29.3758C12.5162 29.3751 12.5156 29.3746 12.5154 29.3743C12.522 29.3801 12.5291 29.3854 12.5368 29.3898C12.551 29.3987 12.5657 29.4066 12.5809 29.4137C12.5977 29.4217 12.6156 29.4295 12.635 29.4368C12.7172 29.4676 12.8015 29.4925 12.8872 29.5114C13.0682 29.5512 13.2519 29.5783 13.4367 29.5923C13.6229 29.6076 13.8098 29.6114 13.9964 29.6038C14.1801 29.5971 14.3628 29.5748 14.5428 29.5374C14.6296 29.519 14.7151 29.4949 14.7987 29.4652C14.8781 29.4373 14.9545 29.4015 15.0267 29.3583C15.092 29.3197 15.1505 29.2706 15.2 29.2131C15.2189 29.1909 15.2345 29.1661 15.2462 29.1394C15.254 29.1219 15.2576 29.1028 15.2568 29.0837C15.255 29.0629 15.2487 29.0428 15.2383 29.0247C15.2231 28.9975 15.2044 28.9724 15.1825 28.9501C15.126 28.8934 15.0624 28.8442 14.9933 28.8038C14.9564 28.7807 14.9184 28.7604 14.877 28.7389L14.8424 28.7209L14.8301 28.7141L14.8207 28.7085C14.8135 28.7042 14.8065 28.6994 14.7999 28.6943C14.7927 28.7098 14.6986 28.5557 14.7242 28.5703C14.723 28.5641 14.7218 28.5546 14.7216 28.5527C14.7207 28.5447 14.7205 28.5411 14.7201 28.5356C14.7189 28.5186 14.7184 28.5055 14.7178 28.4921L14.7167 28.4533C14.7142 28.3523 14.7139 28.2546 14.7139 28.156C14.7146 27.7632 14.7236 27.372 14.737 26.9806C14.7651 26.1983 14.8136 25.4167 14.8884 24.6364C14.9072 24.4413 14.9278 24.2464 14.9502 24.0515L14.9848 23.7593C14.9906 23.7106 14.996 23.6619 15.001 23.613C15.0063 23.5642 15.0113 23.5154 15.0162 23.4664C15.0263 23.3687 15.0361 23.2708 15.0502 23.1735C15.0643 23.0762 15.0824 22.9794 15.1045 22.8834C15.1161 22.8354 15.1277 22.7875 15.1413 22.7399C15.1553 22.6921 15.1717 22.645 15.1905 22.5988C15.2097 22.5517 15.2317 22.5057 15.2561 22.4611C15.2814 22.4142 15.3112 22.3699 15.3449 22.3287C15.3534 22.3185 15.3646 22.3108 15.3771 22.3063C15.3897 22.3019 15.4032 22.3009 15.4163 22.3034C15.4293 22.3059 15.4415 22.3119 15.4515 22.3207C15.4615 22.3295 15.469 22.3408 15.4731 22.3534L15.4757 22.3537Z" fill="#000072"/>
<path d="M13.7781 28.6021C13.8674 28.5598 13.9593 28.5228 14.0531 28.4916C14.1483 28.4595 14.2453 28.4329 14.3435 28.4118L14.4184 28.3967L14.4944 28.3851C14.5198 28.3808 14.5456 28.3786 14.5714 28.3758C14.5971 28.373 14.6231 28.3695 14.6494 28.3689L14.7284 28.3652C14.7549 28.3642 14.7815 28.3652 14.8084 28.3652L14.8487 28.366C14.8622 28.366 14.8757 28.368 14.8892 28.3691L14.9712 28.3765C14.9945 28.3781 15.0172 28.3844 15.0381 28.3949C15.059 28.4055 15.0775 28.4201 15.0927 28.4379C15.1078 28.4557 15.1193 28.4763 15.1264 28.4986C15.1335 28.5209 15.136 28.5443 15.1339 28.5676C15.1318 28.5909 15.1251 28.6135 15.1141 28.6342C15.1032 28.6548 15.0882 28.6731 15.0701 28.6879C15.052 28.7027 15.0311 28.7137 15.0087 28.7203C14.9862 28.7269 14.9627 28.729 14.9395 28.7264C14.9224 28.7251 14.9056 28.7212 14.8897 28.7149L14.8825 28.7119L14.8225 28.6874C14.8123 28.6835 14.8022 28.6788 14.7918 28.6753L14.7603 28.665C14.7391 28.6584 14.7181 28.6507 14.6964 28.6448L14.6305 28.628C14.5399 28.607 14.4478 28.5926 14.3551 28.5849C14.2598 28.577 14.1641 28.5743 14.0685 28.5771C13.9713 28.5795 13.8743 28.5879 13.7781 28.6021Z" fill="#000072"/>
<path d="M22.7371 14.6023C22.8161 14.5115 22.8928 14.4177 22.9672 14.321L22.7371 14.6023Z" fill="white"/>
<path d="M7.12669 14.6023L6.89746 14.3215C6.9706 14.4182 7.04766 14.5115 7.12669 14.6023Z" fill="white"/>
<g opacity="0.2">
<path d="M19.8144 17.2468C19.6785 17.3023 19.5421 17.3551 19.4052 17.4054C19.2078 17.4784 19.0099 17.5465 18.8113 17.6095C15.9082 18.5312 12.8785 18.4067 10.0024 17.2282C10.5664 15.8658 10.9227 14.9014 10.9227 14.9014C10.9227 14.9014 18.3455 13.9675 18.7377 14.9014C18.85 15.1699 18.9491 15.4361 19.0351 15.6999L19.0993 15.9954L19.1661 15.6204C19.1661 15.6204 19.381 16.4705 19.8144 17.2468Z" fill="#000072"/>
</g>
<path d="M4.97951 12.6853C5.02365 13.0696 5.80794 12.7054 5.97882 12.6214C5.99246 12.6146 6.00725 12.6288 6.00332 12.6455C5.98761 12.7117 5.94555 12.8609 5.83844 13.0995C5.70592 13.3939 5.59789 13.6222 5.65774 13.7768C5.72209 13.9407 5.98853 14.004 6.32082 13.9667C6.50685 13.9456 6.70615 14.108 6.88374 14.3043H6.88432L6.8857 14.3058L6.89726 14.3211C6.89437 14.3167 6.8909 14.3128 6.88802 14.3082C6.9749 14.4045 7.05636 14.5091 7.12846 14.6038C7.42754 14.9437 7.76369 15.249 8.13066 15.5141C8.60438 15.8469 9.12651 16.1095 9.67717 16.3152V16.3112C9.67717 16.3112 10.4325 16.5899 11.5489 16.8456C11.5489 16.8456 12.5472 17.0591 13.4596 17.177C13.9465 17.2302 14.4358 17.2578 14.9256 17.2599C15.4192 17.2576 15.9122 17.2299 16.4029 17.177C17.3148 17.0591 18.3136 16.8456 18.3136 16.8456C19.4301 16.5899 20.1854 16.3112 20.1854 16.3112V16.3152C20.7361 16.1095 21.2583 15.8469 21.7319 15.5141C22.0986 15.2489 22.4346 14.9435 22.7336 14.6038C22.8068 14.508 22.8887 14.403 22.9763 14.3058C22.9729 14.3108 22.969 14.3156 22.9655 14.3206L22.9788 14.3039L22.9769 14.3054C23.1549 14.1089 23.3547 13.9451 23.5412 13.9663C23.8735 14.0036 24.14 13.9403 24.2043 13.7763C24.2647 13.6217 24.1562 13.3934 24.0241 13.099C23.9167 12.8604 23.8745 12.7113 23.8588 12.6451C23.8553 12.6283 23.8695 12.6141 23.8833 12.6209C24.0541 12.7049 24.8383 13.0691 24.8826 12.6848C24.9076 12.4718 24.5621 11.8279 24.4418 11.1682C24.0929 9.25666 23.9912 8.87919 23.9912 8.87919C23.9888 8.86648 23.6506 7.49619 23.1451 6.48754C23.6501 5.14186 23.9809 1.21701 23.1357 0.39749C22.4575 -0.261082 19.9068 1.12042 18.9498 2.08667C17.5024 1.48205 15.2575 1.39124 14.9297 1.39182C14.8168 1.39182 14.4771 1.4021 14.0212 1.44081C13.1515 1.51452 11.8587 1.69014 10.91 2.08667C9.95297 1.12042 7.40229 -0.260735 6.7236 0.39749C5.87842 1.21701 6.20921 5.14186 6.71424 6.48754C6.39477 7.12508 6.14197 7.90694 5.99916 8.39925C5.91574 8.68636 5.86906 8.8748 5.86813 8.87966C5.86813 8.87966 5.7675 9.25712 5.41857 11.1687C5.30048 11.8283 4.95502 12.4722 4.97951 12.6853Z" fill="white"/>
<path d="M6.53161 5.84838C6.31127 4.89426 6.16592 3.48468 6.21896 2.31763C6.2676 3.53529 6.47176 4.79513 6.71659 5.44873C6.65235 5.57698 6.59065 5.71135 6.53161 5.84838Z" fill="white"/>
<g opacity="0.2">
<path d="M24.0258 13.0997C24.1577 13.394 24.2662 13.6223 24.2059 13.7769C24.1415 13.9409 23.8751 14.0041 23.5428 13.9669C23.3563 13.9457 23.1565 14.1091 22.9784 14.306L22.9803 14.3045L22.9671 14.3212C22.9705 14.3163 22.9744 14.3114 22.9779 14.3065C22.89 14.4036 22.8081 14.5086 22.7353 14.6044C22.4362 14.9442 22.1003 15.2495 21.7335 15.5148C21.2598 15.8475 20.7377 16.1101 20.187 16.3158V16.3119C20.187 16.3119 19.4313 16.5905 18.3147 16.8462C18.3147 16.8462 17.3159 17.0597 16.404 17.1776C15.9133 17.2305 15.4202 17.2582 14.9267 17.2605C14.4369 17.2585 13.9476 17.2308 13.4607 17.1776C12.5479 17.0597 11.5501 16.8462 11.5501 16.8462C10.4331 16.5905 9.67764 16.3119 9.67764 16.3119V16.3158C9.12698 16.1101 8.60484 15.8475 8.13113 15.5148C7.76416 15.2496 7.428 14.9443 7.12892 14.6044C7.05683 14.5097 6.97537 14.4051 6.88848 14.3089C6.89149 14.3134 6.89484 14.3173 6.89784 14.3217L6.88629 14.3065L6.88479 14.305C6.70708 14.1085 6.50778 13.9468 6.32187 13.9673C5.98958 14.0046 5.72302 13.9414 5.65878 13.7774C5.59893 13.6228 5.70685 13.3945 5.83937 13.1001C5.87034 13.0308 5.89576 12.9691 5.9169 12.9153C6.02886 12.9408 6.1682 12.9452 6.32187 12.9281C6.50778 12.9069 6.70708 13.0694 6.88479 13.2657L6.88629 13.2671L6.89784 13.2823C6.89484 13.2779 6.89149 13.274 6.88848 13.2696C6.97537 13.3657 7.05683 13.4703 7.12892 13.565C7.42797 13.9049 7.76413 14.2103 8.13113 14.4754C8.60484 14.8081 9.12698 15.0707 9.67764 15.2764V15.2725C9.67764 15.2725 10.4331 15.5513 11.5501 15.807C11.5501 15.807 12.5484 16.0204 13.4607 16.1382C13.9476 16.1914 14.4369 16.2191 14.9267 16.2212C15.4202 16.2188 15.9133 16.1911 16.404 16.1382C17.3159 16.0204 18.3147 15.807 18.3147 15.807C19.4313 15.5513 20.187 15.2725 20.187 15.2725V15.2764C20.7377 15.0707 21.2599 14.8081 21.7335 14.4754C22.1003 14.2101 22.4363 13.9048 22.7353 13.565C22.8084 13.4693 22.8903 13.3642 22.9779 13.2671C22.9744 13.272 22.9705 13.2769 22.9671 13.2819L22.9803 13.2651C22.9797 13.2656 22.9791 13.2661 22.9784 13.2666C23.1565 13.0702 23.3563 12.9064 23.5428 12.9275C23.6963 12.9446 23.8358 12.9402 23.9472 12.9147C23.969 12.9686 23.9946 13.0304 24.0258 13.0997Z" fill="#000072"/>
</g>
<path d="M6.00122 8.39924C6.29381 8.43533 6.58834 8.45335 6.88314 8.4532C10.784 8.4532 13.9543 5.32545 14.0236 1.4408C13.1539 1.51451 11.8611 1.69013 10.9124 2.08666C9.95538 1.12041 7.4047 -0.260739 6.72601 0.397485C5.88083 1.217 6.21162 5.14186 6.71665 6.48754C6.39683 7.12508 6.14403 7.90693 6.00122 8.39924Z" fill="#F9744B"/>
<path d="M22.9655 14.3226L22.7371 14.6019C22.8161 14.5119 22.8923 14.4191 22.9655 14.3226Z" fill="#000072"/>
<path d="M7.12662 14.6019L6.89819 14.3226C6.97179 14.4191 7.04817 14.5119 7.12662 14.6019Z" fill="#000072"/>
<path d="M21.2506 3.81905C21.9199 4.49842 22.3407 5.44815 22.4006 5.33735C22.4072 5.32499 22.4131 5.31221 22.4181 5.2991C22.5452 4.98865 22.7583 3.75701 22.7578 2.65951C22.7572 2.4825 22.7525 2.32618 22.7429 2.18834C22.7175 1.8163 22.662 1.57783 22.5935 1.4252C22.5087 1.23872 22.318 1.18153 22.1489 1.24404C21.6995 1.41099 20.4229 2.2059 20.0068 2.71566C19.9326 2.80589 20.5807 3.13934 21.2506 3.81905Z" fill="#FA508E"/>
<g opacity="0.2">
<path d="M21.2506 3.81905C21.9199 4.49842 22.3407 5.44815 22.4006 5.33735C22.4072 5.32499 22.4131 5.31221 22.4181 5.2991C22.2692 4.72314 21.8584 3.92708 21.5437 3.35158C21.1133 2.56592 21.7069 1.94201 22.2215 1.75484C22.3979 1.69071 22.6073 1.96581 22.7429 2.18834C22.7175 1.8163 22.662 1.57783 22.5935 1.4252C22.5087 1.23872 22.318 1.18153 22.1489 1.24404C21.6995 1.41099 20.4229 2.2059 20.0068 2.71566C19.9326 2.80589 20.5807 3.13934 21.2506 3.81905Z" fill="#000072"/>
</g>
<path d="M22.3874 5.51911C22.2735 5.51911 22.2035 5.42021 22.1563 5.35423C22.112 5.2915 22.0565 5.20403 21.9924 5.10155C21.796 4.7896 21.4997 4.31912 21.1265 3.94039C20.7875 3.59643 20.4581 3.3464 20.2176 3.16385C19.9527 2.96304 19.8432 2.87985 19.8284 2.75588C19.8251 2.72921 19.8273 2.70214 19.8347 2.67632C19.8422 2.6505 19.8548 2.62647 19.8719 2.60568C20.3138 2.0645 21.6293 1.25168 22.0883 1.08161C22.3558 0.982476 22.6343 1.09686 22.7507 1.35359C22.8713 1.62152 22.93 2.04844 22.9305 2.65918C22.9314 3.79538 22.7025 5.14222 22.5528 5.41928C22.5374 5.44847 22.5145 5.47308 22.4866 5.49059C22.4586 5.5081 22.4265 5.5179 22.3935 5.51899L22.3874 5.51911ZM20.2245 2.73035C20.2788 2.77518 20.356 2.83433 20.4271 2.88783C20.662 3.06599 21.0171 3.33542 21.3735 3.6966C21.7731 4.10214 22.0816 4.59214 22.2857 4.91646L22.3305 4.98728C22.4406 4.52513 22.5846 3.57863 22.5839 2.65894C22.5839 2.10586 22.5333 1.71453 22.4349 1.4957C22.3852 1.38617 22.282 1.37889 22.2089 1.40604C21.8164 1.55208 20.6943 2.23931 20.2245 2.73035Z" fill="#000072"/>
<path d="M8.66592 3.81905C7.99659 4.49842 7.57579 5.44815 7.51594 5.33735C7.50928 5.32499 7.50342 5.31221 7.49838 5.2991C7.37129 4.98865 7.15823 3.75701 7.15869 2.65951C7.15869 2.4825 7.16401 2.32618 7.1736 2.18834C7.19901 1.8163 7.25448 1.57783 7.32299 1.4252C7.4078 1.23872 7.59856 1.18153 7.76771 1.24404C8.21705 1.41099 9.49377 2.2059 9.90972 2.71566C9.9839 2.80589 9.33583 3.13934 8.66592 3.81905Z" fill="#FA508E"/>
<g opacity="0.2">
<path d="M8.66591 3.81905C7.99658 4.49842 7.57578 5.44815 7.51593 5.33735C7.50927 5.32499 7.5034 5.31221 7.49837 5.2991C7.6473 4.72314 8.05805 3.92708 8.3729 3.35158C8.80317 2.56592 8.20964 1.94201 7.69502 1.75484C7.51859 1.69071 7.30923 1.96581 7.17358 2.18834C7.199 1.8163 7.25446 1.57783 7.32298 1.4252C7.40779 1.23872 7.59854 1.18153 7.7677 1.24404C8.21703 1.41099 9.49376 2.2059 9.90971 2.71566C9.98389 2.80589 9.33582 3.13934 8.66591 3.81905Z" fill="#000072"/>
</g>
<path d="M7.5291 5.51908H7.52252C7.48954 5.51799 7.45744 5.50819 7.42947 5.49068C7.40151 5.47317 7.37868 5.44856 7.3633 5.41937C7.2131 5.14208 6.98479 3.79547 6.9856 2.65926C6.9856 2.04841 7.04475 1.6215 7.16515 1.35368C7.28173 1.09649 7.56041 0.982103 7.82777 1.08124C8.2867 1.25131 9.60225 2.06412 10.0442 2.60531C10.0612 2.6261 10.0739 2.65013 10.0813 2.67595C10.0888 2.70177 10.0909 2.72884 10.0876 2.75551C10.0729 2.87948 9.96332 2.96267 9.6985 3.16348C9.45794 3.34603 9.12854 3.59605 8.78954 3.94001C8.41634 4.31875 8.1194 4.78957 7.92379 5.10118C7.85955 5.20308 7.80421 5.29112 7.75972 5.35386C7.71304 5.42006 7.64302 5.51908 7.5291 5.51908ZM7.63424 1.39319C7.57647 1.39319 7.51524 1.41988 7.48046 1.49718C7.38225 1.71554 7.3321 2.10687 7.33164 2.65996C7.33095 3.57976 7.47503 4.52626 7.58514 4.9883C7.60016 4.96461 7.61518 4.94069 7.62985 4.91736C7.83401 4.59315 8.14251 4.10315 8.54263 3.69761C8.89907 3.33598 9.25413 3.06654 9.48902 2.88884C9.5602 2.83477 9.63738 2.77619 9.69168 2.73136C9.22224 2.24032 8.10011 1.55287 7.70727 1.40752C7.6842 1.3983 7.65966 1.39329 7.63482 1.39273L7.63424 1.39319Z" fill="#000072"/>
<path d="M16.391 17.0801C16.7071 17.015 17.0229 16.9498 17.3384 16.8811L17.811 16.7771L18.0468 16.7238L18.1644 16.6969L18.2231 16.6834L18.2524 16.6764L18.28 16.6699L18.5117 16.61C18.5893 16.5891 18.667 16.5693 18.7442 16.5477C18.8993 16.5063 19.0533 16.4618 19.2074 16.4174C19.3616 16.373 19.5146 16.3259 19.6673 16.2777C19.7436 16.2538 19.8196 16.2292 19.8954 16.2039L20.0084 16.1657L20.0644 16.146L20.1188 16.1266L20.3836 16.0317V16.3113V16.3153L20.1179 16.1304C20.3539 16.042 20.5853 15.9418 20.8111 15.83C21.0359 15.7184 21.2538 15.5935 21.4637 15.456C21.4897 15.4387 21.5162 15.4213 21.5416 15.404L21.6176 15.3514L21.6918 15.2963C21.7167 15.2773 21.7419 15.2586 21.7665 15.2391C21.8656 15.1621 21.9621 15.0823 22.0562 14.9997C22.1502 14.9172 22.2414 14.8315 22.3296 14.7428C22.3518 14.7208 22.3736 14.6984 22.3953 14.6759C22.417 14.6534 22.4384 14.6307 22.4598 14.608C22.4812 14.5852 22.502 14.5617 22.5231 14.5386C22.5337 14.5271 22.5439 14.5155 22.5543 14.504L22.5698 14.4865L22.5775 14.4777L22.5814 14.4734L22.5833 14.4712C22.578 14.4773 22.5731 14.4837 22.5685 14.4905C22.5676 14.4918 22.5697 14.4885 22.5739 14.4827C22.5803 14.4741 22.5873 14.466 22.595 14.4584C22.6075 14.4461 22.6216 14.4354 22.6368 14.4267L22.5853 14.469C22.6661 14.3765 22.7438 14.2812 22.8163 14.1838L22.8212 14.1773L22.8257 14.1725C22.8329 14.1641 22.8409 14.1564 22.8495 14.1494L22.8561 14.1442L22.8505 14.1486C22.8422 14.1553 22.8345 14.1628 22.8274 14.1709L23.1357 14.4315L22.8909 14.7319L22.5732 14.4811C22.6772 14.3448 22.7861 14.2059 22.9171 14.0743C22.9855 14.0045 23.0607 13.9415 23.1414 13.8863C23.1872 13.8555 23.2359 13.8292 23.2868 13.8076C23.3456 13.7824 23.408 13.7668 23.4717 13.7614C23.4892 13.7601 23.5067 13.7597 23.5243 13.7602C23.5332 13.7602 23.5421 13.7609 23.5511 13.7617L23.5714 13.7637C23.5899 13.7657 23.6085 13.7673 23.6269 13.7686C23.6637 13.7711 23.7002 13.7723 23.7358 13.7717C23.7704 13.7713 23.8048 13.7689 23.8391 13.7645C23.8699 13.7608 23.9003 13.7546 23.93 13.7459C23.9525 13.7396 23.9741 13.7304 23.9942 13.7184C24.0017 13.7142 24.0083 13.7084 24.0136 13.7016C24.0161 13.6941 24.0171 13.6863 24.0167 13.6784C24.016 13.6533 24.0124 13.6283 24.006 13.6039C23.9975 13.5705 23.9871 13.5375 23.975 13.5053C23.9624 13.4706 23.9477 13.4343 23.9321 13.3976C23.9008 13.324 23.8661 13.2486 23.831 13.1702C23.7951 13.0893 23.761 13.0084 23.7299 12.9229C23.7144 12.8805 23.6997 12.8373 23.6859 12.7926C23.6791 12.7702 23.6725 12.7475 23.6664 12.7233L23.6618 12.7054L23.6596 12.6961L23.6584 12.6916C23.6584 12.6934 23.6563 12.6825 23.6556 12.6778C23.6549 12.673 23.6537 12.6662 23.6532 12.6593C23.6481 12.6042 23.6631 12.5492 23.6955 12.5043C23.7262 12.4615 23.771 12.431 23.8221 12.4181C23.8731 12.4052 23.9271 12.4109 23.9744 12.4341L23.9817 12.4376L23.995 12.444L24.0217 12.4567C24.0396 12.4652 24.0577 12.4734 24.0759 12.4815C24.1121 12.4977 24.1485 12.5131 24.1852 12.5277C24.2583 12.5573 24.3319 12.5838 24.4047 12.6051C24.4714 12.6258 24.54 12.6399 24.6095 12.6471C24.6338 12.6495 24.6582 12.6489 24.6823 12.6454C24.6867 12.6448 24.691 12.6436 24.6952 12.6419C24.6921 12.6435 24.6893 12.6455 24.6869 12.6481C24.6828 12.6522 24.6793 12.6569 24.6768 12.6622C24.6754 12.6653 24.6768 12.6647 24.6768 12.6597C24.6768 12.6636 24.6768 12.6569 24.6756 12.6454C24.6745 12.634 24.6717 12.6196 24.6682 12.6039C24.6611 12.5722 24.6509 12.5362 24.6393 12.4999C24.6278 12.4637 24.615 12.4252 24.6014 12.3867C24.5473 12.2326 24.4859 12.0729 24.4301 11.9101C24.3743 11.7473 24.3213 11.58 24.2791 11.4073C24.2686 11.3642 24.2586 11.3206 24.2496 11.2767C24.2451 11.2548 24.2407 11.2327 24.2367 11.2105L24.2251 11.1481L24.1789 10.8999C24.1173 10.5686 24.0544 10.2382 23.9904 9.90841C23.9581 9.74358 23.9251 9.57901 23.8916 9.41472C23.8748 9.33268 23.8577 9.25092 23.84 9.16943L23.8132 9.04788L23.7995 8.98803L23.7925 8.9588L23.7862 8.93327L23.7827 8.91801L23.7463 8.77937C23.7329 8.72907 23.7191 8.67877 23.705 8.62847C23.6768 8.52834 23.6475 8.42801 23.6173 8.32749C23.557 8.12723 23.4927 7.92854 23.4245 7.73143C23.3564 7.53432 23.2834 7.33952 23.2056 7.14704C23.1667 7.05102 23.1259 6.95593 23.0841 6.86177C23.0422 6.76761 22.9979 6.67494 22.9523 6.58344L22.91 6.49875L22.9431 6.40978C22.9801 6.31042 23.0124 6.20632 23.0423 6.10048C23.0723 5.99465 23.0987 5.88685 23.1232 5.77813C23.1724 5.5608 23.2135 5.33989 23.2492 5.11771C23.3202 4.67335 23.3698 4.22379 23.4005 3.77365C23.4323 3.32464 23.441 2.87429 23.4266 2.42439C23.4184 2.20059 23.4035 1.97771 23.3768 1.75819C23.3501 1.53867 23.3135 1.32191 23.257 1.11695C23.2302 1.01786 23.1964 0.920828 23.1557 0.8266C23.1151 0.735902 23.0671 0.652367 23.0128 0.590323C23.0061 0.582582 22.9992 0.575072 22.9923 0.568024L22.9821 0.557741L22.9736 0.549884C22.9615 0.539294 22.9485 0.529748 22.9348 0.521346C22.9031 0.502336 22.869 0.487685 22.8334 0.477788C22.7557 0.455374 22.6614 0.447401 22.5631 0.450983C22.4607 0.455401 22.3589 0.467957 22.2585 0.488533C22.1545 0.508752 22.0505 0.535904 21.9466 0.567099C21.7366 0.631844 21.5307 0.709243 21.33 0.79887C21.1271 0.888297 20.9272 0.987546 20.7312 1.09407C20.5351 1.2006 20.3425 1.31464 20.1546 1.43526C19.9668 1.55588 19.7834 1.68332 19.6074 1.81792C19.4329 1.94958 19.2674 2.09274 19.112 2.24646L19.0049 2.35425L18.8641 2.29648C18.7139 2.23421 18.5588 2.1791 18.4014 2.1293C18.3618 2.11775 18.3228 2.104 18.2827 2.09279L18.1634 2.05813C18.0825 2.03652 18.0029 2.01469 17.9219 1.99516C17.5984 1.91498 17.2684 1.85258 16.9363 1.80048C16.6043 1.74837 16.2692 1.70885 15.9335 1.67812C15.7655 1.66272 15.5975 1.64997 15.4295 1.63988C15.3455 1.63464 15.2616 1.63029 15.1778 1.62682C15.136 1.62505 15.0943 1.62355 15.0528 1.62232C15.0115 1.62128 14.97 1.62024 14.9314 1.62024C14.8928 1.62024 14.8512 1.62128 14.8098 1.62243C14.7685 1.62359 14.7267 1.6252 14.6848 1.62694C14.6011 1.63048 14.5173 1.63487 14.4332 1.64011C14.2652 1.65028 14.0972 1.66306 13.9292 1.67847C13.5934 1.70928 13.2591 1.7501 12.9264 1.80094C12.5944 1.85316 12.2644 1.91567 11.9409 1.99585C11.8601 2.01549 11.7798 2.03733 11.6996 2.05894L11.5801 2.0936C11.5401 2.10515 11.5011 2.11798 11.4616 2.12999C11.3042 2.17991 11.1496 2.23502 10.9994 2.29729L10.8581 2.35587L10.7501 2.24657C10.5946 2.09297 10.4291 1.94988 10.2546 1.81827C10.0786 1.68367 9.89528 1.55646 9.70741 1.43584C9.51954 1.31521 9.32705 1.20141 9.13086 1.09477C8.93467 0.988123 8.7349 0.889106 8.53213 0.79991C8.33144 0.710584 8.12556 0.633418 7.9156 0.568833C7.81162 0.537637 7.70763 0.511064 7.60445 0.490382C7.50416 0.469843 7.40239 0.457324 7.30012 0.452947C7.20214 0.449481 7.10797 0.457337 7.03056 0.479752C6.99515 0.489621 6.96123 0.504194 6.92969 0.523079C6.91611 0.531442 6.90324 0.54091 6.89122 0.551386L6.88278 0.559243L6.87261 0.569526C6.8658 0.576458 6.85898 0.583968 6.85228 0.591594C6.79821 0.653522 6.75026 0.736826 6.70982 0.827409C6.66871 0.922207 6.63454 1.01986 6.60756 1.11961C6.55118 1.32446 6.51432 1.54132 6.48798 1.7605C6.46164 1.97968 6.4465 2.20278 6.43841 2.42647C6.42405 2.87626 6.43285 3.32649 6.46475 3.77538C6.4956 4.22598 6.54563 4.67485 6.61634 5.11921C6.65205 5.34128 6.69341 5.56207 6.74263 5.77929C6.76736 5.88789 6.79405 5.99558 6.82351 6.10141C6.85297 6.20724 6.88579 6.31123 6.92276 6.41048L6.95638 6.50083L6.9134 6.58713C6.86788 6.67856 6.82401 6.77126 6.7818 6.86524C6.73959 6.95921 6.69911 7.0543 6.66037 7.1505C6.58249 7.34253 6.50962 7.53725 6.44176 7.73467C6.3739 7.93208 6.3097 8.13077 6.24915 8.33073C6.21904 8.43086 6.18988 8.531 6.16169 8.63113C6.1476 8.68135 6.13381 8.73142 6.12033 8.78133L6.08405 8.91998L6.08047 8.93558L6.07423 8.96111L6.06729 8.99022L6.05354 9.05007L6.02685 9.17151C6.00929 9.25285 5.99212 9.33461 5.97532 9.41679C5.94174 9.58086 5.90889 9.74543 5.87677 9.91049C5.81229 10.2403 5.74956 10.5708 5.68855 10.9019L5.64234 11.1502L5.63078 11.2127C5.62662 11.2349 5.62235 11.257 5.61772 11.2789C5.60871 11.3229 5.59889 11.3665 5.58826 11.4097C5.54609 11.583 5.49352 11.7499 5.43725 11.913C5.38098 12.0762 5.32021 12.2357 5.26613 12.3897C5.25261 12.4281 5.23979 12.4661 5.22835 12.5028C5.21691 12.5396 5.20663 12.5754 5.1997 12.6068C5.19623 12.6224 5.19357 12.6369 5.1923 12.6477C5.19103 12.6586 5.19161 12.6652 5.19115 12.6607C5.19115 12.6653 5.1923 12.6652 5.19115 12.6615C5.18826 12.6555 5.18435 12.6501 5.17959 12.6455C5.17672 12.6426 5.17336 12.6401 5.16966 12.6382L5.17255 12.6393C5.17347 12.6393 5.17497 12.6393 5.17613 12.6402L5.1811 12.6413C5.20471 12.6446 5.22864 12.6452 5.25238 12.6429C5.32149 12.6357 5.38973 12.6218 5.45608 12.6012C5.52818 12.5799 5.60166 12.5533 5.67457 12.5239C5.71108 12.5091 5.74759 12.4936 5.78376 12.4777C5.80194 12.4696 5.81992 12.4613 5.83771 12.4529L5.86452 12.4402L5.87769 12.4339L5.88497 12.4303C5.93352 12.4066 5.98886 12.4009 6.04122 12.4141C6.09358 12.4273 6.13961 12.4586 6.17116 12.5024C6.2044 12.5484 6.21984 12.6049 6.21461 12.6614C6.21461 12.6678 6.21311 12.674 6.21207 12.6803C6.21103 12.6867 6.20883 12.6962 6.20918 12.6944L6.20814 12.699L6.20583 12.7083L6.20121 12.7263C6.19508 12.7494 6.18838 12.7725 6.18156 12.7956C6.16781 12.8403 6.15303 12.8837 6.13754 12.9262C6.10646 13.0112 6.07226 13.0932 6.03621 13.1739C6.00155 13.2523 5.96689 13.3276 5.93523 13.4012C5.91963 13.4378 5.90507 13.4738 5.89236 13.5085C5.88035 13.5406 5.87013 13.5733 5.86175 13.6066C5.85538 13.6304 5.85177 13.6549 5.851 13.6796C5.85067 13.6864 5.85153 13.6933 5.85354 13.6998C5.85445 13.7012 5.85553 13.7025 5.85678 13.7036C5.86108 13.7079 5.86581 13.7118 5.87087 13.7152C5.89053 13.7268 5.91162 13.7358 5.93361 13.742C5.96306 13.7506 5.99316 13.7567 6.02362 13.7604C6.05765 13.7648 6.09191 13.7671 6.12622 13.7674C6.16169 13.7674 6.19797 13.7674 6.23471 13.7644C6.25297 13.7631 6.27145 13.7615 6.28994 13.7596L6.31039 13.7576C6.31952 13.7567 6.32853 13.7564 6.33754 13.7561C6.35527 13.7555 6.37301 13.7559 6.39069 13.7572C6.45509 13.7625 6.51822 13.7781 6.57764 13.8035C6.6289 13.8252 6.67797 13.8517 6.72414 13.8828C6.80515 13.9382 6.88054 14.0013 6.94922 14.0714C7.0807 14.2033 7.18966 14.3424 7.29365 14.4789L6.9669 14.7369L6.72218 14.4365L7.03922 14.1684C7.03205 14.16 7.02412 14.1523 7.01554 14.1453L7.00988 14.1407L7.01658 14.146C7.02541 14.1533 7.03361 14.1613 7.04107 14.1699L7.04569 14.175L7.05066 14.1816C7.12368 14.2789 7.20087 14.3736 7.28174 14.4664L7.22871 14.423C7.24437 14.432 7.25882 14.443 7.27169 14.4557C7.27956 14.4634 7.28682 14.4718 7.29341 14.4806C7.29769 14.4864 7.29989 14.4899 7.29896 14.4885C7.29421 14.4816 7.28907 14.475 7.28359 14.4686L7.28556 14.4708L7.28949 14.4752L7.29723 14.484L7.31271 14.5014C7.32311 14.513 7.33328 14.5245 7.34379 14.5361C7.36493 14.5592 7.38562 14.5823 7.40711 14.6054C7.4286 14.6285 7.44963 14.6516 7.47158 14.6733C7.49353 14.6951 7.51491 14.7182 7.53709 14.7401C7.62536 14.8285 7.71641 14.9141 7.81023 14.9969C7.90405 15.0797 8.00033 15.1594 8.09908 15.236C8.12358 15.2554 8.14888 15.274 8.17372 15.2931L8.2479 15.3482L8.32369 15.4007C8.34911 15.418 8.37557 15.4353 8.40145 15.4525C8.61119 15.5899 8.82891 15.7147 9.05345 15.8262C9.27931 15.938 9.51069 16.0382 9.7467 16.1266L9.47321 16.3165V16.3126V16.0249L9.74566 16.1226L9.79996 16.142L9.856 16.1615L9.969 16.1999C10.0447 16.2249 10.1207 16.2498 10.197 16.2736C10.3496 16.3216 10.503 16.3675 10.6569 16.4122C10.8108 16.4569 10.9652 16.5004 11.1201 16.5418C11.1973 16.5633 11.2751 16.5832 11.3525 16.604L11.5836 16.664L11.5966 16.6672L11.6111 16.6706L11.6403 16.6774L11.699 16.6909L11.8166 16.7179L12.0523 16.7714L12.5244 16.8768C12.8394 16.9461 13.1548 17.0132 13.4706 17.0812C13.4948 17.0864 13.5161 17.1005 13.5304 17.1207C13.5447 17.1409 13.5508 17.1658 13.5476 17.1903C13.5443 17.2148 13.532 17.2373 13.513 17.2531C13.4939 17.2689 13.4696 17.277 13.4449 17.2757C13.1183 17.2593 12.7935 17.2248 12.4703 17.1825C12.3086 17.1612 12.1473 17.1378 11.9865 17.1123C11.906 17.0996 11.8256 17.0863 11.7452 17.0724L11.6247 17.0513L11.5644 17.0404L11.5341 17.0347L11.5189 17.032L11.5022 17.0286C11.4213 17.0115 11.3405 16.9948 11.261 16.9766C11.1815 16.9585 11.1013 16.9406 11.0219 16.9209C10.8627 16.8829 10.7044 16.8412 10.5466 16.7979C10.3888 16.7546 10.2317 16.7076 10.0751 16.6592C9.99673 16.635 9.91854 16.6099 9.84052 16.584L9.72324 16.5446L9.66443 16.5243L9.60435 16.5029L9.87726 16.3127V16.3167V16.6085L9.6062 16.5052C9.35694 16.4127 9.11253 16.3077 8.8739 16.1905C8.6344 16.0724 8.40214 15.9401 8.17834 15.7944C8.15038 15.7758 8.12254 15.7578 8.09458 15.7387L8.01058 15.681L7.92877 15.6207C7.9022 15.6004 7.87528 15.5806 7.84905 15.56C7.74329 15.4783 7.64004 15.3935 7.53929 15.3058C7.43853 15.2181 7.34079 15.1267 7.24604 15.0318C7.22216 15.0082 7.19863 14.9843 7.17545 14.9602C7.15234 14.9363 7.12923 14.9118 7.10612 14.8876C7.08301 14.8633 7.06071 14.8382 7.03795 14.8136L7.00433 14.7762L6.98758 14.7573L6.97926 14.748L6.97498 14.7433L6.9729 14.7409C6.96715 14.7342 6.96175 14.7272 6.95673 14.7199C6.95557 14.7181 6.95742 14.7211 6.96147 14.7265C6.96767 14.735 6.97459 14.743 6.98215 14.7503C6.99459 14.7627 7.00862 14.7734 7.02386 14.7821L6.97094 14.7386C6.88417 14.6396 6.79994 14.5374 6.71975 14.4312L6.72923 14.4427C6.73628 14.4511 6.74401 14.4588 6.75234 14.4658L6.75811 14.4705L6.7513 14.465C6.74251 14.4578 6.73432 14.4498 6.7268 14.4412L7.04385 14.1732L7.28949 14.4728L6.96274 14.7308C6.91236 14.6649 6.86233 14.6009 6.81115 14.5397C6.75996 14.4784 6.70797 14.4199 6.65447 14.3664C6.6051 14.316 6.55092 14.2705 6.49272 14.2306C6.46895 14.2145 6.44368 14.2007 6.41727 14.1895C6.39918 14.1814 6.3799 14.1763 6.36019 14.1745C6.35684 14.1743 6.35349 14.1743 6.35014 14.1745C6.34864 14.1745 6.34713 14.1745 6.34575 14.1745H6.34344L6.33466 14.1754C6.31155 14.1779 6.28786 14.1801 6.26406 14.1818C6.2168 14.1852 6.16874 14.1868 6.11998 14.1862C6.07 14.1857 6.02008 14.1823 5.97047 14.1762C5.91722 14.1697 5.86459 14.159 5.8131 14.144C5.75396 14.1269 5.69744 14.1018 5.64511 14.0694C5.61451 14.0501 5.58608 14.0276 5.5603 14.0022C5.53134 13.9739 5.50653 13.9416 5.48658 13.9064C5.44875 13.8383 5.42887 13.7617 5.42881 13.6838C5.42888 13.6241 5.43625 13.5646 5.45077 13.5068C5.46281 13.4582 5.4775 13.4104 5.49479 13.3635C5.51085 13.3189 5.52795 13.2768 5.54516 13.2364C5.57983 13.1547 5.6153 13.0768 5.64915 13.0014C5.68173 12.928 5.71212 12.8543 5.7387 12.7809C5.75198 12.7443 5.76423 12.7078 5.77509 12.672C5.78052 12.6541 5.7856 12.6364 5.79 12.6193L5.79312 12.6067L5.79462 12.6006L5.79543 12.5976C5.79612 12.5945 5.79369 12.6043 5.79323 12.6077C5.79277 12.6112 5.79184 12.6176 5.79127 12.6228C5.7871 12.6687 5.79974 12.7146 5.82685 12.7519C5.84289 12.774 5.8634 12.7925 5.88705 12.8061C5.91526 12.8223 5.947 12.8312 5.97948 12.8322C6.01114 12.8332 6.04254 12.8264 6.07099 12.8125L6.06406 12.8158L6.04892 12.8232L6.01854 12.8378C5.99835 12.8474 5.9781 12.8568 5.95776 12.8659C5.91709 12.8842 5.876 12.9018 5.83448 12.9188C5.75129 12.9526 5.66625 12.9839 5.57671 13.0112C5.48198 13.0406 5.38449 13.0602 5.28577 13.0698C5.2255 13.0752 5.16478 13.073 5.10507 13.0631C5.06741 13.0565 5.03067 13.0455 4.99565 13.0302C4.95321 13.0115 4.91441 12.9855 4.88104 12.9533C4.84597 12.9193 4.8179 12.8788 4.79842 12.834C4.78185 12.7954 4.77095 12.7546 4.76607 12.7129C4.76193 12.6753 4.76224 12.6373 4.767 12.5998C4.77032 12.5717 4.77507 12.5438 4.78121 12.5162C4.79276 12.4654 4.80559 12.4201 4.81911 12.3764C4.83262 12.3328 4.84672 12.2908 4.86105 12.2493C4.91882 12.0853 4.97751 11.93 5.03066 11.774C5.08381 11.618 5.13199 11.4636 5.16931 11.3089C5.17855 11.2703 5.18714 11.2318 5.19508 11.1933C5.199 11.174 5.20282 11.1548 5.20663 11.1356L5.21818 11.0736L5.26359 10.8246C5.3246 10.4926 5.38687 10.1606 5.45042 9.82881C5.48246 9.66282 5.51528 9.49675 5.54886 9.3306C5.56573 9.24749 5.58302 9.1643 5.60074 9.08104L5.62801 8.95556L5.64314 8.89121L5.65065 8.85886L5.65955 8.82304L5.65597 8.83864L5.65932 8.82362L5.66071 8.81784L5.66336 8.80721L5.66833 8.78711L5.6785 8.74759L5.69895 8.66926C5.71281 8.61715 5.72691 8.56527 5.74135 8.51363C5.77008 8.4101 5.79982 8.30697 5.83055 8.20422C5.89217 7.99856 5.95765 7.79405 6.02697 7.5907C6.09629 7.38735 6.17151 7.18516 6.25239 6.98447C6.29283 6.88434 6.33519 6.78444 6.37949 6.68476C6.42378 6.58509 6.4703 6.48631 6.51906 6.38841L6.5097 6.56507C6.46649 6.44953 6.43055 6.33526 6.39809 6.22076C6.36562 6.10626 6.33708 5.99188 6.31074 5.87738C6.25828 5.6485 6.21519 5.41915 6.17787 5.18935C6.10369 4.72985 6.05227 4.2685 6.01992 3.80531C5.98631 3.34095 5.97663 2.87518 5.99092 2.40983C5.99924 2.17609 6.01472 1.9419 6.04245 1.70677C6.07018 1.47165 6.10958 1.23584 6.1744 0.999099C6.20705 0.877776 6.2486 0.759027 6.29872 0.643817C6.35176 0.525852 6.41623 0.406963 6.51224 0.295468C6.5238 0.281488 6.53685 0.267854 6.54991 0.254336L6.57001 0.234232L6.59312 0.212858C6.62407 0.185536 6.65727 0.160877 6.69237 0.139144C6.75877 0.0984446 6.83041 0.0669971 6.90531 0.0456726C7.04824 0.00465634 7.18538 -0.00319988 7.3156 0.000612906C7.44212 0.00562578 7.56804 0.0207711 7.69215 0.0459039C7.81346 0.0690117 7.9312 0.100091 8.04663 0.134522C8.27432 0.204312 8.49761 0.287767 8.71526 0.384432C8.93144 0.479521 9.14195 0.584084 9.34808 0.696387C9.5542 0.808691 9.75582 0.927465 9.95317 1.05456C10.1505 1.18165 10.3436 1.31498 10.5309 1.45894C10.722 1.60265 10.9033 1.75902 11.0736 1.92699L10.8246 1.87719C10.9899 1.80856 11.1571 1.74918 11.3253 1.6958C11.3674 1.68286 11.4093 1.66876 11.4516 1.65698L11.5787 1.62024C11.6634 1.59713 11.748 1.57402 11.8329 1.5538C12.1726 1.46957 12.5146 1.40476 12.8574 1.35068C13.2002 1.29661 13.5442 1.25606 13.8888 1.2244C14.0611 1.20861 14.2337 1.1954 14.4066 1.18477C14.4931 1.17946 14.5799 1.17495 14.6667 1.17125C14.7101 1.16929 14.7538 1.16779 14.7977 1.1664C14.8416 1.16501 14.8856 1.16409 14.9324 1.16409C14.9792 1.16409 15.023 1.16524 15.067 1.16651C15.111 1.16779 15.1546 1.1694 15.198 1.17137C15.2851 1.17507 15.3718 1.17961 15.4581 1.185C15.631 1.19563 15.8036 1.20888 15.9759 1.22475C16.3205 1.2564 16.6642 1.29858 17.0072 1.35126C17.35 1.40533 17.692 1.47027 18.0317 1.55461C18.1166 1.57518 18.2013 1.59828 18.2859 1.62104L18.413 1.65779C18.4552 1.66934 18.4972 1.68378 18.5392 1.69672C18.7074 1.7501 18.8743 1.80949 19.0399 1.87812L18.7917 1.92768C18.9618 1.75943 19.1429 1.60276 19.3339 1.45871C19.5216 1.31533 19.7152 1.18142 19.9116 1.05502C20.1081 0.928621 20.3107 0.809269 20.5168 0.697427C20.723 0.585586 20.9335 0.481139 21.1495 0.386282C21.3672 0.289717 21.5904 0.206377 21.8181 0.136717C21.9336 0.102056 22.0511 0.0716691 22.1724 0.0480992C22.2964 0.0230621 22.4222 0.00795591 22.5486 0.00292382C22.6787 -0.000888958 22.8156 0.0070828 22.9582 0.0479835C23.0329 0.0692587 23.1044 0.100628 23.1706 0.141223C23.2056 0.162889 23.2387 0.187471 23.2695 0.214706L23.2926 0.235965L23.3126 0.256069C23.3258 0.269587 23.3382 0.283221 23.3503 0.297085C23.446 0.408349 23.5104 0.527239 23.5633 0.644973C23.6132 0.7601 23.6547 0.878729 23.6873 0.999908C23.7519 1.23653 23.7913 1.47235 23.8189 1.70735C23.8465 1.94236 23.8621 2.17656 23.8703 2.41017C23.8845 2.87541 23.8747 3.34107 23.8411 3.80531C23.8086 4.26839 23.7571 4.72962 23.6828 5.18911C23.6455 5.41881 23.6019 5.64803 23.5497 5.8768C23.5233 5.9913 23.4947 6.10568 23.4622 6.22007C23.4297 6.33445 23.3938 6.44883 23.3507 6.56391L23.3416 6.3906C23.3903 6.48881 23.4367 6.5876 23.4809 6.68696C23.5251 6.78632 23.5675 6.88619 23.608 6.98655C23.6889 7.18713 23.7633 7.38932 23.8331 7.59267C23.9029 7.79602 23.9683 8.00052 24.0295 8.20606C24.0603 8.30874 24.0901 8.41184 24.1187 8.51536C24.133 8.56712 24.1471 8.61935 24.1609 8.67099L24.1815 8.74933L24.1915 8.78884L24.1965 8.80895L24.1991 8.81946L24.2005 8.82524L24.2038 8.84002L24.2003 8.82477L24.2091 8.86048L24.2167 8.89283L24.231 8.95626L24.2583 9.08173C24.2761 9.16507 24.2933 9.24826 24.3101 9.3313C24.3438 9.49744 24.3765 9.66347 24.4083 9.82938C24.4723 10.1614 24.5345 10.4933 24.5949 10.8252L24.6402 11.0743L24.6517 11.1361C24.6553 11.1554 24.659 11.1747 24.6633 11.1939C24.671 11.2324 24.6796 11.2709 24.6891 11.3094C24.7265 11.4644 24.7745 11.6194 24.8278 11.7751C24.8811 11.9307 24.94 12.087 24.9973 12.2505C25.0115 12.2916 25.0256 12.3336 25.0391 12.3776C25.0526 12.4216 25.0657 12.4663 25.0768 12.5162C25.0829 12.5437 25.0877 12.5714 25.091 12.5993C25.0956 12.6364 25.0959 12.6739 25.0918 12.711C25.087 12.7522 25.0763 12.7924 25.0599 12.8305C25.0409 12.8746 25.0134 12.9145 24.979 12.948C24.9462 12.9797 24.9079 13.0053 24.8662 13.0237C24.8316 13.0388 24.7953 13.0497 24.7581 13.0562C24.6989 13.0659 24.6387 13.0682 24.5789 13.0629C24.4806 13.0533 24.3835 13.0337 24.2891 13.0044C24.1998 12.9778 24.1149 12.9466 24.0318 12.9128C23.9904 12.8959 23.9495 12.8781 23.9088 12.86C23.8884 12.8509 23.8682 12.8415 23.8481 12.8319L23.8177 12.8174L23.8026 12.8101L23.7957 12.8066C23.8358 12.8262 23.8815 12.8311 23.9249 12.8204C23.9683 12.8097 24.0064 12.784 24.0328 12.7479C24.0591 12.7117 24.0714 12.6673 24.0674 12.6228C24.0674 12.6177 24.0664 12.6131 24.0655 12.6082C24.0645 12.6034 24.0627 12.5953 24.0635 12.5983L24.0642 12.6014L24.0657 12.6075L24.0688 12.6202C24.0733 12.6373 24.0784 12.6549 24.0838 12.673C24.0947 12.709 24.1069 12.7456 24.1203 12.7823C24.147 12.8558 24.1774 12.9298 24.21 13.0031C24.2435 13.0787 24.2793 13.1566 24.314 13.2381C24.3312 13.279 24.3486 13.3211 24.3642 13.3652C24.3815 13.4119 24.3961 13.4596 24.408 13.5079C24.4225 13.5653 24.4298 13.6242 24.4299 13.6834C24.4299 13.7602 24.4105 13.8357 24.3734 13.9029C24.3536 13.9377 24.3291 13.9695 24.3006 13.9976C24.275 14.0226 24.2469 14.0449 24.2167 14.064C24.1648 14.0961 24.1088 14.1209 24.0502 14.1377C23.999 14.1527 23.9467 14.1635 23.8938 14.1698C23.8444 14.176 23.7947 14.1793 23.7449 14.1799C23.6963 14.1805 23.6485 14.1788 23.6012 14.1754C23.5781 14.1738 23.5542 14.1716 23.5308 14.169L23.5222 14.1681H23.5173C23.5158 14.1681 23.5141 14.1681 23.5126 14.1681C23.5091 14.1679 23.5055 14.1679 23.502 14.1681C23.4816 14.1701 23.4617 14.1752 23.443 14.1835C23.4163 14.1949 23.3907 14.2089 23.3667 14.2252C23.3082 14.2653 23.2538 14.3111 23.2042 14.3617C23.1506 14.4149 23.0984 14.4736 23.0472 14.535C22.996 14.5965 22.9459 14.6605 22.8955 14.7264L22.5777 14.4755L22.8234 14.1758L23.1317 14.4365C23.1243 14.4448 23.1163 14.4526 23.1077 14.4596L23.1012 14.4648L23.1068 14.4604C23.1151 14.4535 23.1228 14.446 23.1299 14.438L23.1392 14.4264C23.059 14.5325 22.9749 14.6344 22.8882 14.7335L22.8367 14.7758C22.8515 14.7673 22.8651 14.7569 22.8773 14.745C22.8846 14.7378 22.8913 14.73 22.8975 14.7219C22.9013 14.7166 22.9031 14.7137 22.902 14.7154C22.8971 14.7225 22.8918 14.7293 22.8862 14.7359L22.8842 14.7383L22.8799 14.7429L22.8716 14.7524L22.8548 14.7711L22.8213 14.8085C22.7982 14.8331 22.7763 14.8581 22.7531 14.8824C22.73 14.9066 22.7069 14.9311 22.6838 14.9549C22.6607 14.9787 22.6376 15.0029 22.6133 15.0263C22.5184 15.1208 22.4207 15.2121 22.3202 15.3003C22.2197 15.3884 22.1166 15.4731 22.0108 15.5544C21.9846 15.575 21.9578 15.5948 21.9312 15.615L21.8494 15.6753L21.7656 15.7331C21.7376 15.7521 21.7098 15.7702 21.6818 15.7886C21.4583 15.9343 21.2262 16.0664 20.9869 16.1844C20.7484 16.3016 20.5042 16.4066 20.2551 16.499L19.9894 16.5981V16.3145V16.3105L20.2551 16.4954L20.1952 16.5168L20.1364 16.537L20.0192 16.5764C19.9411 16.6022 19.863 16.6273 19.7848 16.6516C19.6281 16.7001 19.4709 16.7462 19.3131 16.7897C19.1553 16.8328 18.9969 16.8741 18.8378 16.912C18.7583 16.9316 18.6786 16.9495 18.5988 16.9676C18.5189 16.9857 18.438 17.0023 18.3577 17.0197C18.353 17.0208 18.3468 17.0219 18.3411 17.0229L18.3258 17.0258L18.2957 17.0314L18.2354 17.0429L18.1149 17.0642C18.0346 17.0783 17.9541 17.0912 17.8737 17.1043C17.7933 17.1173 17.7128 17.1297 17.6322 17.1416C17.5517 17.1535 17.4711 17.1647 17.3903 17.1763C17.0668 17.2197 16.7433 17.2556 16.4165 17.2748C16.3918 17.2761 16.3675 17.268 16.3485 17.2522C16.3295 17.2363 16.3171 17.2139 16.3139 17.1894C16.3107 17.1648 16.3168 17.14 16.3311 17.1198C16.3453 17.0995 16.3667 17.0854 16.3909 17.0803L16.391 17.0801Z" fill="#000072"/>
<path d="M9.82942 13.6264C10.3405 13.6264 10.7548 13.4275 10.7548 13.1822C10.7548 12.9368 10.3405 12.7379 9.82942 12.7379C9.31835 12.7379 8.90405 12.9368 8.90405 13.1822C8.90405 13.4275 9.31835 13.6264 9.82942 13.6264Z" fill="#F27E80"/>
<path d="M20.034 13.6264C20.5451 13.6264 20.9594 13.4275 20.9594 13.1822C20.9594 12.9368 20.5451 12.7379 20.034 12.7379C19.5229 12.7379 19.1086 12.9368 19.1086 13.1822C19.1086 13.4275 19.5229 13.6264 20.034 13.6264Z" fill="#F27E80"/>
<path d="M16.319 12.4919C16.319 12.4919 16.0764 13.1291 15.5076 12.9821C14.8605 12.8146 14.9379 12.0427 14.9379 12.0427" fill="white"/>
<path d="M13.5332 12.4919C13.5332 12.4919 13.7758 13.1291 14.3446 12.9821C14.9917 12.8146 14.9141 12.0427 14.9141 12.0427" fill="white"/>
<path d="M16.4109 12.527L16.4047 12.5481L16.3985 12.5671C16.3943 12.5795 16.3901 12.5918 16.3853 12.6038C16.376 12.6279 16.3657 12.6515 16.3547 12.675C16.3322 12.7221 16.306 12.7673 16.2765 12.8104C16.2152 12.9019 16.1364 12.9804 16.0448 13.0415C15.9464 13.106 15.8331 13.1443 15.7157 13.1526C15.6577 13.1561 15.5996 13.1531 15.5423 13.1436C15.528 13.1419 15.5146 13.1382 15.5007 13.1354C15.4869 13.1326 15.4729 13.1297 15.46 13.1255L15.4204 13.1139L15.4007 13.1079L15.3812 13.1005L15.3421 13.0855C15.3292 13.0803 15.3167 13.0739 15.304 13.0677C15.2913 13.0615 15.2784 13.0561 15.2662 13.0485L15.2295 13.0273C15.1809 12.9974 15.1358 12.9624 15.0949 12.9227C15.0746 12.903 15.0553 12.8824 15.0371 12.8608C15.0198 12.8385 15.0017 12.8166 14.9867 12.7932C14.9717 12.7697 14.9574 12.746 14.9435 12.7221C14.9296 12.6982 14.9184 12.6732 14.9088 12.6481C14.8678 12.5506 14.8419 12.4476 14.8319 12.3423C14.8267 12.2914 14.8247 12.2403 14.8261 12.1891C14.8261 12.1637 14.8282 12.1383 14.8304 12.1129C14.8316 12.1002 14.833 12.0873 14.8348 12.0745L14.8374 12.0551L14.841 12.0337C14.8448 12.0108 14.8566 11.9899 14.8744 11.9749C14.8923 11.9599 14.9148 11.9518 14.9381 11.952C14.9614 11.9522 14.9838 11.9608 15.0013 11.9761C15.0189 11.9914 15.0304 12.0124 15.0337 12.0355L15.0364 12.0534C15.0364 12.0561 15.0364 12.0622 15.0373 12.067L15.0384 12.0825C15.0392 12.0929 15.0402 12.1035 15.0412 12.1141C15.0436 12.1354 15.0455 12.1567 15.0489 12.1778C15.0553 12.2201 15.0624 12.262 15.0727 12.3028C15.0911 12.3822 15.1195 12.459 15.1571 12.5314C15.166 12.5488 15.1764 12.5651 15.1862 12.5816C15.1961 12.5981 15.2073 12.6135 15.2193 12.6278C15.2313 12.6422 15.2432 12.6565 15.2551 12.6706C15.267 12.6847 15.2808 12.697 15.2949 12.7085C15.3504 12.7569 15.4148 12.7941 15.4846 12.818L15.4977 12.8231L15.5116 12.827L15.5391 12.8351C15.5483 12.8382 15.5574 12.8392 15.5664 12.8415C15.5754 12.8438 15.5845 12.8462 15.5934 12.8471L15.6202 12.8512C15.6292 12.8529 15.6379 12.8526 15.6468 12.8535C15.6645 12.8554 15.6815 12.8545 15.6991 12.8549C15.769 12.8519 15.8372 12.8329 15.8986 12.7993C15.9662 12.7614 16.0272 12.7129 16.0793 12.6556C16.1074 12.6251 16.134 12.5932 16.1588 12.5599C16.1713 12.543 16.1837 12.5252 16.1953 12.5083C16.2012 12.4996 16.2068 12.4908 16.2126 12.482L16.2208 12.469C16.2233 12.465 16.2263 12.4598 16.228 12.4574L16.2432 12.4388C16.2573 12.4214 16.277 12.4095 16.299 12.405C16.3209 12.4005 16.3438 12.4037 16.3636 12.4142C16.3834 12.4246 16.399 12.4416 16.4077 12.4622C16.4165 12.4828 16.4178 12.5058 16.4114 12.5273L16.4109 12.527Z" fill="#000072"/>
<path d="M13.6246 12.457C13.6263 12.459 13.6293 12.4642 13.6319 12.4685L13.6401 12.4816C13.6456 12.4904 13.6516 12.4992 13.6574 12.5078C13.669 12.5254 13.6812 12.5425 13.6939 12.5595C13.7187 12.5927 13.7452 12.6247 13.7734 12.6551C13.8255 12.7125 13.8865 12.761 13.9541 12.7989C14.0154 12.8324 14.0837 12.8515 14.1535 12.8544C14.171 12.8544 14.1882 12.8544 14.2059 12.8531C14.2148 12.8521 14.2234 12.8531 14.2325 12.8508L14.2593 12.8467C14.2682 12.8458 14.2773 12.8428 14.2863 12.841C14.2953 12.8393 14.3043 12.8378 14.3134 12.8347L14.3411 12.8266L14.3548 12.8227L14.368 12.8176C14.4377 12.7938 14.5022 12.7566 14.5577 12.7081C14.5719 12.6965 14.5842 12.6829 14.5976 12.6702C14.611 12.6575 14.6224 12.6428 14.6334 12.6274C14.6444 12.612 14.6554 12.5969 14.6664 12.5812C14.6774 12.5655 14.6866 12.5484 14.6955 12.5309C14.7331 12.4586 14.7615 12.3818 14.78 12.3024C14.7903 12.2616 14.7973 12.2197 14.8038 12.1774C14.8072 12.1562 14.8091 12.135 14.8114 12.1137C14.8125 12.1031 14.8135 12.0925 14.8142 12.0821L14.8152 12.0666C14.8152 12.0617 14.8159 12.0557 14.8163 12.053L14.8189 12.0352C14.8223 12.0121 14.8338 11.9911 14.8513 11.9757C14.8688 11.9604 14.8912 11.9519 14.9145 11.9517C14.9378 11.9514 14.9604 11.9596 14.9782 11.9745C14.996 11.9895 15.0079 12.0103 15.0117 12.0333L15.0152 12.0547L15.0179 12.0741C15.0195 12.0869 15.021 12.0997 15.0223 12.1125C15.0245 12.1379 15.026 12.1633 15.0266 12.1887C15.0279 12.2399 15.026 12.291 15.0207 12.3419C15.0108 12.4471 14.9849 12.5502 14.9438 12.6476C14.9338 12.6728 14.9207 12.6972 14.9086 12.7217C14.8965 12.7462 14.8816 12.7698 14.8655 12.7927C14.8494 12.8157 14.8325 12.838 14.8151 12.8603C14.7969 12.8819 14.7776 12.9026 14.7574 12.9223C14.7164 12.962 14.6712 12.997 14.6226 13.0268L14.5859 13.0481C14.5743 13.0556 14.5608 13.0609 14.5482 13.0673C14.5356 13.0736 14.523 13.0799 14.5101 13.0851L14.471 13.1001L14.4515 13.1075L14.4318 13.1135L14.3922 13.125C14.3793 13.1293 14.365 13.1316 14.3515 13.135C14.3379 13.1383 14.3242 13.1414 14.3099 13.1432C14.2526 13.1526 14.1945 13.1557 14.1366 13.1522C14.0191 13.1439 13.9058 13.1056 13.8074 13.041C13.7157 12.9799 13.637 12.9014 13.5756 12.81C13.5461 12.7669 13.52 12.7216 13.4975 12.6746C13.4859 12.6514 13.4762 12.6275 13.4668 12.6034C13.4621 12.5918 13.4579 12.5791 13.4537 12.5666L13.4475 12.5477L13.4413 12.5265C13.4351 12.5051 13.4365 12.4821 13.4452 12.4616C13.454 12.441 13.4695 12.4241 13.4893 12.4136C13.5091 12.4032 13.5319 12.4 13.5538 12.4044C13.5757 12.4088 13.5954 12.4207 13.6096 12.4379L13.6246 12.457Z" fill="#000072"/>
<path d="M14.147 11.6382C14.147 11.8207 14.3851 11.982 14.6038 12.0917C14.7143 12.1482 14.8366 12.1776 14.9606 12.1776C15.0847 12.1776 15.207 12.1482 15.3174 12.0917C15.536 11.982 15.7743 11.8207 15.7743 11.6382C15.7737 11.0874 14.147 11.0874 14.147 11.6382Z" fill="#000072"/>
<g opacity="0.5">
<path d="M14.6372 11.5302C14.6372 11.5827 14.7317 11.6293 14.8184 11.6608C14.9098 11.6939 15.0099 11.6939 15.1013 11.6608C15.188 11.6293 15.2825 11.5827 15.2825 11.5302C15.2825 11.3713 14.6372 11.3713 14.6372 11.5302Z" fill="white"/>
</g>
<path d="M21.973 21.5657C22.4468 21.5964 23.5104 21.5347 24.0643 20.3712C24.6182 19.2077 23.8122 16.9326 22.7573 16.6472C22.6045 16.6059 22.3201 16.6736 22.2347 16.9103C22.0665 17.377 22.5132 18.1275 22.5132 18.1275C22.5132 18.1275 20.8786 18.595 20.8823 19.6649C20.8848 20.3765 21.0069 21.5036 21.973 21.5657Z" fill="white"/>
<g opacity="0.2">
<path d="M24.0647 20.3712C23.5101 21.5349 22.4471 21.5967 21.9734 21.5657C21.0075 21.5034 20.8854 20.3766 20.8828 19.665C20.8822 19.5841 20.8917 19.5035 20.9109 19.4249C20.9821 20.0644 21.3237 20.4124 22.0707 20.4994C22.6684 20.5687 23.7164 20.4301 24.0652 19.6098C24.1413 19.4348 24.1938 19.2505 24.2213 19.0616C24.2773 19.5427 24.2365 20.0105 24.0647 20.3712Z" fill="#000072"/>
</g>
<path d="M22.1392 21.7676C22.0746 21.7676 22.0146 21.7653 21.9603 21.7618C21.4607 21.7296 21.0885 21.4426 20.884 20.9319C20.7525 20.6036 20.6875 20.1894 20.6858 19.6656C20.6826 18.7105 21.7535 18.1974 22.234 18.0156C22.1994 17.9434 22.1621 17.8567 22.1271 17.7614C21.9904 17.3904 21.9645 17.0816 22.0505 16.8433C22.1074 16.6851 22.2304 16.5605 22.3971 16.4923C22.532 16.4371 22.6859 16.4239 22.8094 16.4576C23.2805 16.5847 23.7338 17.0569 24.0535 17.7517C24.2523 18.1843 24.385 18.6767 24.4269 19.1381C24.4731 19.6491 24.4096 20.1045 24.242 20.4553C23.9796 21.0064 23.5825 21.3911 23.0617 21.5984C22.7268 21.7319 22.3965 21.7676 22.1392 21.7676ZM21.9855 21.37C22.4877 21.4024 23.4024 21.3047 23.8871 20.2869C24.1564 19.7215 24.0777 18.7465 23.6958 17.9159C23.4291 17.3357 23.059 16.9324 22.7059 16.8367C22.6435 16.8199 22.4658 16.8483 22.4193 16.9769C22.3082 17.2851 22.5785 17.8528 22.6819 18.0272L22.8116 18.2468L22.567 18.3169C22.5524 18.3211 21.0754 18.7569 21.0785 19.6648C21.0801 20.1315 21.1372 20.509 21.2484 20.7864C21.3968 21.1571 21.638 21.3482 21.9855 21.3706V21.37Z" fill="#000072"/>
<path d="M10.7087 21.9873C10.7087 21.9873 12.4859 22.6912 12.6752 24.4311C12.9393 26.8561 10.9053 28.2246 10.9053 28.2246" fill="white"/>
<path d="M10.7449 21.8959L10.7765 21.9061C10.7865 21.9095 10.7964 21.913 10.8063 21.9165C10.826 21.9236 10.8454 21.931 10.8648 21.9383C10.9038 21.953 10.9417 21.9694 10.9804 21.9857C11.0563 22.0185 11.1306 22.055 11.2036 22.0936C11.3505 22.1711 11.4918 22.2585 11.6266 22.3554C11.9015 22.551 12.1441 22.7883 12.3457 23.0587C12.372 23.0922 12.3954 23.1281 12.4193 23.1627C12.4309 23.1804 12.4434 23.198 12.455 23.2159L12.4883 23.2705L12.5216 23.3254L12.5299 23.339L12.5376 23.3532L12.5529 23.3814L12.5832 23.4382C12.5932 23.457 12.6035 23.4758 12.6122 23.4959L12.6667 23.6126L12.7149 23.7322C12.7188 23.7423 12.7231 23.7521 12.7264 23.7622L12.7368 23.7927L12.7575 23.8539C12.7643 23.8743 12.7715 23.8947 12.778 23.9151L12.7951 23.9774L12.8121 24.0397L12.8206 24.0708L12.8273 24.1024L12.854 24.2288C12.8613 24.2712 12.8671 24.3138 12.8735 24.3559C12.8764 24.377 12.8803 24.3986 12.8824 24.4194L12.889 24.482C12.9061 24.6495 12.9126 24.8179 12.9084 24.9861C12.9039 25.1548 12.8889 25.3231 12.8636 25.4899C12.8579 25.5317 12.8497 25.5732 12.8427 25.6148C12.8356 25.6564 12.8264 25.6976 12.8176 25.7389C12.8088 25.7801 12.7992 25.8213 12.7881 25.862L12.7722 25.9233L12.7549 25.9842C12.6609 26.3077 12.528 26.6187 12.359 26.9102C12.3173 26.983 12.2732 27.0543 12.2274 27.1244C12.1817 27.1946 12.1342 27.2631 12.085 27.3308C11.9862 27.4653 11.8806 27.5947 11.7685 27.7183C11.6568 27.842 11.5387 27.9598 11.4146 28.071C11.3837 28.099 11.3522 28.1264 11.3204 28.1535C11.2887 28.1807 11.2562 28.207 11.2234 28.2331C11.1906 28.2592 11.1573 28.285 11.1233 28.3103C11.1063 28.323 11.0886 28.3356 11.0715 28.3481L11.0449 28.3669L11.0152 28.387C10.9727 28.414 10.9214 28.4236 10.8721 28.4139C10.8227 28.4041 10.7789 28.3759 10.7498 28.3348C10.7207 28.2938 10.7084 28.2431 10.7156 28.1933C10.7227 28.1435 10.7487 28.0983 10.7881 28.0671L10.796 28.0612L10.8154 28.047L10.837 28.0305C10.8517 28.0189 10.8663 28.0074 10.8809 27.9958C10.9101 27.9722 10.9391 27.9481 10.968 27.9234C11.0256 27.8738 11.0821 27.8228 11.1378 27.7703C11.2488 27.6653 11.3545 27.5543 11.4554 27.4394C11.5562 27.3244 11.6509 27.2044 11.7394 27.0803C11.7839 27.0184 11.8268 26.9555 11.8677 26.8914C11.9086 26.8273 11.9486 26.7623 11.9855 26.6962C12.0045 26.6634 12.0222 26.6298 12.0405 26.5965C12.0587 26.5633 12.0751 26.5294 12.0921 26.4953C12.1268 26.4278 12.1577 26.3589 12.188 26.2895C12.3072 26.012 12.3923 25.721 12.4414 25.423C12.4658 25.2741 12.4808 25.1238 12.4866 24.9731C12.4913 24.8218 12.4874 24.6704 12.475 24.5196L12.4703 24.463C12.4688 24.444 12.4658 24.4262 12.4636 24.4078C12.4587 24.3712 12.4547 24.3345 12.4493 24.2981L12.4286 24.1895L12.4235 24.1624L12.4167 24.1355L12.4033 24.0821L12.3898 24.0284C12.3847 24.0108 12.3782 23.9938 12.3733 23.9756L12.3567 23.923L12.3485 23.8965C12.3456 23.8877 12.342 23.8793 12.3388 23.8706L12.2997 23.7666L12.2548 23.6653C12.2478 23.6482 12.2392 23.6318 12.2308 23.6153L12.2056 23.5657L12.1932 23.5409L12.187 23.5284L12.18 23.5168L12.1527 23.4683L12.1252 23.4198C12.1156 23.4038 12.1054 23.3882 12.0955 23.3724C12.0753 23.3411 12.0567 23.3088 12.0347 23.2785C11.8674 23.0307 11.6603 22.8058 11.4287 22.6054C11.3131 22.5049 11.1904 22.4111 11.0642 22.3217C11.0006 22.2776 10.9359 22.2351 10.8704 22.1936L10.8208 22.1633L10.771 22.1336C10.7544 22.1239 10.7378 22.1142 10.721 22.1048L10.6724 22.0779L10.6667 22.0748C10.6453 22.063 10.6291 22.0436 10.6212 22.0205C10.6133 21.9973 10.6144 21.9721 10.6241 21.9497C10.6339 21.9272 10.6516 21.9093 10.6739 21.8993C10.6962 21.8892 10.7214 21.8879 10.7447 21.8955L10.7449 21.8959Z" fill="#000072"/>
<path d="M8.89062 27.6315C10.0783 27.5006 11.4531 27.725 11.6308 28.3235C11.8012 28.8976 12.1725 30.051 9.35129 29.6488" fill="white"/>
<path d="M8.89062 28.1224C8.99461 28.0395 9.1157 27.9766 9.23979 27.9246C9.36496 27.8737 9.49396 27.8327 9.62558 27.802C9.89006 27.7405 10.1607 27.7095 10.4323 27.7096C10.5697 27.7091 10.707 27.7176 10.8433 27.7349C10.9835 27.7522 11.1217 27.7831 11.2559 27.8273C11.3265 27.8511 11.3951 27.8809 11.4607 27.9162C11.5327 27.9547 11.5985 28.0037 11.6561 28.0615C11.6878 28.094 11.7156 28.13 11.7391 28.1689C11.7514 28.1894 11.7623 28.2108 11.7716 28.2329C11.7764 28.2444 11.7808 28.256 11.7847 28.2676L11.7937 28.2948C11.815 28.3597 11.835 28.427 11.8515 28.4963C11.8692 28.5671 11.8827 28.6388 11.8918 28.7112C11.8964 28.7483 11.8994 28.7861 11.901 28.8243C11.9027 28.8626 11.902 28.9017 11.8997 28.941C11.897 28.9811 11.8922 29.021 11.8852 29.0606C11.8775 29.1012 11.8673 29.1414 11.8547 29.1808C11.8413 29.2209 11.8251 29.2601 11.8061 29.2979C11.7867 29.336 11.7643 29.3725 11.7393 29.4071C11.6898 29.4752 11.6309 29.5359 11.5645 29.5875C11.5012 29.6364 11.4328 29.6783 11.3604 29.7124C11.2917 29.7449 11.2207 29.7723 11.1479 29.7944C11.0777 29.8151 11.0065 29.8323 10.9345 29.8458C10.7952 29.8711 10.6543 29.8862 10.5128 29.8912C10.3742 29.8972 10.2355 29.8961 10.099 29.8888C9.96238 29.8815 9.82662 29.8704 9.69213 29.8541C9.55764 29.8378 9.42396 29.8195 9.29121 29.7964C9.24112 29.7871 9.19658 29.7588 9.16697 29.7174C9.13736 29.676 9.125 29.6247 9.13249 29.5743C9.13999 29.5239 9.16675 29.4784 9.20714 29.4474C9.24752 29.4164 9.29838 29.4023 9.34898 29.408H9.35036C9.47908 29.4243 9.60756 29.4396 9.73569 29.4524C9.86383 29.4652 9.99185 29.4755 10.1192 29.4813L10.2145 29.4847L10.3095 29.4867C10.3726 29.4874 10.4355 29.4874 10.4979 29.4852L10.5441 29.4836L10.5903 29.4809C10.6214 29.4796 10.6519 29.4765 10.6828 29.4741C10.6981 29.4729 10.7133 29.4709 10.729 29.4694C10.7447 29.4679 10.7595 29.4663 10.7744 29.464L10.8196 29.4582L10.8641 29.4511C10.9823 29.4314 11.0962 29.4019 11.1958 29.3578C11.2954 29.3136 11.379 29.2554 11.4366 29.1819C11.4657 29.1447 11.489 29.1034 11.5059 29.0592C11.5146 29.0361 11.5218 29.0124 11.5275 28.9883C11.5331 28.963 11.5374 28.9374 11.5404 28.9117C11.552 28.8058 11.5421 28.6887 11.5192 28.5696C11.5076 28.5097 11.4933 28.4493 11.4772 28.3875L11.472 28.3673C11.471 28.3632 11.4697 28.3591 11.4682 28.3549C11.4653 28.3463 11.4617 28.3379 11.4576 28.3298C11.4481 28.3115 11.4364 28.2942 11.4229 28.2785C11.3889 28.2407 11.3495 28.2082 11.3059 28.1819C11.2569 28.1514 11.2054 28.1251 11.152 28.1033C11.0376 28.0571 10.9192 28.0214 10.7983 27.9966C10.6739 27.9702 10.548 27.9509 10.4213 27.9388C10.1639 27.9137 9.90473 27.9129 9.64719 27.9364C9.51761 27.9481 9.38893 27.9682 9.26197 27.9966C9.19815 28.0108 9.1351 28.0282 9.07306 28.0488C9.01067 28.0693 8.94972 28.0938 8.89062 28.1224Z" fill="#000072"/>
<g opacity="0.2">
<path d="M7.62855 28.4865C7.85594 28.7393 7.94548 29.096 8.19771 29.316C8.44993 29.5359 9.74596 29.751 10.497 29.751H11.4222L11.5282 28.6635C11.5282 28.6635 9.8355 29.3238 8.82544 28.6635C8.11475 28.1988 8.53821 27.7377 8.38639 27.4298C8.19077 27.0356 7.04923 27.4515 6.58764 25.4839C6.49394 26.5151 6.75368 27.516 7.62855 28.4865Z" fill="#000072"/>
</g>
<path d="M13.0704 10.2843C13.2059 9.23554 12.702 8.30609 11.9449 8.2083C11.1878 8.11051 10.4642 8.88142 10.3288 9.93017C10.1933 10.9789 10.6972 11.9084 11.4543 12.0062C12.2114 12.104 12.935 11.333 13.0704 10.2843Z" fill="#000072"/>
<path d="M12.5912 9.82107C12.6311 9.45851 12.4985 9.14648 12.2951 9.12413C12.0916 9.10178 11.8944 9.37758 11.8546 9.74014C11.8148 10.1027 11.9474 10.4147 12.1508 10.4371C12.3542 10.4594 12.5514 10.1836 12.5912 9.82107Z" fill="white"/>
<path d="M11.1614 10.5656C11.1912 10.3856 11.1334 10.2261 11.0325 10.2095C10.9316 10.1928 10.8257 10.3253 10.796 10.5053C10.7663 10.6853 10.824 10.8447 10.9249 10.8613C11.0259 10.878 11.1317 10.7456 11.1614 10.5656Z" fill="white"/>
<path d="M18.628 12.0026C19.3851 11.9048 19.889 10.9754 19.7535 9.92664C19.6181 8.87789 18.8945 8.10698 18.1374 8.20477C17.3803 8.30256 16.8764 9.23202 17.0119 10.2808C17.1474 11.3295 17.8709 12.1004 18.628 12.0026Z" fill="#000072"/>
<path d="M17.9293 10.4374C18.1327 10.415 18.2654 10.103 18.2255 9.74045C18.1857 9.37789 17.9885 9.1021 17.7851 9.12445C17.5817 9.1468 17.449 9.45883 17.4889 9.82139C17.5287 10.1839 17.7259 10.4597 17.9293 10.4374Z" fill="white"/>
<path d="M19.1555 10.8613C19.2565 10.8447 19.3142 10.6852 19.2845 10.5052C19.2548 10.3252 19.1489 10.1928 19.048 10.2095C18.9471 10.2261 18.8893 10.3855 18.919 10.5655C18.9487 10.7455 19.0546 10.878 19.1555 10.8613Z" fill="white"/>
<path d="M28.786 14.5715C28.4998 14.1062 27.8747 14.0285 27.4094 14.3144L27.337 14.3589L27.2924 14.2865C27.0063 13.8212 26.4132 13.6087 25.948 13.8948C25.8373 13.9628 25.7412 14.052 25.665 14.1571C25.5888 14.2623 25.5341 14.3815 25.504 14.5078C25.4739 14.6342 25.469 14.7652 25.4895 14.8934C25.51 15.0217 25.5556 15.1446 25.6236 15.2552L25.6681 15.3277L26.5676 16.7904C26.6038 16.8492 26.6619 16.8912 26.729 16.9072C26.7961 16.9233 26.8669 16.9121 26.9258 16.876L28.3886 15.9764L28.4611 15.932C28.5718 15.864 28.6679 15.7748 28.7442 15.6697C28.8204 15.5645 28.8752 15.4453 28.9053 15.319C28.9355 15.1927 28.9405 15.0616 28.92 14.9334C28.8995 14.8051 28.854 14.6821 28.786 14.5715Z" fill="#FF0660"/>
<g opacity="0.3">
<path d="M28.7861 14.5715C28.7508 14.514 28.709 14.4608 28.6615 14.4128C28.692 14.6058 28.6647 14.8034 28.583 14.9809C28.5014 15.1583 28.369 15.3076 28.2026 15.4099L28.1302 15.4544L26.6673 16.3539C26.6085 16.39 26.5377 16.4012 26.4705 16.3852C26.4034 16.3692 26.3453 16.3272 26.3091 16.2684L25.5022 14.9562C25.5262 15.0619 25.5674 15.1629 25.6241 15.2552L25.6687 15.3277L26.5682 16.7904C26.6044 16.8492 26.6624 16.8912 26.7296 16.9072C26.7967 16.9233 26.8675 16.9121 26.9264 16.876L28.3892 15.9764L28.4617 15.9319C28.6851 15.7946 28.8448 15.574 28.9056 15.3189C28.9665 15.0638 28.9235 14.7949 28.7861 14.5715Z" fill="#000072"/>
</g>
<g opacity="0.7">
<path d="M26.0329 14.1834C26.4982 13.8973 27.0913 14.1099 27.3775 14.5752L27.4219 14.6475L27.4944 14.603C27.9597 14.317 28.5849 14.3951 28.8709 14.8601C28.8905 14.8921 28.9083 14.9252 28.9242 14.9592C28.9061 14.8217 28.8591 14.6896 28.7864 14.5715C28.5002 14.1062 27.8751 14.0285 27.4098 14.3144L27.3374 14.3589L27.2928 14.2865C27.0067 13.8212 26.4136 13.6087 25.9483 13.8948C25.7415 14.022 25.5888 14.2209 25.5191 14.4535C25.4495 14.6861 25.4678 14.9362 25.5706 15.1561C25.5455 14.9666 25.5758 14.774 25.6578 14.6013C25.7398 14.4287 25.8701 14.2835 26.0329 14.1834Z" fill="white"/>
</g>
<path d="M26.7908 17.059C26.7214 17.0591 26.6533 17.0414 26.5927 17.0077C26.5322 16.9739 26.4813 16.9252 26.445 16.8662L25.501 15.331C25.3439 15.0749 25.2947 14.7668 25.3644 14.4745C25.4341 14.1822 25.6169 13.9295 25.8727 13.7718C26.1291 13.6142 26.4338 13.5784 26.7308 13.671C26.998 13.756 27.2283 13.9291 27.3843 14.1621C27.6286 14.0246 27.9123 13.9741 28.189 14.0188C28.4959 14.0701 28.7517 14.2396 28.9093 14.4959C29.0666 14.7521 29.1159 15.0602 29.0462 15.3527C28.9765 15.6451 28.7936 15.8979 28.5376 16.0557L27.0023 16.9996C26.9387 17.0387 26.8654 17.0592 26.7908 17.059ZM26.4069 13.9098C26.2717 13.9095 26.1391 13.9469 26.024 14.0179C25.8332 14.1352 25.6968 14.3235 25.6448 14.5414C25.5928 14.7592 25.6295 14.9888 25.7467 15.1796L26.6908 16.7149C26.707 16.7411 26.733 16.7599 26.763 16.767C26.793 16.7742 26.8246 16.7691 26.8509 16.753L28.386 15.809C28.5767 15.6915 28.7129 15.5032 28.7649 15.2854C28.8169 15.0676 28.7804 14.8381 28.6633 14.6472C28.5501 14.4631 28.3648 14.3411 28.1414 14.3036C27.9225 14.267 27.6833 14.3152 27.4854 14.4374L27.4131 14.482C27.3804 14.5021 27.3412 14.5083 27.3039 14.4995C27.2666 14.4906 27.2344 14.4673 27.2143 14.4346L27.1699 14.3622C27.0481 14.1643 26.8567 14.0129 26.6448 13.9463C26.5679 13.9221 26.4876 13.9098 26.4069 13.9098Z" fill="#000072"/>
</g>
<defs>
<clipPath id="clip0_48_6415">
<rect width="29.0769" height="30" fill="white"/>
</clipPath>
</defs>
</svg>
