<svg xmlns="http://www.w3.org/2000/svg" id="download" viewBox="0 0 512 512" width="60px" height="60px">
                <g>
                  <g>
                    <path d="M373.399,56.93C371.54,55.07,368.96,54,366.33,54c-2.641,0-5.21,1.07-7.07,2.93c-1.87,1.86-2.93,4.44-2.93,7.07    s1.06,5.21,2.93,7.07c1.86,1.86,4.429,2.93,7.07,2.93c2.63,0,5.21-1.07,7.069-2.93c1.86-1.86,2.931-4.44,2.931-7.07    S375.26,58.79,373.399,56.93z"></path>
                  </g>
                </g>
                <g>
                  <g>
                    <path d="M348.369,102h-64c-5.522,0-10,4.477-10,10v64c0,5.523,4.478,10,10,10h64c5.522,0,10-4.477,10-10v-64    C358.369,106.477,353.891,102,348.369,102z M338.369,166h-44v-44h44V166z"></path>
                  </g>
                </g>
                <g>
                  <g>
                    <path d="M348.369,214h-64c-5.522,0-10,4.477-10,10v64c0,5.523,4.478,10,10,10h64c5.523,0,10-4.477,10-10v-64    C358.369,218.477,353.891,214,348.369,214z M338.369,278h-44v-44h44V278z"></path>
                  </g>
                </g>
                <g>
                  <g>
                    <path d="M316.369,326h-32c-5.522,0-10,4.477-10,10v64c0,5.523,4.478,10,10,10c5.522,0,10-4.477,10-10v-54h22    c5.522,0,10-4.477,10-10S321.891,326,316.369,326z"></path>
                  </g>
                </g>
                <g>
                  <g>
                    <path d="M236.333,102c-5.522,0-10,4.477-10,10v54h-54c-5.522,0-10,4.477-10,10s4.478,10,10,10h64c5.522,0,10-4.477,10-10v-64    C246.333,106.477,241.855,102,236.333,102z"></path>
                  </g>
                </g>
                <g>
                  <g>
                    <path d="M236.333,214h-64c-5.522,0-10,4.477-10,10v64c0,5.523,4.478,10,10,10h64c5.522,0,10-4.477,10-10v-64    C246.333,218.477,241.855,214,236.333,214z M226.333,278h-44v-44h44V278z"></path>
                  </g>
                </g>
                <g>
                  <g>
                    <path d="M236.333,326h-64c-5.522,0-10,4.477-10,10v64c0,5.523,4.478,10,10,10h64c5.522,0,10-4.477,10-10v-64    C246.333,330.477,241.855,326,236.333,326z M226.333,390h-44v-44h44V390z"></path>
                  </g>
                </g>
                <g>
                  <g>
                    <path d="M262.799,469.2c-1.86-1.87-4.44-2.93-7.07-2.93s-5.209,1.06-7.069,2.93c-1.86,1.86-2.931,4.43-2.931,7.07    c0,2.63,1.07,5.2,2.931,7.07c1.859,1.86,4.439,2.93,7.069,2.93s5.21-1.07,7.07-2.93c1.86-1.87,2.93-4.44,2.93-7.07    C265.729,473.63,264.66,471.06,262.799,469.2z"></path>
                  </g>
                </g>
                <g>
                  <g>
                    <path d="M391.994,0H120.006c-16.542,0-30,13.458-30,30v3.987H30c-16.542,0-30,13.458-30,30v92c0,16.542,13.458,30,30,30h92    c16.542,0,30-13.458,30-30V74h168c5.522,0,10-4.477,10-10s-4.478-10-10-10H150.284C146.16,42.354,135.041,33.987,122,33.987    h-11.994V30c0-5.514,4.486-10,10-10h271.988c5.514,0,10,4.486,10,10v226c0,5.523,4.478,10,10,10c5.522,0,10-4.477,10-10V30    C421.994,13.458,408.536,0,391.994,0z M132,155.987c0,5.514-4.486,10-10,10H30c-5.514,0-10-4.486-10-10v-3.633    c0.555-0.366,1.082-0.794,1.571-1.283l31.679-31.679l22.179,22.179c3.906,3.905,10.236,3.905,14.143,0L132,99.143V155.987z     M122,53.987c5.514,0,10,4.486,10,10v6.871l-49.5,49.5L60.321,98.179c-3.906-3.905-10.236-3.905-14.143,0L20,124.357v-60.37    c0-5.514,4.486-10,10-10H122z"></path>
                  </g>
                </g>
                <g>
                  <g>
                    <path d="M482,290H374c-16.542,0-30,13.458-30,30v108c0,16.542,13.458,30,30,30h27.994v24c0,5.514-4.486,10-10,10H120.006    c-5.514,0-10-4.486-10-10v-24h211.343c5.522,0,10-4.477,10-10s-4.478-10-10-10H110.006V224c0-5.523-4.478-10-10-10    c-5.522,0-10,4.477-10,10v258c0,16.542,13.458,30,30,30h271.988c16.542,0,30-13.458,30-30v-24H482c16.542,0,30-13.458,30-30V320    C512,303.458,498.542,290,482,290z M492,428c0,5.514-4.486,10-10,10H374c-5.514,0-10-4.486-10-10V320c0-5.514,4.486-10,10-10h108    c5.514,0,10,4.486,10,10V428z"></path>
                  </g>
                </g>
                <g>
                  <g>
                    <path d="M458.063,102c-5.522,0-10,4.477-10,10v79.647c0,5.523,4.477,10,10,10c5.522,0,10-4.477,10-10V112    C468.063,106.477,463.585,102,458.063,102z"></path>
                  </g>
                </g>
                <g>
                  <g>
                    <path d="M465.13,222.64c-1.86-1.86-4.44-2.93-7.07-2.93s-5.21,1.07-7.069,2.93c-1.86,1.86-2.931,4.44-2.931,7.07    s1.07,5.21,2.931,7.07c1.859,1.86,4.439,2.93,7.069,2.93s5.21-1.07,7.07-2.93c1.87-1.86,2.93-4.44,2.93-7.07    S467,224.5,465.13,222.64z"></path>
                  </g>
                </g>
                <g>
                  <g>
                    <path d="M54,230.982c-5.522,0-10,4.477-10,10v68.866c0,5.523,4.478,10,10,10s10-4.477,10-10v-68.866    C64,235.459,59.522,230.982,54,230.982z"></path>
                  </g>
                </g>
                <g>
                  <g>
                    <path d="M459.181,355.173l-35.104-20.248c-6.808-3.926-14.934-3.923-21.737,0.007c-6.804,3.931-10.866,10.968-10.866,18.826    v40.482c0,7.856,4.062,14.894,10.864,18.825c3.405,1.967,7.141,2.951,10.877,2.951c3.729,0,7.458-0.98,10.857-2.94l35.104-20.235    c6.814-3.928,10.883-10.969,10.884-18.834C470.061,366.143,465.993,359.102,459.181,355.173z M449.188,375.515l-35.104,20.235    c-0.577,0.332-1.163,0.331-1.74-0.001c-0.577-0.334-0.87-0.841-0.87-1.508v-40.482c0-0.667,0.293-1.174,0.87-1.508    c0.289-0.167,0.58-0.25,0.871-0.25s0.581,0.083,0.87,0.25l35.104,20.248c0.578,0.333,0.871,0.841,0.871,1.508    C450.06,374.673,449.767,375.181,449.188,375.515z"></path>
                  </g>
                </g>
              </svg>