<svg xmlns="http://www.w3.org/2000/svg" id="people" viewBox="0 0 512 512" width="60px" height="60px">
                <g>
                  <g>
                    <path d="M319.008,281.931c-1.861-1.86-4.44-2.93-7.07-2.93c-2.64,0-5.21,1.069-7.069,2.93c-1.87,1.86-2.931,4.44-2.931,7.07    s1.061,5.21,2.931,7.069c1.859,1.86,4.439,2.931,7.069,2.931s5.21-1.07,7.07-2.931c1.86-1.859,2.93-4.439,2.93-7.069    S320.869,283.791,319.008,281.931z"></path>
                  </g>
                </g>
                <g>
                  <g>
                    <path d="M180.469,312.617c-5.522,0-10,4.478-10,10v28.837h-19v-28.837c0-5.522-4.478-10-10-10c-5.522,0-10,4.478-10,10v34.125    c0,8.112,6.601,14.712,14.713,14.712h29.575c8.112,0,14.712-6.6,14.712-14.712v-34.125    C190.469,317.095,185.992,312.617,180.469,312.617z"></path>
                  </g>
                </g>
                <g>
                  <g>
                    <path d="M226.679,260.472c-36.232-36.233-95.185-36.233-131.418,0c-3.905,3.905-3.905,10.237,0,14.143    c3.906,3.904,10.236,3.904,14.143,0c28.434-28.434,74.699-28.434,103.133,0c1.953,1.952,4.512,2.929,7.071,2.929    c2.559,0,5.118-0.977,7.071-2.929C230.583,270.71,230.583,264.378,226.679,260.472z"></path>
                  </g>
                </g>
                <g>
                  <g>
                    <path d="M80.311,230.86c-3.905-3.904-10.235-3.904-14.142,0l-0.261,0.26c-3.905,3.905-3.905,10.237,0,14.143    c1.953,1.952,4.512,2.929,7.071,2.929s5.118-0.977,7.071-2.929l0.261-0.26C84.216,241.098,84.216,234.766,80.311,230.86z"></path>
                  </g>
                </g>
                <g>
                  <g>
                    <path d="M256.029,231.119c-21.007-21.007-47.634-34.203-77.004-38.163c-28.42-3.833-57.833,1.632-82.827,15.384    c-4.839,2.663-6.604,8.743-3.941,13.582c2.663,4.84,8.746,6.603,13.582,3.941c44.306-24.378,100.249-16.399,136.048,19.398    c1.953,1.954,4.512,2.93,7.071,2.93c2.56,0,5.118-0.977,7.071-2.929C259.935,241.357,259.935,235.025,256.029,231.119z"></path>
                  </g>
                </g>
                <g>
                  <g>
                    <path d="M449.523,160.24l-18.37-18.369c-5.757-5.757-13.411-8.928-21.553-8.928c-7.636,0-14.843,2.789-20.458,7.886    l-17.973-17.974c10.829-11.948,10.482-30.484-1.042-42.01l-18.371-18.371c-8.818-8.816-23.166-8.816-31.988,0    c-23.854,23.855-23.854,62.67,0,86.524l43.231,43.23c11.556,11.556,26.92,17.92,43.262,17.92s31.706-6.364,43.261-17.92    c4.273-4.271,6.626-9.952,6.626-15.994C456.148,170.193,453.794,164.512,449.523,160.24z M435.38,178.087    c-7.778,7.778-18.119,12.063-29.119,12.063s-21.341-4.284-29.119-12.063l-43.231-43.23c-16.057-16.056-16.057-42.183-0.001-58.239    c0.511-0.511,1.182-0.766,1.853-0.766c0.671,0,1.342,0.255,1.852,0.766l18.371,18.371c4.086,4.085,4.086,10.733,0,14.819    l-3.944,3.944c-2.439,2.438-3.783,5.681-3.783,9.13c0,3.447,1.343,6.688,3.78,9.127l27.955,27.955    c5.031,5.025,13.216,5.026,18.251-0.003l3.947-3.948c1.979-1.979,4.61-3.069,7.409-3.069s5.431,1.091,7.41,3.07l18.37,18.37    c0.635,0.634,0.768,1.357,0.768,1.852C436.148,176.73,436.015,177.453,435.38,178.087z"></path>
                  </g>
                </g>
                <g>
                  <g>
                    <path d="M378.998,0c-37.171,0-70.823,15.334-94.98,40.001H30.003c-16.542,0-30,13.458-30,30v412c0,16.542,13.458,30,30,30h41.981    c5.522,0,10-4.478,10-10c0-5.522-4.478-10-10-10H30.003c-5.514,0-10-4.486-10-10v-24h86.231c0.248,0,0.491-0.019,0.734-0.037    v44.037c0,5.522,4.478,10,10,10c5.522,0,10-4.478,10-10V328.386c0-18.748,15.252-34,34-34s34,15.252,34,34v173.615    c0,5.522,4.478,10,10,10c5.522,0,10-4.478,10-10v-44h86.966v24c0,5.514-4.486,10-10,10h-45.938c-5.522,0-10,4.478-10,10    c0,5.522,4.478,10,10,10h45.938c16.542,0,30-13.458,30-30V329.119c0-5.522-4.478-10-10-10c-5.522,0-10,4.478-10,10v108.882    h-86.966V328.386c0-29.775-24.225-54-54-54c-29.775,0-54,24.225-54,54v109.652c-0.243-0.018-0.486-0.037-0.734-0.037H20.003v-324    h203.981c5.522,0,10-4.478,10-10c0-5.522-4.478-10-10-10H20.003v-24c0-5.514,4.486-10,10-10h237.875    c-13.823,20.97-21.881,46.059-21.881,72.999c0,73.337,59.663,133,133,133s133-59.663,133-133S452.335,0,378.998,0z M378.998,246    c-62.309,0-113-50.691-113-113s50.691-113,113-113s113,50.691,113,113S441.307,246,378.998,246z"></path>
                  </g>
                </g>
              </svg>