<svg width="90" height="97" viewBox="0 0 90 97" fill="none" xmlns="http://www.w3.org/2000/svg">
<path d="M19.9298 39.0634H6.42192C4.80601 39.068 3.2576 39.712 2.11497 40.8546C0.972346 41.9973 0.328372 43.5457 0.32373 45.1616V57.0101C0.328887 58.6256 0.973093 60.1735 2.11567 61.3157C3.25824 62.4579 4.80635 63.1016 6.42192 63.1063H19.9298C20.0784 63.1058 20.2208 63.0465 20.3259 62.9414C20.431 62.8363 20.4902 62.6939 20.4908 62.5453V39.6244C20.4902 39.4757 20.431 39.3334 20.3259 39.2283C20.2208 39.1232 20.0784 39.0639 19.9298 39.0634Z" fill="url(#paint0_linear_102_889)"/>
<path d="M69.8666 39.0634H83.3745C84.9902 39.068 86.5384 39.7121 87.6808 40.8548C88.8231 41.9974 89.4666 43.5458 89.4707 45.1616V57.0101C89.4661 58.6255 88.8223 60.1734 87.6801 61.3156C86.5378 62.4579 84.9899 63.1016 83.3745 63.1063H69.8666C69.7177 63.1063 69.5748 63.0472 69.4693 62.9421C69.3638 62.837 69.3042 62.6943 69.3037 62.5453V39.6244C69.3042 39.4754 69.3638 39.3327 69.4693 39.2276C69.5748 39.1224 69.7177 39.0634 69.8666 39.0634Z" fill="url(#paint1_linear_102_889)"/>
<path d="M42.7412 11.4751H47.051V28.5109H42.7412V11.4751Z" fill="url(#paint2_linear_102_889)"/>
<path d="M22.7975 90.0869C29.2883 94.5881 36.9988 97.0001 44.8976 97.0002C66.3155 97.0002 83.6797 79.6379 83.6797 58.22C83.6797 36.802 66.3155 19.4378 44.8976 19.4378C35.8107 19.4383 27.0124 22.6293 20.0378 28.454C13.0632 34.2787 8.35514 42.3674 6.73503 51.3087C5.50038 58.7382 6.11495 66.3575 8.5244 73.4932C10.9338 80.6288 15.064 87.061 20.5498 92.2213L20.9583 89.5338L22.7975 90.0869Z" fill="url(#paint3_linear_102_889)"/>
<path d="M20.565 42.7773C21.9581 40.5888 23.6384 38.597 25.5608 36.855C28.0721 39.4437 31.0775 41.5019 34.3991 42.9073C37.7206 44.3128 41.2905 45.037 44.8972 45.037C48.5038 45.037 52.0737 44.3128 55.3952 42.9073C58.7168 41.5019 61.7222 39.4437 64.2335 36.855C69.1003 41.2591 72.3179 47.1926 73.354 53.6741C74.39 60.1555 73.1824 66.7964 69.931 72.4982H69.9017C67.9697 75.711 65.2389 78.3691 61.9752 80.2138C58.7115 82.0586 55.0258 83.0271 51.2768 83.0253H30.2283L20.5493 92.2117C15.7857 84.8445 13.2528 76.2575 13.2556 67.4844C13.2584 58.7112 15.7967 50.1259 20.565 42.7617V42.7773Z" fill="white"/>
<path d="M44.8972 2.36991e-07C46.4914 0.00038679 48.0496 0.473463 49.3749 1.3594C50.7002 2.24534 51.733 3.50437 52.3428 4.97727C52.9526 6.45018 53.112 8.07083 52.8007 9.6343C52.4895 11.1978 51.7216 12.6338 50.5943 13.7609C49.4669 14.888 48.0306 15.6555 46.4671 15.9664C44.9036 16.2772 43.2829 16.1175 41.8102 15.5074C40.3374 14.8972 39.0787 13.8641 38.193 12.5386C37.3074 11.2131 36.8347 9.6547 36.8347 8.06055C36.8347 7.00186 37.0433 5.95354 37.4485 4.97546C37.8537 3.99738 38.4476 3.10871 39.1963 2.36019C39.945 1.61167 40.8338 1.01798 41.812 0.613015C42.7902 0.208049 43.8385 -0.000256478 44.8972 2.36991e-07Z" fill="url(#paint4_linear_102_889)"/>
<path d="M59.7417 62.5727C62.7424 62.5727 65.1765 60.1387 65.1765 57.1369C65.1765 54.1351 62.7485 51.7011 59.7417 51.7011C56.735 51.7011 54.3049 54.1351 54.3049 57.1369C54.3049 60.1387 56.739 62.5727 59.7417 62.5727Z" fill="url(#paint5_linear_102_889)"/>
<path d="M30.4238 62.5727C27.4217 62.5727 24.988 60.1387 24.988 57.1369C24.988 54.1351 27.4156 51.7011 30.4238 51.7011C33.432 51.7011 35.8596 54.1351 35.8596 57.1369C35.8596 60.1387 33.4259 62.5727 30.4238 62.5727Z" fill="url(#paint6_linear_102_889)"/>
<path d="M6.73478 51.3086C7.51235 47.0058 9.01247 42.8656 11.1716 39.0634H6.50219C5.63439 41.3259 4.98003 43.6646 4.54764 46.0489C3.61658 51.6422 3.73189 57.3597 4.88773 62.9108C5.35269 63.0317 5.83031 63.0973 6.31065 63.1063C6.07077 60.5531 6.04592 57.9842 6.23637 55.4269C6.33801 54.0548 6.50285 52.682 6.73088 51.3086H6.73478Z" fill="#2BB688"/>
<path d="M83.0618 51.3086C82.2843 47.0058 80.7841 42.8656 78.625 39.0634H83.2944C84.1622 41.3259 84.8166 43.6646 85.249 46.0489C86.18 51.6422 86.0647 57.3597 84.9089 62.9108C84.4439 63.0318 83.9663 63.0974 83.486 63.1063C83.7258 60.5531 83.7507 57.9842 83.5602 55.4269C83.4586 54.0548 83.2938 52.682 83.0657 51.3086H83.0618Z" fill="#2BB688"/>
<path d="M64.2335 36.855C61.7223 39.4437 58.7168 41.5019 55.3953 42.9073C52.0738 44.3128 48.5038 45.037 44.8972 45.037C41.2906 45.037 37.7206 44.3128 34.3991 42.9073C31.0776 41.5019 28.0721 39.4437 25.5609 36.855C23.6384 38.597 21.9582 40.5888 20.565 42.7773L20.4908 42.8907C15.3063 50.9504 12.7987 60.4413 13.3254 70.01C13.7576 62.14 16.2267 54.5172 20.4908 47.8884C20.5162 47.8493 20.5396 47.8103 20.565 47.7731C21.9584 45.586 23.6387 43.5955 25.5609 41.8547C28.0721 44.4435 31.0776 46.5016 34.3991 47.9071C37.7206 49.3126 41.2906 50.0368 44.8972 50.0368C48.5038 50.0368 52.0738 49.3126 55.3953 47.9071C58.7168 46.5016 61.7223 44.4435 64.2335 41.8547C69.6329 46.7321 72.9849 53.4733 73.6154 60.722C73.6857 59.8985 73.7216 59.0658 73.7229 58.2241C73.7253 54.1977 72.8827 50.2156 71.2494 46.5353C69.6162 42.855 67.2287 39.5585 64.2414 36.8589L64.2335 36.855Z" fill="#2BB688"/>
<path d="M20.5496 92.2212L22.7973 90.0868L30.2246 83.025H51.277C55.026 83.0268 58.7117 82.0582 61.9754 80.2135C65.2392 78.3688 67.9699 75.7107 69.9019 72.4978H69.9312C71.5953 69.5921 72.7358 66.4165 73.3009 63.116C73.4312 62.3342 73.5334 61.538 73.6077 60.7276C73.682 59.9171 73.7178 59.0844 73.7152 58.2296C73.7152 57.741 73.7015 57.2523 73.6781 56.7715C73.458 61.2812 72.1741 65.6748 69.9312 69.5934H69.9019C67.9699 72.8062 65.2392 75.4643 61.9754 77.309C58.7117 79.1538 55.026 80.1224 51.277 80.1206H29.3704L20.5496 92.2388V92.2212Z" fill="#2BB688"/>
<path d="M37.9827 69.6118C37.9827 69.6118 41.9648 73.0353 44.8297 73.0353C47.6946 73.0353 51.6768 69.6118 51.6768 69.6118" stroke="#2BB688" stroke-width="1.2" stroke-linecap="round"/>
<defs>
<linearGradient id="paint0_linear_102_889" x1="10.4097" y1="75.6087" x2="10.4097" y2="37.2444" gradientUnits="userSpaceOnUse">
<stop stop-color="#1BB682"/>
<stop offset="1" stop-color="#3AEDB1"/>
</linearGradient>
<linearGradient id="paint1_linear_102_889" x1="79.3897" y1="75.6087" x2="79.3897" y2="37.2444" gradientUnits="userSpaceOnUse">
<stop stop-color="#1BB682"/>
<stop offset="1" stop-color="#3AEDB1"/>
</linearGradient>
<linearGradient id="paint2_linear_102_889" x1="44.8966" y1="37.3696" x2="44.8966" y2="10.1862" gradientUnits="userSpaceOnUse">
<stop stop-color="#1BB682"/>
<stop offset="1" stop-color="#3AEDB1"/>
</linearGradient>
<linearGradient id="paint3_linear_102_889" x1="44.9066" y1="137.333" x2="44.9066" y2="13.5699" gradientUnits="userSpaceOnUse">
<stop stop-color="#1BB682"/>
<stop offset="1" stop-color="#3AEDB1"/>
</linearGradient>
<linearGradient id="paint4_linear_102_889" x1="44.8972" y1="24.5042" x2="44.8972" y2="-1.21964" gradientUnits="userSpaceOnUse">
<stop stop-color="#1BB682"/>
<stop offset="1" stop-color="#3AEDB1"/>
</linearGradient>
<linearGradient id="paint5_linear_102_889" x1="59.742" y1="68.226" x2="59.742" y2="50.8786" gradientUnits="userSpaceOnUse">
<stop stop-color="#1BB682"/>
<stop offset="1" stop-color="#3AEDB1"/>
</linearGradient>
<linearGradient id="paint6_linear_102_889" x1="30.4251" y1="68.226" x2="30.4251" y2="50.8786" gradientUnits="userSpaceOnUse">
<stop stop-color="#1BB682"/>
<stop offset="1" stop-color="#3AEDB1"/>
</linearGradient>
</defs>
</svg>
